<svg xmlns="http://www.w3.org/2000/svg" viewBox="0 0 95.87 197.76"><defs><style>.cls-1{isolation:isolate;}.cls-2{fill:#98d2ca;}.cls-10,.cls-11,.cls-12,.cls-18,.cls-2,.cls-21,.cls-25,.cls-30,.cls-33,.cls-35,.cls-4,.cls-7,.cls-9{mix-blend-mode:multiply;}.cls-12,.cls-17,.cls-2,.cls-28,.cls-33,.cls-35,.cls-9{opacity:0.5;}.cls-12,.cls-14,.cls-3,.cls-4{fill:#c83634;}.cls-4{opacity:0.25;}.cls-24,.cls-25,.cls-5,.cls-7{fill:#f8e9d0;}.cls-6{fill:#ebb18e;}.cls-11,.cls-22,.cls-8,.cls-9{fill:#8dcbd2;}.cls-10,.cls-18{opacity:0.34;}.cls-13{fill:#6f3a1e;}.cls-14,.cls-17,.cls-19,.cls-20,.cls-22,.cls-23,.cls-24,.cls-27,.cls-28,.cls-31,.cls-32,.cls-34{mix-blend-mode:screen;}.cls-15,.cls-31,.cls-32{fill:#fff;}.cls-16,.cls-18,.cls-19,.cls-28{fill:#294168;}.cls-20{opacity:0.6;}.cls-23,.cls-31{opacity:0.45;}.cls-25{opacity:0.62;}.cls-26{fill:#212f47;}.cls-29,.cls-30,.cls-33,.cls-34{fill:#f15e6b;}.cls-35{fill:#d3dbfd;}</style></defs><g class="cls-1"><g id="Capa_2" data-name="Capa 2"><g id="OBJECTS"><ellipse class="cls-2" cx="56.11" cy="186.83" rx="39.76" ry="10.93"/><path class="cls-3" d="M.37,49.26a.76.76,0,0,0-.11.22,11.29,11.29,0,0,0-.11,4.26,16.54,16.54,0,0,0,.91,4.34,8.37,8.37,0,0,0,8,5.73c10.9.19,10.33-9,10.33-10.76,0-1.1,0-2.2-.08-3.3,0-.91-.93-1-1.7-1.25a23.34,23.34,0,0,0-2.3-.56,24.42,24.42,0,0,0-4-.48,30,30,0,0,0-8,.55C2.36,48.24,1,48.31.37,49.26Z"/><path class="cls-4" d="M19.41,53.05c0-1.1,0-2.2-.08-3.3,0-.91-.93-1-1.7-1.25l-.5-.13c0,.88.06,1.76.06,2.64,0,1.76.56,11-10.34,10.77a8.64,8.64,0,0,1-4.51-1.31,8.3,8.3,0,0,0,6.74,3.34C20,64,19.41,54.81,19.41,53.05Z"/><path class="cls-5" d="M25,59.06l-1.49-.78s.93-3.56-1-5c-.59-.46-1.32-.82-1.87-1.33-.32-.3-.59-.77-1-.74-.72.06-.8,1.09-.58,1.61-.82-.47-4.28-1-3.73.92a2.38,2.38,0,0,0-1.55,2.21,1.53,1.53,0,0,1,0,.37,1.56,1.56,0,0,1-.2.41,1.48,1.48,0,0,0,0,1.33c0,.09-.09.26-.1.36-.16,1.49,1.55,2.46,2.67,3s3.08,1.21,4.42.66l2,1.69S26.19,59.87,25,59.06Z"/><path class="cls-6" d="M20.24,56.82A3.93,3.93,0,0,1,19.91,55a3.47,3.47,0,0,1,.15-.8,2.39,2.39,0,0,0-.34.77,3.07,3.07,0,0,0,.17,2,2.37,2.37,0,0,0,1.52,1.38,1.39,1.39,0,0,0,.63,0l.21-.06a1.41,1.41,0,0,1-.78-.15A2.73,2.73,0,0,1,20.24,56.82Z"/><path class="cls-6" d="M19.47,53.44a7.08,7.08,0,0,1-.4-1L18.91,52a2.87,2.87,0,0,0,.21,1.63,1.88,1.88,0,0,0,.88.79,3.62,3.62,0,0,0,.45.17A5.31,5.31,0,0,1,19.47,53.44Z"/><path class="cls-6" d="M17.3,60.46a1.19,1.19,0,0,0-.53-.86.89.89,0,0,0-.38-.15,1.53,1.53,0,0,1,.25.29,1.75,1.75,0,0,1,.27.76,1.24,1.24,0,0,1-.12.77.42.42,0,0,1-.27.21.4.4,0,0,0,.41-.08A1,1,0,0,0,17.3,60.46Z"/><path class="cls-6" d="M16.06,59.16a4.73,4.73,0,0,1-1.9-.88,4.49,4.49,0,0,1-.67-.6,3.13,3.13,0,0,0,.53.75,3.83,3.83,0,0,0,2,1.11,1.7,1.7,0,0,0,1.31-.1.81.81,0,0,0,.36-.51.71.71,0,0,0-.12-.52A1.36,1.36,0,0,0,17,58a.53.53,0,0,0-.25-.06A.7.7,0,0,1,17,58a1.44,1.44,0,0,1,.39.5.47.47,0,0,1-.24.65A1.66,1.66,0,0,1,16.06,59.16Z"/><path class="cls-6" d="M16.5,57.37a12,12,0,0,1-2-.85,2.69,2.69,0,0,1-.69-.58,2.06,2.06,0,0,0,.58.74,6.59,6.59,0,0,0,2,1.07,1.49,1.49,0,0,0,1.32,0,1.12,1.12,0,0,0,.54-.94,1.14,1.14,0,0,0-.4-.85,1.15,1.15,0,0,1,.2.83.89.89,0,0,1-.5.67A1.31,1.31,0,0,1,16.5,57.37Z"/><path class="cls-6" d="M17.87,55.72A4.43,4.43,0,0,1,15.58,54a2.18,2.18,0,0,1-.26-.84,2.81,2.81,0,0,1,0-.33,1.45,1.45,0,0,0-.06.33,2,2,0,0,0,.15.92,4,4,0,0,0,2.3,2,1.29,1.29,0,0,0,1,.11.86.86,0,0,0,.53-.8,1.82,1.82,0,0,0-.75-1.21,5,5,0,0,0-1-.71,7.53,7.53,0,0,1,.91.85,1.79,1.79,0,0,1,.55,1.07.52.52,0,0,1-.32.44A.94.94,0,0,1,17.87,55.72Z"/><path class="cls-6" d="M18.84,58.33a2.48,2.48,0,0,0-.76.82,1.81,1.81,0,0,0-.18.42,8.2,8.2,0,0,1,1.15-.91,8,8,0,0,1,1.29-.72,2.34,2.34,0,0,0-.46,0A2.42,2.42,0,0,0,18.84,58.33Z"/><path class="cls-7" d="M18.88,55.39c-.38.83-2.62,0-3.51-1.67l-.78.49a2.32,2.32,0,0,0-.77,1.72,1.53,1.53,0,0,1,0,.37,1.56,1.56,0,0,1-.2.41,1.36,1.36,0,0,0-.11.28c1.15.37,3.57,1.22,3.57,1.82,0,.8-2.48.46-3.57-1.13l0,0a1.63,1.63,0,0,0,.11.31c0,.09-.09.26-.1.36a1.47,1.47,0,0,0,0,.47c1,.33,3.11,1.12,2.78,1.94a4.91,4.91,0,0,1-.26.49l.13.06c1.22.55,3.08,1.21,4.42.66l2,1.69s3.65-3.84,2.5-4.65l-1.49-.78a8.59,8.59,0,0,0,.22-1.76c-.34.57-.86.94-1.7.27-1.79-1.43-1.16-2.74-1.16-2.74a8.53,8.53,0,0,1-1.8-2.43,1.66,1.66,0,0,0,0,1.18c-.69-.4-3.25-.82-3.71.2C16.31,53.39,19.19,54.68,18.88,55.39ZM17.66,57c0,.47-4.47-.63-2.67-2.35C16,55.13,17.69,56.51,17.66,57Z"/><path class="cls-8" d="M25.59,57.81c.17-.06,1.19,1.7,1.31,1.86,1.37,1.8,3.43,2.95,5.24,4.24A22.15,22.15,0,0,0,36.44,66a9.2,9.2,0,0,0,2.86.47c.8-2.7,4.4-14.67,5.6-16.79,1.36-2.4,4-5.17,4.18-5,3.13,3.31-2.83,27.4-6.34,29.37-.48.7-1.21.6-2.41.71-4.6.4-9.46-2.19-13-4.87A55.64,55.64,0,0,1,20.47,64S21.45,59.39,25.59,57.81Z"/><path class="cls-9" d="M25.59,57.81c.17-.06,1.19,1.7,1.31,1.86,1.37,1.8,3.43,2.95,5.24,4.24A22.15,22.15,0,0,0,36.44,66a9.2,9.2,0,0,0,2.86.47c.8-2.7,4.4-14.67,5.6-16.79,1.36-2.4,4-5.17,4.18-5,3.13,3.31-2.83,27.4-6.34,29.37-.48.7-1.21.6-2.41.71-4.6.4-9.46-2.19-13-4.87A55.64,55.64,0,0,1,20.47,64S21.45,59.39,25.59,57.81Z"/><path class="cls-8" d="M24.75,67.13a12.69,12.69,0,0,0,2.11,1.8c1.09.85,2.22,1.65,2.22,1.65s1.17.75,2.37,1.45a11,11,0,0,0,1.71.9,1.48,1.48,0,0,0,.89.12s-.34-.11-.78-.35a15.86,15.86,0,0,1-1.57-1l-2.25-1.6-2.33-1.49A18.37,18.37,0,0,0,24.75,67.13Z"/><g class="cls-10"><path class="cls-11" d="M39.14,68.2a2.64,2.64,0,0,0,.64,1.31,2.19,2.19,0,0,0,.46.38,3.45,3.45,0,0,1-.38-.45,3.53,3.53,0,0,1-.52-1.29,3.65,3.65,0,0,1,0-1.42,2.75,2.75,0,0,1,.19-.58,2.27,2.27,0,0,0-.29.56A2.8,2.8,0,0,0,39.14,68.2Z"/><path class="cls-11" d="M38.19,67.92a2.53,2.53,0,0,0,.11,1.15,2.58,2.58,0,0,0,.21.42,3.39,3.39,0,0,1-.11-1.55,3.68,3.68,0,0,1,.54-1.49,2.28,2.28,0,0,0-.32.37A2.75,2.75,0,0,0,38.19,67.92Z"/></g><path class="cls-9" d="M20.47,64s1-4.61,5.12-6.19c0,0,.11.06.19.16-1.29,1.75-3.16,5.73,3.17,9.85,8.3,5.42,11.56,3.2,11.56,3.2a14.11,14.11,0,0,1-1.17-2.87,7.07,7.07,0,0,1,0-1.89c.9-3,4.37-14.52,5.54-16.59,1.36-2.4,4-5.17,4.18-5,3.13,3.31-2.83,27.4-6.34,29.37-.48.7-1.21.6-2.41.71-4.6.4-9.46-2.19-13-4.87A55.64,55.64,0,0,1,20.47,64Z"/><path class="cls-12" d="M18.57,49.6c0,.94-4,1.7-8.85,1.7S.88,50.54.88,49.6s4-1.49,8.89-1.49S18.57,48.66,18.57,49.6Z"/><path class="cls-13" d="M9.72,51.3c3.74,0,6.94-.45,8.23-1.08-1.11-.64-4.43-1-8.4-1-3.73,0-7,.32-8.26.89C2.42,50.8,5.77,51.3,9.72,51.3Z"/><path class="cls-3" d="M16,62,16,62a5.38,5.38,0,0,0,3.58-5.59c-.15-3.6-2.7-4.83-4-5a.83.83,0,0,0-.93.72.82.82,0,0,0,.73.91c.25,0,2.42.41,2.55,3.42a3.76,3.76,0,0,1-2.39,4,.82.82,0,0,0-.56,1A.84.84,0,0,0,16,62Z"/><path class="cls-12" d="M15.53,60.45a3.76,3.76,0,0,0,2.39-4c-.13-3-2.3-3.38-2.55-3.42a.82.82,0,0,1-.73-.91.83.83,0,0,1,.93-.72l.33.06a.93.93,0,0,0-.27.84c.11.35,1.55.36,2.32,2.56s-.15,4.23.51,4.49c.34.13.69-.47.94-1.07A5.23,5.23,0,0,1,16,62L16,62a.84.84,0,0,1-1-.57A.82.82,0,0,1,15.53,60.45Z"/><path class="cls-14" d="M18.26,53.78a7.25,7.25,0,0,1,.95,1.9,2.94,2.94,0,0,0-.07-.64,3.82,3.82,0,0,0-.6-1.44,3.91,3.91,0,0,0-1.12-1.09,3,3,0,0,0-.57-.3A7.54,7.54,0,0,1,18.26,53.78Zm.78,3a3.32,3.32,0,0,0,.05.73,1.21,1.21,0,0,0,.28-.71,1.22,1.22,0,0,0-.19-.73A2.76,2.76,0,0,0,19,56.78Z"/><path class="cls-15" d="M7.94,55.22H7.47l.19-1.46a.25.25,0,0,0,0-.19.27.27,0,0,0-.19-.08H6.88a.25.25,0,0,0-.24.21l-.21,1.52H6l.19-1.46a.22.22,0,0,0-.06-.19.23.23,0,0,0-.18-.08H5.4a.25.25,0,0,0-.24.21L5,55.22H4.3a.25.25,0,0,0-.24.25V56a.25.25,0,0,0,.24.25h.5l-.11.83H4.08a.24.24,0,0,0-.24.24v.54a.25.25,0,0,0,.24.25h.47l-.2,1.5a.25.25,0,0,0,.06.2.23.23,0,0,0,.18.08h.55a.24.24,0,0,0,.24-.21l.21-1.57H6l-.2,1.5a.24.24,0,0,0,.24.28h.55a.24.24,0,0,0,.24-.21l.21-1.57h.65A.25.25,0,0,0,8,57.86v-.54a.25.25,0,0,0-.25-.24h-.5l.1-.83h.61A.25.25,0,0,0,8.19,56v-.53A.25.25,0,0,0,7.94,55.22ZM6.19,57.08H5.74l.11-.83H6.3Z"/><path class="cls-15" d="M11.19,53.49h-.68l-.12,0-1.29.7a.23.23,0,0,0-.12.27l.15.61a.24.24,0,0,0,.14.17.28.28,0,0,0,.22,0l.68-.37v4.76a.25.25,0,0,0,.25.25h.77a.25.25,0,0,0,.24-.25V53.73A.24.24,0,0,0,11.19,53.49Z"/><path class="cls-5" d="M50.53,174.6a8.51,8.51,0,0,0,.2-2.2l4.17-.46c-.2,1-.36,1.75-.44,2.06,0,0,0,1.37-.06,3.09-.08,2.51-.25,5.77-.63,6.63-.64,1.46-.73-4.89-.73-4.89s-2.17,5-3.56,5.58-6.35.24-6.63-.7S46.75,184.37,50.53,174.6Z"/><path class="cls-7" d="M47.37,180.43a1.65,1.65,0,0,0,.85.14c2.11-.15,3.7-3.42,5-8.44l1.73-.19c-.2,1-.36,1.75-.44,2.06,0,0,0,1.37-.06,3.09,0,.7,0,1.45-.09,2.2-.41.57-.82,1.12-1.2,1.61-.06-1.1-.07-2.07-.07-2.07a24,24,0,0,1-2.88,5c-.49.22-1.18.5-2,.77-2,.16-5.12-.19-5.34-.93S44.76,183.68,47.37,180.43Z"/><path class="cls-16" d="M46.25,181.63c-.18.72.37.79,2.41-.18,3-1.4,5.8-7.45,5.8-7.45s0,1.37-.06,3.09c-.08,2.51-.25,5.77-.63,6.63-.64,1.46-.73-4.89-.73-4.89s-2.17,5-3.56,5.58-6.35.24-6.63-.7C42.67,183.14,44.18,183.51,46.25,181.63Z"/><g class="cls-17"><path class="cls-16" d="M45.64,183.88a3.17,3.17,0,0,0,1.61-.18,6.87,6.87,0,0,0,1.48-.69,6.87,6.87,0,0,0,1.17-1.15,3.11,3.11,0,0,0,.74-1.44c-.07,0-.5.63-1,1.16a7.75,7.75,0,0,1-1.2.94,7.68,7.68,0,0,1-1.3.78C46.4,183.64,45.63,183.8,45.64,183.88Z"/></g><path class="cls-18" d="M43.21,183.33c.44.58,2.21,1.43,4.89.75,3.13-.79,4.69-6.48,4.69-6.48-3.72,5.72-6.48,5.11-6.75,4.81-.12-.12-.09-.35,0-.58l.23-.2c-.18.72.37.79,2.41-.18,3-1.4,5.8-7.45,5.8-7.45s0,1.37-.06,3.09c-.08,2.51-.25,5.77-.63,6.63-.64,1.46-.73-4.89-.73-4.89s-2.17,5-3.56,5.58-6.35.24-6.63-.7C42.79,183.52,42.93,183.43,43.21,183.33Z"/><path class="cls-16" d="M40.4,133.89c-.07-1.51-.11-3,0-4.5l10.33-.53.39,1.91s8.68,16.34,5.72,41.48c0,0-6.43,5.63-11.69,4.1a156.83,156.83,0,0,0-4.13-41S40.77,134.82,40.4,133.89Z"/><path class="cls-18" d="M40.4,133.89c-.07-1.51-.11-3,0-4.5l10.33-.53.39,1.91s8.68,16.34,5.72,41.48c0,0-6.43,5.63-11.69,4.1a156.83,156.83,0,0,0-4.13-41S40.77,134.82,40.4,133.89Z"/><path class="cls-19" d="M40.37,133.34c.16.36.37.87.6,1.38.4.92.83,1.82.83,1.82s.41.92.84,1.83.9,1.8.86,1.82a12.52,12.52,0,0,1-1-1.72c-.48-.89-.92-1.8-.92-1.8s-.4-.93-.76-1.87c-.14-.37-.27-.75-.38-1.06C40.39,133.61,40.38,133.48,40.37,133.34Z"/><path class="cls-19" d="M50.73,130.83a3,3,0,0,1,0-.65,3.4,3.4,0,0,1,.09.64c0,.39.08.91.13,1.42.07,1,.15,2.07.15,2.07l.08,2.07c0,.52,0,1,0,1.43a3.53,3.53,0,0,1,0,.65,2.24,2.24,0,0,1-.1-.64c0-.39-.08-.91-.12-1.42l-.16-2.07-.07-2.08C50.75,131.73,50.74,131.22,50.73,130.83Z"/><path class="cls-19" d="M51.55,133.35s.36,2.61.28,2.62-.57-2.58-.57-2.58-.36-2.61-.28-2.62S51.55,133.35,51.55,133.35Z"/><path class="cls-18" d="M40.37,129.39h.17c1.62,1.68,3.23,2.41,4.47,1a3.73,3.73,0,0,0,.63-1.21l5.06-.26.39,1.91s8.68,16.34,5.72,41.48c0,0-6.43,5.63-11.69,4.1,0,0,.16-3,.06-7.82,2.62,2.68,6.33,1.84,7.83-5.55,2-9.81-2.68-22.89-6.44-22.75-1.76.07-2.94,2.07-3.69,4.18-.51-2.95-1.13-6-1.89-9.07,0,0-.22-.52-.59-1.45C40.33,132.38,40.29,130.88,40.37,129.39Z"/><g class="cls-20"><path class="cls-16" d="M46.55,163.54a8.07,8.07,0,0,0,.07-1.57c0-.93,0-2.18-.12-3.43-.15-2.5-.46-5-.46-5s-.38-2.48-.93-4.92c-.27-1.22-.57-2.43-.83-3.33a8.35,8.35,0,0,0-.49-1.49,9.94,9.94,0,0,0,.26,1.54c.19.92.43,2.14.65,3.36.44,2.45.75,4.92.75,4.92s.38,2.46.63,4.93c.13,1.24.23,2.48.3,3.41A10.58,10.58,0,0,0,46.55,163.54Z"/></g><path class="cls-16" d="M66,176.31v.21c0,1.09.06,6-.6,6.51s-.51-5.77-.51-5.77"/><path class="cls-18" d="M66,176.31v.21c0,1.09.06,6-.6,6.51s-.51-5.77-.51-5.77"/><path class="cls-5" d="M69,124.72,66.1,135.08s6.84,5.21-.43,38c-.26,1.14.44,2.49.29,3.64a14.51,14.51,0,0,1-3.82,7.49c-.85.85-5.38,2.81-4.41.25,1.59-4.21,2.67-5.32,3.87-8.28.89-2.21.58-3.4.39-5.81-.41-5.31-.9-10.62-1.31-15.94-.48-6.16-1-12.4-2.06-18.49a69.71,69.71,0,0,1,.54-24.6C61.12,102.52,73.51,95.07,69,124.72Z"/><path class="cls-7" d="M60.05,179.4a1.37,1.37,0,0,0,1.07.94c2.54.24,4.62-9.63,5.75-19.64s-.31-20.73-3.23-23c-2-1.53-3.67-.17-4.59.9-.14-.88-.27-1.77-.43-2.64a69.71,69.71,0,0,1,.54-24.6c.78-3.51,3.2-6.8,5.56-7.63a28,28,0,0,1,4.65,3.88c.83,3.25.91,8.68-.38,17.12L66.1,135.08s6.84,5.21-.43,38c-.26,1.14.44,2.49.29,3.64a14.51,14.51,0,0,1-3.82,7.49c-.85.85-5.38,2.81-4.41.25A39.32,39.32,0,0,1,60.05,179.4Z"/><path class="cls-16" d="M59.63,180.21c-.74,2,0,2.6,1.36,2.1,3.43-1.3,4.55-8.55,4.55-8.55l.08,0a22.93,22.93,0,0,1,.34,3,14.51,14.51,0,0,1-3.82,7.49c-.85.85-5.38,2.81-4.41.25A35.34,35.34,0,0,1,59.63,180.21Z"/><path class="cls-5" d="M62.06,132.48a.46.46,0,0,0,.47.44.47.47,0,0,0,.45-.47.46.46,0,0,0-.48-.44A.44.44,0,0,0,62.06,132.48Z"/><path class="cls-5" d="M60.59,134.31a.82.82,0,1,0,.79-.84A.82.82,0,0,0,60.59,134.31Z"/><g class="cls-17"><path class="cls-16" d="M58.73,184.51a3.16,3.16,0,0,0,1.58-.29,4.84,4.84,0,0,0,2.54-2,3.26,3.26,0,0,0,.65-1.48c-.08,0-.46.65-1,1.22a8.12,8.12,0,0,1-1.14,1,8,8,0,0,1-1.24.87C59.47,184.21,58.71,184.43,58.73,184.51Z"/></g><path class="cls-18" d="M62.14,184.22c-.8.79-4.85,2.58-4.53.66.31,1.07,2,.56,3.71-.65,2.5-1.79,4.19-6.65,4.07-6.94s-1.26,1.62-1.62,2.24l-.09.18v-.16a21,21,0,0,0,1.86-5.79l.08,0a22.93,22.93,0,0,1,.34,3A14.51,14.51,0,0,1,62.14,184.22Z"/><path class="cls-16" d="M49.87,134.39s.07.72.1,2a.7.7,0,0,0-.08.1c-2.09,2.86-6.65,5.87-8.63,1.19-1.06-2.53-1-5.89-1.34-8.6,0-4.3-.83-8.53-.67-12.88s.67-8.74,1.2-13.09c.83-6.82,1.69-14.75,5.35-20.74,0,0,16.27-2.71,18.76-1a47.57,47.57,0,0,1,7.7,20.68c1.13,11.53-3.62,31.43-3.62,31.43s6.1,17.18-.23,42.28c0,0-7.36,3.78-11.23-.1,0,0,2.87-22.51-.07-39.24A113.32,113.32,0,0,1,56.2,105S51.45,125.35,49.87,134.39Z"/><path class="cls-18" d="M49.87,134.39s.07.72.1,2a.7.7,0,0,0-.08.1c-2.09,2.86-6.65,5.87-8.63,1.19-1.06-2.53-1-5.89-1.34-8.6,0-4.3-.83-8.53-.67-12.88s.67-8.74,1.2-13.09c.83-6.82,1.69-14.75,5.35-20.74,0,0,16.27-2.71,18.76-1a47.57,47.57,0,0,1,7.7,20.68c1.13,11.53-3.62,31.43-3.62,31.43s6.1,17.18-.23,42.28c0,0-7.36,3.78-11.23-.1,0,0,2.87-22.51-.07-39.24A113.32,113.32,0,0,1,56.2,105S51.45,125.35,49.87,134.39Z"/><path class="cls-19" d="M57.27,100.82a6.5,6.5,0,0,0-.74,1.07,6.35,6.35,0,0,0-.56,1.19c-.23.62-.3,1.28-.34,1.28a3.43,3.43,0,0,1,.13-1.35,6.13,6.13,0,0,1,.51-1.27,6.31,6.31,0,0,1,.85-1.07,3.33,3.33,0,0,1,1.1-.78S57.7,100.31,57.27,100.82Z"/><path class="cls-19" d="M49.21,135.72c-.31,1-.63,2-.63,2s-.14.4-.34.94c-.13.15-.27.29-.4.43l.46-1.46.71-1.95.51-1.34a2.82,2.82,0,0,1,.26-.59,3.6,3.6,0,0,1-.15.63C49.51,134.72,49.36,135.22,49.21,135.72Z"/><path class="cls-19" d="M68.7,136a22.78,22.78,0,0,1-.15,2.33,18.25,18.25,0,0,1,0-4.67A23,23,0,0,1,68.7,136Z"/><path class="cls-19" d="M49,136.89s.65-2.56.73-2.54-.44,2.6-.44,2.6l-.12.49-.37.47C49,137.37,49,136.89,49,136.89Z"/><path class="cls-19" d="M68.46,134.09s-.24,1.1-.44,2.21l-.28,1.53a3.1,3.1,0,0,1-.15.69,3.64,3.64,0,0,1,0-.7c0-.43.11-1,.18-1.55.15-1.12.35-2.24.35-2.24s.23-1.1.51-2.2c.14-.55.29-1.1.41-1.5a3.19,3.19,0,0,1,.23-.67,3.42,3.42,0,0,1-.12.69c-.08.42-.2,1-.31,1.52C68.65,133,68.46,134.09,68.46,134.09Z"/><path class="cls-19" d="M52.56,102.72a5.7,5.7,0,0,1-.82-1.28s.47.59,1,1.14,1.06,1.06,1.06,1.06.54.52,1.13,1,1.23.86,1.21.9a6,6,0,0,1-1.33-.73,11.06,11.06,0,0,1-1.21-.94A12.51,12.51,0,0,1,52.56,102.72Z"/><path class="cls-19" d="M56.37,103.64a5.77,5.77,0,0,1,.89-1,11.22,11.22,0,0,1,1.11-.78,6.27,6.27,0,0,1,1.19-.62,10,10,0,0,1-1.08.8,12.72,12.72,0,0,0-1,.82,6.63,6.63,0,0,0-.91.94,8.1,8.1,0,0,0-.67,1.13A2.81,2.81,0,0,1,56.37,103.64Z"/><path class="cls-19" d="M66.7,130.65c.21-1.7.36-3.4.36-3.4s.19-1.7.32-3.4c.06-.86.12-1.71.16-2.35a9.14,9.14,0,0,1,.09-1.07,1,1,0,0,1,0,.3c0,.19,0,.45,0,.78,0,.64,0,1.49-.07,2.35-.08,1.71-.24,3.42-.24,3.42s-.18,1.71-.45,3.4c-.13.85-.27,1.69-.4,2.32-.06.32-.11.58-.15.76a1.94,1.94,0,0,1-.08.29,6.43,6.43,0,0,1,.12-1.07C66.47,132.35,66.58,131.5,66.7,130.65Z"/><path class="cls-19" d="M64.89,88.42c.12.19.25.43.4.71s.32.59.48,1a30.45,30.45,0,0,1,2,5.33,40.68,40.68,0,0,1,1.07,5.6c.1.77.16,1.42.19,1.87l0,.71s.07,1,.09,2.59,0,3.63-.17,5.7-.33,4.12-.5,5.67c-.08.77-.15,1.41-.2,1.86,0,.22,0,.4-.07.52a.85.85,0,0,1,0,.18s0-.06,0-.18l0-.53.15-1.87c.13-1.54.29-3.6.4-5.67s.14-4.12.1-5.67-.1-2.58-.1-2.58l0-.7c0-.45-.08-1.1-.17-1.87a40.68,40.68,0,0,0-1-5.57,33.09,33.09,0,0,0-1.88-5.34c-.16-.36-.32-.68-.46-1s-.26-.52-.37-.72L64.59,88l-.08-.16s0,.05.11.15Z"/><path class="cls-19" d="M66.43,172.24c.08-.47.19-1.14.33-1.94.27-1.6.64-3.74.95-5.89s.56-4.3.68-5.92.17-2.7.17-2.7.07-1.08.07-2.71a46.8,46.8,0,0,0-.32-5.94,39,39,0,0,0-1.15-5.83c-.11-.4-.21-.75-.32-1.07s-.18-.59-.26-.81-.13-.4-.17-.52l-.06-.19a.6.6,0,0,1,.09.18l.2.51c.09.22.18.49.29.81s.23.66.34,1.05a37.05,37.05,0,0,1,1.25,5.85,48.27,48.27,0,0,1,.39,6c0,1.64,0,2.72,0,2.72s0,1.09-.19,2.71-.41,3.79-.75,5.93-.74,4.28-1,5.88c-.16.8-.29,1.46-.38,1.93l-.12.54a.5.5,0,0,1-.05.19s0-.07,0-.2Z"/><path class="cls-18" d="M57.18,175.67s.32-2.52.63-6.5c.92,1.62,2.24,2.76,4.12,2.5,5.63-.78,6.22-22.71,4.08-28.15C64.3,139.16,59.7,141.8,58,143c-.2-2.25-.48-4.46-.85-6.58-.43-2.45-.76-4.86-1-7.18,2.32,4.55,8.16,6.93,11.53-8.52,4.17-19.11-5-35.66-4.75-36.41a7.72,7.72,0,0,1,1.46-3l.2.11a47.57,47.57,0,0,1,7.7,20.68c1.13,11.53-3.62,31.43-3.62,31.43s6.1,17.18-.23,42.28C68.41,175.77,61.05,179.55,57.18,175.67Z"/><path class="cls-18" d="M41.26,137.7c-1.06-2.53-1-5.89-1.34-8.6,0-.8,0-1.6-.08-2.4.87,3.51,2.28,6.2,4.55,5,5.38-2.83,7.51-29.45,7.51-29.45.54.27,3.86,3,4.19,3.24l-.07.28v.07l0,.18-.06.3-.07.28,0,.17c-.07.33-.16.7-.25,1.1l0,.13c0,.18-.08.36-.13.55l-.05.22-.12.55,0,.17c-.05.22-.1.43-.15.66l-.09.37c0,.15-.06.29-.1.45s-.1.46-.16.7l-.06.27c-.15.66-.3,1.35-.46,2.06l-.06.25c-.05.24-.11.49-.17.74s-.07.33-.11.49-.09.43-.14.64l-.1.45-.15.69c0,.15-.07.31-.1.47s-.11.46-.16.7l-.09.4c-.06.28-.12.57-.19.85,0,.11,0,.22-.07.33s-.11.5-.16.75-.07.32-.11.48-.11.53-.17.79,0,.24-.08.36c-.06.3-.12.6-.19.89l-.09.42c-.07.36-.15.71-.22,1.06l0,.17c-.07.33-.14.65-.2,1l-.09.4c-.05.24-.1.47-.14.7s-.07.32-.1.48-.09.44-.14.66l-.09.46c0,.2-.08.4-.13.6l-.09.47-.12.59-.09.45c0,.19-.07.39-.11.58s-.05.28-.08.42-.07.37-.11.55,0,.27-.07.4-.08.4-.11.6l-.06.29q-.08.44-.15.84h0s.06.55.09,1.56c0,.14,0,.3,0,.46a.7.7,0,0,0-.08.1C47.8,139.37,43.24,142.38,41.26,137.7Z"/><g class="cls-20"><path class="cls-16" d="M57.38,128.56a10.62,10.62,0,0,0-.14-1.49c-.11-.9-.23-2.09-.32-3.28-.17-2.39-.12-4.78-.12-4.78s0-2.39.18-4.77c.1-1.19.23-2.38.35-3.27a9.38,9.38,0,0,0,.16-1.5,7,7,0,0,0-.39,1.46c-.19.88-.39,2.07-.54,3.27-.31,2.39-.35,4.81-.35,4.81s0,2.42.29,4.82c.14,1.2.33,2.39.51,3.27A7.07,7.07,0,0,0,57.38,128.56Z"/><path class="cls-16" d="M43.46,92.3a.63.63,0,0,0,.3-.09.68.68,0,0,0-.3-.08.63.63,0,0,0-.3.08A.58.58,0,0,0,43.46,92.3Z"/><path class="cls-16" d="M41,120.52a15.42,15.42,0,0,0,.08-2.12c0-1.27.06-3,.12-4.66.13-3.38.44-6.75.44-6.75s.22-3.38.61-6.74c.2-1.69.42-3.37.6-4.63a16.64,16.64,0,0,0,.25-2.1,2,2,0,0,0-.16.56c-.08.36-.2.88-.32,1.51-.25,1.25-.53,2.92-.79,4.6-.5,3.36-.79,6.75-.79,6.75s-.23,3.4-.26,6.79c0,1.7,0,3.4.07,4.67,0,.64.05,1.17.08,1.54A2.58,2.58,0,0,0,41,120.52Z"/><path class="cls-16" d="M40.44,125c.16,0,.19-1.54.19-1.54s-.24-1.51-.41-1.5-.19,1.54-.19,1.54S40.27,125,40.44,125Z"/><path class="cls-16" d="M59.49,164.64a10.46,10.46,0,0,0,.24-1.67c.11-1,.23-2.34.31-3.68.18-2.68.22-5.37.22-5.37s0-2.69-.18-5.37c-.08-1.34-.18-2.68-.28-3.68a10.46,10.46,0,0,0-.24-1.67,10.83,10.83,0,0,0,0,1.68c0,1,.07,2.35.1,3.69.05,2.67,0,5.35,0,5.35s0,2.68-.05,5.35c0,1.34-.08,2.68-.12,3.69A9,9,0,0,0,59.49,164.64Z"/></g><path class="cls-18" d="M45.31,84.88A14,14,0,0,1,46.84,83C56.33,73.15,64.56,82,64.56,82a13.94,13.94,0,0,1,1.2,1.19l-8.91,5.53-3.79-3.8-4.43,2.85Z"/><path class="cls-8" d="M42.41,61.8c.26-3.21,1.84-6.16,3-9.11.9-2.24,1.89-6.32,3.9-7.89s12.34-.25,12.34-.25,8,3,8.27,4.23S65.82,62,65,66.53s-2.15,12-2.15,12L66.14,82,57,87.71l-3.8-3.8-4.43,2.85-4.11-3.6s2.48-2.37,3.08-4.39c-.47-1.87-1.22-8.16-2.89-10.48C43.32,66.19,42.19,64.41,42.41,61.8Z"/><path class="cls-9" d="M64,83.37a6.41,6.41,0,0,0-1.06-1.77c-1.43-1.72-4.42-.69-5.37-.3,1.8-1,3.63-6.53,3.14-8.81s-6-2.24-10.15-1.72a6.63,6.63,0,0,0-4,1.88,13.84,13.84,0,0,0-1.66-4.36c-1.5-2.1-2.63-3.88-2.41-6.49a13.14,13.14,0,0,1,.34-2.07,8.25,8.25,0,0,0,1.06,3.64c1.2,1.38,2.23.18,6.88,1.38s7.73.69,11-3.27c2.63-3.18,4.25-8.35,4.78-10.25a9.2,9.2,0,0,1,2,3.43c-1.28,4.09-3,9.24-3.47,11.87-.86,4.52-2.15,12-2.15,12L66.14,82Z"/><path class="cls-5" d="M61.12,41.08s.53,5.38-1.59,6.33-4.5,1-5.29-1.27,0-5.38,0-5.38S60.85,39.81,61.12,41.08Z"/><path class="cls-7" d="M55.21,47.49c3.42-.52,5.52-4.44,4.38-3.87s-4.49.12-5.7-.07a13.34,13.34,0,0,1,.35-2.79s6.61-.95,6.88.32c0,0,.53,5.38-1.59,6.33C58,48.1,56.32,48.28,55.21,47.49Z"/><g class="cls-21"><g class="cls-10"><path class="cls-11" d="M49.32,67.05c.06.89.18,2.09.36,3.28s.43,2.36.64,3.24S50.7,75,50.7,75s.16.58.44,1.43.71,2,1.06,3.12a14.75,14.75,0,0,1,.68,3.2c0,.45,0,.82,0,1.08a3.18,3.18,0,0,0,0,.41,1.88,1.88,0,0,0,.07-.41,8.24,8.24,0,0,0,0-1.09,13.89,13.89,0,0,0-.58-3.25c-.34-1.16-.74-2.28-1-3.14S51,74.94,51,74.94s-.17-.57-.39-1.44-.49-2-.7-3.21a15.55,15.55,0,0,1-.33-5.84c.09-.4.21-.8.33-1.19a31.49,31.49,0,0,1,1-3.34A104.6,104.6,0,0,0,55.48,47.8C55,49.23,54.3,50.62,53.74,52S52.57,55,52,56.49A42,42,0,0,0,49.32,65,8.87,8.87,0,0,0,49.32,67.05Z"/></g><g class="cls-10"><path class="cls-8" d="M53.05,68.44a4.36,4.36,0,0,0,.73.24,8.69,8.69,0,0,0,1.69.22,9.71,9.71,0,0,0,1.7-.1,5.26,5.26,0,0,0,.55-.11l.21,0,.21-.06c.13,0,.32-.09.53-.18a9.43,9.43,0,0,0,1.55-.72,10,10,0,0,0,1.37-1,3.78,3.78,0,0,0,.52-.57,7.25,7.25,0,0,0-.6.48,10.82,10.82,0,0,1-1.39.91,9.35,9.35,0,0,1-1.54.65c-.21.08-.39.12-.52.16l-.2,0-.2,0c-.13,0-.31.08-.54.12a9.51,9.51,0,0,1-1.65.16,10,10,0,0,1-1.66-.13A5.29,5.29,0,0,0,53.05,68.44Z"/></g><g class="cls-10"><path class="cls-8" d="M61.25,79.82a1.62,1.62,0,0,0,.66-.44,3.7,3.7,0,0,0,.51-.61,4.19,4.19,0,0,0,.3-.73,1.62,1.62,0,0,0,.08-.78,7.61,7.61,0,0,0-.28.71,4.73,4.73,0,0,1-.36.65,3.94,3.94,0,0,1-.41.62C61.52,79.53,61.23,79.78,61.25,79.82Z"/></g><g class="cls-10"><path class="cls-8" d="M48.75,80.42s-.27-.34-.48-.72a4,4,0,0,1-.33-.77,3.88,3.88,0,0,1-.22-.81c-.07-.41,0-.85-.08-.85a1.76,1.76,0,0,0-.13.87,3.51,3.51,0,0,0,.15.89,3.39,3.39,0,0,0,.44.79A1.66,1.66,0,0,0,48.75,80.42Z"/></g><g class="cls-10"><path class="cls-8" d="M43.66,66.77a2,2,0,0,0,.58.61,5.89,5.89,0,0,0,.7.5,6.61,6.61,0,0,0,.78.34,2.28,2.28,0,0,0,.84.18,5.4,5.4,0,0,0-.75-.38c-.37-.18-.72-.4-.72-.4a7.36,7.36,0,0,1-.72-.41A6.69,6.69,0,0,0,43.66,66.77Z"/></g></g><path class="cls-9" d="M55.84,48.22s-3.2,3-3.81,1.35l0-.11a26.78,26.78,0,0,1,1.88-4.61,2.69,2.69,0,0,0,2.33,2.35,4.44,4.44,0,0,0,4.56-2.66c.23,1.16.87,5.24-2.46,6.69C57.86,51.43,56.92,51,55.84,48.22Z"/><path class="cls-8" d="M61.14,43.13c0-.39,1.28,3.82-2.4,7.5,0,0-1.23,1.36-2.83-2.82,0,0-3.19,2.95-3.81,1.35s1.79-5.61,1.79-5.61-.18,2.88,2.4,3.24A4.47,4.47,0,0,0,61.14,43.13Z"/><path class="cls-22" d="M61.14,43.13c0-.39,1.28,3.82-2.4,7.5,0,0-1.23,1.36-2.83-2.82,0,0-3.19,2.95-3.81,1.35s1.79-5.61,1.79-5.61-.18,2.88,2.4,3.24A4.47,4.47,0,0,0,61.14,43.13Z"/><path class="cls-9" d="M52.1,48.62c.62,1.6,3.81-1.35,3.81-1.35,1.6,4.18,2.83,2.83,2.83,2.83a8.54,8.54,0,0,0,2.63-5.77,8.4,8.4,0,0,1-2.63,6.3S57.51,52,55.91,47.81c0,0-3.19,2.95-3.81,1.35a2.12,2.12,0,0,1-.08-.89A1.8,1.8,0,0,0,52.1,48.62Z"/><g class="cls-23"><path class="cls-8" d="M44,59.43a5,5,0,0,0,.19-.86,16.5,16.5,0,0,1,.53-1.84c.23-.66.49-1.31.69-1.8l.33-.81s1.84-5.33,1.68-5.39-2.24,5.18-2.24,5.18l-.28.83c-.17.5-.4,1.18-.58,1.87A10.59,10.59,0,0,0,44,58.53,2.11,2.11,0,0,0,44,59.43Z"/><path class="cls-8" d="M43.9,62c.16,0,.19-.81.19-.81s-.24-.76-.4-.74-.19.82-.19.82S43.73,62.06,43.9,62Z"/><path class="cls-8" d="M49.46,80.1c.06,0-.4-.72-.73-1.45a10.9,10.9,0,0,1-.55-1.49,9.79,9.79,0,0,1-.44-1.53c-.17-.78-.19-1.6-.27-1.6a3.74,3.74,0,0,0-.15,1.66,8.39,8.39,0,0,0,.29,1.65,8.5,8.5,0,0,0,.75,1.51A3.5,3.5,0,0,0,49.46,80.1Z"/><path class="cls-8" d="M48.4,85.2A23.09,23.09,0,0,0,46,82.9l-.07,0h0s0,0,0,0l.16-.14a6.29,6.29,0,0,0,.72-.67,2.69,2.69,0,0,0,.73-1.07,8.18,8.18,0,0,0-1,.8c-.25.2-.53.39-.76.54l-.45.27-.43.26.71.56A23.07,23.07,0,0,0,48.4,85.2Z"/></g><path class="cls-5" d="M74.29,22.39c.23-6.7-2.54-17.57-16.65-17.68S41.31,20.18,41.31,20.18A42.62,42.62,0,0,0,40,30.28c.17,4.38,2.44,10.88,12.6,11.92s18-3.23,19.82-9.47a5.2,5.2,0,0,0,4.79-4.19C77.92,25.66,76.34,22.74,74.29,22.39Z"/><g class="cls-21"><path class="cls-5" d="M74.29,22.39a21.75,21.75,0,0,0-.83-6.75,17.23,17.23,0,0,0-2.3-4.81c2,3.42,2.39,8.55,2.28,11.67.18,0,.6-.09.89-.1Z"/><path class="cls-5" d="M76.14,23.53a6,6,0,0,1,.41,4,5.2,5.2,0,0,1-4.79,4.18C69.94,38,62.11,42.25,52,41.21c-5.35-.55-8.51-2.62-10.34-5.09,1.68,2.9,4.94,5.46,11,6.08,10.16,1,18-3.23,19.82-9.47a5.2,5.2,0,0,0,4.79-4.19A5.8,5.8,0,0,0,76.14,23.53Z"/></g><path class="cls-6" d="M75,30.1a1,1,0,0,1-.42.83.71.71,0,0,1-.42.15.68.68,0,0,1-.51-.24,1.25,1.25,0,0,1-.31-.63.88.88,0,0,1,.22-.76,2.28,2.28,0,0,1,.43-.29.61.61,0,0,0,.21-.26.92.92,0,0,0,.06-.62A.43.43,0,0,0,74,28a.36.36,0,0,0-.13,0h-.13l-.08,0,0,0-.11.16a.55.55,0,0,1-.44.3.37.37,0,0,1-.26-.12.58.58,0,0,1-.15-.28,3.91,3.91,0,0,1-.08-.87,4.17,4.17,0,0,1,0-.61,3.37,3.37,0,0,1,.31-1.12,1.91,1.91,0,0,1,.59-.72c.43-.31.79-.22.79-.17s-.31.11-.62.45a2.48,2.48,0,0,0-.58,1.66,4.69,4.69,0,0,0,0,.53c0,.17,0,.13,0,.17s.07,0,.06,0h0l.09-.08a.93.93,0,0,1,.2-.1.9.9,0,0,1,.34-.06.7.7,0,0,1,.29.05.93.93,0,0,1,.28.16,1.36,1.36,0,0,1,.5.82,1.79,1.79,0,0,1-.19,1.22,1.13,1.13,0,0,1-.44.43c-.17.09-.31.13-.38.18a.25.25,0,0,0-.09.22.75.75,0,0,0,.13.34.42.42,0,0,0,.54.13C74.84,30.44,75,30.06,75,30.1Z"/><path class="cls-24" d="M75.65,24.74c.3.3.64.39.76.2s0-.58-.31-.88-.63-.39-.75-.2S75.36,24.45,75.65,24.74Z"/><path class="cls-24" d="M74.55,23.29a.34.34,0,0,0,.14.38.21.21,0,0,0,.32-.11.34.34,0,0,0-.14-.38A.21.21,0,0,0,74.55,23.29Z"/><path class="cls-25" d="M54.93,30.77a5.41,5.41,0,0,1-4.25-1.24s-1.22.74.9,1.59C54.41,32.26,54.93,30.77,54.93,30.77Z"/><path class="cls-6" d="M53.7,31.35a6.11,6.11,0,0,1-.89,0A5.35,5.35,0,0,1,51,30.71a1.11,1.11,0,0,1-.57-.64.52.52,0,0,1,.26-.54,1.28,1.28,0,0,1,.5-.21,1,1,0,0,1,.21,0,1.91,1.91,0,0,1,.5,0,2.56,2.56,0,0,1,.6.11,2.6,2.6,0,0,1,.36.13,6.86,6.86,0,0,1,.78.51c0-.31,0-.65,0-1,0-.19,0-.4,0-.6,0-.41,0-.83,0-1.21a6,6,0,0,0-.1-1.35,5.82,5.82,0,0,0-.19,1.34c0,.38-.06.8-.09,1.21,0,.21,0,.41,0,.61s0,.08,0,.09,0,0-.07-.06a3.15,3.15,0,0,0-.43-.19,3.4,3.4,0,0,0-.72-.16,2.47,2.47,0,0,0-.62,0l-.28.05a2.09,2.09,0,0,0-.7.34,1.31,1.31,0,0,0-.35.44,1,1,0,0,0-.05.66,1.55,1.55,0,0,0,.85.89,4.92,4.92,0,0,0,2,.51A1.31,1.31,0,0,0,53.7,31.35Z"/><path class="cls-24" d="M51.81,29.66c-.06.13.13.34.42.46s.57.12.62,0-.13-.34-.41-.47S51.87,29.52,51.81,29.66Z"/><path class="cls-7" d="M62.44,29.33c2.1.09,3.76,1.26,3.7,2.6s-1.82,2.35-3.92,2.26-3.76-1.26-3.7-2.6S60.33,29.24,62.44,29.33Zm-21.51-.11c-.3,1.31,1.1,2.75,3.13,3.22s3.91-.21,4.21-1.52-1.1-2.75-3.13-3.22S41.22,27.91,40.93,29.22Z"/><path class="cls-26" d="M61.19,20.41c0,.07.39,0,.73,0a4.39,4.39,0,0,1,1.28.33c.31.13.58.37.65.33s-.1-.41-.42-.68a1.8,1.8,0,0,0-1.54-.4C61.48,20.09,61.15,20.34,61.19,20.41Z"/><path class="cls-26" d="M48,19.17c0,.07-.38-.07-.72-.09A4.45,4.45,0,0,0,46,19.2c-.33.08-.64.27-.7.22s.17-.39.53-.61a1.8,1.8,0,0,1,1.58-.14C47.79,18.82,48.08,19.11,48,19.17Z"/><path class="cls-7" d="M42.65,17.9c1.43-4.55,5.29-12.35,15-12.28,13.62.11,16.29,11,16.06,17.68,2,.35,3.51,3.27,2.83,6.15a5.05,5.05,0,0,1-4.63,4.19,12,12,0,0,1-5.42,6.83,20.27,20.27,0,0,0,1.35-3.09C69.72,32,71,23.77,67.4,18.85a7.83,7.83,0,0,0-1-1.08,22.71,22.71,0,0,0-2.22-1.69c-1.28-.92-1.76-2.47-3.17-3.3a5.88,5.88,0,0,0-7.56,2C50.68,19,43.25,18,42.65,17.9Z"/><path class="cls-26" d="M66.87,17.12a7.32,7.32,0,0,1,1,1.09c3.59,4.92,2.32,13.15.44,18.53a15.64,15.64,0,0,1-4,6.58s11.21-1.86,14.38-6.12,3-22.79-1.29-28-7.44-3.81-7.44-3.81S66.5-.58,56.49.05,42.11,9,40.39,12.37s-4.15,15.69-2.91,24.12c.39,2.62,5.82,5.24,5.82,5.24s-5.47-10-.25-24.48c0,0,8,1.24,10.87-3.1a5.87,5.87,0,0,1,7.56-2c1.42.82,1.9,2.38,3.18,3.3A23.74,23.74,0,0,1,66.87,17.12Z"/><path class="cls-18" d="M62.63,5.93l-.45-.41A5.76,5.76,0,0,1,62.63,5.93Z"/><path class="cls-18" d="M73.37,7.08c-.25,1,1.77,3.65,1.77,3.65s-3.4-2.48-4.66-2.22,1,3.91,1,3.91-3.4-3-4.91-1.3c-1,1.19-.32,4.22.21,5.93a25.25,25.25,0,0,0-2.13-1.61c-1.28-.92-1.76-2.48-3.18-3.3l-.15-.08c.85-.16,1.38-.54.85-1.33a8.17,8.17,0,0,0-3.27-2.87s5.66,2.09,5.28.52a5.64,5.64,0,0,0-1.56-2.45c.89.78,2.81,2.34,3.2,1.54.5-1-.88-3.26-.88-3.26s3.65,2,3.9.53a2.5,2.5,0,0,0,0-.75,7.68,7.68,0,0,1,1.12,1.38s2.47-1.11,6,2.24C75,7.07,73.54,6.39,73.37,7.08Z"/><g class="cls-27"><path class="cls-16" d="M70.08,17.92a7.87,7.87,0,0,0-.93-1.44c-.5-.69-1.07-1.33-1.07-1.33s-.59-.62-1.22-1.18l-.48-.41a1.82,1.82,0,0,0-.45-.31.48.48,0,0,0-.4,0c-.09,0-.11.12-.1.12s0,0,.12-.06a.44.44,0,0,1,.33.07,2.27,2.27,0,0,1,.4.34l.44.43c.6.6,1.15,1.24,1.15,1.24s.58.61,1.13,1.26S70.05,18,70.08,17.92Z"/><path class="cls-16" d="M72.64,25.36a1.61,1.61,0,0,0,0-.31c0-.19,0-.46,0-.8a16.81,16.81,0,0,0-.15-2.42A19.55,19.55,0,0,0,72,19.45c-.09-.32-.19-.58-.25-.76l-.1-.29-.12-.28c-.08-.17-.17-.44-.32-.73a16.5,16.5,0,0,0-1.2-2.1,15.25,15.25,0,0,0-1.5-1.87,6.83,6.83,0,0,0-.56-.55c-.14-.13-.22-.2-.23-.19s.29.33.71.82a18.29,18.29,0,0,1,1.41,1.91A16.5,16.5,0,0,1,71,17.51c.14.29.23.55.3.72l.11.28.11.28c.06.18.17.43.26.74a19.78,19.78,0,0,1,.58,2.33,19.42,19.42,0,0,1,.24,2.4C72.63,24.91,72.61,25.35,72.64,25.36Z"/><path class="cls-16" d="M62.9,3.53a14,14,0,0,1,1.32.65,6.17,6.17,0,0,1,1.12.94,6.72,6.72,0,0,1,.9,1.16,14.15,14.15,0,0,1,.63,1.37,3.78,3.78,0,0,0-.45-1.47,6.18,6.18,0,0,0-.88-1.27A6,6,0,0,0,64.32,4,3.42,3.42,0,0,0,62.9,3.53Z"/><path class="cls-16" d="M64.39,7.1s.15.22.31.41.3.39.3.39.17.17.33.36.31.39.35.37a1.17,1.17,0,0,0-.18-.49c-.13-.23-.28-.44-.28-.44a4.31,4.31,0,0,0-.38-.35C64.63,7.19,64.41,7.07,64.39,7.1Z"/><path class="cls-16" d="M56.16,8.26a4.19,4.19,0,0,0,.62-.16A5.16,5.16,0,0,1,58.15,8a6.49,6.49,0,0,1,2,.37s.25.07.6.21A10.33,10.33,0,0,1,62,9.12c.91.48,1.77,1.06,1.8,1a3.15,3.15,0,0,0-.51-.41c-.31-.23-.74-.52-1.19-.79a10.47,10.47,0,0,0-1.27-.66c-.36-.15-.61-.23-.61-.23a5.23,5.23,0,0,0-.63-.17,6.77,6.77,0,0,0-1.43-.13,4.69,4.69,0,0,0-1.4.24A1.94,1.94,0,0,0,56.16,8.26Z"/><path class="cls-16" d="M47,15.59a1.5,1.5,0,0,0,.64.13,3.64,3.64,0,0,0,1.42-.25,5.45,5.45,0,0,0,1.28-.7c.32-.24.52-.41.52-.41s.2-.18.48-.46.64-.67,1-1.05l1-1.07a2.53,2.53,0,0,0,.42-.51,3.52,3.52,0,0,0-.49.43l-1,1-1,1-.49.43a5.64,5.64,0,0,1-.49.42,5.28,5.28,0,0,1-1.19.73,3.87,3.87,0,0,1-1.35.32C47.25,15.62,47,15.57,47,15.59Z"/><path class="cls-16" d="M45.1,14.89s.73-.69,1.47-1.36,1.5-1.31,1.5-1.31.75-.67,1.53-1.29,1.58-1.22,1.56-1.25a2.34,2.34,0,0,0-.55.3c-.31.2-.73.49-1.13.78-.82.58-1.59,1.23-1.59,1.23s-.75.67-1.46,1.39c-.35.36-.69.73-.94,1A2.62,2.62,0,0,0,45.1,14.89Z"/><path class="cls-16" d="M43.54,16.42s.41-.81.87-1.59,1-1.5,1-1.5a17.07,17.07,0,0,1,1.07-1.44c.57-.69,1.21-1.31,1.18-1.35a8.19,8.19,0,0,0-1.33,1.21,16.86,16.86,0,0,0-1.16,1.4,16.43,16.43,0,0,0-.92,1.58A7.76,7.76,0,0,0,43.54,16.42Z"/><path class="cls-16" d="M42.19,14.87a5.92,5.92,0,0,0,.41-.8c.23-.48.55-1.12.9-1.74a17.83,17.83,0,0,1,1-1.66c.31-.43.53-.71.53-.71a12,12,0,0,1,1.91-2,10.15,10.15,0,0,1,1.58-1.08c.46-.25.79-.38.78-.4a.65.65,0,0,0-.23.06,6.16,6.16,0,0,0-.6.24,8.54,8.54,0,0,0-1.65,1A11.3,11.3,0,0,0,45.4,9.09c-.36.4-.58.69-.58.69s-.22.28-.51.73a16.65,16.65,0,0,0-1,1.71c-.33.65-.62,1.3-.82,1.8A7.48,7.48,0,0,0,42.19,14.87Z"/><path class="cls-16" d="M39.6,15.53a1.57,1.57,0,0,0,.53.94,3,3,0,0,0,.89.6,5,5,0,0,0,1,.25,3.46,3.46,0,0,0,1,0,6.87,6.87,0,0,0-1-.23,5.64,5.64,0,0,1-.95-.31,3,3,0,0,1-.87-.49A3.94,3.94,0,0,1,39.6,15.53Z"/><path class="cls-16" d="M42.16,11.73a5.32,5.32,0,0,0-.8,1.1,11,11,0,0,0-.63,1.22,11.49,11.49,0,0,0-.43,1.31,5.16,5.16,0,0,0-.21,1.36s.19-.65.41-1.29A13.1,13.1,0,0,1,41,14.17s.24-.63.55-1.23S42.2,11.76,42.16,11.73Z"/><path class="cls-16" d="M73.2,32.38s.06-.12.15-.34.24-.54.36-.94a24,24,0,0,0,.81-2.93,24.65,24.65,0,0,0,.4-3c0-.41,0-.76,0-1l0-.38v-.39c0-.24,0-.59,0-1a24.09,24.09,0,0,0-.37-3,24.87,24.87,0,0,0-.77-2.95c-.12-.39-.26-.71-.35-.93a2.19,2.19,0,0,0-.15-.35,2.21,2.21,0,0,0,.1.37c.06.23.19.55.29.95a26.51,26.51,0,0,1,.68,2.94,27.23,27.23,0,0,1,.31,3c0,.41,0,.76,0,1v.75c0,.24,0,.59,0,1a27.83,27.83,0,0,1-.34,3,28.4,28.4,0,0,1-.71,2.94c-.11.39-.24.71-.31.94A2.21,2.21,0,0,0,73.2,32.38Z"/><path class="cls-16" d="M76.28,12.91a5.45,5.45,0,0,0-.53-1.61,9.88,9.88,0,0,0-.84-1.47,10.14,10.14,0,0,0-1.15-1.24,5.34,5.34,0,0,0-1.36-1s.65.51,1.23,1.11A10.41,10.41,0,0,1,74.68,10a11,11,0,0,1,.89,1.39C76,12.13,76.24,12.92,76.28,12.91Z"/><path class="cls-16" d="M78.49,31.69a1.59,1.59,0,0,0,.1-.36c.06-.24.14-.58.21-1,.16-.81.3-1.91.4-3s.1-2.21.08-3.05c0-.41,0-.76,0-1l0-.39,0-.38c0-.24,0-.58-.11-1-.1-.82-.29-1.92-.52-3s-.56-2.14-.83-2.92c-.13-.4-.26-.72-.35-.94a2.19,2.19,0,0,0-.15-.35,2.21,2.21,0,0,0,.1.37c.06.23.18.55.29.95.24.79.51,1.86.74,2.94s.37,2.17.46,3c.05.41.06.75.09,1l0,.38,0,.37c0,.25.05.59.06,1,0,.83,0,1.93,0,3s-.18,2.2-.3,3c0,.41-.12.74-.15,1A2.07,2.07,0,0,0,78.49,31.69Z"/><path class="cls-16" d="M72.33,39.52s.08-.07.2-.2.3-.32.49-.58a15.27,15.27,0,0,0,1.25-1.92,19.64,19.64,0,0,0,.94-2.11c.22-.59.35-1,.35-1s.12-.41.27-1,.33-1.44.48-2.27.25-1.66.31-2.29c0-.31,0-.57.07-.76a1.1,1.1,0,0,0,0-.29s-.08.42-.18,1-.24,1.44-.4,2.26-.36,1.64-.53,2.24-.3,1-.3,1-.12.4-.32,1a19.9,19.9,0,0,1-.87,2.11,17,17,0,0,1-1.16,2A10.37,10.37,0,0,0,72.33,39.52Z"/><path class="cls-16" d="M38.44,24.27s.15-.8.31-1.6.33-1.58.33-1.58.16-.79.35-1.58.43-1.56.39-1.57a7.78,7.78,0,0,0-.58,1.51C39,20.23,38.8,21,38.8,21s-.16.81-.25,1.62A8,8,0,0,0,38.44,24.27Z"/><path class="cls-16" d="M40,37.12s-.18-.3-.39-.79a8.08,8.08,0,0,1-.5-1.85c-.22-1.4-.31-2.81-.31-2.81s-.14-1.41-.15-2.83c0-.7,0-1.41,0-1.94a8.75,8.75,0,0,0,0-.89,4.27,4.27,0,0,0-.13.88c0,.53-.09,1.24-.11,1.95,0,1.43.07,2.85.07,2.85s.13,1.43.4,2.83a7.26,7.26,0,0,0,.6,1.86,4.62,4.62,0,0,0,.33.56Z"/><path class="cls-16" d="M72.84,10.37a2.87,2.87,0,0,0-.75-1,4.56,4.56,0,0,0-1-.72,5,5,0,0,0-1.18-.35,3,3,0,0,0-1.21,0c0,.05.6,0,1.17.17a4.9,4.9,0,0,1,1.1.41,5.17,5.17,0,0,1,1,.61C72.44,9.91,72.81,10.4,72.84,10.37Z"/><path class="cls-16" d="M70.69,11.29a3.27,3.27,0,0,0-.5-.82,6.74,6.74,0,0,0-.62-.73,3.48,3.48,0,0,0-.8-.53A1.58,1.58,0,0,0,67.84,9a8.62,8.62,0,0,1,.83.37,4.18,4.18,0,0,1,.71.57s.34.3.66.64A4.58,4.58,0,0,0,70.69,11.29Z"/></g><path class="cls-18" d="M76.69,27.09a2.35,2.35,0,0,1-.13.73C76.59,27.3,76.65,27,76.69,27.09Z"/><path class="cls-18" d="M68.28,36.74c1.37-3.9,2.41-9.32,1.51-13.87,2.17,6-1.58,15.39,1,15.08,2.36-.3,5.14-7.73,5.79-10.13-.12,1.61,0,5.23,2,4.63,1.73-.55,2.08-6.53,2.23-10.29.36,6.28-.37,12.75-2.08,15-3.17,4.26-14.38,6.12-14.38,6.12A15.64,15.64,0,0,0,68.28,36.74Z"/><path class="cls-18" d="M37.48,36.49c-.09-.66-.17-1.35-.22-2.05A5.56,5.56,0,0,0,40,37.12c2.5.77,0-2.38.16-5.36s2-12.61.11-12.73c-.8,0-1.6,1.18-2.26,2.6a38.14,38.14,0,0,1,2.42-9.26c.38-.73.87-1.7,1.53-2.77-.49,1.87-1,4.38-.14,5.08,1.33,1.15,5.2-3.67,5.53-3.9s-3.65,4.13-2.21,5.05,8.13-4.13,8.13-4.13-2.6,2.86-2.27,3.44c.21.36,2-.64,3.28-1.43-.11.14-.22.29-.32.44-2.91,4.34-10.87,3.1-10.87,3.1-5.22,14.46.25,24.48.25,24.48S37.87,39.11,37.48,36.49Z"/><g class="cls-17"><path class="cls-16" d="M77.82,11.38a13.44,13.44,0,0,1,2.34,8.23.09.09,0,0,1-.17,0c-.32-1.37-.62-2.77-1-4.12s-1-2.62-1.35-4c0-.12.13-.24.21-.13Z"/></g><g class="cls-17"><path class="cls-16" d="M80.16,21.3a4.56,4.56,0,0,1,.11,1.52c0,.14-.23.14-.22,0a4.82,4.82,0,0,0,0-1.47c0-.12.14-.16.16-.05Z"/></g><g class="cls-17"><path class="cls-16" d="M76,14.42c2.1,2.3,2.88,7.09,2.34,10.11-.08.44-.67.36-.79,0a40.66,40.66,0,0,1-1.07-5.27,20.61,20.61,0,0,1-.78-4.71.18.18,0,0,1,.3-.13Z"/></g><g class="cls-17"><path class="cls-16" d="M76.12,22.82a15.92,15.92,0,0,1-.26,5.88c0,.13-.26.12-.25,0,.08-1,.37-1.92.43-2.91A22,22,0,0,0,76,22.82a.07.07,0,1,1,.13,0Z"/></g><g class="cls-17"><path class="cls-16" d="M70.93,13.37c1.67,2.09,3.28,5,2.62,7.8a.25.25,0,0,1-.49,0c-1-2.5-1.12-5.25-2.2-7.74,0,0,0-.1.07-.06Z"/></g><g class="cls-17"><path class="cls-16" d="M70.55,19.19a14,14,0,0,1,1,10.08c0,.11-.22.09-.21,0a29.31,29.31,0,0,0-1.09-9.91c0-.19.23-.32.32-.14Z"/></g><g class="cls-17"><path class="cls-16" d="M63.89,2.72a28.86,28.86,0,0,0-5.8-1.33c-.31,0-.21-.5.06-.52A10.92,10.92,0,0,1,64,2.52c.11.06,0,.25-.08.2Z"/></g><g class="cls-17"><path class="cls-16" d="M61.83,4.25c-1.6,0-3.1-.32-4.72-.43-1.94-.14-3.87,0-5.81.05a.3.3,0,0,1-.19-.5C53.45.92,57,1.2,59.91,2.25c.55.2,2.24.64,2.14,1.55,0,.14,0,.44-.22.45Z"/></g><g class="cls-17"><path class="cls-16" d="M50.07,4.56a2,2,0,0,1-.32.26L49.33,5a3,3,0,0,1-.81.38.36.36,0,0,1-.39-.53,1.41,1.41,0,0,1,.74-.66,1.87,1.87,0,0,1,1-.23c.24,0,.47.38.22.57Z"/></g><g class="cls-17"><path class="cls-16" d="M58.85,9.81c-.81.38-1.71.44-2.53.86a14,14,0,0,0-2.46,1.73.15.15,0,0,1-.24-.19c.89-1.56,3.41-3.16,5.21-2.52.05,0,.07.1,0,.12Z"/></g><g class="cls-17"><path class="cls-16" d="M55.7,9.4c-.92.66-1.84,1.27-2.81,1.85S51,12.1,50.11,12.7c-.34.24-.84-.26-.58-.61a7,7,0,0,1,2.28-2.37,18.13,18.13,0,0,1,3.48-1.34c.61-.19.89.67.41,1Z"/></g><g class="cls-17"><path class="cls-16" d="M60.14,5.64c-2.12.54-4.3.67-6.39,1.35s-4,1.86-6.1,2.47c-.4.12-.61-.37-.38-.66,2.69-3.37,9-4.71,12.87-3.2,0,0,0,0,0,0Z"/></g><g class="cls-17"><path class="cls-16" d="M46.39,9.82l-.77.69c-.11.1-.26,0-.16-.15l.74-.73c.13-.12.31.08.19.19Z"/></g><path class="cls-5" d="M74.17,107.14c0,.3-2.26,3.9-1,4.55s1.75-1.79,2.42-1.77-.76,7,.21,7.48,3.13-2.83,3.6-3.54c0,0,0,1.21.5,1.16s.69-5.54.36-7.84S74.38,105.9,74.17,107.14Z"/><path class="cls-6" d="M78.06,111.83a9.08,9.08,0,0,1-.25,1.54c-.16.76-.35,1.51-.35,1.51l-.15.47c-.09.28-.2.65-.35,1a2.44,2.44,0,0,1-.6.9.6.6,0,0,1-.44.21,1.08,1.08,0,0,0,.38-.28,2.51,2.51,0,0,0,.51-.89c.12-.36.22-.74.29-1l.13-.47s.22-.74.42-1.49S78,111.82,78.06,111.83Zm.59,1.66c-.24.66-.53,1.31-.53,1.31l-.17.41a7.71,7.71,0,0,1-.43.87,3.78,3.78,0,0,1-.59.76c-.19.18-.34.28-.33.29a1.33,1.33,0,0,0,.39-.22,3.26,3.26,0,0,0,.67-.74,7.34,7.34,0,0,0,.49-.87l.18-.41s.27-.66.48-1.35a7.67,7.67,0,0,0,.33-1.4S78.9,112.82,78.65,113.49Zm1-1.39a6.25,6.25,0,0,1-.15.73,6.42,6.42,0,0,1-.17.72,6.42,6.42,0,0,0-.22.73,2.2,2.2,0,0,0,.38-.67,6,6,0,0,0,.25-.73,4.85,4.85,0,0,0,.07-.77,2.18,2.18,0,0,0-.07-.76A4.83,4.83,0,0,0,79.64,112.1Z"/><path class="cls-7" d="M79.88,115c.09,0,.17-.21.24-.54-.39-.48-.31-2.33-.32-2.37s-1.39,3.55-2.62,3.81-.67-3.51-.92-4.8-.69-1.2-.69-1.2c.67,0-.76,7,.21,7.48s3.13-2.83,3.6-3.54C79.38,113.86,79.41,115.07,79.88,115Z"/><path class="cls-7" d="M73.15,111.69c.66.35,1.11-.19,1.5-.76a1.14,1.14,0,0,1-.8.23c-.91-.12,0-4.11,1.74-3,1.29.83,3.62.36,4.76.06,0-.39-.06-.75-.11-1-.32-2.29-5.86-1.28-6.07,0C74.12,107.44,71.91,111,73.15,111.69Z"/><path class="cls-8" d="M68.74,47.7A16.26,16.26,0,0,0,66.11,53C64.6,58.9,72.89,78.15,73,80.15s0,26.1,0,26.1,5,3.14,7.44.82.1-27.51-.64-30.27S72.9,48.93,68.74,47.7Z"/><path class="cls-9" d="M80.46,107.07c-2.48,2.32-7.44-.82-7.44-.82s.07-24.11,0-26.1S64.6,58.9,66.11,53a11.89,11.89,0,0,1,.54-1.59v.33c-.06,6.36,3.12,12.9,4.36,15.35s4.54,9.41,4.17,10.57-1.66,26.42,2.41,26.57c2.5.1,3.53-2,4-3.68C81.48,103.88,81.17,106.4,80.46,107.07Z"/><path class="cls-28" d="M79,76.69a8.31,8.31,0,0,0-.47-1.63,6,6,0,0,0-.27-.56,5.38,5.38,0,0,1,.32.53,8,8,0,0,1,.62,1.61,41.85,41.85,0,0,1,.76,5.6c.42,4.39.57,8,.57,8s-.54-3.53-1-7.93C79.3,80.09,79.24,78.09,79,76.69Zm1.5,17.24c.15,1.42.38,2.57.38,2.57a12.14,12.14,0,0,0,0-2.61,12.62,12.62,0,0,0-.54-2.56S80.31,92.51,80.46,93.93ZM73.8,58a38.34,38.34,0,0,0-3.11-6.22s1.35,2.8,2.75,6.36c.7,1.78,1.28,3.4,1.7,4.59A11.28,11.28,0,0,0,76,64.59a15.19,15.19,0,0,1-.63-1.93A41,41,0,0,0,73.8,58Zm-6.37-7.34a4.59,4.59,0,0,0-.13,1.86,3.53,3.53,0,0,0,.18.74,8.41,8.41,0,0,1,1.38-4.77,3.47,3.47,0,0,0-.55.53A4.4,4.4,0,0,0,67.43,50.65Z"/><path class="cls-13" d="M45.57,25a2.7,2.7,0,0,0-1.91,1.24,3.42,3.42,0,0,0-.52,1.35c-.15.1-.48-.08-.66-.23a1.11,1.11,0,0,1-.26-.27.93.93,0,0,0,.14.36,1.46,1.46,0,0,0,.32.38,1.67,1.67,0,0,0,.73.36,5.76,5.76,0,0,1,.9-1.45A2.31,2.31,0,0,1,45.69,26a1.68,1.68,0,0,1,1.36.48,2.8,2.8,0,0,1,.73,1.18c.14.41.21.77.27,1l.08.39.07-.39a5.57,5.57,0,0,0,.06-1.1,2.89,2.89,0,0,0-.6-1.64A2.29,2.29,0,0,0,45.57,25Z"/><path class="cls-13" d="M62.35,26a3.15,3.15,0,0,1,2.26,3c.15.12.54,0,.76-.12a1.36,1.36,0,0,0,.33-.22,1.11,1.11,0,0,1-.22.34,1.42,1.42,0,0,1-.4.31,1.94,1.94,0,0,1-.86.23A5.61,5.61,0,0,0,63.46,28a2.6,2.6,0,0,0-1.39-1,2,2,0,0,0-1.55.23,2.69,2.69,0,0,0-1,1,7.48,7.48,0,0,0-.45.95l-.16.37s0-.14,0-.4a4.51,4.51,0,0,1,.11-1.1,2.66,2.66,0,0,1,3.32-2Z"/><path class="cls-29" d="M70.47,23.51c0,.32,0,.63-.06.95-.5.26-1,.52-1.49.79l-.66.35-.4-.86C68.73,24.34,69.6,23.92,70.47,23.51Z"/><path class="cls-30" d="M70.44,24c0,.16,0,.31,0,.47l-.57.3-.76.4,0,0-.13.07-.66.35-.06-.11v0L68,25.13Z"/><path class="cls-29" d="M55.38,24.81l.41-.71a7.42,7.42,0,0,0-4.4-.29l.34.74A6.47,6.47,0,0,1,55.38,24.81Z"/><path class="cls-30" d="M55.38,24.81a6.47,6.47,0,0,0-3.65-.26l-.15-.33a7.42,7.42,0,0,1,4,.29Z"/><path class="cls-31" d="M68.12,24.89s-6.41-3.78-12.47-.4c0,0-.8,7.63,5.69,7.83S68.12,24.89,68.12,24.89Z"/><g class="cls-23"><path class="cls-32" d="M59,23.28l3.66,8.95a6.57,6.57,0,0,1-1.36.09,4.56,4.56,0,0,1-.54,0L57.15,23.8A10.69,10.69,0,0,1,59,23.28Z"/><path class="cls-32" d="M63.56,23.3l2.76,6.78a5.86,5.86,0,0,1-1.4,1.31l-3.57-8.3A13.93,13.93,0,0,1,63.56,23.3Z"/></g><path class="cls-31" d="M55.63,25.55a9.3,9.3,0,0,1,0-1.06c6.06-3.38,12.47.4,12.47.4A9.67,9.67,0,0,1,68,26.15,13.37,13.37,0,0,1,55.63,25.55Z"/><path class="cls-29" d="M61.33,32.72A5.89,5.89,0,0,1,57.12,31c-2.31-2.39-1.92-6.4-1.9-6.56l0-.2.19-.11c6.21-3.47,12.86.37,12.93.41l.21.12v.22c0,.08-.38,7.82-7,7.82Zm-5.26-8c0,.8-.09,3.91,1.7,5.76a5,5,0,0,0,3.59,1.43c5.43.19,6.21-5.56,6.31-6.81C66.54,24.52,61.16,22,56.07,24.73Z"/><path class="cls-30" d="M61.37,32.32h.24c6.08,0,6.42-7.13,6.42-7.2v-.21l-.19-.11c-.06,0-6.19-3.58-11.92-.38l-.17.1,0,.18c0,.16-.37,3.85,1.75,6.05A5.41,5.41,0,0,0,61.37,32.32Zm0-.4a5,5,0,0,1-3.59-1.43c-1.79-1.85-1.74-5-1.7-5.76,5.09-2.71,10.47-.21,11.6.38C67.57,26.36,66.79,32.11,61.36,31.92Z"/><path class="cls-31" d="M51.51,24.16s-6-4.22-12.38-1.26c0,0-1.56,7.54,4.89,8.19S51.51,24.16,51.51,24.16Z"/><g class="cls-23"><path class="cls-32" d="M42.62,21.92l2.76,9.18a6.89,6.89,0,0,1-1.36,0L43.48,31l-2.79-8.71A11.59,11.59,0,0,1,42.62,21.92Z"/><path class="cls-32" d="M47.12,22.26,49.2,29.2a5.73,5.73,0,0,1-1.53,1.21L45,21.89A14,14,0,0,1,47.12,22.26Z"/></g><path class="cls-31" d="M39,24a8.49,8.49,0,0,1,.14-1.05c6.36-3,12.38,1.26,12.38,1.26a10.24,10.24,0,0,1-.28,1.24A13.31,13.31,0,0,1,39,24Z"/><path class="cls-29" d="M44,31.49a5.69,5.69,0,0,1-4-2C37.88,27,38.66,23,38.7,22.83l0-.2.19-.09c6.54-3,12.79,1.26,12.85,1.3L52,24l0,.22c0,.08-1.15,7.77-7.71,7.31Zm-4.44-8.33C39.4,24,39,27.05,40.64,29a4.84,4.84,0,0,0,3.43,1.68c5.39.56,6.74-5.11,7-6.36C50,23.68,44.86,20.81,39.52,23.16Z"/><path class="cls-30" d="M44,31.1l.25,0c6.05.42,7.1-6.66,7.11-6.73l0-.21-.18-.13c-.06,0-5.81-4-11.84-1.19l-.18.08,0,.18c0,.15-.75,3.81,1.14,6.15A5.27,5.27,0,0,0,44,31.1Zm0-.4A4.84,4.84,0,0,1,40.64,29c-1.6-2-1.24-5.06-1.12-5.86C44.86,20.81,50,23.68,51,24.34,50.81,25.59,49.46,31.26,44.07,30.7Z"/><path class="cls-7" d="M57.48,34.54s-2.43,4.92-5.73,4.22-2.42-3.33-3.16-4a12.15,12.15,0,0,0,2.17-1c.41-.34,4.06,1,4.46,1.21A7.52,7.52,0,0,0,57.48,34.54Z"/><path class="cls-29" d="M57.35,34.5s-2.51,4.57-5.81,3.87-2.49-3.52-3.24-4.21a9.67,9.67,0,0,0,2.25-.8c.41-.35,4.05,1,4.46,1.21A11.1,11.1,0,0,0,57.35,34.5Z"/><path class="cls-33" d="M50.55,33.36a9.67,9.67,0,0,1-2.25.8c.41.38.35,1.41.77,2.37a1.3,1.3,0,0,0,.08.17l.07.14c-.07-.49-.11-1,.06-1.19.34-.31.87.39.87.39a46.55,46.55,0,0,1,5,0c.32.1,0,.77-.26,1.34a10.73,10.73,0,0,0,2.43-2.88,11.1,11.1,0,0,1-2.34.07c-.07,0-.26-.11-.53-.2L53.53,34a20.29,20.29,0,0,0-2.17-.64l-.28-.05-.24,0A.46.46,0,0,0,50.55,33.36Z"/><path class="cls-13" d="M56.2,34.56a4.55,4.55,0,0,1-4.36,2.49c-2.36-.18-1.91-2.46-2.43-2.92a8.36,8.36,0,0,0,1.53-.65c.29-.23,2.85.7,3.14.8A21.22,21.22,0,0,0,56.2,34.56Z"/><path class="cls-34" d="M52.37,37.77c.06.22.46.32.89.22s.73-.36.67-.58-.46-.31-.89-.21S52.31,37.55,52.37,37.77Z"/><path class="cls-34" d="M56,35c-1.84-.84-4.18.72-5.33,1.65a2.23,2.23,0,0,0,1.22.41A4.42,4.42,0,0,0,56,35Z"/><path class="cls-6" d="M52.05,39.59a1.87,1.87,0,0,1-.28-.41.8.8,0,0,1-.09-.22.62.62,0,0,0-.08.25.78.78,0,0,0,.18.6.79.79,0,0,0,.56.29.61.61,0,0,0,.26,0l-.2-.13A1.92,1.92,0,0,1,52.05,39.59Z"/><path class="cls-15" d="M55.66,34.51a13.06,13.06,0,0,1-1.58-.23c-.28-.1-2.69-1-3.1-.81l-.1.05a7,7,0,0,1-1.15.5,1,1,0,0,0,.11.28,3.43,3.43,0,0,0,2.67,1.27,8.8,8.8,0,0,0,2.36-.18c.3,0,1.05-.31,1.19-.61C56,34.7,55.79,34.52,55.66,34.51Z"/><path class="cls-35" d="M54.08,34.28c-.28-.1-2.69-1-3.1-.81l-.1.05a7,7,0,0,1-1.15.5,1,1,0,0,0,.11.28,2,2,0,0,0,.17.23,15.74,15.74,0,0,0,1.67-.31c.77-.2,1.84.61,2.67.8.62.15-.75.45-1.66.56a9.41,9.41,0,0,0,2.18-.19c.3,0,1.05-.31,1.19-.61-.08-.08-.27-.26-.4-.27A13.06,13.06,0,0,1,54.08,34.28Z"/><path class="cls-29" d="M57.32,34.5a3.68,3.68,0,0,1-2.48.44,6.49,6.49,0,0,1-3-1.19,3.84,3.84,0,0,1-3.55.41A2.18,2.18,0,0,0,49.67,33,1.49,1.49,0,0,1,52,32.76a1.72,1.72,0,0,1,2.47.44A3.43,3.43,0,0,0,57.32,34.5Z"/><path class="cls-33" d="M57.32,34.5a3.68,3.68,0,0,1-2.48.44,6.49,6.49,0,0,1-3-1.19,3.84,3.84,0,0,1-3.55.41A2.18,2.18,0,0,0,49.67,33,1.49,1.49,0,0,1,52,32.76a1.72,1.72,0,0,1,2.47.44A3.43,3.43,0,0,0,57.32,34.5Z"/><path class="cls-33" d="M48.32,34.16a2.41,2.41,0,0,0,1.06-.71.54.54,0,0,0,.26.47c.59.32,2.25-.63,2.25-.63a4.65,4.65,0,0,0,2.44,1c.72.1,1-.06,1.06-.27a3.45,3.45,0,0,0,1.93.5,3.68,3.68,0,0,1-2.48.44,6.49,6.49,0,0,1-3-1.19A3.84,3.84,0,0,1,48.32,34.16Z"/><path class="cls-6" d="M57.47,34.42a1.62,1.62,0,0,0,.44.51.44.44,0,0,1-.25,0,.7.7,0,0,1-.52-.34.71.71,0,0,1-.07-.62.51.51,0,0,1,.14-.21A1.5,1.5,0,0,0,57.47,34.42Z"/><path class="cls-6" d="M48,33.9l.3-.29.14-.16a.67.67,0,0,1-.16.72.66.66,0,0,1-.72.17l.15-.14Z"/></g></g></g></svg>