<svg xmlns="http://www.w3.org/2000/svg" viewBox="0 0 79.51 192.17"><defs><style>.cls-1{isolation:isolate;}.cls-2{fill:#98d2ca;}.cls-10,.cls-12,.cls-14,.cls-18,.cls-19,.cls-2,.cls-20,.cls-24,.cls-27,.cls-31,.cls-35,.cls-38,.cls-39,.cls-5,.cls-7,.cls-9{mix-blend-mode:multiply;}.cls-10,.cls-12,.cls-15,.cls-2,.cls-34,.cls-38,.cls-39{opacity:0.5;}.cls-26,.cls-27,.cls-3,.cls-5{fill:#f8e9d0;}.cls-4{fill:#ebb18e;}.cls-6,.cls-7,.cls-8,.cls-9{fill:#fdb700;}.cls-22,.cls-32,.cls-35,.cls-7{opacity:0.45;}.cls-15,.cls-16,.cls-17,.cls-21,.cls-22,.cls-25,.cls-26,.cls-29,.cls-32,.cls-33,.cls-34,.cls-36,.cls-8{mix-blend-mode:screen;}.cls-11,.cls-12,.cls-20,.cls-21{fill:#8dcbd2;}.cls-13,.cls-14,.cls-16,.cls-34{fill:#294168;}.cls-14,.cls-19{opacity:0.34;}.cls-17{opacity:0.6;}.cls-23,.cls-24,.cls-25{fill:#6f3a1e;}.cls-24{opacity:0.25;}.cls-27{opacity:0.62;}.cls-28{fill:#212f47;}.cls-30,.cls-31,.cls-35,.cls-36,.cls-39{fill:#f15e6b;}.cls-32,.cls-33,.cls-37{fill:#fff;}.cls-38{fill:#d3dbfd;}</style></defs><g class="cls-1"><g id="Capa_2" data-name="Capa 2"><g id="OBJECTS"><ellipse class="cls-2" cx="39.76" cy="181.24" rx="39.76" ry="10.93"/><path class="cls-3" d="M19.55,49.81l-1-1.33s2.31-2.85,1.18-5c-.35-.66-.86-1.29-1.15-2-.17-.41-.23-1-.64-1.09-.69-.25-1.18.66-1.19,1.22-.56-.77-3.5-2.66-3.79-.7a2.37,2.37,0,0,0-2.31,1.38,2.06,2.06,0,0,1-.17.33,2,2,0,0,1-.36.29,1.48,1.48,0,0,0-.57,1.2c0,.1-.19.2-.24.28-.77,1.3.4,2.88,1.21,3.8s2.32,2.37,3.76,2.42L15.36,53S20.27,51,19.55,49.81Z"/><path class="cls-4" d="M16.1,45.8A3.87,3.87,0,0,1,16.56,44,3.16,3.16,0,0,1,17,43.3a2.32,2.32,0,0,0-.63.56,3.13,3.13,0,0,0-.69,1.94,2.4,2.4,0,0,0,.82,1.88,1.58,1.58,0,0,0,.56.29,1.17,1.17,0,0,0,.22,0,1.38,1.38,0,0,1-.65-.46A2.74,2.74,0,0,1,16.1,45.8Z"/><path class="cls-4" d="M16.79,42.4a6.85,6.85,0,0,1,.05-1.07l0-.47a2.84,2.84,0,0,0-.47,1.56,1.81,1.81,0,0,0,.47,1.09,4.28,4.28,0,0,0,.34.34A5.68,5.68,0,0,1,16.79,42.4Z"/><path class="cls-4" d="M11.92,47.9a1.2,1.2,0,0,0-.12-1,.89.89,0,0,0-.29-.29,1.26,1.26,0,0,1,.1.36,1.78,1.78,0,0,1-.06.81,1.15,1.15,0,0,1-.43.64.41.41,0,0,1-.33.09.43.43,0,0,0,.4.1A1,1,0,0,0,11.92,47.9Z"/><path class="cls-4" d="M11.33,46.21A4.91,4.91,0,0,1,10,44.62a4.59,4.59,0,0,1-.36-.83,3.24,3.24,0,0,0,.18.91,3.79,3.79,0,0,0,1.33,1.82,1.74,1.74,0,0,0,1.23.45.8.8,0,0,0,.54-.32.71.71,0,0,0,.1-.53,1.28,1.28,0,0,0-.3-.62.54.54,0,0,0-.19-.16.71.71,0,0,1,.14.19,1.49,1.49,0,0,1,.16.61.48.48,0,0,1-.49.5A1.69,1.69,0,0,1,11.33,46.21Z"/><path class="cls-4" d="M12.47,44.76A12.35,12.35,0,0,1,11,43.16a2.58,2.58,0,0,1-.4-.82,2.12,2.12,0,0,0,.23.91,6.37,6.37,0,0,0,1.38,1.8,1.51,1.51,0,0,0,1.21.54,1.11,1.11,0,0,0,.87-.65,1,1,0,0,0,0-.93,1.09,1.09,0,0,1-.16.84.94.94,0,0,1-.73.41A1.32,1.32,0,0,1,12.47,44.76Z"/><path class="cls-4" d="M14.39,43.82A4.43,4.43,0,0,1,13,41.32a2,2,0,0,1,.11-.87,1.34,1.34,0,0,1,.14-.3,1.46,1.46,0,0,0-.2.28,2,2,0,0,0-.25.9,4,4,0,0,0,1.29,2.75,1.3,1.3,0,0,0,.84.5.86.86,0,0,0,.81-.51,1.86,1.86,0,0,0-.18-1.42,5,5,0,0,0-.66-1.06,7,7,0,0,1,.48,1.13,1.8,1.8,0,0,1,.06,1.21.52.52,0,0,1-.48.27A1,1,0,0,1,14.39,43.82Z"/><path class="cls-4" d="M14.2,46.59a2.53,2.53,0,0,0-1,.44,1.59,1.59,0,0,0-.33.31A8.28,8.28,0,0,1,14.26,47a7.89,7.89,0,0,1,1.46-.12,1.65,1.65,0,0,0-.42-.19A2.51,2.51,0,0,0,14.2,46.59Z"/><path class="cls-5" d="M15.45,43.93c-.69.6-2.37-1.12-2.52-3l-.91.12a2.35,2.35,0,0,0-1.4,1.26,2.06,2.06,0,0,1-.17.33,2,2,0,0,1-.36.29,1,1,0,0,0-.21.21c.9.81,2.75,2.58,2.5,3.13-.33.73-2.45-.61-2.79-2.51l0,0a1.84,1.84,0,0,0,0,.33c0,.1-.19.2-.24.28a1.78,1.78,0,0,0-.18.44c.77.71,2.37,2.3,1.73,2.91a2.8,2.8,0,0,1-.43.34l.09.11c.89,1,2.32,2.37,3.76,2.42L15.36,53s4.91-2,4.19-3.21l-1-1.33a8.41,8.41,0,0,0,.92-1.5c-.55.38-1.18.5-1.66-.45-1-2.05.07-3,.07-3a8.73,8.73,0,0,1-.64-3,1.61,1.61,0,0,0-.49,1.07c-.47-.65-2.63-2.09-3.47-1.35C13.93,41.05,16,43.42,15.45,43.93Zm-1.76.94c-.22.42-3.82-2.41-1.47-3.25C13,42.51,13.9,44.46,13.69,44.87Z"/><path class="cls-6" d="M14.49,39.51,14,48.26s2.4.39,2.72.07.36-5,.36-5a5.73,5.73,0,0,0,2.25-2.77C20,38.66,14.81,38.76,14.49,39.51Z"/><path class="cls-7" d="M19.28,40.53c.25-.69-.29-1.11-1.08-1.33-1.27-.13-2.71.08-2.87.46l-.54,8.71a3.92,3.92,0,0,0,1.88,0c.32-.32.36-5,.36-5A5.73,5.73,0,0,0,19.28,40.53Z"/><path class="cls-6" d="M4.33,40.54c0,.16,12.36-1.08,15,0s5.34.3,5.79-2.59S22.48,34.43,22,34.12,11.81,23.3,11.81,23.3,3.4,34.61,4.33,40.54Z"/><path class="cls-8" d="M22,34.12c-.35-.23-6.23-6.54-8.9-9.41.16.47.32.93.44,1.4,2.87,3.08,7.91,8.48,8.24,8.7s3.5.91,3.05,3.81c0,.16-.09.28-.12.43a4,4,0,0,0,.34-1.11C25.53,35,22.48,34.43,22,34.12Z"/><path class="cls-6" d="M2.1,29.56c-1.78,5-.78,9.91,2.23,11s6.88-2.12,8.66-7.11.77-9.91-2.24-11S3.87,24.56,2.1,29.56Z"/><path class="cls-9" d="M13,33.43c1.63-4.61.91-9.14-1.57-10.66l-.11-.05c-3-1.06-6.89,2.12-8.66,7.12C1,34.44,1.74,39,4.22,40.49l.11,0C7.33,41.61,11.21,38.42,13,33.43Z"/><path class="cls-8" d="M13,33.43c-1.24,3.49-3.51,6.08-5.78,7l1.91-.12a12.62,12.62,0,0,0,4.6-6.36,12.22,12.22,0,0,0,.3-8.24L13,24.54C14.09,26.67,14.2,30,13,33.43Z"/><path class="cls-9" d="M13,33.43c1.45-4.1,1-8.14-.82-10-2.76,0-5.86,3-7.4,7.31-1.45,4.1-1,8.14.82,10.05C8.35,40.71,11.45,37.75,13,33.43Z"/><path class="cls-9" d="M10.82,37.48c-2.76-.7-7.06-1.79-9.58-2.4.15,2.69,1.24,4.8,3.09,5.46C6.4,41.28,8.89,40,10.82,37.48Z"/><path class="cls-9" d="M10.75,22.45c-2.31-.82-5.14.88-7.13,4,3,1.7,7.44,4.28,9.79,5.57C14.54,27.53,13.47,23.41,10.75,22.45Z"/><path class="cls-9" d="M24.06,35.19a3.89,3.89,0,0,1,0,3.09c-1,2.49-4.6.19-4.6.19l-7.86-2.08a9.73,9.73,0,0,1-4.33,4c3.82-.24,10.26-.61,12.05.13,2.59,1.07,5.34.3,5.79-2.59A2.77,2.77,0,0,0,24.06,35.19Z"/><path class="cls-3" d="M13.57,42.86s.94,1.87,1.74,1.31-.29-2.46-.37-2.7-.48-1.34-.48-1.34-1.07-.27-1.26.59A4.41,4.41,0,0,0,13.57,42.86Z"/><g class="cls-10"><path class="cls-4" d="M16.1,45.8A3.87,3.87,0,0,1,16.56,44,3.16,3.16,0,0,1,17,43.3a2.32,2.32,0,0,0-.63.56,3.13,3.13,0,0,0-.69,1.94,2.4,2.4,0,0,0,.82,1.88,1.58,1.58,0,0,0,.56.29,1.17,1.17,0,0,0,.22,0,1.38,1.38,0,0,1-.65-.46A2.74,2.74,0,0,1,16.1,45.8Z"/><path class="cls-4" d="M16.79,42.4a6.85,6.85,0,0,1,.05-1.07l0-.47a2.84,2.84,0,0,0-.47,1.56,1.81,1.81,0,0,0,.47,1.09,4.28,4.28,0,0,0,.34.34A5.68,5.68,0,0,1,16.79,42.4Z"/><path class="cls-4" d="M11.92,47.9a1.2,1.2,0,0,0-.12-1,.89.89,0,0,0-.29-.29,1.26,1.26,0,0,1,.1.36,1.78,1.78,0,0,1-.06.81,1.15,1.15,0,0,1-.43.64.41.41,0,0,1-.33.09.43.43,0,0,0,.4.1A1,1,0,0,0,11.92,47.9Z"/><path class="cls-4" d="M11.33,46.21A4.91,4.91,0,0,1,10,44.62a4.59,4.59,0,0,1-.36-.83,3.24,3.24,0,0,0,.18.91,3.79,3.79,0,0,0,1.33,1.82,1.74,1.74,0,0,0,1.23.45.8.8,0,0,0,.54-.32.71.71,0,0,0,.1-.53,1.28,1.28,0,0,0-.3-.62.54.54,0,0,0-.19-.16.71.71,0,0,1,.14.19,1.49,1.49,0,0,1,.16.61.48.48,0,0,1-.49.5A1.69,1.69,0,0,1,11.33,46.21Z"/><path class="cls-4" d="M12.47,44.76A12.35,12.35,0,0,1,11,43.16a2.58,2.58,0,0,1-.4-.82,2.12,2.12,0,0,0,.23.91,6.37,6.37,0,0,0,1.38,1.8,1.51,1.51,0,0,0,1.21.54,1.11,1.11,0,0,0,.87-.65,1,1,0,0,0,0-.93,1.09,1.09,0,0,1-.16.84.94.94,0,0,1-.73.41A1.32,1.32,0,0,1,12.47,44.76Z"/><path class="cls-4" d="M14.39,43.82A4.43,4.43,0,0,1,13,41.32a2,2,0,0,1,.11-.87,1.34,1.34,0,0,1,.14-.3,1.46,1.46,0,0,0-.2.28,2,2,0,0,0-.25.9,4,4,0,0,0,1.29,2.75,1.3,1.3,0,0,0,.84.5.86.86,0,0,0,.81-.51,1.86,1.86,0,0,0-.18-1.42,5,5,0,0,0-.66-1.06,7,7,0,0,1,.48,1.13,1.8,1.8,0,0,1,.06,1.21.52.52,0,0,1-.48.27A1,1,0,0,1,14.39,43.82Z"/></g><path class="cls-3" d="M18.71,41.76s-.35-1.31-.78-1.5-1.39.65-1.25,1.88l.13,1.23a4.8,4.8,0,0,0-.88,2.33c.05,1,.29,2.43,1.5,2.3S18.9,42,18.71,41.76Z"/><path class="cls-5" d="M17.43,48c.29,0,.53-.42.72-1a1.91,1.91,0,0,1-.37-.5c-1-2.05.07-3,.07-3a8.73,8.73,0,0,1-.64-3,1.61,1.61,0,0,0-.49,1.07l0,0a2.25,2.25,0,0,0,0,.52l.13,1.23a4.8,4.8,0,0,0-.88,2.33C16,46.69,16.22,48.13,17.43,48Z"/><path class="cls-11" d="M39.07,44.72s-3,1.47-4.55,6.11c-1.91,5.89-3.29,15.87-4.81,16.24-2.71.68-7.14-18-7.14-18s-6.79.21-8.72,3.94c0,0,9.77,26.39,17.13,24.48s9-21.35,9-21.35S39.47,44.08,39.07,44.72Z"/><path class="cls-12" d="M39.07,44.72s-3,1.47-4.55,6.11c-1.91,5.89-3.29,15.87-4.81,16.24-2.71.68-7.14-18-7.14-18s-6.79.21-8.72,3.94c0,0,9.77,26.39,17.13,24.48s9-21.35,9-21.35S39.47,44.08,39.07,44.72Z"/><g class="cls-10"><path class="cls-13" d="M30.17,68.33A6.56,6.56,0,0,1,31,70.4a13.66,13.66,0,0,0-1-2,13.89,13.89,0,0,0-1.27-1.79A6.69,6.69,0,0,1,30.17,68.33Z"/><path class="cls-13" d="M30.71,68a4,4,0,0,1,.71,1.22,3.15,3.15,0,0,1,.15.56,6,6,0,0,0-1-1.66,6.08,6.08,0,0,0-1.46-1.27,3.41,3.41,0,0,1,.53.25A3.91,3.91,0,0,1,30.71,68Z"/></g><path class="cls-12" d="M39.07,44.72a9.28,9.28,0,0,0-3.6,3.88c1,5.31.47,14.29-1.33,17.64-1.28,2.38-2.57.53-3.17-1.1-.36,1.09-.77,1.81-1.26,1.93h0c-2.71.68-7.14-18-7.14-18h-.39c-.14,0-.33,0-.54,0h0l-.35,0h0a17.08,17.08,0,0,0-1.85.33h0a13.72,13.72,0,0,0-1.56.46l-.08,0-.49.19-.1,0a9.1,9.1,0,0,0-1,.49l.09,0c1.51-.58,6.35.61,7.64,7.55S32,73.11,30.45,75.39c-.95,1.44-3,.7-4.46,0a11.18,11.18,0,0,0,1,.88l.33.26.34.23c.11.08.23.15.35.22l.32.18.37.17.3.12.4.11.27.06.44,0a1.76,1.76,0,0,0,.23,0,2.43,2.43,0,0,0,.65-.09c1.84-.47,3.32-2,4.51-4.14a36.41,36.41,0,0,0,3.4-10.06c.13-.61.24-1.2.34-1.76s.19-1.1.27-1.6c.15-1,.26-1.86.34-2.51,0-.32.07-.59.09-.8s0-.48,0-.48S39.47,44.08,39.07,44.72Z"/><path class="cls-13" d="M57,178.14s0,.07,0,.21c0,1.09.06,6.05-.61,6.51s-.5-5.78-.5-5.78"/><path class="cls-14" d="M57,178.14s0,.07,0,.21c0,1.09.06,6.05-.61,6.51s-.5-5.78-.5-5.78"/><path class="cls-3" d="M60.07,126.54l-2.9,10.37s6.84,5.21-.43,38c-.25,1.14.44,2.5.29,3.65A14.41,14.41,0,0,1,53.21,186c-.85.85-5.37,2.82-4.41.26,1.59-4.21,2.67-5.32,3.87-8.29.89-2.2.58-3.4.4-5.8-.42-5.32-.9-10.63-1.32-15.94-.48-6.16-1-12.4-2-18.5a69.47,69.47,0,0,1,.54-24.6C52.2,104.34,64.59,96.9,60.07,126.54Z"/><path class="cls-5" d="M51.13,181.23a1.38,1.38,0,0,0,1.07.94c2.54.24,4.62-9.64,5.74-19.64s-.3-20.73-3.22-23c-1.95-1.53-3.67-.17-4.6.91-.13-.89-.27-1.77-.42-2.65a69.47,69.47,0,0,1,.54-24.6c.77-3.5,3.2-6.79,5.56-7.62a28.7,28.7,0,0,1,4.65,3.87c.82,3.25.9,8.68-.38,17.12l-2.9,10.37s6.84,5.21-.43,38c-.25,1.14.44,2.5.29,3.65A14.41,14.41,0,0,1,53.21,186c-.85.85-5.37,2.82-4.41.26A39.12,39.12,0,0,1,51.13,181.23Z"/><path class="cls-13" d="M50.7,182c-.73,2,0,2.6,1.36,2.1,3.44-1.31,4.56-8.55,4.56-8.55l.07,0a19.68,19.68,0,0,1,.34,3A14.41,14.41,0,0,1,53.21,186c-.85.85-5.37,2.82-4.41.26A37,37,0,0,1,50.7,182Z"/><path class="cls-3" d="M53.13,134.3a.46.46,0,1,0,.45-.47A.47.47,0,0,0,53.13,134.3Z"/><path class="cls-3" d="M51.66,136.13a.82.82,0,1,0,.79-.84A.82.82,0,0,0,51.66,136.13Z"/><g class="cls-15"><path class="cls-13" d="M49.8,186.33a3.08,3.08,0,0,0,1.59-.29,6.91,6.91,0,0,0,1.44-.78A7,7,0,0,0,53.92,184a3.1,3.1,0,0,0,.65-1.48c-.08,0-.46.66-1,1.22a7.1,7.1,0,0,1-1.13,1,7.83,7.83,0,0,1-1.25.87C50.54,186,49.79,186.25,49.8,186.33Z"/></g><path class="cls-14" d="M53.21,186c-.8.8-4.85,2.59-4.52.66.3,1.08,2,.57,3.71-.64,2.49-1.8,4.19-6.66,4.06-6.95s-1.26,1.63-1.61,2.25l-.1.18v-.17a21.1,21.1,0,0,0,1.87-5.78l.07,0a19.68,19.68,0,0,1,.34,3A14.41,14.41,0,0,1,53.21,186Z"/><path class="cls-3" d="M23.68,176.24a8.3,8.3,0,0,0,.27-2.19l4.17-.35c-.22,1-.4,1.75-.49,2.05,0,0-.05,1.37-.15,3.09-.15,2.5-.41,5.75-.81,6.61-.68,1.44-.6-4.92-.6-4.92s-2.3,5-3.72,5.48-6.34.07-6.6-.88S19.63,185.9,23.68,176.24Z"/><path class="cls-5" d="M20.36,182a1.74,1.74,0,0,0,.85.16c2.11-.09,3.79-3.31,5.18-8.3l1.73-.14c-.22,1-.4,1.75-.49,2.05,0,0-.05,1.37-.15,3.09,0,.69-.09,1.45-.15,2.19-.43.57-.85,1.1-1.24,1.58,0-1.1,0-2.08,0-2.08a24.24,24.24,0,0,1-3,5c-.5.2-1.2.46-2,.71-2,.1-5.11-.33-5.31-1.08S17.66,185.15,20.36,182Z"/><path class="cls-13" d="M19.21,183.15c-.21.71.34.79,2.42-.11,3-1.32,6-7.29,6-7.29s-.05,1.37-.15,3.09c-.15,2.5-.41,5.75-.81,6.61-.68,1.44-.6-4.92-.6-4.92s-2.3,5-3.72,5.48-6.34.07-6.6-.88C15.59,184.55,17.09,185,19.21,183.15Z"/><g class="cls-15"><path class="cls-13" d="M18.54,185.38a3.16,3.16,0,0,0,1.61-.14,6.86,6.86,0,0,0,1.5-.65,7,7,0,0,0,1.2-1.11,3.06,3.06,0,0,0,.78-1.42c-.07,0-.51.61-1.08,1.13a8.21,8.21,0,0,1-1.22.9,7.8,7.8,0,0,1-1.32.75C19.3,185.16,18.53,185.3,18.54,185.38Z"/></g><path class="cls-14" d="M16.12,184.76c.43.6,2.17,1.49,4.87.89,3.15-.7,4.87-6.35,4.87-6.35-3.88,5.61-6.62,4.92-6.89,4.62-.11-.12-.08-.35,0-.58l.24-.19c-.21.71.34.79,2.42-.11,3-1.32,6-7.29,6-7.29s-.05,1.37-.15,3.09c-.15,2.5-.41,5.75-.81,6.61-.68,1.44-.6-4.92-.6-4.92s-2.3,5-3.72,5.48-6.34.07-6.6-.88C15.7,184.94,15.84,184.85,16.12,184.76Z"/><path class="cls-13" d="M55.64,83.2a47.69,47.69,0,0,1,7.69,20.69c1.13,11.53-3.62,31.43-3.62,31.43s6.11,17.18-.22,42.28c0,0-7.36,3.77-11.24-.11,0,0,2.87-22.5-.07-39.24a113,113,0,0,1-.9-31.42S42.53,127.18,41,136.22c0,0,1.92,18.4-10.24,40.6,0,0-8.08,2.81-12.37-.58a157,157,0,0,0,11.53-39.57s-.46-40.25,7-52.45C36.88,84.22,53.14,81.51,55.64,83.2Z"/><path class="cls-14" d="M55.64,83.2a47.69,47.69,0,0,1,7.69,20.69c1.13,11.53-3.62,31.43-3.62,31.43s6.11,17.18-.22,42.28c0,0-7.36,3.77-11.24-.11,0,0,2.87-22.5-.07-39.24a113,113,0,0,1-.9-31.42S42.53,127.18,41,136.22c0,0,1.92,18.4-10.24,40.6,0,0-8.08,2.81-12.37-.58a157,157,0,0,0,11.53-39.57s-.46-40.25,7-52.45C36.88,84.22,53.14,81.51,55.64,83.2Z"/><path class="cls-16" d="M59.53,135.92s-.23,1.1-.44,2.21l-.27,1.53a4.72,4.72,0,0,1-.15.69,3.21,3.21,0,0,1,0-.71c0-.42.11-1,.19-1.54.15-1.13.35-2.24.35-2.24s.23-1.11.51-2.21c.14-.54.28-1.09.4-1.5a4.37,4.37,0,0,1,.24-.67,4.41,4.41,0,0,1-.12.7c-.09.41-.2,1-.32,1.52C59.73,134.81,59.53,135.92,59.53,135.92Zm.09-.4a18.25,18.25,0,0,0,0,4.67,18.25,18.25,0,0,0,0-4.67Zm-21.29,7.24a2.75,2.75,0,0,0-.15.64,3.51,3.51,0,0,0,.26-.6l.51-1.34.71-1.94.62-2,.42-1.36a2.75,2.75,0,0,0,.15-.64,4.1,4.1,0,0,0-.26.6c-.14.36-.32.85-.5,1.33l-.71,1.95s-.32,1-.63,2C38.6,141.9,38.44,142.39,38.33,142.76Zm1.79-4s-.52,2.59-.44,2.61.73-2.54.73-2.54.51-2.59.43-2.61S40.12,138.71,40.12,138.71Zm-10.25-.61s.06,1,.18,2a14.31,14.31,0,0,0,.32,2c.05,0-.05-1-.11-2s-.09-2-.09-2-.06-1-.09-2,0-2-.07-2a12.93,12.93,0,0,0-.14,2C29.84,137.09,29.87,138.1,29.87,138.1Zm12.94-34.84a6.15,6.15,0,0,0,.82,1.28,11.87,11.87,0,0,0,1,1.14,14.37,14.37,0,0,0,1.21.94,5.32,5.32,0,0,0,1.34.72s-.63-.43-1.22-.89a13.9,13.9,0,0,1-1.12-1s-.56-.49-1.07-1S42.85,103.24,42.81,103.26Zm6.48-1.55a3.57,3.57,0,0,0-1.1.79,6.31,6.31,0,0,0-.85,1.07,6.13,6.13,0,0,0-.5,1.27,3.78,3.78,0,0,0-.14,1.35s.12-.67.34-1.29a8,8,0,0,1,1.31-2.26C48.77,102.14,49.32,101.75,49.29,101.71Zm-2.35,5a9.15,9.15,0,0,1,.67-1.14,6.06,6.06,0,0,1,.92-.93,12,12,0,0,1,1-.83,10.72,10.72,0,0,0,1.08-.79,6.52,6.52,0,0,0-1.2.62,9.59,9.59,0,0,0-1.11.78,5.79,5.79,0,0,0-.89,1A2.77,2.77,0,0,0,46.94,106.73Zm8.75-16.94a1.5,1.5,0,0,0-.1-.15s0,.06.08.17.14.26.24.46.24.45.38.73.29.6.45,1a31.58,31.58,0,0,1,1.88,5.34,40.7,40.7,0,0,1,1,5.58c.08.77.13,1.41.17,1.86l0,.71s.08,1,.11,2.57,0,3.62-.11,5.68-.27,4.12-.4,5.67l-.15,1.87c0,.22,0,.4,0,.52s0,.19,0,.19,0-.06,0-.18,0-.3.06-.53c0-.45.12-1.09.21-1.86.16-1.54.36-3.6.49-5.67s.2-4.14.17-5.69-.08-2.59-.08-2.59l0-.71c0-.45-.1-1.1-.19-1.87a40.13,40.13,0,0,0-1.07-5.6,31.41,31.41,0,0,0-2-5.34c-.17-.35-.33-.67-.49-.94s-.28-.52-.4-.72Zm1.77,45c-.08.64-.14,1.06-.12,1.06a.92.92,0,0,0,.08-.28c0-.18.1-.45.16-.76.12-.63.27-1.48.4-2.32.26-1.7.45-3.4.45-3.4s.16-1.71.23-3.42c0-.86.07-1.72.07-2.36,0-.32,0-.59,0-.78a1.79,1.79,0,0,0,0-.29,7.06,7.06,0,0,0-.09,1.07c0,.64-.11,1.49-.17,2.34-.13,1.71-.32,3.41-.32,3.41s-.15,1.7-.36,3.4C57.66,133.33,57.55,134.17,57.46,134.81Zm0,39.8c0,.12,0,.19,0,.19s0-.06.05-.19.06-.3.11-.53c.1-.47.23-1.14.39-1.93.31-1.6.7-3.74,1-5.88s.61-4.31.75-5.93.19-2.71.19-2.71.06-1.09,0-2.72a46.65,46.65,0,0,0-.39-6,37,37,0,0,0-1.24-5.84c-.12-.39-.24-.75-.35-1.06s-.2-.59-.29-.81-.15-.39-.2-.51l-.08-.18s0,.07,0,.19.1.3.18.52.16.5.26.82.21.67.31,1.06A38,38,0,0,1,59.38,149a48.93,48.93,0,0,1,.33,5.94c0,1.62-.07,2.7-.07,2.7s0,1.09-.17,2.71-.38,3.77-.69,5.92-.67,4.28-1,5.89c-.13.8-.25,1.47-.33,1.93Z"/><path class="cls-14" d="M48.25,177.49s.32-2.52.64-6.49c.92,1.62,2.24,2.75,4.12,2.49,5.63-.78,6.21-22.71,4.07-28.14-1.71-4.37-6.3-1.72-8-.51-.21-2.25-.49-4.46-.86-6.59-.43-2.45-.75-4.85-1-7.18,2.32,4.56,8.17,6.93,11.54-8.52,4.16-19.1-5-35.65-4.75-36.4a7.85,7.85,0,0,1,1.45-3.06l.21.11a47.69,47.69,0,0,1,7.69,20.69c1.13,11.53-3.62,31.43-3.62,31.43s6.11,17.18-.22,42.28C59.49,177.6,52.13,181.37,48.25,177.49Z"/><path class="cls-14" d="M21.32,169c1.42,3.47,5.18,4.08,9.33-2.21,5.53-8.35,6.09-22.23,2.55-23.5-1.65-.6-3.49.82-5,2.49.63-2.93,1.2-6,1.65-9.12,0,0-.06-5.29.22-12.61.69,5.15,2.19,11.15,5.38,9.47,5.38-2.83,7.5-29.46,7.5-29.46.54.27,3.86,3,4.19,3.25-.73,3.15-4.78,20.68-6.21,28.9,0,0,1.92,18.4-10.24,40.6,0,0-8.08,2.81-12.37-.58C18.34,176.24,19.6,173.55,21.32,169Z"/><g class="cls-17"><path class="cls-13" d="M48.45,130.39a7.86,7.86,0,0,0-.14-1.5c-.11-.89-.23-2.08-.31-3.28-.18-2.38-.12-4.77-.12-4.77s0-2.39.17-4.78c.1-1.19.23-2.38.35-3.27a8.07,8.07,0,0,0,.16-1.49,8.44,8.44,0,0,0-.38,1.45c-.19.89-.39,2.07-.55,3.27-.31,2.4-.35,4.82-.35,4.82s0,2.41.3,4.81c.14,1.2.32,2.39.5,3.28A8.27,8.27,0,0,0,48.45,130.39Z"/><path class="cls-13" d="M34.53,94.13a.58.58,0,0,0,.3-.09.58.58,0,0,0-.3-.09.57.57,0,0,0-.29.09A.57.57,0,0,0,34.53,94.13Z"/><path class="cls-13" d="M32.06,122.35a19.37,19.37,0,0,0,.07-2.12c0-1.27.06-3,.13-4.66.13-3.39.43-6.76.43-6.76s.22-3.37.62-6.74c.19-1.68.41-3.36.59-4.62a18.43,18.43,0,0,0,.26-2.11,1.92,1.92,0,0,0-.17.57c-.08.36-.2.88-.32,1.5-.24,1.25-.53,2.93-.78,4.61-.5,3.36-.79,6.75-.79,6.75s-.24,3.39-.26,6.79c0,1.7,0,3.4.06,4.67,0,.64.06,1.17.08,1.54A2.2,2.2,0,0,0,32.06,122.35Z"/><path class="cls-13" d="M31.51,126.81c.17,0,.19-1.53.19-1.53s-.24-1.51-.4-1.5-.19,1.54-.19,1.54S31.35,126.82,31.51,126.81Z"/><path class="cls-13" d="M50.56,166.46a9.46,9.46,0,0,0,.25-1.66c.11-1,.22-2.34.31-3.68.18-2.68.21-5.37.21-5.37s0-2.69-.17-5.37c-.08-1.34-.19-2.68-.29-3.69a11,11,0,0,0-.23-1.66,9.39,9.39,0,0,0,0,1.68c0,1,.06,2.34.1,3.68,0,2.68,0,5.36,0,5.36s0,2.67,0,5.35c-.05,1.34-.09,2.68-.12,3.68A11,11,0,0,0,50.56,166.46Z"/><path class="cls-13" d="M24.46,164.9a7.7,7.7,0,0,0,.64-1.43c.36-.87.78-2,1.18-3.23.81-2.37,1.44-4.79,1.44-4.79s.58-2.44,1-4.9c.2-1.24.37-2.48.47-3.41a8.1,8.1,0,0,0,.1-1.56,9.82,9.82,0,0,0-.33,1.53c-.17.92-.4,2.14-.66,3.36-.51,2.43-1.15,4.84-1.15,4.84s-.56,2.42-1.26,4.81c-.35,1.19-.71,2.38-1,3.27A9.88,9.88,0,0,0,24.46,164.9Z"/></g><path class="cls-14" d="M35.18,84.88A14.82,14.82,0,0,1,36.71,83c9.5-9.81,17.72-.95,17.72-.95a14.77,14.77,0,0,1,1.21,1.19l-8.91,5.53-3.8-3.8L38.5,87.78Z"/><path class="cls-11" d="M32.28,61.8c.26-3.21,1.84-6.16,3-9.11.9-2.24,1.9-6.32,3.9-7.89s12.34-.25,12.34-.25,8,3,8.27,4.23S55.7,62,54.84,66.53s-2.15,12-2.15,12L56,82l-9.18,5.7L43,83.91l-4.43,2.85-4.11-3.6s2.48-2.37,3.08-4.39c-.47-1.87-1.22-8.16-2.88-10.48C33.19,66.19,32.06,64.41,32.28,61.8Z"/><path class="cls-12" d="M53.83,83.37a6.93,6.93,0,0,0-1.06-1.77c-1.44-1.72-4.43-.69-5.38-.3,1.81-1,3.63-6.53,3.14-8.81s-6-2.24-10.14-1.72a6.63,6.63,0,0,0-4,1.88,14.1,14.1,0,0,0-1.65-4.36c-1.51-2.1-2.64-3.88-2.42-6.49a13.14,13.14,0,0,1,.34-2.07,8.53,8.53,0,0,0,1.06,3.64c1.2,1.38,2.24.18,6.88,1.38s7.74.69,11-3.27c2.63-3.18,4.25-8.35,4.78-10.25a9.06,9.06,0,0,1,2,3.43c-1.28,4.09-3,9.24-3.47,11.87-.86,4.52-2.15,12-2.15,12L56,82Z"/><path class="cls-3" d="M51,41.08s.53,5.38-1.59,6.33-4.5,1-5.29-1.27,0-5.38,0-5.38S50.73,39.81,51,41.08Z"/><path class="cls-5" d="M45.09,47.49c3.41-.52,5.51-4.44,4.38-3.87s-4.5.12-5.71-.07a14.17,14.17,0,0,1,.35-2.79s6.62-.95,6.88.32c0,0,.53,5.38-1.59,6.33C47.87,48.1,46.19,48.28,45.09,47.49Z"/><g class="cls-18"><g class="cls-19"><path class="cls-20" d="M39.19,67.05c.06.89.18,2.09.37,3.28s.42,2.36.63,3.24.38,1.45.38,1.45.16.58.45,1.43.7,2,1.06,3.12a15.29,15.29,0,0,1,.67,3.2,10,10,0,0,1,0,1.08,2.17,2.17,0,0,0,0,.41,2.5,2.5,0,0,0,.06-.41,8.24,8.24,0,0,0,0-1.09,13.89,13.89,0,0,0-.58-3.25c-.34-1.16-.74-2.28-1-3.14s-.43-1.43-.43-1.43-.17-.57-.39-1.44-.49-2-.7-3.21a15.34,15.34,0,0,1-.32-5.84,12.29,12.29,0,0,1,.32-1.19,29.37,29.37,0,0,1,1-3.34A106.4,106.4,0,0,0,45.35,47.8c-.44,1.43-1.18,2.82-1.73,4.22s-1.18,3-1.75,4.47A41.31,41.31,0,0,0,39.2,65,8.88,8.88,0,0,0,39.19,67.05Z"/></g><g class="cls-19"><path class="cls-11" d="M42.92,68.44a4.82,4.82,0,0,0,.73.24,8.69,8.69,0,0,0,1.69.22,9.71,9.71,0,0,0,1.7-.1c.23,0,.42-.08.56-.11l.21,0,.2-.06c.13,0,.32-.09.54-.18a9.36,9.36,0,0,0,1.54-.72,10,10,0,0,0,1.37-1,2.76,2.76,0,0,0,.52-.57s-.24.19-.6.48A10.16,10.16,0,0,1,50,67.5a9.66,9.66,0,0,1-1.53.65c-.22.08-.4.12-.53.16l-.2,0-.2,0c-.13,0-.31.08-.54.12a9.51,9.51,0,0,1-1.65.16,10.08,10.08,0,0,1-1.66-.13A5.29,5.29,0,0,0,42.92,68.44Z"/></g><g class="cls-19"><path class="cls-11" d="M51.13,79.82a1.69,1.69,0,0,0,.65-.44,3.7,3.7,0,0,0,.51-.61,4.19,4.19,0,0,0,.3-.73,1.69,1.69,0,0,0,.09-.78,6.45,6.45,0,0,0-.29.71,4.73,4.73,0,0,1-.36.65,3.94,3.94,0,0,1-.41.62C51.39,79.53,51.1,79.78,51.13,79.82Z"/></g><g class="cls-19"><path class="cls-11" d="M38.62,80.42s-.27-.34-.48-.72a4,4,0,0,1-.33-.77,3.88,3.88,0,0,1-.22-.81c-.07-.41,0-.85-.08-.85a1.76,1.76,0,0,0-.13.87,3.51,3.51,0,0,0,.15.89,3.89,3.89,0,0,0,.44.79A1.66,1.66,0,0,0,38.62,80.42Z"/></g><g class="cls-19"><path class="cls-11" d="M33.53,66.77s.26.35.59.61a6.27,6.27,0,0,0,.69.5,6.33,6.33,0,0,0,.79.34,2.25,2.25,0,0,0,.83.18,5.4,5.4,0,0,0-.75-.38c-.37-.18-.72-.4-.72-.4a7.36,7.36,0,0,1-.72-.41A5.73,5.73,0,0,0,33.53,66.77Z"/></g></g><path class="cls-12" d="M45.71,48.22s-3.19,3-3.81,1.35c0,0,0-.07,0-.11a25.27,25.27,0,0,1,1.88-4.61,2.67,2.67,0,0,0,2.32,2.35,4.43,4.43,0,0,0,4.56-2.66c.23,1.16.87,5.24-2.46,6.69C47.73,51.43,46.79,51,45.71,48.22Z"/><path class="cls-11" d="M51,43.13c.05-.39,1.29,3.82-2.4,7.5,0,0-1.23,1.36-2.83-2.82,0,0-3.19,2.95-3.8,1.35s1.78-5.61,1.78-5.61-.18,2.88,2.4,3.24A4.46,4.46,0,0,0,51,43.13Z"/><path class="cls-21" d="M51,43.13c.05-.39,1.29,3.82-2.4,7.5,0,0-1.23,1.36-2.83-2.82,0,0-3.19,2.95-3.8,1.35s1.78-5.61,1.78-5.61-.18,2.88,2.4,3.24A4.46,4.46,0,0,0,51,43.13Z"/><path class="cls-12" d="M42,48.62c.61,1.6,3.8-1.35,3.8-1.35,1.6,4.18,2.83,2.83,2.83,2.83a8.5,8.5,0,0,0,2.63-5.77,8.4,8.4,0,0,1-2.63,6.3S47.38,52,45.78,47.81c0,0-3.19,2.95-3.8,1.35a2,2,0,0,1-.09-.89A1.28,1.28,0,0,0,42,48.62Z"/><g class="cls-22"><path class="cls-11" d="M33.87,59.43a4.46,4.46,0,0,0,.2-.86,14.4,14.4,0,0,1,.52-1.84c.23-.66.5-1.31.69-1.8l.33-.81s1.84-5.33,1.69-5.39-2.25,5.18-2.25,5.18l-.28.83c-.17.5-.4,1.18-.58,1.86a9.92,9.92,0,0,0-.35,1.93A2.24,2.24,0,0,0,33.87,59.43Z"/><path class="cls-11" d="M33.77,62c.16,0,.19-.81.19-.81s-.24-.76-.4-.74-.19.82-.19.82S33.6,62.06,33.77,62Z"/><path class="cls-11" d="M39.33,80.1c.06,0-.4-.72-.73-1.45a10.9,10.9,0,0,1-.55-1.49,9.79,9.79,0,0,1-.44-1.53,15,15,0,0,0-.27-1.6,3.74,3.74,0,0,0-.15,1.66,8.39,8.39,0,0,0,.29,1.65,8.5,8.5,0,0,0,.75,1.51A3.61,3.61,0,0,0,39.33,80.1Z"/><path class="cls-11" d="M38.27,85.2a22.17,22.17,0,0,0-2.45-2.3l-.07,0h0s0,0,0,0l.16-.14a6.29,6.29,0,0,0,.72-.67,2.69,2.69,0,0,0,.73-1.07,9.18,9.18,0,0,0-1,.8,8.29,8.29,0,0,1-.76.54l-.45.27-.43.26.71.56A23.07,23.07,0,0,0,38.27,85.2Z"/></g><path class="cls-3" d="M64.16,22.39c.23-6.7-2.54-17.57-16.65-17.68S31.18,20.18,31.18,20.18a42.62,42.62,0,0,0-1.31,10.1C30,34.66,32.31,41.16,42.48,42.2s18-3.23,19.81-9.47a5.2,5.2,0,0,0,4.79-4.19C67.79,25.66,66.21,22.74,64.16,22.39Z"/><g class="cls-18"><path class="cls-3" d="M64.16,22.39a21.75,21.75,0,0,0-.83-6.75A17.23,17.23,0,0,0,61,10.83c2,3.42,2.4,8.55,2.29,11.67.17,0,.6-.09.89-.1Z"/><path class="cls-3" d="M66,23.53a6,6,0,0,1,.42,4,5.2,5.2,0,0,1-4.8,4.18C59.81,38,52,42.25,41.82,41.21c-5.35-.55-8.51-2.62-10.33-5.09,1.67,2.9,4.93,5.46,11,6.08,10.16,1,18-3.23,19.81-9.47a5.2,5.2,0,0,0,4.79-4.19A5.77,5.77,0,0,0,66,23.53Z"/></g><path class="cls-23" d="M37.26,26c0,1.34-.57,2.43-1.32,2.44S34.56,27.3,34.54,26s.56-2.44,1.32-2.44S37.23,24.61,37.26,26Z"/><path class="cls-24" d="M36.49,23.81a4.28,4.28,0,0,1,.16,1.05c0,1.35-.57,2.44-1.32,2.44A1,1,0,0,1,34.7,27c.23.81.71,1.37,1.24,1.37.75,0,1.34-1.1,1.32-2.44A3.05,3.05,0,0,0,36.49,23.81Z"/><path class="cls-25" d="M34.8,25.54c0,.46.14.85.38.87s.45-.33.48-.79-.13-.85-.37-.88S34.83,25.08,34.8,25.54Z"/><path class="cls-25" d="M35.73,24.31a.18.18,0,0,1-.17.19.19.19,0,0,1,0-.38A.18.18,0,0,1,35.73,24.31Z"/><path class="cls-23" d="M53.26,27.11c-.16,1.33-.88,2.34-1.63,2.25s-1.22-1.24-1.07-2.58.87-2.34,1.62-2.25S53.41,25.77,53.26,27.11Z"/><path class="cls-24" d="M52.81,24.94a4.31,4.31,0,0,1,0,.88c-.15,1.33-.88,2.34-1.63,2.25a1,1,0,0,1-.63-.41c.1.93.51,1.63,1.08,1.7.75.09,1.47-.92,1.63-2.25A3.1,3.1,0,0,0,52.81,24.94Z"/><path class="cls-25" d="M51,26.34c-.09.45,0,.86.26.91s.49-.27.59-.72,0-.87-.26-.92S51.07,25.89,51,26.34Z"/><path class="cls-25" d="M52.06,25.23a.17.17,0,0,1-.19.17.18.18,0,0,1-.15-.21.17.17,0,0,1,.19-.16A.17.17,0,0,1,52.06,25.23Z"/><path class="cls-4" d="M64.89,30.1a1,1,0,0,1-.41.83.76.76,0,0,1-.42.15.7.7,0,0,1-.52-.24,1.17,1.17,0,0,1-.3-.63.85.85,0,0,1,.21-.76,2,2,0,0,1,.44-.29.67.67,0,0,0,.2-.26.86.86,0,0,0,.06-.62.43.43,0,0,0-.31-.32.27.27,0,0,0-.12,0h-.14l-.07,0s0,0,0,0l-.11.16a.55.55,0,0,1-.44.3.37.37,0,0,1-.26-.12.58.58,0,0,1-.15-.28,3.91,3.91,0,0,1-.08-.87,4.17,4.17,0,0,1,0-.61,3.63,3.63,0,0,1,.31-1.12,2,2,0,0,1,.59-.72c.43-.31.79-.22.79-.17s-.31.11-.62.45A2.48,2.48,0,0,0,63,26.67c0,.18,0,.35,0,.53s0,.13,0,.17.07,0,.07,0h0l.09-.08a.93.93,0,0,1,.2-.1.9.9,0,0,1,.34-.06.79.79,0,0,1,.3.05,1.09,1.09,0,0,1,.28.16,1.4,1.4,0,0,1,.49.82,1.79,1.79,0,0,1-.19,1.22,1.13,1.13,0,0,1-.44.43c-.17.09-.3.13-.38.18a.25.25,0,0,0-.09.22.75.75,0,0,0,.13.34.42.42,0,0,0,.54.13C64.71,30.44,64.84,30.06,64.89,30.1Z"/><path class="cls-26" d="M65.53,24.74c.29.3.63.39.75.2s0-.58-.31-.88-.63-.39-.75-.2S65.23,24.45,65.53,24.74Z"/><path class="cls-26" d="M64.42,23.29a.33.33,0,0,0,.15.38.2.2,0,0,0,.31-.11.33.33,0,0,0-.14-.38A.21.21,0,0,0,64.42,23.29Z"/><path class="cls-27" d="M44.8,30.77a5.42,5.42,0,0,1-4.25-1.24s-1.22.74.91,1.59C44.28,32.26,44.8,30.77,44.8,30.77Z"/><path class="cls-4" d="M43.57,31.35a6,6,0,0,1-.89,0,5.35,5.35,0,0,1-1.82-.65,1.11,1.11,0,0,1-.57-.64.53.53,0,0,1,.26-.54,1.34,1.34,0,0,1,.5-.21,1,1,0,0,1,.21,0,2,2,0,0,1,.51,0,2.58,2.58,0,0,1,.59.11,3.3,3.3,0,0,1,.37.13,6.79,6.79,0,0,1,.77.51c0-.31,0-.65,0-1v-.6c0-.41,0-.83,0-1.21a6,6,0,0,0-.1-1.35,5.53,5.53,0,0,0-.18,1.34c0,.38-.07.8-.1,1.21l0,.61c0,.06,0,.08,0,.09s0,0-.07-.06a3.15,3.15,0,0,0-.43-.19,3.4,3.4,0,0,0-.72-.16,2.47,2.47,0,0,0-.62,0l-.28.05a2,2,0,0,0-.69.34,1.33,1.33,0,0,0-.36.44,1.06,1.06,0,0,0,0,.66,1.55,1.55,0,0,0,.85.89,4.93,4.93,0,0,0,2,.51A1.29,1.29,0,0,0,43.57,31.35Z"/><path class="cls-26" d="M41.68,29.66c-.06.13.13.34.42.46s.57.12.62,0-.12-.34-.41-.47S41.74,29.52,41.68,29.66Z"/><path class="cls-5" d="M52.31,29.33c2.1.09,3.76,1.26,3.7,2.6s-1.81,2.35-3.92,2.26-3.76-1.26-3.7-2.6S50.2,29.24,52.31,29.33ZM30.8,29.22c-.3,1.31,1.11,2.75,3.13,3.22s3.92-.21,4.21-1.52S37,28.17,35,27.7,31.1,27.91,30.8,29.22Z"/><path class="cls-23" d="M53,27.45s.24.07.47,0a1.6,1.6,0,0,0,.43-.22,1.51,1.51,0,0,0,.27-.39c.11-.22.12-.46.08-.47s-.12.2-.26.36a1.48,1.48,0,0,1-.29.28,1.94,1.94,0,0,1-.32.25C53.25,27.36,53,27.41,53,27.45Z"/><path class="cls-23" d="M52.68,28.09a.91.91,0,0,0,.49.18,1.81,1.81,0,0,0,.53,0,1.36,1.36,0,0,0,.49-.25c.23-.18.32-.44.28-.46s-.18.18-.4.29a1.23,1.23,0,0,1-.43.13,1.72,1.72,0,0,1-.46.07C52.94,28.07,52.69,28.05,52.68,28.09Z"/><path class="cls-23" d="M33.59,25.56s-.05.23.06.43a1.09,1.09,0,0,0,.3.33,1.08,1.08,0,0,0,.44.11c.22,0,.42-.1.4-.14s-.21,0-.38-.07a1,1,0,0,1-.3-.15,1.23,1.23,0,0,1-.28-.2C33.7,25.74,33.63,25.56,33.59,25.56Z"/><path class="cls-23" d="M33.34,26.72s0,.26.26.43a1.11,1.11,0,0,0,.47.24,1.21,1.21,0,0,0,.52-.07c.25-.1.42-.3.39-.33s-.23.1-.45.13a1.21,1.21,0,0,1-.41,0,1,1,0,0,1-.4-.12C33.52,26.88,33.37,26.7,33.34,26.72Z"/><path class="cls-28" d="M51.06,20.41c0,.07.4,0,.73,0a4.31,4.31,0,0,1,1.28.33c.31.13.59.37.65.33s-.1-.41-.42-.68a1.8,1.8,0,0,0-1.54-.4C51.35,20.09,51,20.34,51.06,20.41Z"/><path class="cls-28" d="M37.9,19.17c0,.07-.39-.07-.73-.09a4.45,4.45,0,0,0-1.31.12c-.33.08-.64.27-.7.22s.17-.39.53-.61a1.8,1.8,0,0,1,1.58-.14C37.66,18.82,38,19.11,37.9,19.17Z"/><path class="cls-5" d="M32.52,17.9c1.43-4.55,5.29-12.35,15-12.28,13.62.11,16.29,11,16.07,17.68,2,.35,3.5,3.27,2.82,6.15a5.05,5.05,0,0,1-4.63,4.19,12,12,0,0,1-5.41,6.83,21.24,21.24,0,0,0,1.34-3.09c1.88-5.37,3.15-13.61-.44-18.53a7.83,7.83,0,0,0-1-1.08,22.71,22.71,0,0,0-2.22-1.69c-1.28-.92-1.75-2.47-3.17-3.3a5.89,5.89,0,0,0-7.56,2C40.56,19,33.12,18,32.52,17.9Z"/><path class="cls-28" d="M56.74,17.12a8,8,0,0,1,1,1.09c3.59,4.92,2.31,13.15.44,18.53a15.66,15.66,0,0,1-4,6.58s11.21-1.86,14.38-6.12,3-22.79-1.29-28S59.8,5.37,59.8,5.37,56.37-.58,46.36.05,32,9,30.27,12.37s-4.16,15.69-2.91,24.12c.38,2.62,5.82,5.24,5.82,5.24s-5.48-10-.26-24.48c0,0,8,1.24,10.87-3.1a5.88,5.88,0,0,1,7.57-2c1.41.82,1.89,2.38,3.17,3.3A21.36,21.36,0,0,1,56.74,17.12Z"/><path class="cls-14" d="M52.5,5.93l-.45-.41A5.76,5.76,0,0,1,52.5,5.93Z"/><path class="cls-14" d="M63.25,7.08C63,8.12,65,10.73,65,10.73s-3.4-2.48-4.66-2.22,1,3.91,1,3.91-3.4-3-4.91-1.3c-1.05,1.19-.32,4.22.21,5.93a25.25,25.25,0,0,0-2.13-1.61c-1.28-.92-1.76-2.48-3.17-3.3l-.16-.08c.85-.16,1.38-.54.85-1.33a8.17,8.17,0,0,0-3.27-2.87s5.66,2.09,5.29.52A5.65,5.65,0,0,0,52.5,5.93c.89.78,2.82,2.34,3.2,1.54.5-1-.88-3.26-.88-3.26s3.65,2,3.9.53a2.5,2.5,0,0,0,0-.75A7.68,7.68,0,0,1,59.8,5.37s2.47-1.11,6,2.24C64.84,7.07,63.41,6.39,63.25,7.08Z"/><g class="cls-29"><path class="cls-13" d="M60,17.92A9.37,9.37,0,0,0,59,16.48c-.51-.69-1.08-1.33-1.08-1.33s-.58-.62-1.22-1.18l-.47-.41a2.07,2.07,0,0,0-.46-.31.48.48,0,0,0-.4,0,.18.18,0,0,0-.1.12s0,0,.12-.06a.44.44,0,0,1,.33.07,2,2,0,0,1,.4.34l.44.43c.6.6,1.15,1.24,1.15,1.24s.59.61,1.13,1.26S59.92,18,60,17.92Z"/><path class="cls-13" d="M62.51,25.36a1.61,1.61,0,0,0,0-.31c0-.19,0-.46,0-.8a16.81,16.81,0,0,0-.15-2.42,17.83,17.83,0,0,0-.53-2.38c-.09-.32-.19-.58-.25-.76l-.1-.29-.12-.28c-.08-.17-.17-.44-.32-.73a16.5,16.5,0,0,0-1.2-2.1,14.36,14.36,0,0,0-1.5-1.87,5.53,5.53,0,0,0-.56-.55c-.14-.13-.22-.2-.23-.19s.29.33.71.82a16.94,16.94,0,0,1,1.42,1.91,17.68,17.68,0,0,1,1.12,2.1c.14.29.23.55.3.72s.12.28.12.28l.1.28c.06.18.17.43.26.74a18,18,0,0,1,.58,2.33,19.42,19.42,0,0,1,.24,2.4C62.5,24.91,62.48,25.35,62.51,25.36Z"/><path class="cls-13" d="M52.77,3.53a14,14,0,0,1,1.32.65,6.17,6.17,0,0,1,1.12.94,6.5,6.5,0,0,1,.91,1.16c.38.64.58,1.38.62,1.37a3.78,3.78,0,0,0-.45-1.47,5.77,5.77,0,0,0-.88-1.27A6,6,0,0,0,54.19,4,3.42,3.42,0,0,0,52.77,3.53Z"/><path class="cls-13" d="M54.26,7.1s.15.22.31.41.3.39.3.39.17.17.33.36.31.39.35.37a1.17,1.17,0,0,0-.18-.49c-.13-.23-.28-.44-.28-.44a4.31,4.31,0,0,0-.38-.35C54.51,7.19,54.29,7.07,54.26,7.1Z"/><path class="cls-13" d="M46,8.26a4.19,4.19,0,0,0,.62-.16A5.16,5.16,0,0,1,48,8a6.6,6.6,0,0,1,2,.37s.24.07.59.21a10.33,10.33,0,0,1,1.27.58c.91.48,1.77,1.06,1.8,1a2.67,2.67,0,0,0-.51-.41c-.31-.23-.74-.52-1.19-.79a10.47,10.47,0,0,0-1.27-.66c-.36-.15-.61-.23-.61-.23a5.23,5.23,0,0,0-.63-.17A6.64,6.64,0,0,0,48,7.75a4.69,4.69,0,0,0-1.4.24A1.94,1.94,0,0,0,46,8.26Z"/><path class="cls-13" d="M36.87,15.59a1.39,1.39,0,0,0,.64.13,3.71,3.71,0,0,0,1.42-.25,5.57,5.57,0,0,0,1.27-.7c.32-.24.52-.41.52-.41s.2-.18.48-.46.64-.67,1-1.05l1-1.07a3.86,3.86,0,0,0,.42-.51,3.23,3.23,0,0,0-.5.43c-.29.27-.67.63-1,1s-.76.72-1,1l-.48.43s-.19.18-.49.42a5.61,5.61,0,0,1-1.2.73,3.82,3.82,0,0,1-1.34.32C37.12,15.62,36.87,15.57,36.87,15.59Z"/><path class="cls-13" d="M35,14.89s.73-.69,1.47-1.36S38,12.22,38,12.22s.74-.67,1.52-1.29S41.05,9.71,41,9.68a2.34,2.34,0,0,0-.55.3c-.31.2-.73.49-1.13.78-.82.58-1.59,1.23-1.59,1.23s-.75.67-1.46,1.39c-.35.36-.69.73-.94,1A3.27,3.27,0,0,0,35,14.89Z"/><path class="cls-13" d="M33.41,16.42s.41-.81.87-1.59,1-1.5,1-1.5a17.07,17.07,0,0,1,1.07-1.44c.57-.69,1.21-1.31,1.19-1.35a7.54,7.54,0,0,0-1.34,1.21A16.86,16.86,0,0,0,35,13.15a16.43,16.43,0,0,0-.92,1.58A8.39,8.39,0,0,0,33.41,16.42Z"/><path class="cls-13" d="M32.07,14.87s.17-.32.4-.8.55-1.12.9-1.74a15.85,15.85,0,0,1,1-1.66c.3-.43.52-.71.52-.71a12.49,12.49,0,0,1,1.91-2,9.75,9.75,0,0,1,1.59-1.08c.45-.25.78-.38.77-.4A.65.65,0,0,0,39,6.5a6.15,6.15,0,0,0-.59.24,8.3,8.3,0,0,0-1.66,1,11.3,11.3,0,0,0-1.44,1.34c-.36.4-.58.69-.58.69s-.22.28-.51.73a18.72,18.72,0,0,0-1,1.71c-.32.65-.62,1.3-.82,1.8A4.9,4.9,0,0,0,32.07,14.87Z"/><path class="cls-13" d="M29.47,15.53a1.57,1.57,0,0,0,.53.94,3,3,0,0,0,.89.6,5,5,0,0,0,1,.25,3.46,3.46,0,0,0,1,0,6.93,6.93,0,0,0-1-.23,5.56,5.56,0,0,1-1-.31,3,3,0,0,1-.87-.49A3.94,3.94,0,0,1,29.47,15.53Z"/><path class="cls-13" d="M32,11.73a4.82,4.82,0,0,0-.81,1.1,13.43,13.43,0,0,0-.63,1.22,10.4,10.4,0,0,0-.42,1.31A4.94,4.94,0,0,0,30,16.72s.19-.65.41-1.29.49-1.26.49-1.26.24-.63.55-1.24S32.07,11.76,32,11.73Z"/><path class="cls-13" d="M63.07,32.38a3,3,0,0,0,.16-.34c.08-.23.23-.54.35-.94a24,24,0,0,0,.81-2.93,27,27,0,0,0,.41-3c0-.41,0-.76,0-1s0-.38,0-.38v-.39c0-.24,0-.59,0-1a24.09,24.09,0,0,0-.37-3,23.07,23.07,0,0,0-.77-2.95c-.12-.39-.26-.71-.35-.93a1.44,1.44,0,0,0-.15-.35,2.21,2.21,0,0,0,.1.37c.07.23.19.55.3.95a29.19,29.19,0,0,1,.67,2.94,27.23,27.23,0,0,1,.31,3c0,.41,0,.76,0,1v.37s0,.14,0,.38,0,.59,0,1a27.83,27.83,0,0,1-.34,3,26,26,0,0,1-.71,2.94c-.11.39-.24.71-.31.94A2.21,2.21,0,0,0,63.07,32.38Z"/><path class="cls-13" d="M66.15,12.91a5.61,5.61,0,0,0-.52-1.61,10.48,10.48,0,0,0-.85-1.47,10.56,10.56,0,0,0-1.14-1.24,5.74,5.74,0,0,0-1.36-1s.64.51,1.22,1.11a10.41,10.41,0,0,1,1,1.26,11.79,11.79,0,0,1,.9,1.39C65.84,12.13,66.11,12.92,66.15,12.91Z"/><path class="cls-13" d="M68.37,31.69a2.71,2.71,0,0,0,.1-.36c0-.24.13-.58.2-1a28.31,28.31,0,0,0,.4-3c.08-1.1.1-2.21.08-3.05,0-.41,0-.76,0-1v-.39l0-.38c0-.24,0-.58-.11-1-.1-.82-.28-1.92-.52-3a30.21,30.21,0,0,0-.83-2.92c-.13-.4-.26-.72-.35-.94a1.44,1.44,0,0,0-.15-.35,2.21,2.21,0,0,0,.1.37c.07.23.18.55.29.95.24.79.51,1.86.74,2.94s.38,2.17.46,3c0,.41.07.75.09,1l0,.38,0,.37c0,.25,0,.59.06,1,0,.83,0,1.93,0,3s-.19,2.2-.31,3c0,.41-.12.74-.15,1A1.53,1.53,0,0,0,68.37,31.69Z"/><path class="cls-13" d="M62.2,39.52s.08-.07.2-.2a6,6,0,0,0,.49-.58,15.27,15.27,0,0,0,1.25-1.92,19.64,19.64,0,0,0,.94-2.11c.22-.59.35-1,.35-1s.12-.41.28-1,.32-1.44.47-2.27.25-1.66.31-2.29c0-.31.05-.57.07-.76a1.1,1.1,0,0,0,0-.29s-.08.42-.18,1-.24,1.44-.4,2.26-.36,1.64-.53,2.24-.29,1-.29,1-.12.4-.32,1A22.58,22.58,0,0,1,64,36.72a17,17,0,0,1-1.16,2A10.37,10.37,0,0,0,62.2,39.52Z"/><path class="cls-13" d="M28.32,24.27s.15-.8.3-1.6.33-1.58.33-1.58.16-.79.35-1.58a15.89,15.89,0,0,0,.39-1.57,7.78,7.78,0,0,0-.58,1.51c-.25.78-.44,1.57-.44,1.57s-.15.81-.25,1.62A8.47,8.47,0,0,0,28.32,24.27Z"/><path class="cls-13" d="M29.83,37.12s-.18-.3-.39-.79a8.08,8.08,0,0,1-.5-1.85c-.22-1.4-.31-2.81-.31-2.81s-.14-1.41-.15-2.83c0-.7,0-1.41,0-1.94a8.75,8.75,0,0,0,0-.89,4.83,4.83,0,0,0-.12.88c-.05.53-.1,1.24-.11,1.95,0,1.43.07,2.85.07,2.85s.12,1.43.39,2.83a7.67,7.67,0,0,0,.6,1.86,4.62,4.62,0,0,0,.33.56Z"/><path class="cls-13" d="M62.71,10.37a2.85,2.85,0,0,0-.74-1,4.93,4.93,0,0,0-1-.71,5,5,0,0,0-1.18-.35,3,3,0,0,0-1.21,0c0,.05.6,0,1.17.17a4.9,4.9,0,0,1,1.1.41,5.42,5.42,0,0,1,1,.61C62.31,9.91,62.68,10.4,62.71,10.37Z"/><path class="cls-13" d="M60.56,11.29a3,3,0,0,0-.5-.82,5.67,5.67,0,0,0-.62-.73,3.48,3.48,0,0,0-.8-.53A1.58,1.58,0,0,0,57.71,9s.45.13.84.37a4.37,4.37,0,0,1,.7.57,8.57,8.57,0,0,1,.66.64A5.22,5.22,0,0,0,60.56,11.29Z"/></g><path class="cls-14" d="M66.56,27.09a2.05,2.05,0,0,1-.13.73C66.46,27.3,66.53,27,66.56,27.09Z"/><path class="cls-14" d="M58.16,36.74c1.36-3.9,2.4-9.32,1.5-13.87,2.18,6-1.57,15.39,1,15.08,2.37-.3,5.14-7.73,5.79-10.13-.12,1.61,0,5.23,1.95,4.63,1.73-.55,2.08-6.53,2.24-10.29.35,6.28-.38,12.75-2.09,15-3.17,4.26-14.38,6.12-14.38,6.12A15.66,15.66,0,0,0,58.16,36.74Z"/><path class="cls-14" d="M27.36,36.49c-.1-.66-.17-1.35-.23-2.05a5.56,5.56,0,0,0,2.7,2.68c2.5.77.05-2.38.16-5.36S32,19.15,30.1,19c-.8,0-1.6,1.18-2.26,2.6a37.57,37.57,0,0,1,2.43-9.26c.37-.73.87-1.7,1.52-2.77-.49,1.87-.94,4.38-.14,5.08,1.33,1.15,5.2-3.67,5.53-3.9S33.53,14.91,35,15.83,43.1,11.7,43.1,11.7s-2.6,2.86-2.27,3.44c.21.36,2-.64,3.28-1.43-.11.14-.22.29-.32.44-2.91,4.34-10.87,3.1-10.87,3.1-5.22,14.46.26,24.48.26,24.48S27.74,39.11,27.36,36.49Z"/><g class="cls-15"><path class="cls-13" d="M67.7,11.38A13.5,13.5,0,0,1,70,19.61a.09.09,0,0,1-.17,0c-.32-1.37-.61-2.77-1-4.12s-1-2.62-1.35-4c0-.12.13-.24.22-.13Z"/></g><g class="cls-15"><path class="cls-13" d="M70,21.3a4.56,4.56,0,0,1,.11,1.52c0,.14-.23.14-.21,0a4.82,4.82,0,0,0-.06-1.47c0-.12.14-.16.16-.05Z"/></g><g class="cls-15"><path class="cls-13" d="M65.89,14.42c2.1,2.3,2.88,7.09,2.34,10.11-.08.44-.67.36-.79,0a40.66,40.66,0,0,1-1.07-5.27,20.06,20.06,0,0,1-.77-4.71.17.17,0,0,1,.29-.13Z"/></g><g class="cls-15"><path class="cls-13" d="M66,22.82a16.36,16.36,0,0,1-.26,5.88c0,.13-.27.12-.26,0,.08-1,.37-1.92.43-2.91a23.88,23.88,0,0,0,0-2.93c0-.09.12-.09.13,0Z"/></g><g class="cls-15"><path class="cls-13" d="M60.8,13.37c1.67,2.09,3.28,5,2.62,7.8a.25.25,0,0,1-.49,0c-1-2.5-1.12-5.25-2.2-7.74,0,0,0-.1.07-.06Z"/></g><g class="cls-15"><path class="cls-13" d="M60.42,19.19a14,14,0,0,1,1,10.08.11.11,0,0,1-.21,0,29.56,29.56,0,0,0-1.08-9.91c-.06-.19.22-.32.31-.14Z"/></g><g class="cls-15"><path class="cls-13" d="M53.76,2.72A28.86,28.86,0,0,0,48,1.39c-.31,0-.21-.5.07-.52a10.92,10.92,0,0,1,5.82,1.65c.1.06,0,.25-.09.2Z"/></g><g class="cls-15"><path class="cls-13" d="M51.7,4.25c-1.6,0-3.1-.32-4.72-.43-1.94-.14-3.87,0-5.8.05a.3.3,0,0,1-.2-.5c2.34-2.45,5.88-2.17,8.8-1.12.55.2,2.24.64,2.15,1.55,0,.14,0,.44-.23.45Z"/></g><g class="cls-15"><path class="cls-13" d="M40,4.56a2.69,2.69,0,0,1-.33.26L39.2,5a3,3,0,0,1-.81.38A.36.36,0,0,1,38,4.88a1.43,1.43,0,0,1,.75-.66,1.85,1.85,0,0,1,1-.23c.24,0,.47.38.23.57Z"/></g><g class="cls-15"><path class="cls-13" d="M48.72,9.81c-.81.38-1.71.44-2.53.86a14,14,0,0,0-2.46,1.73.15.15,0,0,1-.24-.19c.89-1.56,3.41-3.16,5.22-2.52,0,0,.07.1,0,.12Z"/></g><g class="cls-15"><path class="cls-13" d="M45.57,9.4c-.92.66-1.84,1.27-2.81,1.85S40.83,12.1,40,12.7c-.35.24-.85-.26-.59-.61a7.08,7.08,0,0,1,2.28-2.37,18.13,18.13,0,0,1,3.48-1.34c.61-.19.9.67.41,1Z"/></g><g class="cls-15"><path class="cls-13" d="M50,5.64c-2.11.54-4.29.67-6.38,1.35s-4,1.86-6.11,2.47c-.4.12-.61-.37-.38-.66,2.69-3.37,9-4.71,12.87-3.2,0,0,0,0,0,0Z"/></g><g class="cls-15"><path class="cls-13" d="M36.26,9.82l-.77.69c-.11.1-.26,0-.15-.15l.74-.73c.12-.12.3.08.18.19Z"/></g><path class="cls-30" d="M60.34,23.51l-.06.95c-.5.26-1,.52-1.49.79l-.66.35-.4-.86C58.6,24.34,59.47,23.92,60.34,23.51Z"/><path class="cls-31" d="M60.31,24l0,.47-.57.3-.76.4,0,0-.13.07-.66.35-.05-.11,0,0-.15-.32Z"/><path class="cls-30" d="M45.25,24.81l.41-.71a7.42,7.42,0,0,0-4.4-.29l.34.74A6.47,6.47,0,0,1,45.25,24.81Z"/><path class="cls-31" d="M45.25,24.81a6.47,6.47,0,0,0-3.65-.26l-.15-.33a7.47,7.47,0,0,1,4,.29Z"/><path class="cls-32" d="M58,24.89s-6.41-3.78-12.46-.4c0,0-.81,7.63,5.68,7.83S58,24.89,58,24.89Z"/><g class="cls-22"><path class="cls-33" d="M48.91,23.28l3.66,8.95a6.57,6.57,0,0,1-1.36.09,4.56,4.56,0,0,1-.54,0L47,23.8A10.36,10.36,0,0,1,48.91,23.28Z"/><path class="cls-33" d="M53.43,23.3l2.76,6.78a5.86,5.86,0,0,1-1.4,1.31l-3.57-8.3A13.93,13.93,0,0,1,53.43,23.3Z"/></g><path class="cls-32" d="M45.5,25.55a7.84,7.84,0,0,1,0-1.06c6-3.38,12.46.4,12.46.4a9.67,9.67,0,0,1-.16,1.26A13.37,13.37,0,0,1,45.5,25.55Z"/><path class="cls-30" d="M51.2,32.72A5.91,5.91,0,0,1,47,31c-2.31-2.39-1.92-6.4-1.9-6.56l0-.2.19-.11c6.21-3.47,12.86.37,12.93.41l.21.12v.22c0,.08-.38,7.82-7,7.82Zm-5.25-8c-.05.8-.1,3.91,1.69,5.76a5,5,0,0,0,3.59,1.43c5.43.19,6.21-5.56,6.31-6.81C56.41,24.52,51,22,46,24.73Z"/><path class="cls-31" d="M51.24,32.32h.25c6.07,0,6.41-7.13,6.41-7.2v-.21l-.19-.11c-.06,0-6.19-3.58-11.92-.38l-.17.1,0,.18c0,.16-.37,3.85,1.75,6.05A5.41,5.41,0,0,0,51.24,32.32Zm0-.4a5,5,0,0,1-3.59-1.43c-1.79-1.85-1.74-5-1.69-5.76,5.08-2.71,10.46-.21,11.59.38C57.44,26.36,56.66,32.11,51.23,31.92Z"/><path class="cls-32" d="M41.38,24.16s-6-4.22-12.38-1.26c0,0-1.56,7.54,4.89,8.19S41.38,24.16,41.38,24.16Z"/><g class="cls-22"><path class="cls-33" d="M32.5,21.92l2.75,9.18a6.89,6.89,0,0,1-1.36,0L33.35,31l-2.79-8.71A11.5,11.5,0,0,1,32.5,21.92Z"/><path class="cls-33" d="M37,22.26l2.09,6.94a5.77,5.77,0,0,1-1.54,1.21l-2.72-8.52A14,14,0,0,1,37,22.26Z"/></g><path class="cls-32" d="M28.87,24A7.62,7.62,0,0,1,29,22.9c6.37-3,12.38,1.26,12.38,1.26a10.24,10.24,0,0,1-.28,1.24A13.32,13.32,0,0,1,28.87,24Z"/><path class="cls-30" d="M33.83,31.49a5.71,5.71,0,0,1-4-2C27.75,27,28.54,23,28.57,22.83l0-.2.19-.09c6.54-3,12.79,1.26,12.85,1.3l.2.14,0,.22c0,.08-1.15,7.77-7.72,7.31Zm-4.44-8.33c-.12.8-.48,3.89,1.12,5.86a4.86,4.86,0,0,0,3.43,1.68c5.4.56,6.74-5.11,7-6.36C39.85,23.68,34.73,20.81,29.39,23.16Z"/><path class="cls-31" d="M33.92,31.1l.24,0c6.05.42,7.1-6.66,7.11-6.73l0-.21-.18-.13c-.06,0-5.81-4-11.84-1.19l-.18.08,0,.18c0,.15-.76,3.81,1.14,6.15A5.23,5.23,0,0,0,33.92,31.1Zm0-.4A4.86,4.86,0,0,1,30.51,29c-1.6-2-1.24-5.06-1.12-5.86,5.34-2.35,10.46.52,11.52,1.18C40.68,25.59,39.34,31.26,33.94,30.7Z"/><path class="cls-3" d="M61.86,107.41c-.07.31-2.42,3.81-1.21,4.51s1.82-1.72,2.49-1.67-1,7-.08,7.49,3.24-2.71,3.74-3.4c0,0,0,1.21.45,1.17s.91-5.5.67-7.81S62.11,106.19,61.86,107.41Z"/><path class="cls-4" d="M65.56,112.26a10.23,10.23,0,0,1-.31,1.52c-.19.76-.42,1.5-.42,1.5l-.16.46c-.1.28-.23.65-.39,1a2.42,2.42,0,0,1-.64.88.6.6,0,0,1-.45.19,1.27,1.27,0,0,0,.39-.26,2.36,2.36,0,0,0,.54-.88c.14-.36.25-.73.34-1l.14-.46s.26-.73.49-1.47S65.53,112.25,65.56,112.26Zm.52,1.68c-.27.65-.59,1.29-.59,1.29l-.18.4a6.84,6.84,0,0,1-.47.85,4,4,0,0,1-.61.74,3.88,3.88,0,0,0-.35.28,1.05,1.05,0,0,0,.4-.21,3.15,3.15,0,0,0,.7-.71,5.57,5.57,0,0,0,.52-.85c.12-.24.21-.4.21-.4s.29-.66.52-1.33a7.59,7.59,0,0,0,.39-1.39S66.35,113.28,66.08,113.94Zm1-1.35a5.87,5.87,0,0,1-.17.72,7.32,7.32,0,0,1-.2.72,6.42,6.42,0,0,0-.25.71,2.16,2.16,0,0,0,.41-.65,6.3,6.3,0,0,0,.27-.72,6.85,6.85,0,0,0,.11-.76,2.29,2.29,0,0,0-.05-.77S67.19,112.22,67.12,112.59Z"/><path class="cls-5" d="M67.25,115.51c.09,0,.17-.2.26-.52a5.76,5.76,0,0,1-.22-2.38c0-.06-1.54,3.49-2.78,3.7s-.53-3.54-.72-4.83-.65-1.23-.65-1.23c.67,0-1,7-.08,7.49s3.24-2.71,3.74-3.4C66.8,114.34,66.78,115.55,67.25,115.51Z"/><path class="cls-5" d="M60.65,111.92c.65.37,1.12-.14,1.53-.7a1.14,1.14,0,0,1-.81.2c-.9-.16.15-4.1,1.86-2.92,1.26.88,3.61.51,4.75.25,0-.39,0-.75-.06-1-.23-2.3-5.81-1.51-6.06-.29C61.79,107.72,59.44,111.22,60.65,111.92Z"/><path class="cls-11" d="M58.79,47.81A16.35,16.35,0,0,0,56,53c-1.74,5.83,5.78,25.4,5.8,27.4s-1,26.08-1,26.08,4.84,3.34,7.41,1.11,1.19-27.47.56-30.26S62.9,49.2,58.79,47.81Z"/><path class="cls-12" d="M68.15,107.59c-2.57,2.23-7.41-1.11-7.41-1.11s1-24.08,1-26.08S54.21,58.83,56,53a12.75,12.75,0,0,1,.6-1.57c0,.11,0,.21,0,.34-.31,6.35,2.61,13,3.75,15.51S64.45,76.85,64,78s-2.71,26.34,1.35,26.65c2.49.19,3.61-1.89,4.1-3.52C69.29,104.45,68.88,107,68.15,107.59Z"/><path class="cls-34" d="M67.86,77.18a7.91,7.91,0,0,0-.42-1.65c-.14-.37-.24-.57-.24-.57s.12.19.3.55a7.61,7.61,0,0,1,.55,1.63,43.54,43.54,0,0,1,.54,5.62c.24,4.41.25,8,.25,8s-.4-3.55-.64-8C68.05,80.59,68.08,78.59,67.86,77.18Zm.8,17.28c.09,1.43.29,2.6.29,2.6a12.28,12.28,0,0,0,.1-2.62,12.84,12.84,0,0,0-.43-2.58S68.57,93,68.66,94.46ZM63.44,58.29A39,39,0,0,0,60.58,52s1.23,2.85,2.49,6.47c.63,1.8,1.15,3.45,1.52,4.65a11.1,11.1,0,0,0,.73,1.9A14.34,14.34,0,0,1,64.78,63,42.4,42.4,0,0,0,63.44,58.29Zm-6.07-7.58a4.41,4.41,0,0,0-.21,1.85,4.6,4.6,0,0,0,.15.75,8.44,8.44,0,0,1,1.57-4.72,3.87,3.87,0,0,0-.57.51A4.56,4.56,0,0,0,57.37,50.71Z"/><g class="cls-18"><path class="cls-3" d="M46.6,37.23h0c.12-.2.23-.41.34-.61a1.58,1.58,0,0,1,.12-.15h0A12.36,12.36,0,0,0,48,35.05h0c.14-.24.25-.46.33-.63h0a1.73,1.73,0,0,0,.12-.26,2.91,2.91,0,0,0,.51.19c.34.08.69,0,.7,0s-.29-.19-.55-.35a3.47,3.47,0,0,1-.46-.36,3.25,3.25,0,0,1-.48-.34c-.23-.19-.42-.45-.5-.42s0,.38.17.68a.35.35,0,0,1,0,.08c-.16.1-.31.21-.47.3l-.13.06a5.75,5.75,0,0,1-1.87-.06c-1.62-.32-2.81-.46-3.54.11a2.13,2.13,0,0,0-1.27-.92,6.27,6.27,0,0,0-1.57.08l.12-.19c.14-.28.14-.6,0-.61s-.21.21-.39.37a2.11,2.11,0,0,1-.39.25,1.79,1.79,0,0,1-.38.26c-.21.11-.47.14-.49.22s.27.21.59.19a1.65,1.65,0,0,0,.61-.18,1.58,1.58,0,0,0,.28-.31l.21.19,0,0h0v.29c0,.07,0,.16,0,.25v.09c0,.1,0,.22,0,.34a.28.28,0,0,0,0,.09c0,.12,0,.24,0,.37s0,.09,0,.14,0,.24,0,.36a1.77,1.77,0,0,0,0,.21c0,.08,0,.16,0,.24.06.29.12.58.21.88,0,0,0,.06,0,.09h0c.51,1.67,1.57,3.29,3.83,3.15,1.28-.09,2.3-1.17,3.06-2.42Z"/><path class="cls-3" d="M43.17,41.06a2.45,2.45,0,0,1-.39-.31c-.18-.18-.32-.4-.36-.39a.91.91,0,0,0,.2.52,2.3,2.3,0,0,0,.37.42,2.21,2.21,0,0,0,.5.24c.27.09.55.08.55,0s-.24-.11-.46-.23A2.67,2.67,0,0,1,43.17,41.06Z"/></g><path class="cls-4" d="M47.4,32.45c-.07,0,0,.37.17.68a2.45,2.45,0,0,0,.46.55,2.36,2.36,0,0,0,.66.28c.35.08.7,0,.7,0s-.29-.19-.54-.35a3.21,3.21,0,0,1-.47-.36,3.25,3.25,0,0,1-.48-.34C47.67,32.67,47.48,32.42,47.4,32.45Z"/><path class="cls-4" d="M37.29,33.08c0,.08.27.21.59.18a1.53,1.53,0,0,0,.61-.17,1.66,1.66,0,0,0,.4-.5C39,32.3,39,32,39,32s-.22.21-.4.36a1.63,1.63,0,0,1-.39.25,1.63,1.63,0,0,1-.38.27C37.57,33,37.31,33,37.29,33.08Z"/><path class="cls-27" d="M39,33.51h0v-.13h0v-.1h0v-.07h0V33.1h0A6.22,6.22,0,0,1,40.56,33a2.13,2.13,0,0,1,1.27.92c.73-.57,1.91-.43,3.53-.11a3.44,3.44,0,0,0,2.72-.56l.14.42h0l0,.06h0l-.12.26h0q-.12.26-.33.63h0a11.6,11.6,0,0,1-.92,1.43h0a7.53,7.53,0,0,1-.75.87l0,0-.27.26h0a4,4,0,0,1-2.62,1.15c-3.6,0-4.1-3.36-4.16-4.73h0A.76.76,0,0,0,39,33.51Z"/><path class="cls-30" d="M47.92,33s-1.57,6.2-4.72,6.41c-4.51.29-4.26-6.5-4.26-6.5S43.76,36.05,47.92,33Z"/><path class="cls-35" d="M39,33l-.05,0a11.23,11.23,0,0,0,.44,3.35c.06-1.17,1.1-.22,1.1-.22S43.46,36,45,36c1,0,.9,1,.7,1.79l.3-.42.12-.18.2-.34.11-.18.25-.47L46.8,36c.06-.11.11-.22.16-.33a1.67,1.67,0,0,0,.08-.2c.07-.15.13-.3.19-.44a1.46,1.46,0,0,0,.07-.19l.12-.29.06-.17c.05-.13.09-.26.13-.37a.93.93,0,0,0,0-.13,2.25,2.25,0,0,0,.08-.24.56.56,0,0,1,0-.12c0-.08,0-.17.07-.24v0l0-.14v0l0,0C44,35.88,39.48,33.27,39,33Z"/><path class="cls-23" d="M47,33.8s-1.61,4-4,4.18c-3.37.22-3.74-4.66-3.74-4.66S43.89,35.85,47,33.8Z"/><path class="cls-36" d="M43.05,38.81c0,.19.42.22.84.07s.72-.42.68-.6-.41-.23-.83-.08S43,38.62,43.05,38.81Z"/><path class="cls-37" d="M47.06,33.84s-.17.27-.46.65a4.53,4.53,0,0,1-3.92,1,2.87,2.87,0,0,1-2.47-2.31h0S44.17,35.13,47.06,33.84Z"/><path class="cls-38" d="M44.77,34.78a6,6,0,0,1-4.25-.7,2.79,2.79,0,0,1-.27-.68l.07-.13c.63.29,4.12,1.74,6.74.57,0,0-.17.27-.46.65a4.63,4.63,0,0,1-2.84,1.14C45.37,35.31,46.93,34.44,44.77,34.78Z"/><path class="cls-30" d="M48,33.35a5.61,5.61,0,0,1-2.86.16c-1.62-.33-2.81-.46-3.54.11a2.13,2.13,0,0,0-1.27-.92,6.22,6.22,0,0,0-1.57.08S42.58,36.7,48,33.35Z"/><path class="cls-39" d="M48,33.35a5.61,5.61,0,0,1-2.86.16c-1.62-.33-2.81-.46-3.54.11a2.13,2.13,0,0,0-1.27-.92,6.22,6.22,0,0,0-1.57.08S42.58,36.7,48,33.35Z"/><path class="cls-36" d="M41.6,37.7a2.77,2.77,0,0,0,1.45.28A4,4,0,0,0,45.76,36,5.74,5.74,0,0,0,41.6,37.7Z"/><path class="cls-4" d="M42.18,40s0,.28.19.52a2.3,2.3,0,0,0,.37.42,2.16,2.16,0,0,0,.51.24.9.9,0,0,0,.55,0s-.25-.11-.47-.24a2.83,2.83,0,0,1-.41-.28,2.45,2.45,0,0,1-.39-.31C42.35,40.2,42.21,40,42.18,40Z"/><path class="cls-39" d="M45.78,33.6a7.45,7.45,0,0,1-3.53.44c-1.81-.13-2.46-.82-2.69-1.35a5.84,5.84,0,0,0-.79.09s3.81,3.92,9.24.57A5.46,5.46,0,0,1,45.78,33.6Z"/></g></g></g></svg>