<svg xmlns="http://www.w3.org/2000/svg" viewBox="0 0 144.26 192.92"><defs><style>.cls-1{isolation:isolate;}.cls-18,.cls-2,.cls-3{fill:#294168;}.cls-10,.cls-13,.cls-15,.cls-16,.cls-20,.cls-21,.cls-22,.cls-26,.cls-3,.cls-30,.cls-33,.cls-35,.cls-6,.cls-9{mix-blend-mode:multiply;}.cls-21,.cls-3{opacity:0.34;}.cls-36,.cls-37,.cls-4{fill:#fff;}.cls-5{fill:#fdb700;}.cls-6{fill:#d3dbfd;opacity:0.35;}.cls-30,.cls-35,.cls-7,.cls-8,.cls-9{fill:#f15e6b;}.cls-17,.cls-18,.cls-19,.cls-23,.cls-24,.cls-25,.cls-28,.cls-36,.cls-37,.cls-8{mix-blend-mode:screen;}.cls-10,.cls-15,.cls-16,.cls-17,.cls-9{opacity:0.5;}.cls-10{fill:#98d2ca;}.cls-11,.cls-13,.cls-25,.cls-26{fill:#f8e9d0;}.cls-12{fill:#ebb18e;}.cls-14,.cls-15,.cls-22,.cls-23{fill:#8dcbd2;}.cls-19,.cls-33{opacity:0.6;}.cls-24,.cls-30,.cls-36{opacity:0.45;}.cls-26{opacity:0.62;}.cls-27{fill:#212f47;}.cls-29{fill:#6f3a1e;}.cls-31,.cls-33{fill:#c83634;}.cls-32{fill:#540c06;}.cls-34{fill:#e27289;}</style></defs><g class="cls-1"><g id="Capa_2" data-name="Capa 2"><g id="OBJECTS"><polygon class="cls-2" points="20.25 183.96 34.41 152.8 32.16 152.04 17.64 183.96 20.25 183.96"/><polygon class="cls-3" points="20.25 183.96 34.34 152.98 33.17 152.58 18.9 183.96 20.25 183.96"/><polygon class="cls-2" points="45.98 183.96 31.81 152.8 34.07 152.04 48.58 183.96 45.98 183.96"/><polygon class="cls-3" points="31.85 152.89 45.98 183.96 47.26 183.96 32.96 152.52 31.85 152.89"/><rect class="cls-2" x="31.96" y="101.1" width="2.43" height="88.93"/><rect class="cls-3" x="33.07" y="101.53" width="1.32" height="88.51"/><rect class="cls-4" x="2.73" y="19.75" width="60.76" height="80.69"/><polygon class="cls-5" points="9.08 94.64 8.12 94.44 14.68 64.1 20.84 81.3 29.65 33.34 38.35 62.34 45.04 45.88 47.17 52.27 54.89 38.04 55.75 38.5 46.95 54.73 44.95 48.72 38.22 65.3 29.88 37.53 21.14 85.07 14.91 67.67 9.08 94.64"/><polygon class="cls-2" points="59.59 95.06 6.49 95.06 6.49 24.58 7.47 24.58 7.47 94.07 59.59 94.07 59.59 95.06"/><path class="cls-6" d="M63.49,19.75H2.73v3.5H52.5S56.28,56.17,41.16,74.4C28.85,89.25,9.76,87.73,2.73,86.66v13.79H63.49Z"/><rect class="cls-7" y="17.55" width="66.23" height="4.73" rx="1.61"/><path class="cls-8" d="M63.37,19.5H2.86c-.42,0-.77-.25-.77-.54h0c0-.3.35-.54.77-.54H63.37c.42,0,.77.24.77.54h0C64.14,19.25,63.79,19.5,63.37,19.5Z"/><path class="cls-9" d="M65.58,17.9v1.45c0,.74-.87,1.35-1.93,1.35H1.29A2.38,2.38,0,0,1,0,20.35v.58c0,.74.87,1.35,1.93,1.35H64.3c1.06,0,1.93-.61,1.93-1.35v-2A1.23,1.23,0,0,0,65.58,17.9Z"/><rect class="cls-7" y="97.72" width="66.23" height="4.73" rx="1.61"/><path class="cls-8" d="M63.37,99.66H2.86c-.42,0-.77-.24-.77-.54h0c0-.29.35-.53.77-.53H63.37c.42,0,.77.24.77.53h0C64.14,99.42,63.79,99.66,63.37,99.66Z"/><path class="cls-9" d="M65.58,98.07v1.45c0,.74-.87,1.35-1.93,1.35H1.29A2.47,2.47,0,0,1,0,100.52v.57c0,.75.87,1.35,1.93,1.35H64.3c1.06,0,1.93-.6,1.93-1.35v-2A1.23,1.23,0,0,0,65.58,98.07Z"/><ellipse class="cls-10" cx="62.71" cy="181.99" rx="62.65" ry="10.93"/><path class="cls-11" d="M57.12,54.72a30.37,30.37,0,0,0-2.92-7.08c-1.86-3-3.66-4.77-4.25-3.62s2.44,5,2.36,5.62-3.33.9-3.8,4.69,2.78,1.84,2.78,1.84a2.58,2.58,0,0,0,.52,3C53.4,60.48,57.85,58.67,57.12,54.72Z"/><path class="cls-12" d="M51.05,53.61a4.81,4.81,0,0,0,1.15.47,4,4,0,0,0,.53.1h.1a3.16,3.16,0,0,0-.34.64,2.43,2.43,0,0,0-.16.93,2.42,2.42,0,0,0,1.2,2,1.82,1.82,0,0,0,.29.15,1.92,1.92,0,0,1-.27-.18,2.58,2.58,0,0,1-.62-.67,2.37,2.37,0,0,1-.35-1.33,2.32,2.32,0,0,1,.19-.83,2.8,2.8,0,0,1,.79-1c-.21,0-.57,0-.77-.09s-.31-.06-.48-.11a5.22,5.22,0,0,1-1.05-.44.9.9,0,0,1-.57-.89,1.09,1.09,0,0,1,.66-.81,3.38,3.38,0,0,1,2-.07,4.69,4.69,0,0,1,1.31.57,3.86,3.86,0,0,1,.42.32,2.82,2.82,0,0,0-.39-.37,4.07,4.07,0,0,0-1.28-.7,3.45,3.45,0,0,0-2.22-.06,1.44,1.44,0,0,0-.9,1.05,1.08,1.08,0,0,0,.15.78A1.79,1.79,0,0,0,51.05,53.61Z"/><path class="cls-12" d="M52.52,50.31a1,1,0,0,0,.47.39,1,1,0,0,0-.13-.59,1,1,0,0,0-.47-.4A1,1,0,0,0,52.52,50.31Z"/><path class="cls-12" d="M50.45,53.45a3.67,3.67,0,0,1-.26-2,2.44,2.44,0,0,1,.28-.83l-.16.19a2.24,2.24,0,0,0-.31.59,3,3,0,0,0,.08,2.23,2.32,2.32,0,0,0,.81,1,1.64,1.64,0,0,0,1,.26,1,1,0,0,0,.81-.43,1.23,1.23,0,0,1-.2.13,1.08,1.08,0,0,1-.61.1,1.53,1.53,0,0,1-.83-.33A2.54,2.54,0,0,1,50.45,53.45Z"/><path class="cls-12" d="M49.73,54.8a1.84,1.84,0,0,1-.61-1.61,5,5,0,0,1,.09-.81,3.48,3.48,0,0,0-.29.78,2.31,2.31,0,0,0-.05.93,1.64,1.64,0,0,0,.62,1,2,2,0,0,0,2,.17,2.18,2.18,0,0,0,.51-.36,1.66,1.66,0,0,0,.14-.17,2,2,0,0,1-.72.34A2,2,0,0,1,49.73,54.8Z"/><path class="cls-12" d="M50.74,56.14a2.56,2.56,0,0,1-1,.31.84.84,0,0,0,.32.15,1.27,1.27,0,0,0,.89-.11,1.23,1.23,0,0,0,.57-.67.85.85,0,0,0,0-.35,2.35,2.35,0,0,1-.22.25A2.64,2.64,0,0,1,50.74,56.14Z"/><path class="cls-13" d="M48.49,54.61c.57.35,1.59-.15,1.61-.65a8.58,8.58,0,0,1,.26-2c.11-.28,1-1,1.12-1.75.47-.25.81-.41.83-.59.08-.59-3-4.48-2.36-5.62a1.4,1.4,0,0,1,.12-.18c.33,1.79,4.79,7.92,5.66,7.59a.35.35,0,0,0,.21-.23,33.35,33.35,0,0,1,1.18,3.52,4.14,4.14,0,0,1,.06,1c-.94.05-1.31-2.76-1.63-3.1a6.1,6.1,0,0,0-3.5-1.44,1.23,1.23,0,0,0-1,2,8,8,0,0,0,2.52.84s.44.08-.36.82.58,3.06.58,3.06a2.22,2.22,0,0,1-1.25-.56A4.42,4.42,0,0,1,52,55.55l-.74.69,0-.07S48.23,58,48.49,54.61Z"/><path class="cls-14" d="M92.23,51.38S81.49,67.33,74,71.38,52.43,60.17,52.43,60.17s1-4.32,5-5.59c0,0,10.89,10.6,13.87,8.31s16.61-18,16.61-18S86.38,45.88,92.23,51.38Z"/><path class="cls-15" d="M92.23,51.38S81.49,67.33,74,71.38,52.43,60.17,52.43,60.17s1-4.32,5-5.59c0,0,10.89,10.6,13.87,8.31s16.61-18,16.61-18S86.38,45.88,92.23,51.38Z"/><path class="cls-15" d="M54,57a.5.5,0,0,1,.19.37C54.3,58.94,63.58,69,66.4,66.24a3.72,3.72,0,0,0,1.29-3.75,5,5,0,0,0,3,.67c.5,1.7,2.6,6.66,8.38.51,6.2-6.59,5.79-14.52,6.32-14.43,1.85.31,2.66,3.77,2.72,7.88-3.82,5-9.54,11.81-14.08,14.26-7.48,4.05-21.57-11.21-21.57-11.21A9.08,9.08,0,0,1,54,57Z"/><g class="cls-16"><path class="cls-14" d="M70.38,65.2A2.69,2.69,0,0,0,71,66.48a2.5,2.5,0,0,0,.44.39,3.51,3.51,0,0,1-.36-.45,3.39,3.39,0,0,1-.5-1.25,3.29,3.29,0,0,1,0-1.35,2.33,2.33,0,0,1,.19-.54,2.21,2.21,0,0,0-.29.51A2.71,2.71,0,0,0,70.38,65.2Z"/><path class="cls-14" d="M69.47,64.88a2.2,2.2,0,0,0,.1,1.1,1.9,1.9,0,0,0,.2.41,3.39,3.39,0,0,1,.42-2.86,1.44,1.44,0,0,0-.3.33A2.29,2.29,0,0,0,69.47,64.88Z"/><path class="cls-14" d="M85,56.26c.18,2.53.43,4.58.43,4.58s0-2.06-.23-4.6c-.1-1.26-.2-2.4-.27-3.23A3.83,3.83,0,0,1,85,51.69,3.53,3.53,0,0,0,84.78,53C84.78,53.85,84.87,55,85,56.26Z"/><path class="cls-14" d="M84.11,58.07a11.91,11.91,0,0,0,1.06,2L84.29,58l-.87-2.08A12.5,12.5,0,0,0,84.11,58.07Z"/></g><path class="cls-2" d="M105.78,178.14s0,.07,0,.21c0,1.09.06,6.05-.61,6.51s-.5-5.78-.5-5.78"/><path class="cls-3" d="M105.78,178.14s0,.07,0,.21c0,1.09.06,6.05-.61,6.51s-.5-5.78-.5-5.78"/><path class="cls-11" d="M108.82,126.54l-2.9,10.37s6.84,5.21-.43,38c-.25,1.14.44,2.5.29,3.65A14.41,14.41,0,0,1,102,186c-.85.85-5.38,2.82-4.41.26,1.59-4.21,2.67-5.32,3.87-8.29.89-2.2.58-3.4.39-5.8-.41-5.32-.9-10.63-1.31-15.94-.48-6.16-1-12.4-2.06-18.5a69.71,69.71,0,0,1,.54-24.6C101,104.34,113.34,96.9,108.82,126.54Z"/><path class="cls-13" d="M99.88,181.23a1.38,1.38,0,0,0,1.07.94c2.54.24,4.62-9.64,5.74-19.64s-.31-20.73-3.22-23c-2-1.53-3.67-.17-4.6.91-.13-.89-.27-1.77-.43-2.65a69.71,69.71,0,0,1,.54-24.6c.78-3.5,3.21-6.79,5.56-7.62a27.87,27.87,0,0,1,4.65,3.87c.83,3.25.91,8.68-.37,17.12l-2.9,10.37s6.84,5.21-.43,38c-.25,1.14.44,2.5.29,3.65A14.41,14.41,0,0,1,102,186c-.85.85-5.38,2.82-4.41.26A39.12,39.12,0,0,1,99.88,181.23Z"/><path class="cls-2" d="M99.45,182c-.74,2,0,2.6,1.36,2.1,3.44-1.31,4.55-8.55,4.55-8.55l.08,0a21,21,0,0,1,.34,3A14.41,14.41,0,0,1,102,186c-.85.85-5.38,2.82-4.41.26A37,37,0,0,1,99.45,182Z"/><path class="cls-11" d="M101.88,134.3a.46.46,0,1,0,.45-.47A.46.46,0,0,0,101.88,134.3Z"/><path class="cls-11" d="M100.41,136.13a.82.82,0,1,0,.79-.84A.82.82,0,0,0,100.41,136.13Z"/><g class="cls-17"><path class="cls-2" d="M98.55,186.33a3.08,3.08,0,0,0,1.59-.29,6.91,6.91,0,0,0,1.44-.78,7,7,0,0,0,1.09-1.22,3.1,3.1,0,0,0,.65-1.48c-.08,0-.46.66-1,1.22a7.1,7.1,0,0,1-1.13,1,7.83,7.83,0,0,1-1.25.87C99.29,186,98.54,186.25,98.55,186.33Z"/></g><path class="cls-3" d="M102,186c-.8.8-4.85,2.59-4.52.66.3,1.08,2,.57,3.7-.64,2.5-1.8,4.2-6.66,4.07-6.95s-1.26,1.63-1.61,2.25c0,.09-.09.15-.1.18v-.17a20.9,20.9,0,0,0,1.86-5.78l.08,0a21,21,0,0,1,.34,3A14.41,14.41,0,0,1,102,186Z"/><path class="cls-11" d="M72.43,176.24a8.77,8.77,0,0,0,.27-2.19l4.17-.35c-.23,1-.4,1.75-.49,2.05,0,0,0,1.37-.15,3.09-.15,2.5-.41,5.75-.81,6.61-.68,1.44-.6-4.92-.6-4.92s-2.3,5-3.72,5.48-6.34.07-6.6-.88S68.38,185.9,72.43,176.24Z"/><path class="cls-13" d="M69.11,182a1.7,1.7,0,0,0,.84.16c2.12-.09,3.8-3.31,5.19-8.3l1.73-.14c-.23,1-.4,1.75-.49,2.05,0,0,0,1.37-.15,3.09,0,.69-.09,1.45-.15,2.19-.43.57-.85,1.1-1.25,1.58,0-1.1,0-2.08,0-2.08a24.24,24.24,0,0,1-3,5c-.5.2-1.2.46-2,.71-2,.1-5.11-.33-5.31-1.08S66.41,185.15,69.11,182Z"/><path class="cls-2" d="M68,183.15c-.21.71.34.79,2.41-.11,3-1.32,6-7.29,6-7.29s0,1.37-.15,3.09c-.15,2.5-.41,5.75-.81,6.61-.68,1.44-.6-4.92-.6-4.92s-2.3,5-3.72,5.48-6.34.07-6.6-.88C64.34,184.55,65.84,185,68,183.15Z"/><g class="cls-17"><path class="cls-2" d="M67.29,185.38a3.13,3.13,0,0,0,1.6-.14,6.81,6.81,0,0,0,1.51-.65,7,7,0,0,0,1.2-1.11,3.17,3.17,0,0,0,.78-1.42c-.07,0-.51.61-1.09,1.13a7.67,7.67,0,0,1-1.22.9,7.35,7.35,0,0,1-1.32.75C68.05,185.16,67.28,185.3,67.29,185.38Z"/></g><path class="cls-3" d="M64.87,184.76c.42.6,2.17,1.49,4.87.89,3.15-.7,4.86-6.34,4.86-6.34-3.88,5.6-6.61,4.91-6.88,4.61-.11-.12-.08-.35,0-.58l.24-.19c-.21.71.34.79,2.41-.11,3-1.32,6-7.29,6-7.29s0,1.37-.15,3.09c-.15,2.5-.41,5.75-.81,6.61-.68,1.44-.6-4.92-.6-4.92s-2.3,5-3.72,5.48-6.34.07-6.6-.88C64.45,184.94,64.58,184.85,64.87,184.76Z"/><path class="cls-2" d="M104.38,83.2a47.64,47.64,0,0,1,7.7,20.69c1.13,11.53-3.62,31.43-3.62,31.43s6.11,17.18-.22,42.28c0,0-7.36,3.77-11.24-.11,0,0,2.87-22.5-.07-39.24a113,113,0,0,1-.9-31.42s-4.75,20.35-6.34,29.39c0,0,1.93,18.4-10.23,40.6,0,0-8.08,2.81-12.38-.58a157.28,157.28,0,0,0,11.54-39.57s-.46-40.25,7-52.45C85.62,84.22,101.89,81.51,104.38,83.2Z"/><path class="cls-3" d="M104.38,83.2a47.64,47.64,0,0,1,7.7,20.69c1.13,11.53-3.62,31.43-3.62,31.43s6.11,17.18-.22,42.28c0,0-7.36,3.77-11.24-.11,0,0,2.87-22.5-.07-39.24a113,113,0,0,1-.9-31.42s-4.75,20.35-6.34,29.39c0,0,1.93,18.4-10.23,40.6,0,0-8.08,2.81-12.38-.58a157.28,157.28,0,0,0,11.54-39.57s-.46-40.25,7-52.45C85.62,84.22,101.89,81.51,104.38,83.2Z"/><path class="cls-18" d="M108.28,135.92s-.23,1.1-.44,2.21c-.1.55-.2,1.11-.27,1.53a4.72,4.72,0,0,1-.15.69,3.21,3.21,0,0,1,0-.71c0-.42.11-1,.19-1.54.15-1.13.35-2.24.35-2.24s.23-1.11.51-2.21c.14-.54.28-1.09.4-1.5a3.85,3.85,0,0,1,.23-.67,3.71,3.71,0,0,1-.11.7c-.09.41-.2,1-.32,1.52C108.48,134.81,108.28,135.92,108.28,135.92Zm.09-.4a18.25,18.25,0,0,0,0,4.67,18.25,18.25,0,0,0,0-4.67Zm-21.29,7.24a2.75,2.75,0,0,0-.15.64,3.51,3.51,0,0,0,.26-.6l.51-1.34.71-1.94.62-2c.15-.5.3-1,.42-1.36a2.75,2.75,0,0,0,.15-.64,3.1,3.1,0,0,0-.26.6c-.14.36-.32.85-.51,1.33-.35,1-.71,1.95-.71,1.95l-.62,2C87.34,141.9,87.19,142.39,87.08,142.76Zm1.78-4s-.51,2.59-.43,2.61.72-2.54.72-2.54.52-2.59.44-2.61S88.86,138.71,88.86,138.71Zm-10.24-.61s.06,1,.18,2a12.78,12.78,0,0,0,.32,2s-.05-1-.11-2-.09-2-.09-2-.07-1-.09-2,0-2-.07-2a13.7,13.7,0,0,0-.15,2C78.59,137.09,78.62,138.1,78.62,138.1Zm12.94-34.84a5.88,5.88,0,0,0,.82,1.28,11.87,11.87,0,0,0,1,1.14,12.67,12.67,0,0,0,1.21.94,5.54,5.54,0,0,0,1.33.72s-.62-.43-1.21-.89a13.9,13.9,0,0,1-1.12-1s-.56-.49-1.07-1S91.6,103.24,91.56,103.26ZM98,101.71a3.57,3.57,0,0,0-1.1.79,6.31,6.31,0,0,0-.85,1.07,6.13,6.13,0,0,0-.5,1.27,3.54,3.54,0,0,0-.14,1.35s.12-.67.34-1.29a6.45,6.45,0,0,1,.56-1.18,6.82,6.82,0,0,1,.74-1.08C97.52,102.14,98.06,101.75,98,101.71Zm-2.35,5a9.15,9.15,0,0,1,.67-1.14,6.06,6.06,0,0,1,.92-.93,12,12,0,0,1,1-.83,10,10,0,0,0,1.07-.79,6.61,6.61,0,0,0-1.19.62,9.59,9.59,0,0,0-1.11.78,5.79,5.79,0,0,0-.89,1A2.77,2.77,0,0,0,95.69,106.73Zm8.75-16.94-.1-.15s0,.06.07.17l.25.46c.11.2.24.45.37.73s.3.6.46,1a31.58,31.58,0,0,1,1.88,5.34,40.54,40.54,0,0,1,1,5.58c.09.77.14,1.41.17,1.86l0,.71s.08,1,.11,2.57,0,3.62-.11,5.68-.27,4.12-.4,5.67c-.06.77-.11,1.42-.15,1.87l0,.52c0,.12,0,.19,0,.19s0-.06,0-.18l.06-.53c.05-.45.12-1.09.21-1.86.16-1.54.36-3.6.49-5.67s.19-4.14.17-5.69-.08-2.59-.08-2.59l-.06-.71c0-.45-.09-1.1-.18-1.87a38.86,38.86,0,0,0-1.08-5.6,29.79,29.79,0,0,0-2-5.34c-.16-.35-.33-.67-.48-.94s-.28-.52-.4-.72Zm1.77,45a8.07,8.07,0,0,0-.12,1.06.92.92,0,0,0,.08-.28c0-.18.1-.45.16-.76.12-.63.26-1.48.4-2.32.26-1.7.45-3.4.45-3.4s.15-1.71.23-3.42c0-.86.07-1.72.07-2.36v-.78c0-.18,0-.29,0-.29a9.14,9.14,0,0,0-.09,1.07c0,.64-.1,1.49-.16,2.34-.13,1.71-.32,3.41-.32,3.41s-.15,1.7-.36,3.4C106.41,133.33,106.3,134.17,106.21,134.81Zm0,39.8c0,.12,0,.19,0,.19s0-.06,0-.19.06-.3.11-.53c.09-.47.23-1.14.39-1.93.31-1.6.7-3.74,1-5.88s.61-4.31.75-5.93.19-2.71.19-2.71.06-1.09,0-2.72a46.65,46.65,0,0,0-.39-6,35.82,35.82,0,0,0-1.25-5.84c-.11-.39-.23-.75-.34-1.06s-.2-.59-.29-.81l-.2-.51-.08-.18s0,.07,0,.19l.17.52c.08.23.17.5.27.82s.21.67.31,1.06a38,38,0,0,1,1.15,5.84,48.93,48.93,0,0,1,.33,5.94c0,1.62-.07,2.7-.07,2.7s0,1.09-.17,2.71-.38,3.77-.69,5.92-.67,4.28-1,5.89c-.13.8-.25,1.47-.33,1.93Z"/><path class="cls-3" d="M97,177.49s.32-2.52.64-6.49c.92,1.62,2.23,2.75,4.12,2.49,5.63-.78,6.21-22.71,4.07-28.14-1.71-4.37-6.3-1.72-8-.51-.2-2.25-.48-4.46-.85-6.59-.43-2.45-.75-4.85-1-7.18,2.32,4.56,8.17,6.93,11.54-8.52,4.16-19.1-5-35.65-4.75-36.4a7.85,7.85,0,0,1,1.45-3.06,1.8,1.8,0,0,1,.2.11,47.64,47.64,0,0,1,7.7,20.69c1.13,11.53-3.62,31.43-3.62,31.43s6.11,17.18-.22,42.28C108.24,177.6,100.88,181.37,97,177.49Z"/><path class="cls-3" d="M70.07,169c1.42,3.47,5.17,4.08,9.33-2.21,5.52-8.35,6.09-22.23,2.55-23.5-1.65-.6-3.49.82-5,2.49.63-2.93,1.19-6,1.65-9.12,0,0-.06-5.29.22-12.61.69,5.15,2.18,11.15,5.38,9.47,5.38-2.83,7.5-29.46,7.5-29.46.54.27,3.86,3,4.19,3.25-.73,3.15-4.78,20.68-6.22,28.9,0,0,1.93,18.4-10.23,40.6,0,0-8.08,2.81-12.38-.58C67.08,176.24,68.34,173.55,70.07,169Z"/><g class="cls-19"><path class="cls-2" d="M97.2,130.39a9,9,0,0,0-.14-1.5c-.11-.89-.23-2.08-.32-3.28-.17-2.38-.11-4.77-.11-4.77s0-2.39.17-4.78c.1-1.19.23-2.38.35-3.27a8.07,8.07,0,0,0,.16-1.49,7,7,0,0,0-.39,1.45c-.19.89-.38,2.07-.54,3.27-.31,2.4-.35,4.82-.35,4.82s0,2.41.29,4.81c.15,1.2.33,2.39.51,3.28A7.32,7.32,0,0,0,97.2,130.39Z"/><path class="cls-2" d="M83.28,94.13a.58.58,0,0,0,.3-.09.58.58,0,0,0-.3-.09A.63.63,0,0,0,83,94,.63.63,0,0,0,83.28,94.13Z"/><path class="cls-2" d="M80.8,122.35a15.42,15.42,0,0,0,.08-2.12c0-1.27.06-3,.12-4.66.14-3.39.44-6.76.44-6.76s.22-3.37.61-6.74c.2-1.68.42-3.36.6-4.62a14.82,14.82,0,0,0,.25-2.11,2.78,2.78,0,0,0-.16.57c-.08.36-.2.88-.32,1.5-.25,1.25-.53,2.93-.78,4.61-.5,3.36-.79,6.75-.79,6.75s-.24,3.39-.27,6.79c0,1.7,0,3.4.07,4.67,0,.64.06,1.17.08,1.54A2.58,2.58,0,0,0,80.8,122.35Z"/><path class="cls-2" d="M80.26,126.81c.17,0,.19-1.53.19-1.53s-.24-1.51-.41-1.5-.18,1.54-.18,1.54S80.1,126.82,80.26,126.81Z"/><path class="cls-2" d="M99.31,166.46a9.46,9.46,0,0,0,.25-1.66c.11-1,.22-2.34.31-3.68.17-2.68.21-5.37.21-5.37s0-2.69-.18-5.37c-.08-1.34-.18-2.68-.28-3.69a9,9,0,0,0-.24-1.66,11.73,11.73,0,0,0,0,1.68l.09,3.68c0,2.68,0,5.36,0,5.36s0,2.67,0,5.35c0,1.34-.09,2.68-.13,3.68A11.73,11.73,0,0,0,99.31,166.46Z"/><path class="cls-2" d="M73.21,164.9a8.59,8.59,0,0,0,.64-1.43c.35-.87.78-2,1.18-3.23.8-2.37,1.44-4.79,1.44-4.79s.58-2.44,1-4.9c.21-1.24.38-2.48.48-3.41a8.1,8.1,0,0,0,.1-1.56,9.82,9.82,0,0,0-.33,1.53c-.17.92-.41,2.14-.66,3.36-.51,2.43-1.15,4.84-1.15,4.84s-.56,2.42-1.26,4.81c-.35,1.19-.71,2.38-1,3.27A8.63,8.63,0,0,0,73.21,164.9Z"/></g><path class="cls-3" d="M83.93,84.88A14,14,0,0,1,85.46,83C95,73.15,103.18,82,103.18,82a13.94,13.94,0,0,1,1.2,1.19l-8.91,5.53-3.79-3.8-4.43,2.85Z"/><path class="cls-14" d="M81,61.8c.26-3.21,1.84-6.16,3-9.11.9-2.24,1.89-6.32,3.9-7.89s12.34-.25,12.34-.25,8,3,8.27,4.23-4.12,13.24-5,17.75-2.15,12-2.15,12L104.76,82l-9.17,5.7-3.8-3.8-4.43,2.85-4.11-3.6s2.48-2.37,3.08-4.39c-.47-1.87-1.22-8.16-2.88-10.48C81.94,66.19,80.81,64.41,81,61.8Z"/><path class="cls-15" d="M102.57,83.37a6.41,6.41,0,0,0-1.06-1.77c-1.43-1.72-4.42-.69-5.37-.3,1.8-1,3.63-6.53,3.14-8.81s-6-2.24-10.14-1.72a6.63,6.63,0,0,0-4,1.88,14.1,14.1,0,0,0-1.65-4.36c-1.51-2.1-2.64-3.88-2.42-6.49a13.14,13.14,0,0,1,.34-2.07,8.25,8.25,0,0,0,1.06,3.64c1.2,1.38,2.23.18,6.88,1.38s7.73.69,11-3.27c2.63-3.18,4.25-8.35,4.78-10.25a9.2,9.2,0,0,1,2,3.43c-1.28,4.09-3,9.24-3.47,11.87-.86,4.52-2.15,12-2.15,12L104.76,82Z"/><path class="cls-11" d="M99.74,41.08s.53,5.38-1.59,6.33-4.5,1-5.29-1.27,0-5.38,0-5.38S99.47,39.81,99.74,41.08Z"/><path class="cls-13" d="M93.83,47.49c3.42-.52,5.52-4.44,4.38-3.87s-4.49.12-5.7-.07a14.17,14.17,0,0,1,.35-2.79s6.61-.95,6.88.32c0,0,.53,5.38-1.59,6.33C96.61,48.1,94.94,48.28,93.83,47.49Z"/><g class="cls-20"><g class="cls-21"><path class="cls-22" d="M87.94,67.05c.06.89.18,2.09.36,3.28s.43,2.36.64,3.24.38,1.45.38,1.45.16.58.44,1.43.71,2,1.07,3.12a15.29,15.29,0,0,1,.67,3.2c0,.45,0,.82,0,1.08a3.18,3.18,0,0,0,0,.41,1.88,1.88,0,0,0,.07-.41,8.24,8.24,0,0,0,0-1.09A13.89,13.89,0,0,0,91,79.51c-.34-1.16-.74-2.28-1-3.14s-.43-1.43-.43-1.43-.17-.57-.39-1.44-.49-2-.7-3.21a15.55,15.55,0,0,1-.33-5.84c.09-.4.21-.8.33-1.19a31.49,31.49,0,0,1,1-3.34A104.6,104.6,0,0,0,94.1,47.8c-.44,1.43-1.18,2.82-1.74,4.22s-1.17,3-1.74,4.47A42,42,0,0,0,87.94,65,9.46,9.46,0,0,0,87.94,67.05Z"/></g><g class="cls-21"><path class="cls-14" d="M91.67,68.44a4.36,4.36,0,0,0,.73.24,8.69,8.69,0,0,0,1.69.22,9.71,9.71,0,0,0,1.7-.1,5.26,5.26,0,0,0,.55-.11l.21,0,.21-.06c.13,0,.32-.09.53-.18a9.43,9.43,0,0,0,1.55-.72,10,10,0,0,0,1.37-1,3.2,3.2,0,0,0,.52-.57,7.25,7.25,0,0,0-.6.48,10.82,10.82,0,0,1-1.39.91,9.35,9.35,0,0,1-1.54.65c-.21.08-.39.12-.52.16l-.2,0-.2,0c-.13,0-.31.08-.54.12a9.51,9.51,0,0,1-1.65.16,10,10,0,0,1-1.66-.13A5.29,5.29,0,0,0,91.67,68.44Z"/></g><g class="cls-21"><path class="cls-14" d="M99.87,79.82a1.62,1.62,0,0,0,.66-.44,3.7,3.7,0,0,0,.51-.61,4.19,4.19,0,0,0,.3-.73,1.62,1.62,0,0,0,.08-.78s-.12.37-.28.71a4.73,4.73,0,0,1-.36.65,3.94,3.94,0,0,1-.41.62C100.14,79.53,99.85,79.78,99.87,79.82Z"/></g><g class="cls-21"><path class="cls-14" d="M87.37,80.42s-.27-.34-.48-.72a4,4,0,0,1-.33-.77,3.88,3.88,0,0,1-.22-.81c-.07-.41,0-.85-.08-.85a1.76,1.76,0,0,0-.13.87,3.51,3.51,0,0,0,.15.89,3.39,3.39,0,0,0,.44.79A1.66,1.66,0,0,0,87.37,80.42Z"/></g><g class="cls-21"><path class="cls-14" d="M82.28,66.77s.25.35.59.61a5.36,5.36,0,0,0,.69.5,6.61,6.61,0,0,0,.78.34,2.28,2.28,0,0,0,.84.18,5.4,5.4,0,0,0-.75-.38c-.37-.18-.72-.4-.72-.4a7.36,7.36,0,0,1-.72-.41A6.69,6.69,0,0,0,82.28,66.77Z"/></g></g><path class="cls-15" d="M94.46,48.22s-3.2,3-3.81,1.35l0-.11a26.78,26.78,0,0,1,1.88-4.61,2.69,2.69,0,0,0,2.33,2.35,4.44,4.44,0,0,0,4.56-2.66c.23,1.16.87,5.24-2.46,6.69C96.48,51.43,95.54,51,94.46,48.22Z"/><path class="cls-14" d="M99.76,43.13c0-.39,1.28,3.82-2.4,7.5,0,0-1.23,1.36-2.83-2.82,0,0-3.19,2.95-3.8,1.35s1.78-5.61,1.78-5.61-.18,2.88,2.4,3.24A4.47,4.47,0,0,0,99.76,43.13Z"/><path class="cls-23" d="M99.76,43.13c0-.39,1.28,3.82-2.4,7.5,0,0-1.23,1.36-2.83-2.82,0,0-3.19,2.95-3.8,1.35s1.78-5.61,1.78-5.61-.18,2.88,2.4,3.24A4.47,4.47,0,0,0,99.76,43.13Z"/><path class="cls-15" d="M90.73,48.62c.61,1.6,3.8-1.35,3.8-1.35,1.6,4.18,2.83,2.83,2.83,2.83A8.54,8.54,0,0,0,100,44.33a8.4,8.4,0,0,1-2.63,6.3S96.13,52,94.53,47.81c0,0-3.19,2.95-3.8,1.35a2,2,0,0,1-.09-.89A1.28,1.28,0,0,0,90.73,48.62Z"/><g class="cls-24"><path class="cls-14" d="M82.62,59.43a5,5,0,0,0,.19-.86,16.5,16.5,0,0,1,.53-1.84c.23-.66.49-1.31.69-1.8l.33-.81S86.2,48.79,86,48.73s-2.24,5.18-2.24,5.18l-.28.83c-.17.5-.4,1.18-.58,1.86a10.85,10.85,0,0,0-.36,1.93A2.11,2.11,0,0,0,82.62,59.43Z"/><path class="cls-14" d="M82.52,62c.16,0,.19-.81.19-.81s-.24-.76-.4-.74-.19.82-.19.82S82.35,62.06,82.52,62Z"/><path class="cls-14" d="M88.08,80.1c.06,0-.4-.72-.73-1.45a10.9,10.9,0,0,1-.55-1.49,9.79,9.79,0,0,1-.44-1.53c-.17-.78-.19-1.6-.27-1.6a3.74,3.74,0,0,0-.15,1.66,8.39,8.39,0,0,0,.29,1.65A8.5,8.5,0,0,0,87,78.85,3.5,3.5,0,0,0,88.08,80.1Z"/><path class="cls-14" d="M87,85.2a23.09,23.09,0,0,0-2.45-2.3l-.07,0h0s0,0,0,0l.16-.14a6.29,6.29,0,0,0,.72-.67,2.69,2.69,0,0,0,.73-1.07,8.18,8.18,0,0,0-1,.8c-.25.2-.53.39-.76.54l-.45.27-.43.26.71.56A23.07,23.07,0,0,0,87,85.2Z"/></g><path class="cls-11" d="M112.91,22.39c.23-6.7-2.54-17.57-16.65-17.68S79.93,20.18,79.93,20.18a42.62,42.62,0,0,0-1.31,10.1c.17,4.38,2.44,10.88,12.6,11.92s18-3.23,19.82-9.47a5.2,5.2,0,0,0,4.79-4.19C116.54,25.66,115,22.74,112.91,22.39Z"/><g class="cls-20"><path class="cls-11" d="M112.91,22.39a21.75,21.75,0,0,0-.83-6.75,17.23,17.23,0,0,0-2.3-4.81c2,3.42,2.39,8.55,2.28,11.67.18,0,.6-.09.89-.1Z"/><path class="cls-11" d="M114.76,23.53a6,6,0,0,1,.41,4,5.2,5.2,0,0,1-4.79,4.18c-1.82,6.25-9.65,10.52-19.81,9.48-5.35-.55-8.51-2.62-10.33-5.09,1.67,2.9,4.93,5.46,11,6.08,10.16,1,18-3.23,19.82-9.47a5.2,5.2,0,0,0,4.79-4.19A5.8,5.8,0,0,0,114.76,23.53Z"/></g><path class="cls-12" d="M113.64,30.1a1,1,0,0,1-.42.83.71.71,0,0,1-.42.15.68.68,0,0,1-.51-.24,1.25,1.25,0,0,1-.31-.63.88.88,0,0,1,.22-.76,2.28,2.28,0,0,1,.43-.29.61.61,0,0,0,.21-.26.92.92,0,0,0,.06-.62.43.43,0,0,0-.31-.32.36.36,0,0,0-.13,0h-.13l-.08,0,0,0-.11.16a.55.55,0,0,1-.44.3.37.37,0,0,1-.26-.12.58.58,0,0,1-.15-.28,3.91,3.91,0,0,1-.08-.87,4.17,4.17,0,0,1,0-.61,3.37,3.37,0,0,1,.31-1.12,1.91,1.91,0,0,1,.59-.72c.43-.31.79-.22.79-.17s-.31.11-.62.45a2.48,2.48,0,0,0-.58,1.66,4.69,4.69,0,0,0,0,.53c0,.17,0,.13,0,.17s.07,0,.06,0h0l.09-.08a.93.93,0,0,1,.2-.1.9.9,0,0,1,.34-.06.7.7,0,0,1,.29.05.93.93,0,0,1,.28.16,1.36,1.36,0,0,1,.5.82,1.79,1.79,0,0,1-.19,1.22,1.13,1.13,0,0,1-.44.43c-.17.09-.31.13-.38.18a.25.25,0,0,0-.09.22.75.75,0,0,0,.13.34.42.42,0,0,0,.54.13C113.46,30.44,113.59,30.06,113.64,30.1Z"/><path class="cls-25" d="M114.27,24.74c.3.3.64.39.76.2s0-.58-.31-.88-.63-.39-.75-.2S114,24.45,114.27,24.74Z"/><path class="cls-25" d="M113.17,23.29a.34.34,0,0,0,.14.38.21.21,0,0,0,.32-.11.34.34,0,0,0-.14-.38A.21.21,0,0,0,113.17,23.29Z"/><path class="cls-26" d="M93.55,30.77a5.41,5.41,0,0,1-4.25-1.24s-1.22.74.9,1.59C93,32.26,93.55,30.77,93.55,30.77Z"/><path class="cls-12" d="M92.32,31.35a6.11,6.11,0,0,1-.89,0,5.35,5.35,0,0,1-1.82-.65,1.11,1.11,0,0,1-.57-.64.53.53,0,0,1,.26-.54,1.28,1.28,0,0,1,.5-.21,1,1,0,0,1,.21,0,1.91,1.91,0,0,1,.5,0,2.56,2.56,0,0,1,.6.11,2.6,2.6,0,0,1,.36.13,6.86,6.86,0,0,1,.78.51V29c0-.19,0-.4,0-.6,0-.41,0-.83,0-1.21a6,6,0,0,0-.1-1.35,5.82,5.82,0,0,0-.19,1.34c0,.38-.06.8-.09,1.21,0,.21,0,.41,0,.61s0,.08,0,.09,0,0-.07-.06a3.15,3.15,0,0,0-.43-.19,3.4,3.4,0,0,0-.72-.16,2.47,2.47,0,0,0-.62,0l-.28.05a2.09,2.09,0,0,0-.7.34,1.31,1.31,0,0,0-.35.44,1,1,0,0,0,0,.66,1.55,1.55,0,0,0,.85.89,4.92,4.92,0,0,0,2,.51A1.31,1.31,0,0,0,92.32,31.35Z"/><path class="cls-25" d="M90.43,29.66c-.06.13.13.34.42.46s.57.12.62,0-.13-.34-.41-.47S90.49,29.52,90.43,29.66Z"/><path class="cls-13" d="M101.06,29.33c2.1.09,3.76,1.26,3.7,2.6s-1.82,2.35-3.92,2.26-3.76-1.26-3.7-2.6S99,29.24,101.06,29.33Zm-21.51-.11c-.3,1.31,1.1,2.75,3.13,3.22s3.92-.21,4.21-1.52-1.1-2.75-3.13-3.22S79.84,27.91,79.55,29.22Z"/><path class="cls-27" d="M99.81,20.41c0,.07.39,0,.73,0a4.31,4.31,0,0,1,1.28.33c.31.13.58.37.65.33s-.1-.41-.42-.68a1.8,1.8,0,0,0-1.54-.4C100.1,20.09,99.77,20.34,99.81,20.41Z"/><path class="cls-27" d="M86.65,19.17c-.05.07-.39-.07-.73-.09a4.45,4.45,0,0,0-1.31.12c-.33.08-.64.27-.7.22s.17-.39.53-.61A1.8,1.8,0,0,1,86,18.67C86.41,18.82,86.7,19.11,86.65,19.17Z"/><path class="cls-13" d="M81.27,17.9c1.43-4.55,5.29-12.35,15-12.28,13.62.11,16.29,11,16.07,17.68,2,.35,3.5,3.27,2.82,6.15a5.05,5.05,0,0,1-4.63,4.19,12,12,0,0,1-5.42,6.83,20.27,20.27,0,0,0,1.35-3.09c1.88-5.37,3.15-13.61-.44-18.53a7.83,7.83,0,0,0-1-1.08,22.71,22.71,0,0,0-2.22-1.69c-1.28-.92-1.76-2.47-3.17-3.3a5.89,5.89,0,0,0-7.56,2C89.3,19,81.87,18,81.27,17.9Z"/><path class="cls-27" d="M105.49,17.12a7.32,7.32,0,0,1,1,1.09c3.6,4.92,2.32,13.15.45,18.53a15.77,15.77,0,0,1-4,6.58s11.21-1.86,14.38-6.12,3-22.79-1.29-28-7.44-3.81-7.44-3.81S105.12-.58,95.11.05,80.73,9,79,12.37,74.86,28.06,76.1,36.49c.39,2.62,5.82,5.24,5.82,5.24s-5.47-10-.25-24.48c0,0,8,1.24,10.87-3.1a5.87,5.87,0,0,1,7.56-2c1.42.82,1.9,2.38,3.18,3.3A23.74,23.74,0,0,1,105.49,17.12Z"/><path class="cls-3" d="M101.25,5.93l-.45-.41A5.76,5.76,0,0,1,101.25,5.93Z"/><path class="cls-3" d="M112,7.08c-.25,1,1.77,3.65,1.77,3.65s-3.4-2.48-4.66-2.22,1,3.91,1,3.91-3.4-3-4.91-1.3c-1,1.19-.32,4.22.21,5.93a25.25,25.25,0,0,0-2.13-1.61c-1.28-.92-1.76-2.48-3.18-3.3l-.15-.08c.85-.16,1.38-.54.85-1.33a8.17,8.17,0,0,0-3.27-2.87s5.66,2.09,5.28.52a5.64,5.64,0,0,0-1.56-2.45c.89.78,2.81,2.34,3.2,1.54.5-1-.88-3.26-.88-3.26s3.65,2,3.9.53a2.5,2.5,0,0,0,0-.75,7.68,7.68,0,0,1,1.12,1.38s2.47-1.11,6,2.24C113.59,7.07,112.16,6.39,112,7.08Z"/><g class="cls-28"><path class="cls-2" d="M108.7,17.92a7.87,7.87,0,0,0-.93-1.44c-.5-.69-1.07-1.33-1.07-1.33s-.59-.62-1.22-1.18l-.48-.41a1.82,1.82,0,0,0-.45-.31.48.48,0,0,0-.4,0c-.09,0-.11.12-.1.12s0,0,.12-.06a.44.44,0,0,1,.33.07,2.27,2.27,0,0,1,.4.34l.44.43c.6.6,1.15,1.24,1.15,1.24s.59.61,1.13,1.26S108.67,18,108.7,17.92Z"/><path class="cls-2" d="M111.26,25.36a1.61,1.61,0,0,0,0-.31c0-.19,0-.46,0-.8a16.81,16.81,0,0,0-.15-2.42,19.55,19.55,0,0,0-.53-2.38c-.09-.32-.19-.58-.25-.76l-.1-.29-.12-.28c-.08-.17-.17-.44-.32-.73a16.5,16.5,0,0,0-1.2-2.1,15.25,15.25,0,0,0-1.5-1.87,6.83,6.83,0,0,0-.56-.55c-.14-.13-.22-.2-.23-.19s.29.33.71.82a17,17,0,0,1,1.41,1.91,16.5,16.5,0,0,1,1.13,2.1c.14.29.23.55.3.72l.11.28.11.28c.06.18.17.43.26.74a19.78,19.78,0,0,1,.58,2.33,19.42,19.42,0,0,1,.24,2.4C111.25,24.91,111.23,25.35,111.26,25.36Z"/><path class="cls-2" d="M101.52,3.53a14,14,0,0,1,1.32.65,6.17,6.17,0,0,1,1.12.94,6.21,6.21,0,0,1,.9,1.16,14.15,14.15,0,0,1,.63,1.37A3.78,3.78,0,0,0,105,6.18a6.18,6.18,0,0,0-.88-1.27A6,6,0,0,0,102.94,4,3.42,3.42,0,0,0,101.52,3.53Z"/><path class="cls-2" d="M103,7.1s.15.22.31.41.3.39.3.39.17.17.33.36.31.39.35.37a1.17,1.17,0,0,0-.18-.49c-.13-.23-.28-.44-.28-.44a4.31,4.31,0,0,0-.38-.35C103.26,7.19,103,7.07,103,7.1Z"/><path class="cls-2" d="M94.78,8.26a4.19,4.19,0,0,0,.62-.16A5.16,5.16,0,0,1,96.77,8a6.49,6.49,0,0,1,2,.37s.25.07.6.21a10.33,10.33,0,0,1,1.27.58c.91.48,1.77,1.06,1.8,1a2.67,2.67,0,0,0-.51-.41c-.31-.23-.74-.52-1.19-.79a10.47,10.47,0,0,0-1.27-.66c-.36-.15-.61-.23-.61-.23a5.23,5.23,0,0,0-.63-.17,6.77,6.77,0,0,0-1.43-.13,4.69,4.69,0,0,0-1.4.24A1.94,1.94,0,0,0,94.78,8.26Z"/><path class="cls-2" d="M85.61,15.59a1.5,1.5,0,0,0,.64.13,3.64,3.64,0,0,0,1.42-.25,5.45,5.45,0,0,0,1.28-.7c.32-.24.52-.41.52-.41s.2-.18.48-.46.64-.67,1-1.05l1-1.07a3.56,3.56,0,0,0,.43-.51,2.77,2.77,0,0,0-.5.43l-1,1-1,1-.49.43a5.64,5.64,0,0,1-.49.42,5.28,5.28,0,0,1-1.19.73,3.87,3.87,0,0,1-1.35.32C85.87,15.62,85.62,15.57,85.61,15.59Z"/><path class="cls-2" d="M83.72,14.89s.73-.69,1.47-1.36,1.5-1.31,1.5-1.31.75-.67,1.53-1.29,1.58-1.22,1.56-1.25a2.34,2.34,0,0,0-.55.3c-.31.2-.73.49-1.13.78-.82.58-1.59,1.23-1.59,1.23s-.75.67-1.46,1.39c-.35.36-.69.73-.94,1A2.62,2.62,0,0,0,83.72,14.89Z"/><path class="cls-2" d="M82.16,16.42s.41-.81.87-1.59,1-1.5,1-1.5a17.07,17.07,0,0,1,1.07-1.44c.57-.69,1.21-1.31,1.18-1.35a7.68,7.68,0,0,0-1.33,1.21,16.86,16.86,0,0,0-1.16,1.4,16.43,16.43,0,0,0-.92,1.58A8.39,8.39,0,0,0,82.16,16.42Z"/><path class="cls-2" d="M80.81,14.87a5.92,5.92,0,0,0,.41-.8c.23-.48.55-1.12.9-1.74a17.83,17.83,0,0,1,1-1.66c.31-.43.53-.71.53-.71a12,12,0,0,1,1.91-2,10.15,10.15,0,0,1,1.58-1.08c.46-.25.79-.38.78-.4a.65.65,0,0,0-.23.06,6.16,6.16,0,0,0-.6.24,8.54,8.54,0,0,0-1.65,1A11.3,11.3,0,0,0,84,9.09c-.36.4-.58.69-.58.69s-.22.28-.51.73a18.72,18.72,0,0,0-1,1.71c-.33.65-.62,1.3-.82,1.8A7.48,7.48,0,0,0,80.81,14.87Z"/><path class="cls-2" d="M78.22,15.53a1.57,1.57,0,0,0,.53.94,3,3,0,0,0,.89.6,5,5,0,0,0,1,.25,3.46,3.46,0,0,0,1,0,6.87,6.87,0,0,0-1-.23,5.64,5.64,0,0,1-1-.31,3,3,0,0,1-.87-.49A3.94,3.94,0,0,1,78.22,15.53Z"/><path class="cls-2" d="M80.78,11.73a5.32,5.32,0,0,0-.8,1.1,11,11,0,0,0-.63,1.22,11.49,11.49,0,0,0-.43,1.31,5.16,5.16,0,0,0-.21,1.36s.19-.65.41-1.29a13.1,13.1,0,0,1,.49-1.26s.24-.63.55-1.24A13,13,0,0,0,80.78,11.73Z"/><path class="cls-2" d="M111.82,32.38A2.3,2.3,0,0,0,112,32c.09-.23.24-.54.36-.94a24,24,0,0,0,.81-2.93,24.65,24.65,0,0,0,.4-3c0-.41,0-.76,0-1l0-.38s0-.14,0-.39,0-.59,0-1a24.09,24.09,0,0,0-.37-3,24.87,24.87,0,0,0-.77-2.95c-.12-.39-.26-.71-.35-.93a2.19,2.19,0,0,0-.15-.35,2.21,2.21,0,0,0,.1.37c.06.23.19.55.29.95a26.51,26.51,0,0,1,.68,2.94,27.23,27.23,0,0,1,.31,3c0,.41,0,.76,0,1v.75c0,.24,0,.59,0,1a27.83,27.83,0,0,1-.34,3,28.4,28.4,0,0,1-.71,2.94c-.11.39-.24.71-.31.94A2.21,2.21,0,0,0,111.82,32.38Z"/><path class="cls-2" d="M114.9,12.91a5.45,5.45,0,0,0-.53-1.61,9.88,9.88,0,0,0-.84-1.47,10.14,10.14,0,0,0-1.15-1.24,5.34,5.34,0,0,0-1.36-1s.65.51,1.23,1.11a10.41,10.41,0,0,1,1,1.26,11,11,0,0,1,.89,1.39C114.59,12.13,114.86,12.92,114.9,12.91Z"/><path class="cls-2" d="M117.11,31.69a1.59,1.59,0,0,0,.1-.36c.06-.24.14-.58.21-1,.16-.81.3-1.91.4-3s.1-2.21.08-3.05c0-.41,0-.76,0-1l0-.39,0-.38c0-.24,0-.58-.11-1-.1-.82-.29-1.92-.52-3s-.56-2.14-.83-2.92c-.13-.4-.26-.72-.35-.94a2.19,2.19,0,0,0-.15-.35,2.21,2.21,0,0,0,.1.37c.06.23.18.55.29.95.24.79.51,1.86.74,2.94s.37,2.17.46,3c0,.41.06.75.09,1l0,.38s0,.13,0,.37,0,.59.06,1c0,.83,0,1.93,0,3s-.19,2.2-.31,3c0,.41-.12.74-.15,1S117.11,31.69,117.11,31.69Z"/><path class="cls-2" d="M111,39.52s.08-.07.2-.2.3-.32.49-.58a15.27,15.27,0,0,0,1.25-1.92,19.64,19.64,0,0,0,.94-2.11c.22-.59.35-1,.35-1s.12-.41.27-1,.33-1.44.48-2.27.25-1.66.31-2.29c0-.31.05-.57.07-.76a1.1,1.1,0,0,0,0-.29s-.08.42-.18,1-.24,1.44-.4,2.26-.36,1.64-.53,2.24-.3,1-.3,1-.12.4-.32,1a19.9,19.9,0,0,1-.87,2.11,17,17,0,0,1-1.16,2A10.37,10.37,0,0,0,111,39.52Z"/><path class="cls-2" d="M77.06,24.27s.15-.8.31-1.6.33-1.58.33-1.58.16-.79.35-1.58.43-1.56.39-1.57a7.78,7.78,0,0,0-.58,1.51c-.25.78-.44,1.57-.44,1.57s-.16.81-.25,1.62A8,8,0,0,0,77.06,24.27Z"/><path class="cls-2" d="M78.58,37.12s-.18-.3-.39-.79a8.08,8.08,0,0,1-.5-1.85c-.22-1.4-.31-2.81-.31-2.81s-.14-1.41-.15-2.83c0-.7,0-1.41,0-1.94a8.75,8.75,0,0,0,0-.89,4.27,4.27,0,0,0-.13.88c0,.53-.09,1.24-.11,1.95,0,1.43.07,2.85.07,2.85s.13,1.43.4,2.83a7.26,7.26,0,0,0,.6,1.86,4.62,4.62,0,0,0,.33.56Z"/><path class="cls-2" d="M111.46,10.37a2.87,2.87,0,0,0-.75-1,4.56,4.56,0,0,0-1-.72,5,5,0,0,0-1.18-.35,3,3,0,0,0-1.21,0c0,.05.6,0,1.17.17a4.9,4.9,0,0,1,1.1.41,5.42,5.42,0,0,1,1,.61C111.06,9.91,111.43,10.4,111.46,10.37Z"/><path class="cls-2" d="M109.31,11.29a3.27,3.27,0,0,0-.5-.82,6.74,6.74,0,0,0-.62-.73,3.48,3.48,0,0,0-.8-.53,1.58,1.58,0,0,0-.93-.19,8.62,8.62,0,0,1,.83.37A4.18,4.18,0,0,1,108,10a8.57,8.57,0,0,1,.66.64A5.22,5.22,0,0,0,109.31,11.29Z"/></g><path class="cls-3" d="M115.31,27.09a2.35,2.35,0,0,1-.13.73C115.21,27.3,115.27,27,115.31,27.09Z"/><path class="cls-3" d="M106.91,36.74c1.36-3.9,2.4-9.32,1.5-13.87,2.17,6-1.58,15.39,1,15.08,2.36-.3,5.14-7.73,5.79-10.13-.12,1.61,0,5.23,1.95,4.63,1.73-.55,2.08-6.53,2.23-10.29.36,6.28-.37,12.75-2.08,15-3.17,4.26-14.38,6.12-14.38,6.12A15.77,15.77,0,0,0,106.91,36.74Z"/><path class="cls-3" d="M76.1,36.49c-.09-.66-.17-1.35-.22-2.05a5.56,5.56,0,0,0,2.7,2.68c2.5.77,0-2.38.16-5.36s2-12.61.11-12.73c-.8,0-1.6,1.18-2.26,2.6A38.14,38.14,0,0,1,79,12.37c.38-.73.87-1.7,1.53-2.77-.49,1.87-1,4.38-.14,5.08,1.33,1.15,5.2-3.67,5.53-3.9s-3.65,4.13-2.21,5.05,8.13-4.13,8.13-4.13-2.6,2.86-2.27,3.44c.21.36,2-.64,3.28-1.43-.11.14-.22.29-.32.44-2.91,4.34-10.87,3.1-10.87,3.1-5.22,14.46.25,24.48.25,24.48S76.49,39.11,76.1,36.49Z"/><g class="cls-17"><path class="cls-2" d="M116.44,11.38a13.44,13.44,0,0,1,2.34,8.23.09.09,0,0,1-.17,0c-.32-1.37-.62-2.77-1-4.12s-1-2.62-1.35-4c0-.12.13-.24.21-.13Z"/></g><g class="cls-17"><path class="cls-2" d="M118.78,21.3a4.56,4.56,0,0,1,.11,1.52c0,.14-.23.14-.22,0a4.82,4.82,0,0,0,0-1.47c0-.12.14-.16.16-.05Z"/></g><g class="cls-17"><path class="cls-2" d="M114.64,14.42c2.1,2.3,2.88,7.09,2.34,10.11-.08.44-.67.36-.79,0a40.66,40.66,0,0,1-1.07-5.27,20.61,20.61,0,0,1-.78-4.71.18.18,0,0,1,.3-.13Z"/></g><g class="cls-17"><path class="cls-2" d="M114.74,22.82a15.92,15.92,0,0,1-.26,5.88c0,.13-.26.12-.25,0,.08-1,.37-1.92.43-2.91a23.88,23.88,0,0,0,0-2.93.06.06,0,1,1,.12,0Z"/></g><g class="cls-17"><path class="cls-2" d="M109.55,13.37c1.67,2.09,3.28,5,2.62,7.8a.25.25,0,0,1-.49,0c-1-2.5-1.12-5.25-2.2-7.74,0,0,0-.1.07-.06Z"/></g><g class="cls-17"><path class="cls-2" d="M109.17,19.19a14,14,0,0,1,1,10.08c0,.11-.22.09-.21,0a29.56,29.56,0,0,0-1.08-9.91c-.06-.19.22-.32.31-.14Z"/></g><g class="cls-17"><path class="cls-2" d="M102.51,2.72a28.86,28.86,0,0,0-5.8-1.33c-.31,0-.21-.5.06-.52a10.92,10.92,0,0,1,5.82,1.65c.11.06,0,.25-.08.2Z"/></g><g class="cls-17"><path class="cls-2" d="M100.45,4.25c-1.6,0-3.1-.32-4.72-.43-1.94-.14-3.87,0-5.81.05a.3.3,0,0,1-.19-.5c2.34-2.45,5.88-2.17,8.8-1.12.55.2,2.24.64,2.14,1.55,0,.14,0,.44-.22.45Z"/></g><g class="cls-17"><path class="cls-2" d="M88.69,4.56a2,2,0,0,1-.32.26L88,5a3,3,0,0,1-.81.38.36.36,0,0,1-.39-.53,1.41,1.41,0,0,1,.74-.66,1.87,1.87,0,0,1,1-.23c.24,0,.47.38.22.57Z"/></g><g class="cls-17"><path class="cls-2" d="M97.47,9.81c-.81.38-1.71.44-2.53.86a14,14,0,0,0-2.46,1.73.15.15,0,0,1-.24-.19c.89-1.56,3.41-3.16,5.21-2.52,0,0,.07.1,0,.12Z"/></g><g class="cls-17"><path class="cls-2" d="M94.32,9.4c-.92.66-1.84,1.27-2.81,1.85s-1.94.85-2.78,1.45c-.34.24-.84-.26-.58-.61a7,7,0,0,1,2.28-2.37,18.13,18.13,0,0,1,3.48-1.34c.61-.19.89.67.41,1Z"/></g><g class="cls-17"><path class="cls-2" d="M98.76,5.64c-2.12.54-4.3.67-6.39,1.35s-4,1.86-6.1,2.47c-.4.12-.61-.37-.38-.66,2.69-3.37,9-4.71,12.87-3.2,0,0,0,0,0,0Z"/></g><g class="cls-17"><path class="cls-2" d="M85,9.82l-.77.69c-.11.1-.26,0-.16-.15l.74-.73c.13-.12.31.08.19.19Z"/></g><path class="cls-11" d="M134.84,55.79c1.47-.83,3.12-1.39,4.57-2.16.43-.23,4.74-2.43,3.94-3.3-.67-.72-2.33.24-2.33.24s5.42-4.86,2.24-6.25-9.67,4.13-9.67,4.13,1.5-3.6-1.83-3.53c-1.62,0,0,3-.46,4.3-.55,1.49-1.37,3.16-.75,4.77l-1.1,1.29a24.92,24.92,0,0,0,3,2.49A8.44,8.44,0,0,1,134.84,55.79Z"/><path class="cls-12" d="M133.76,51.56a2.81,2.81,0,0,0-1.12,1.06,2.22,2.22,0,0,0-.26.61,3.79,3.79,0,0,1,1.51-1.37,3.4,3.4,0,0,1,1.92-.36,1.87,1.87,0,0,0-.58-.18A2.5,2.5,0,0,0,133.76,51.56Z"/><path class="cls-12" d="M137.67,49.8c.59,1.39,1,2.56,1,2.56a10.65,10.65,0,0,0-.72-2.69,9.71,9.71,0,0,0-1.38-2.36S137.1,48.42,137.67,49.8Z"/><path class="cls-12" d="M140,50.81a4.57,4.57,0,0,0-.93.7,4.41,4.41,0,0,0,1.07-.41,4.51,4.51,0,0,0,.93-.7A4.09,4.09,0,0,0,140,50.81Z"/><path class="cls-12" d="M141.13,47.92a12.44,12.44,0,0,0-2.51,2.13s1.16-.89,2.66-1.84,2.77-1.63,2.77-1.63A11.54,11.54,0,0,0,141.13,47.92Z"/><path class="cls-12" d="M140.38,45.84a11.53,11.53,0,0,0-2.61,2.23,28.93,28.93,0,0,1,2.76-1.94,29.72,29.72,0,0,1,2.92-1.63A10.87,10.87,0,0,0,140.38,45.84Z"/><path class="cls-13" d="M134.86,55.83c-2.61-.35-3.76-1.27-4.2-2.33a4.89,4.89,0,0,0,4.55,1c1.75-.68,1.2-2.2.42-3s-3.1,1.55-3.1,1.55a2.9,2.9,0,0,1,.38-1c.31-.63,1-.65,1.5-.86.7-.28.47-.92,0-1.38a2.23,2.23,0,0,0-2.14-.51,2.19,2.19,0,0,0-1.36,1c.17-.45.34-.82.43-1.07a6.37,6.37,0,0,0-.2-2.56c.22.58.81,1.87,1.79,1.85s.49-2.07.46-3.15c1.12,1,.24,3.09.24,3.09s4.13-3.51,7.42-4.22a19.46,19.46,0,0,0-2.55,1.85c-1,.82-.81,4,1.32,4.18,1.48.11,3.35-2.35,4.37-3.89-.48,1.64-2.47,3.59-3,4.08-.75.46-1.53.92-1.78,1.1-.46.33-.75,1.34.42.81s3.56-2,3.56-2C144.52,51.6,134.86,55.83,134.86,55.83Z"/><path class="cls-14" d="M107.86,48s-2.09,1-3.72,4.8c-2.23,5.24,6.32,19.77,12,21s18.27-14.93,18.27-14.93-2.32-5.22-6.15-4.62L117.71,66C115.36,66.24,110.55,50,107.86,48Z"/><path class="cls-15" d="M129.73,54.32a3.61,3.61,0,0,1,2,3.1c-.08,3.07-11.33,13-13.24,11.65-1.57-1.15.72-4.53,1.59-5.72L117.71,66c-.37,0-.81-.34-1.29-1-.79.75-1.69,1.59-2.16,2-1,.78-3.67.26-6.63-6.74a20.8,20.8,0,0,1-1.51-10.8,12.26,12.26,0,0,0-2,3.53c-2.24,5.24,6.37,19.65,12,20.85s18.27-14.93,18.27-14.93S132.65,55,129.73,54.32Z"/><g class="cls-20"><g class="cls-16"><path class="cls-14" d="M103.73,55.81a9.25,9.25,0,0,1,.12-3.28,5.63,5.63,0,0,1,.42-1.28,6.59,6.59,0,0,0-.34,1.3,11.39,11.39,0,0,0,0,3.23,26.91,26.91,0,0,0,.65,3.18l.34,1.3L104.47,59A17.93,17.93,0,0,1,103.73,55.81Z"/></g><g class="cls-16"><path class="cls-14" d="M104.48,57.94a11.23,11.23,0,0,1,.21-2.51s-.07,1.12,0,2.51.17,2.49.17,2.49A11.28,11.28,0,0,1,104.48,57.94Z"/></g><g class="cls-16"><path class="cls-14" d="M107,48.71a10.35,10.35,0,0,1-1.14.92,13.89,13.89,0,0,1,1-1.07,1.6,1.6,0,0,1,.93-.45.62.62,0,0,1,.41.12.6.6,0,0,0-.4,0A2,2,0,0,0,107,48.71Z"/></g><g class="cls-16"><path class="cls-14" d="M117,67.81a8,8,0,0,0-.16,2.16,3.2,3.2,0,0,1-.1-.63,5.48,5.48,0,0,1,.08-1.57,5.42,5.42,0,0,1,.53-1.45,3.54,3.54,0,0,1,.34-.53A7.87,7.87,0,0,0,117,67.81Z"/></g><g class="cls-16"><path class="cls-14" d="M116.45,67.29a11,11,0,0,0-.6,1.28,4,4,0,0,1,.45-1.39,3.53,3.53,0,0,1,.9-1.08A11.06,11.06,0,0,0,116.45,67.29Z"/></g></g><path class="cls-29" d="M99.71,29.23A2.3,2.3,0,0,1,98.4,29a1.42,1.42,0,0,1-.71-.82,1.71,1.71,0,0,1-.08-.84A1.83,1.83,0,0,1,97.7,27a1.58,1.58,0,0,0-.5,1.25,1.93,1.93,0,0,0,.74,1.43,2.54,2.54,0,0,0,1.91.5c.39-.08.59-.15.9-.24a3.83,3.83,0,0,0,.43-.17,2.34,2.34,0,0,0,.4-.24,4.38,4.38,0,0,0,1-1,3.42,3.42,0,0,0,.45-.86,2.16,2.16,0,0,0,.1-.34,4.65,4.65,0,0,1-.9.86,6.25,6.25,0,0,1-1.11.67l-.3.13-.35.09Z"/><path class="cls-29" d="M84.86,27.76a2.28,2.28,0,0,1-1.31-.22,1.42,1.42,0,0,1-.71-.82,1.71,1.71,0,0,1-.08-.84,1.83,1.83,0,0,1,.09-.33,1.58,1.58,0,0,0-.5,1.25,1.93,1.93,0,0,0,.74,1.43,2.58,2.58,0,0,0,1.91.5c.39-.08.59-.15.9-.24a3.83,3.83,0,0,0,.43-.17,2.34,2.34,0,0,0,.4-.24,4.58,4.58,0,0,0,1-1,3.42,3.42,0,0,0,.45-.86c.07-.22.1-.34.1-.34a4.65,4.65,0,0,1-.9.86,6.64,6.64,0,0,1-1.11.67l-.3.13-.35.09C85.41,27.63,85.05,27.72,84.86,27.76Z"/><path class="cls-13" d="M89.29,34.58S87,36.9,89.12,38.23s5.66-.22,6.52-3.16C95.64,35.07,91.49,34.06,89.29,34.58Z"/><path class="cls-7" d="M89.1,34.23s-2.32,2.32-.17,3.65,5.59-.17,6.5-2.88C95.43,35,91.3,33.71,89.1,34.23Z"/><path class="cls-30" d="M89.1,34.23a4.44,4.44,0,0,0-1,1.72c.26-.33.55-.63.7-.56.32.16-.18,1,1,1.57s4-1.31,4.37-1.1-.27,1.07-.83,1.71A5,5,0,0,0,95.43,35S91.3,33.71,89.1,34.23Z"/><path class="cls-7" d="M87.16,34.14c-.33-.39.69-1.11,1-1.25a1.88,1.88,0,0,1,2.06.52S91.56,31,95.6,35.09c-.22-.23-1.13-.26-1.42-.32a31.53,31.53,0,0,0-3.34-.46,18.89,18.89,0,0,0-2-.05c-.34,0-1.39.15-1.66-.09Z"/><path class="cls-9" d="M87.16,34.14c-.33-.39.69-1.11,1-1.25a1.88,1.88,0,0,1,2.06.52S91.56,31,95.6,35.09c-.22-.23-1.13-.26-1.42-.32a31.53,31.53,0,0,0-3.34-.46,18.89,18.89,0,0,0-2-.05c-.34,0-1.39.15-1.66-.09Z"/><g class="cls-20"><path class="cls-31" d="M92,34.15a14.65,14.65,0,0,1,2.77.57,11.27,11.27,0,0,1,1.09.4s-1.74-.36-3.9-.58c-1.08-.12-2.06-.18-2.77-.21l-.85,0a.35.35,0,0,0-.28.08.34.34,0,0,1,.28-.14c.2,0,.48-.08.84-.11A14,14,0,0,1,92,34.15Z"/></g><path class="cls-32" d="M94.18,34.77a31.53,31.53,0,0,0-3.34-.46l-1-.05-.16,0s-1.86,2.58,1,2.77a4.45,4.45,0,0,0,3.86-2.23h0A1.82,1.82,0,0,1,94.18,34.77Z"/><path class="cls-33" d="M92.87,33.93c-1.91-.21-2.85.13-4.32-.16-.71-.14-.9-.36-.9-.55-.36.28-.71.67-.49.92l0,0c.27.24,1.32.1,1.66.09a18.89,18.89,0,0,1,2,.05,31.53,31.53,0,0,1,3.34.46c.29.06,1.2.09,1.42.32a12.8,12.8,0,0,0-1.82-1.55C93.82,33.81,93.63,34,92.87,33.93Z"/><path class="cls-34" d="M94.11,35.37c-2.86-.59-4.27.64-4.76,1.21a1.83,1.83,0,0,0,1.29.47A4.15,4.15,0,0,0,94.11,35.37Z"/><path class="cls-8" d="M91.08,37.77c0,.19.41.23.83.08s.73-.42.69-.61-.41-.22-.83-.07S91,37.58,91.08,37.77Z"/><path class="cls-7" d="M108.8,25.28c0,.32,0,.63-.07.95l-1.49.79-.65.35-.41-.86C107.06,26.11,107.93,25.69,108.8,25.28Z"/><path class="cls-35" d="M108.76,25.76l0,.47-.57.3-.75.4,0,0-.14.07-.65.35-.06-.11v0c0-.09-.1-.21-.16-.32Z"/><path class="cls-7" d="M93.71,26.58l.4-.71a7.38,7.38,0,0,0-4.39-.29l.34.74A6.39,6.39,0,0,1,93.71,26.58Z"/><path class="cls-35" d="M93.71,26.58a6.39,6.39,0,0,0-3.65-.26L89.91,26a7.42,7.42,0,0,1,4,.29Z"/><path class="cls-36" d="M106.45,26.66S100,22.88,94,26.26c0,0-.8,7.63,5.69,7.83S106.45,26.66,106.45,26.66Z"/><g class="cls-24"><path class="cls-37" d="M97.37,25,101,34a6.57,6.57,0,0,1-1.36.09l-.55,0-3.64-8.48A11.4,11.4,0,0,1,97.37,25Z"/><path class="cls-37" d="M101.88,25.07l2.77,6.78a5.9,5.9,0,0,1-1.41,1.31l-3.56-8.3A13.92,13.92,0,0,1,101.88,25.07Z"/></g><path class="cls-36" d="M94,27.32c0-.64,0-1.06,0-1.06,6-3.38,12.47.4,12.47.4a9.67,9.67,0,0,1-.16,1.26A13.39,13.39,0,0,1,94,27.32Z"/><path class="cls-7" d="M99.65,34.49a5.93,5.93,0,0,1-4.21-1.7c-2.3-2.39-1.91-6.4-1.89-6.57l0-.19.18-.11c6.22-3.47,12.87.37,12.94.41l.2.12v.22c0,.08-.37,7.82-7,7.82Zm-5.25-8c-.05.8-.09,3.91,1.7,5.76a4.94,4.94,0,0,0,3.58,1.43c5.43.19,6.21-5.56,6.32-6.81C104.87,26.29,99.48,23.79,94.4,26.5Z"/><path class="cls-35" d="M99.7,34.09h.24c6.07,0,6.42-7.13,6.42-7.21v-.2l-.19-.11c-.07,0-6.19-3.58-11.92-.38l-.17.1,0,.18c0,.16-.38,3.85,1.75,6.05A5.39,5.39,0,0,0,99.7,34.09Zm0-.4a4.94,4.94,0,0,1-3.58-1.43c-1.79-1.85-1.75-5-1.7-5.76,5.08-2.71,10.47-.21,11.6.38C105.89,28.13,105.11,33.88,99.68,33.69Z"/><path class="cls-36" d="M89.84,25.93s-6-4.22-12.39-1.26c0,0-1.55,7.54,4.89,8.19S89.84,25.93,89.84,25.93Z"/><g class="cls-24"><path class="cls-37" d="M81,23.69l2.76,9.18a7,7,0,0,1-1.37,0l-.54-.07L79,24.08A11.39,11.39,0,0,1,81,23.69Z"/><path class="cls-37" d="M85.45,24,87.53,31A5.89,5.89,0,0,1,86,32.18l-2.73-8.52A14.35,14.35,0,0,1,85.45,24Z"/></g><path class="cls-36" d="M77.32,25.72a10.21,10.21,0,0,1,.13-1c6.37-3,12.39,1.26,12.39,1.26a9.4,9.4,0,0,1-.29,1.24A13.32,13.32,0,0,1,77.32,25.72Z"/><path class="cls-7" d="M82.29,33.26a5.74,5.74,0,0,1-4-2C76.2,28.73,77,24.77,77,24.6l0-.2.2-.09c6.54-3,12.79,1.26,12.85,1.3l.19.14,0,.22c0,.08-1.15,7.77-7.72,7.31Zm-4.44-8.33c-.13.8-.48,3.89,1.12,5.86a4.84,4.84,0,0,0,3.43,1.68c5.39.55,6.74-5.11,7-6.36C88.3,25.45,83.18,22.58,77.85,24.93Z"/><path class="cls-35" d="M82.37,32.87l.24,0c6.06.42,7.11-6.66,7.12-6.74l0-.2-.18-.13c-.06,0-5.82-4-11.84-1.19l-.18.08,0,.18c0,.15-.76,3.8,1.14,6.14A5.22,5.22,0,0,0,82.37,32.87Zm0-.4A4.84,4.84,0,0,1,79,30.79c-1.6-2-1.25-5.06-1.12-5.86,5.33-2.35,10.45.52,11.52,1.18C89.14,27.36,87.79,33,82.4,32.47Z"/></g></g></g></svg>