<svg xmlns="http://www.w3.org/2000/svg" viewBox="0 0 147.33 407.51"><defs><style>.cls-1{isolation:isolate;}.cls-2{fill:#98d2ca;}.cls-11,.cls-12,.cls-13,.cls-14,.cls-18,.cls-2,.cls-22,.cls-24,.cls-27,.cls-28,.cls-31,.cls-34,.cls-4,.cls-6{mix-blend-mode:multiply;}.cls-11,.cls-2,.cls-27,.cls-28,.cls-32,.cls-7{opacity:0.5;}.cls-3,.cls-4,.cls-8{fill:#294168;}.cls-13,.cls-4{opacity:0.34;}.cls-21,.cls-22,.cls-5,.cls-6{fill:#f8e9d0;}.cls-15,.cls-16,.cls-19,.cls-21,.cls-25,.cls-30,.cls-32,.cls-33,.cls-35,.cls-36,.cls-7,.cls-8,.cls-9{mix-blend-mode:screen;}.cls-9{opacity:0.6;}.cls-10,.cls-11,.cls-14,.cls-15,.cls-30,.cls-31,.cls-32{fill:#8dcbd2;}.cls-16,.cls-24,.cls-30{opacity:0.45;}.cls-17,.cls-18,.cls-19{fill:#6f3a1e;}.cls-18,.cls-31,.cls-35{opacity:0.25;}.cls-20{fill:#ebb18e;}.cls-22{opacity:0.62;}.cls-23,.cls-24,.cls-25,.cls-28,.cls-34{fill:#f15e6b;}.cls-26,.cls-35,.cls-36{fill:#fff;}.cls-27{fill:#d3dbfd;}.cls-29{fill:#212f47;}</style></defs><g class="cls-1"><g id="Capa_2" data-name="Capa 2"><g id="OBJECTS"><ellipse class="cls-2" cx="77.14" cy="392.09" rx="70.19" ry="15.43"/><path class="cls-3" d="M36.06,375.29s0,.16,0,.45c0,2.29-.13,12.74,1.28,13.71,1.57,1.09,1.06-12.16,1.06-12.16"/><path class="cls-4" d="M36.06,375.29s0,.16,0,.45c0,2.29-.13,12.74,1.28,13.71,1.57,1.09,1.06-12.16,1.06-12.16"/><path class="cls-5" d="M29.67,266.6l6.09,21.83s-14.4,11,.92,80.07c.53,2.4-.94,5.25-.62,7.68.7,5.35,4.2,12,8,15.77,1.8,1.78,11.34,5.92,9.3.53-3.35-8.86-5.63-11.21-8.15-17.45-1.88-4.65-1.23-7.17-.83-12.23.87-11.19,1.89-22.38,2.77-33.58,1-13,2.08-26.13,4.33-39,2.1-12,3-33.22-1.14-51.82S20.14,204.13,29.67,266.6Z"/><path class="cls-6" d="M48.5,381.81a2.88,2.88,0,0,1-2.26,2c-5.35.51-9.73-20.3-12.1-41.38s.65-43.67,6.8-48.48c4.1-3.22,7.72-.35,9.68,1.91.28-1.87.57-3.73.9-5.58,2.1-12,3-33.22-1.14-51.82-1.64-7.39-6.75-14.32-11.72-16.07a59.7,59.7,0,0,0-9.79,8.17c-1.74,6.85-1.92,18.29.8,36.07l6.09,21.83s-14.4,11,.92,80.07c.53,2.4-.94,5.25-.62,7.67.7,5.36,4.2,12,8,15.78,1.8,1.78,11.34,5.92,9.3.53A81.05,81.05,0,0,0,48.5,381.81Z"/><path class="cls-3" d="M49.4,383.5c1.55,4.17-.1,5.49-2.87,4.43-7.24-2.74-9.59-18-9.59-18l-.16-.08c-.06,2.08-1,4.35-.72,6.33.7,5.36,4.2,12,8,15.78,1.8,1.78,11.34,5.92,9.3.53A78.43,78.43,0,0,0,49.4,383.5Z"/><path class="cls-5" d="M44.27,282.94a1,1,0,1,1-.94-1A1,1,0,0,1,44.27,282.94Z"/><path class="cls-5" d="M47.38,286.8A1.72,1.72,0,1,1,45.71,285,1.72,1.72,0,0,1,47.38,286.8Z"/><g class="cls-7"><path class="cls-3" d="M51.3,392.56A6.72,6.72,0,0,1,48,392a14.35,14.35,0,0,1-3-1.65,14.26,14.26,0,0,1-2.31-2.57,6.6,6.6,0,0,1-1.36-3.11c.16-.07,1,1.38,2.06,2.57a16.59,16.59,0,0,0,2.39,2.13,16.41,16.41,0,0,0,2.62,1.82C49.73,391.94,51.32,392.39,51.3,392.56Z"/></g><path class="cls-4" d="M44.1,392c1.7,1.68,10.23,5.44,9.54,1.39-.65,2.26-4.28,1.18-7.81-1.36-5.26-3.78-8.83-14-8.57-14.64s2.66,3.43,3.4,4.74l.2.37v-.34a44.29,44.29,0,0,1-3.93-12.19l-.16-.08c-.06,2.08-1,4.35-.72,6.33C36.76,381.53,40.26,388.14,44.1,392Z"/><path class="cls-5" d="M106.32,371.28a17.72,17.72,0,0,1-.56-4.6l-8.8-.74c.49,2.16.85,3.68,1.05,4.32,0,0,.1,2.89.31,6.51.31,5.28.86,12.13,1.71,13.92,1.43,3,1.25-10.35,1.25-10.35s4.86,10.48,7.84,11.55S122.49,392,123,390,114.86,391.65,106.32,371.28Z"/><path class="cls-6" d="M113.32,383.39a3.34,3.34,0,0,1-1.78.33c-4.45-.19-8-7-10.92-17.47L97,365.94c.49,2.16.85,3.68,1.05,4.32,0,0,.1,2.89.31,6.51.09,1.47.19,3.05.31,4.62.91,1.19,1.8,2.31,2.63,3.32,0-2.31,0-4.37,0-4.37s3.48,7.5,6.36,10.46c1,.42,2.52,1,4.21,1.51,4.21.2,10.75-.71,11.18-2.28S119,390.07,113.32,383.39Z"/><path class="cls-3" d="M115.75,385.85c.43,1.5-.73,1.68-5.1-.23C104.3,382.83,98,370.26,98,370.26s.1,2.89.31,6.51c.31,5.28.86,12.13,1.71,13.92,1.43,3,1.25-10.35,1.25-10.35s4.86,10.48,7.84,11.55S122.49,392,123,390C123.37,388.81,120.21,389.69,115.75,385.85Z"/><g class="cls-7"><path class="cls-3" d="M117.16,390.55a6.61,6.61,0,0,1-3.39-.3,14.54,14.54,0,0,1-3.17-1.36,14.33,14.33,0,0,1-2.53-2.35c-1.12-1.32-1.8-2.9-1.64-3s1.08,1.29,2.28,2.37a16,16,0,0,0,2.58,1.91,16.29,16.29,0,0,0,2.78,1.58C115.54,390.08,117.17,390.38,117.16,390.55Z"/></g><path class="cls-4" d="M122.25,389.25c-.9,1.25-4.56,3.14-10.25,1.87-6.65-1.48-10.26-13.37-10.26-13.37,8.18,11.81,13.94,10.36,14.5,9.73.24-.26.17-.74,0-1.23l-.49-.4c.43,1.5-.73,1.68-5.1-.23C104.3,382.83,98,370.26,98,370.26s.1,2.89.31,6.51c.31,5.28.86,12.13,1.71,13.92,1.43,3,1.25-10.35,1.25-10.35s4.86,10.48,7.84,11.55S122.49,392,123,390C123.14,389.62,122.85,389.44,122.25,389.25Z"/><path class="cls-3" d="M39,175.29s-13.83,19.28-16.21,43.57,7.62,66.22,7.62,66.22-12.86,36.2.48,89.07c0,0,15.5,8,23.67-.21,0,0-6.05-47.42.15-82.67a238.44,238.44,0,0,0,1.9-66.21S66.62,267.93,70,287c0,0-4,38.77,21.56,85.54,0,0,17,5.92,26.08-1.22,0,0-17.72-37.75-24.3-83.37,0,0,.95-84.79-14.77-110.51C78.52,177.42,44.26,171.72,39,175.29Z"/><path class="cls-4" d="M39,175.29s-13.83,19.28-16.21,43.57,7.62,66.22,7.62,66.22-12.86,36.2.48,89.07c0,0,15.5,8,23.67-.21,0,0-6.05-47.42.15-82.67a238.44,238.44,0,0,0,1.9-66.21S66.62,267.93,70,287c0,0-4,38.77,21.56,85.54,0,0,17,5.92,26.08-1.22,0,0-17.72-37.75-24.3-83.37,0,0,.95-84.79-14.77-110.51C78.52,177.42,44.26,171.72,39,175.29Z"/><path class="cls-8" d="M29.91,281.67l-.66-3.2A6.45,6.45,0,0,1,29,277a7.6,7.6,0,0,1,.48,1.41c.26.86.57,2,.86,3.17.59,2.31,1.07,4.64,1.07,4.64s.42,2.35.74,4.71c.16,1.19.3,2.37.39,3.26a6.74,6.74,0,0,1,.07,1.49,8.8,8.8,0,0,1-.31-1.46L31.72,291c-.43-2.33-.92-4.66-.92-4.66S30.38,284,29.91,281.67Zm.38,8.75a45.14,45.14,0,0,0,.32,4.92,47.78,47.78,0,0,0,.31-4.92,47.78,47.78,0,0,0-.31-4.92A45.14,45.14,0,0,0,30.29,290.42Zm44.29,7.47-1.32-4.16-1.5-4.11c-.39-1-.77-2.05-1.06-2.81a5.82,5.82,0,0,0-.56-1.25,6.75,6.75,0,0,0,.33,1.33c.24.78.56,1.83.87,2.88.67,2.08,1.33,4.16,1.33,4.16s.74,2.05,1.49,4.1l1.07,2.81a6.86,6.86,0,0,0,.55,1.26,6.23,6.23,0,0,0-.32-1.33Zm-4.41-11c-.17,0,.92,5.49.92,5.49s1.36,5.39,1.53,5.35-.92-5.49-.92-5.49S70.34,286.85,70.17,286.88Zm23.12-.18a28.19,28.19,0,0,0-.29-4.25c-.09,0-.08,2.13-.15,4.24s-.2,4.23-.2,4.23-.06,2.12-.19,4.23-.33,4.23-.24,4.24a26.75,26.75,0,0,0,.68-4.2c.25-2.11.38-4.24.38-4.24S93.34,288.82,93.29,286.7ZM64,220a31,31,0,0,1-2.24,2.22,29.84,29.84,0,0,1-2.37,2.08c-1.24,1-2.6,1.81-2.56,1.89a12.5,12.5,0,0,0,2.82-1.53,26.09,26.09,0,0,0,2.54-2,26.15,26.15,0,0,0,2.15-2.39,12,12,0,0,0,1.73-2.7C65.94,217.5,65,218.8,64,220Zm-9.59-3.72A17,17,0,0,1,57.11,221c.47,1.31.62,2.71.71,2.71a7.57,7.57,0,0,0-.28-2.84,10,10,0,0,0-2.86-4.93,7.27,7.27,0,0,0-2.31-1.66C52.32,214.35,53.46,215.18,54.36,216.24Zm1.91,6A12.46,12.46,0,0,0,54.39,220a20.17,20.17,0,0,0-2.34-1.64,12.68,12.68,0,0,0-2.51-1.3,20.93,20.93,0,0,0,2.27,1.67A26.09,26.09,0,0,1,54,220.49a13.11,13.11,0,0,1,1.93,2,18.82,18.82,0,0,1,1.42,2.4A5.92,5.92,0,0,0,56.27,222.2Zm-18-32.08c-.25.41-.53.92-.84,1.5s-.67,1.25-1,2a65.07,65.07,0,0,0-4.17,11.25A84.75,84.75,0,0,0,30,216.66c-.2,1.62-.32,3-.39,3.94s-.12,1.49-.12,1.49-.14,2.19-.17,5.46.07,7.64.35,12,.7,8.7,1,12c.18,1.62.33,3,.43,3.92.06.47.11.85.14,1.1a1.67,1.67,0,0,0,.07.39,1.76,1.76,0,0,0,0-.4c0-.25,0-.63-.07-1.1-.08-1-.19-2.31-.32-3.94-.27-3.25-.62-7.6-.84-11.94s-.3-8.7-.22-12,.22-5.43.22-5.43,0-.54.1-1.49.17-2.3.36-3.92A85,85,0,0,1,32.71,205a67.75,67.75,0,0,1,4-11.25c.33-.75.66-1.42,1-2s.56-1.11.79-1.53l.52-1a1.36,1.36,0,0,0,.16-.36,2.9,2.9,0,0,0-.22.33Zm-3.8,89c-.45-3.58-.77-7.16-.77-7.16s-.4-3.58-.67-7.18c-.13-1.79-.25-3.59-.34-4.94a17.09,17.09,0,0,0-.2-2.25,2.87,2.87,0,0,0,0,.62c0,.4,0,1,0,1.64,0,1.35.06,3.16.15,5,.16,3.61.49,7.21.49,7.21s.39,3.59,1,7.16c.28,1.78.58,3.56.84,4.89.13.67.25,1.22.33,1.6a2.39,2.39,0,0,0,.17.6,16.1,16.1,0,0,0-.26-2.24C35,282.67,34.74,280.89,34.51,279.1Zm.56,87.61c-.17-1-.41-2.39-.7-4.08-.58-3.38-1.34-7.89-2-12.41s-1.17-9.06-1.44-12.47-.36-5.7-.36-5.7-.13-2.27-.15-5.69a102.77,102.77,0,0,1,.69-12.52,81.38,81.38,0,0,1,2.42-12.3c.22-.82.45-1.57.66-2.24s.39-1.24.56-1.71.28-.85.36-1.1a2.08,2.08,0,0,0,.12-.4,1.79,1.79,0,0,0-.18.38l-.42,1.08c-.19.46-.39,1-.62,1.7s-.48,1.4-.72,2.22a78.35,78.35,0,0,0-2.62,12.32,102.1,102.1,0,0,0-.83,12.57c0,3.43.11,5.72.11,5.72s.1,2.29.41,5.72.86,8,1.57,12.48,1.55,9,2.2,12.39c.34,1.68.62,3.08.81,4.06.11.49.19.88.24,1.14a2.14,2.14,0,0,0,.11.4,1.78,1.78,0,0,0,0-.41C35.21,367.59,35.14,367.21,35.07,366.71Z"/><path class="cls-4" d="M54.56,373.94s-.67-5.31-1.34-13.69c-1.94,3.41-4.72,5.8-8.68,5.25-11.86-1.63-13.09-47.84-8.59-59.29,3.61-9.19,13.28-3.62,17-1.07.42-4.74,1-9.4,1.8-13.87.9-5.17,1.58-10.23,2.09-15.13-4.89,9.59-17.21,14.6-24.31-17.95-8.78-40.25,10.44-75.12,10-76.7a16.23,16.23,0,0,0-3.06-6.43,2.5,2.5,0,0,0-.43.23s-13.83,19.28-16.21,43.57,7.62,66.22,7.62,66.22-12.86,36.2.48,89.07C30.89,374.15,46.39,382.11,54.56,373.94Z"/><path class="cls-4" d="M111.3,356.07c-3,7.3-10.91,8.6-19.67-4.66-11.63-17.6-12.82-46.83-5.37-49.52,3.49-1.25,7.36,1.73,10.5,5.26-1.33-6.18-2.52-12.61-3.47-19.22,0,0,.13-11.14-.46-26.58-1.46,10.87-4.61,23.5-11.34,20-11.34-6-15.81-62.05-15.81-62.05-1.13.57-8.13,6.26-8.83,6.83C58.39,232.72,66.92,269.68,70,287c0,0-4,38.77,21.56,85.54,0,0,17,5.92,26.08-1.22C117.59,371.3,114.93,365.63,111.3,356.07Z"/><g class="cls-9"><path class="cls-3" d="M54.14,274.7a18.15,18.15,0,0,1,.29-3.16c.23-1.88.48-4.39.67-6.9.36-5,.24-10.06.24-10.06s.06-5-.36-10.06c-.21-2.51-.49-5-.74-6.9a19.29,19.29,0,0,1-.34-3.15,15.6,15.6,0,0,1,.82,3.07c.4,1.86.82,4.37,1.14,6.89.65,5,.74,10.14.74,10.14s0,5.1-.62,10.15c-.3,2.52-.68,5-1.07,6.9A16.33,16.33,0,0,1,54.14,274.7Z"/><path class="cls-3" d="M83.46,198.31a1.25,1.25,0,0,1-.63-.19,1.14,1.14,0,0,1,1.26,0A1.25,1.25,0,0,1,83.46,198.31Z"/><path class="cls-3" d="M88.68,257.76a36.56,36.56,0,0,1-.16-4.47c0-2.68-.13-6.25-.26-9.81-.28-7.13-.92-14.24-.92-14.24s-.47-7.11-1.29-14.2c-.42-3.55-.89-7.08-1.26-9.74a36.81,36.81,0,0,1-.53-4.44,5.41,5.41,0,0,1,.34,1.19c.17.76.42,1.85.67,3.17.52,2.63,1.13,6.16,1.66,9.7,1,7.09,1.66,14.23,1.66,14.23s.5,7.15.55,14.31c0,3.58,0,7.15-.13,9.84-.05,1.34-.13,2.45-.18,3.23A5.37,5.37,0,0,1,88.68,257.76Z"/><path class="cls-3" d="M89.82,267.16c-.34,0-.39-3.24-.39-3.24s.51-3.17.85-3.15.4,3.24.4,3.24S90.17,267.19,89.82,267.16Z"/><path class="cls-3" d="M49.69,350.69a20.46,20.46,0,0,1-.52-3.5c-.23-2.11-.46-4.93-.65-7.75-.37-5.65-.46-11.32-.46-11.32s0-5.66.38-11.31c.17-2.83.38-5.65.6-7.76a19.93,19.93,0,0,1,.5-3.51,21.74,21.74,0,0,1,0,3.54c-.06,2.12-.13,4.94-.2,7.76-.11,5.64,0,11.28,0,11.28s-.06,5.64.08,11.28c.1,2.82.19,5.64.26,7.75A22,22,0,0,1,49.69,350.69Z"/><path class="cls-3" d="M104.68,347.4a17.38,17.38,0,0,1-1.36-3c-.73-1.83-1.64-4.31-2.48-6.8-1.69-5-3-10.1-3-10.1s-1.21-5.13-2.07-10.33c-.43-2.6-.8-5.21-1-7.18a17.5,17.5,0,0,1-.21-3.28,19,19,0,0,1,.7,3.21c.36,1.94.85,4.51,1.39,7.08,1.08,5.13,2.42,10.2,2.42,10.2s1.19,5.1,2.65,10.13c.74,2.52,1.51,5,2.1,6.9A18.3,18.3,0,0,1,104.68,347.4Z"/></g><path class="cls-10" d="M124.31,142s-12.69,6-38.56-17.08S70.46,93.5,72.25,93.82s17.57,6.84,27.82,17.57S130.65,138.07,124.31,142Z"/><path class="cls-11" d="M124.31,142s-12.69,6-38.56-17.08S70.46,93.5,72.25,93.82s17.57,6.84,27.82,17.57S130.65,138.07,124.31,142Z"/><path class="cls-11" d="M124.31,142c5.71-3.51-10.2-16.78-20.91-27.23,1.9,6.41,3.89,16.46-3.44,13.49C89.4,124,80.42,97.69,80.42,97.69c-.39-.33-.77-.63-1.13-.92a44.11,44.11,0,0,0-7-3c-1.79-.32-12.36,8,13.5,31.07S124.31,142,124.31,142Z"/><path class="cls-4" d="M82.09,178.83a28.51,28.51,0,0,0-3.22-4.05c-20-20.67-37.34-2-37.34-2A28.9,28.9,0,0,0,39,175.29l18.77,11.65,8-8,9.34,6Z"/><path class="cls-10" d="M88.21,130.2c-.55-6.77-3.87-13-6.37-19.2-1.89-4.71-4-13.32-8.22-16.62-3.94-3.06-26-.53-26-.53s-16.87,6.23-17.43,8.93,8.68,27.88,10.48,37.39,4.52,25.27,4.52,25.27l-7,7.34,19.33,12,8-8,9.34,6,8.66-7.59s-5.23-5-6.5-9.25c1-3.92,2.57-17.17,6.09-22.08C86.28,139.44,88.67,135.71,88.21,130.2Z"/><path class="cls-11" d="M42.81,175.64a14.8,14.8,0,0,1,2.24-3.73c3-3.63,9.32-1.45,11.31-.63-3.79-2.15-7.63-13.76-6.6-18.57,1.08-5.07,12.68-4.71,21.37-3.62a14,14,0,0,1,8.51,4c.89-3.67,2-7.16,3.48-9.21,3.16-4.42,5.55-8.15,5.09-13.66a29.16,29.16,0,0,0-.72-4.36c-.43,3.21-1.13,6.41-2.23,7.68-2.54,2.89-4.71.36-14.49,2.89s-16.3,1.45-23.19-6.88c-5.54-6.71-8.95-17.6-10.07-21.6-1.29,1-2.7,3.58-4.14,7.22,2.69,8.63,6.26,19.48,7.31,25,1.81,9.51,4.52,25.27,4.52,25.27l-7,7.34Z"/><path class="cls-5" d="M48.79,86.55s-1.12,11.33,3.34,13.33,9.49,2,11.16-2.67,0-11.33,0-11.33S49.35,83.88,48.79,86.55Z"/><path class="cls-6" d="M61.23,100.05C54,99,49.61,90.7,52,91.89s9.48.26,12-.14a29.18,29.18,0,0,0-.74-5.87s-13.94-2-14.5.67c0,0-1.12,11.33,3.34,13.33C55.37,101.33,58.89,101.72,61.23,100.05Z"/><g class="cls-12"><g class="cls-13"><path class="cls-14" d="M73.65,141.25c-.12,1.89-.39,4.41-.77,6.91s-.9,5-1.34,6.83-.79,3.06-.79,3.06-.35,1.22-1,3-1.48,4.17-2.23,6.57a30.23,30.23,0,0,0-1.41,6.74c-.06.93-.06,1.72,0,2.27a5.25,5.25,0,0,1,0,.87,5.57,5.57,0,0,1-.15-.86,18.43,18.43,0,0,1-.08-2.3,29,29,0,0,1,1.23-6.85c.71-2.44,1.56-4.81,2.11-6.62s.9-3,.9-3,.36-1.2.83-3,1-4.28,1.46-6.76c.72-4,1.54-8.23.69-12.31-.17-.85-.43-1.68-.68-2.5a63.66,63.66,0,0,0-2.18-7,224.43,224.43,0,0,1-9.59-25.55c.92,3,2.47,6,3.64,8.89Q66.21,114.27,68,119c2.23,5.84,4.68,11.72,5.63,17.93A19.5,19.5,0,0,1,73.65,141.25Z"/></g><g class="cls-13"><path class="cls-10" d="M65.79,144.18a6.79,6.79,0,0,1-1.55.5,17.88,17.88,0,0,1-3.54.49,21.36,21.36,0,0,1-3.59-.23c-.49-.06-.89-.17-1.17-.22l-.44-.09-.43-.14c-.27-.09-.67-.18-1.13-.37a20,20,0,0,1-3.25-1.52,18.1,18.1,0,0,1-2.88-2.13,6,6,0,0,1-1.11-1.19s.51.41,1.26,1a20.82,20.82,0,0,0,2.94,1.93,21.94,21.94,0,0,0,3.23,1.37c.45.16.84.24,1.1.32l.43.12.42.1c.27,0,.65.18,1.13.25a19.54,19.54,0,0,0,7,.07A11.91,11.91,0,0,1,65.79,144.18Z"/></g><g class="cls-13"><path class="cls-10" d="M48.5,168.15a3.28,3.28,0,0,1-1.37-.91A7.83,7.83,0,0,1,46.06,166a7.66,7.66,0,0,1-.64-1.55,3.29,3.29,0,0,1-.18-1.64c.09,0,.27.78.6,1.49a8.88,8.88,0,0,0,.75,1.37,9.63,9.63,0,0,0,.87,1.31C47.94,167.56,48.55,168.08,48.5,168.15Z"/></g><g class="cls-13"><path class="cls-10" d="M74.86,169.43c-.06-.06.56-.73,1-1.51A13.53,13.53,0,0,0,77,164.59c.15-.88.08-1.79.16-1.81a3.73,3.73,0,0,1,.28,1.85,7.94,7.94,0,0,1-.32,1.87,7.68,7.68,0,0,1-.91,1.66A3.85,3.85,0,0,1,74.86,169.43Z"/></g><g class="cls-13"><path class="cls-10" d="M85.58,140.67A4.62,4.62,0,0,1,84.34,142a13.22,13.22,0,0,1-1.47,1,15.31,15.31,0,0,1-1.65.71,4.89,4.89,0,0,1-1.75.39,9.73,9.73,0,0,1,1.58-.8c.78-.39,1.52-.85,1.52-.85s.77-.39,1.51-.86A10.81,10.81,0,0,1,85.58,140.67Z"/></g></g><path class="cls-11" d="M59.91,101.58s6.73,6.21,8,2.85c0-.07,0-.15,0-.23a55.1,55.1,0,0,0-4-9.71,5.67,5.67,0,0,1-4.91,5c-4.46.63-8.14-2.38-9.6-5.62-.48,2.45-1.83,11,5.19,14.11C55.66,108.35,57.64,107.53,59.91,101.58Z"/><path class="cls-10" d="M48.74,90.86c-.1-.81-2.7,8,5.06,15.81,0,0,2.59,2.85,6-6,0,0,6.73,6.21,8,2.85S64,91.75,64,91.75s.37,6.06-5.06,6.83S49.26,94.74,48.74,90.86Z"/><path class="cls-15" d="M48.74,90.86c-.1-.81-2.7,8,5.06,15.81,0,0,2.59,2.85,6-6,0,0,6.73,6.21,8,2.85S64,91.75,64,91.75s.37,6.06-5.06,6.83S49.26,94.74,48.74,90.86Z"/><path class="cls-11" d="M67.78,102.44c-1.29,3.36-8-2.85-8-2.85-3.37,8.8-6,6-6,6A18,18,0,0,1,48.25,93.4a17.82,17.82,0,0,0,5.55,13.27s2.59,2.85,6-6c0,0,6.73,6.21,8,2.85a4.34,4.34,0,0,0,.17-1.88A2.94,2.94,0,0,1,67.78,102.44Z"/><g class="cls-16"><path class="cls-10" d="M84.86,125.2a9.12,9.12,0,0,1-.41-1.81,32.84,32.84,0,0,0-1.11-3.88c-.49-1.38-1-2.75-1.46-3.78s-.69-1.72-.69-1.72-3.87-11.23-3.55-11.35,4.72,10.91,4.72,10.91l.6,1.76c.36,1,.84,2.47,1.23,3.92a23,23,0,0,1,.74,4.07A4.51,4.51,0,0,1,84.86,125.2Z"/><path class="cls-10" d="M85.07,130.7c-.34,0-.4-1.71-.4-1.71s.5-1.59.84-1.55.4,1.71.4,1.71S85.42,130.75,85.07,130.7Z"/><path class="cls-10" d="M73.35,168.75c-.13-.11.85-1.52,1.55-3.06a22.22,22.22,0,0,0,1.16-3.13,23.13,23.13,0,0,0,.92-3.22c.34-1.65.39-3.37.57-3.38a8,8,0,0,1,.31,3.49,18.59,18.59,0,0,1-.61,3.5,18.55,18.55,0,0,1-1.58,3.17C74.73,167.63,73.48,168.87,73.35,168.75Z"/><path class="cls-10" d="M75.58,179.5c-.22-.27,5.17-4.84,5.17-4.84l.14-.1h0a0,0,0,0,0,0,0s0,0,0-.06l-.35-.27A16.55,16.55,0,0,1,79,172.77a5.92,5.92,0,0,1-1.54-2.25c.12-.09,1,.84,2.07,1.68a17.82,17.82,0,0,0,1.6,1.14l1,.58.9.53-1.49,1.19S75.79,179.77,75.58,179.5Z"/></g><path class="cls-5" d="M21.05,47.17c-.5-14.12,5.34-37,35.06-37.24C86,9.72,90.53,42.5,90.53,42.5s3.11,12.07,2.75,21.29S88.13,86.71,66.73,88.91,28.84,82.11,25,69a11,11,0,0,1-10.1-8.82C13.4,54.06,16.72,47.9,21.05,47.17Z"/><g class="cls-12"><path class="cls-5" d="M21.05,47.17A45.44,45.44,0,0,1,22.79,33a36.29,36.29,0,0,1,4.84-10.15c-4.29,7.21-5,18-4.81,24.59-.36.06-1.26-.18-1.87-.21Z"/><path class="cls-5" d="M17.15,49.58A12.55,12.55,0,0,0,16.27,58a11,11,0,0,0,10.09,8.82C30.21,80,46.7,89,68.11,86.81,79.38,85.65,86,81.3,89.88,76.1c-3.53,6.1-10.39,11.5-23.15,12.81C45.32,91.1,28.84,82.11,25,69a11,11,0,0,1-10.1-8.82A12.16,12.16,0,0,1,17.15,49.58Z"/></g><path class="cls-17" d="M77.72,54.67c0,2.83,1.19,5.13,2.77,5.13s2.9-2.28,3-5.11-1.19-5.13-2.77-5.13S77.77,51.84,77.72,54.67Z"/><path class="cls-18" d="M79.34,50.16A8.54,8.54,0,0,0,79,52.38c0,2.83,1.19,5.13,2.78,5.14a2,2,0,0,0,1.33-.6c-.5,1.7-1.49,2.89-2.62,2.88-1.58,0-2.82-2.3-2.77-5.13A6.4,6.4,0,0,1,79.34,50.16Z"/><path class="cls-19" d="M82.89,53.8c.06,1-.29,1.8-.79,1.84s-.95-.7-1-1.67.29-1.79.79-1.84S82.83,52.83,82.89,53.8Z"/><path class="cls-19" d="M80.93,51.21a.38.38,0,0,0,.37.4.39.39,0,0,0,.37-.4.37.37,0,0,0-.36-.39A.4.4,0,0,0,80.93,51.21Z"/><path class="cls-17" d="M44,57.11c.31,2.81,1.85,4.94,3.42,4.75S50,59.23,49.7,56.42s-1.85-4.94-3.42-4.75S43.7,54.29,44,57.11Z"/><path class="cls-18" d="M45,52.53a8.91,8.91,0,0,0,0,1.86c.32,2.82,1.85,5,3.42,4.76a2.06,2.06,0,0,0,1.33-.87c-.2,1.95-1.07,3.43-2.27,3.58-1.57.19-3.11-1.94-3.42-4.75A6.58,6.58,0,0,1,45,52.53Z"/><path class="cls-19" d="M48.8,55.49c.19,1,0,1.82-.54,1.92s-1-.57-1.23-1.53,0-1.81.54-1.92S48.61,54.54,48.8,55.49Z"/><path class="cls-19" d="M46.53,53.16a.37.37,0,0,0,.41.35.39.39,0,0,0,.32-.44.39.39,0,0,0-.41-.35A.38.38,0,0,0,46.53,53.16Z"/><path class="cls-20" d="M19.51,63.42a2,2,0,0,0,.87,1.74,1.39,1.39,0,0,0,2-.19A2.46,2.46,0,0,0,23,63.65,1.84,1.84,0,0,0,22.53,62a5.48,5.48,0,0,0-.91-.6,1.36,1.36,0,0,1-.43-.54,1.9,1.9,0,0,1-.13-1.3.93.93,0,0,1,.66-.69.76.76,0,0,1,.26-.07.72.72,0,0,1,.29,0l.15,0a.25.25,0,0,1,.08.07l.23.33c.33.5.6.62.92.64a.84.84,0,0,0,.56-.25,1.37,1.37,0,0,0,.32-.6,9.35,9.35,0,0,0,.16-1.84c0-.42,0-.84-.08-1.27A7.41,7.41,0,0,0,24,53.61a4.21,4.21,0,0,0-1.24-1.51c-.92-.65-1.67-.45-1.66-.35s.65.22,1.3.94a5.24,5.24,0,0,1,1.22,3.5c0,.37,0,.74,0,1.11a1.09,1.09,0,0,1-.06.37c0,.14-.15,0-.14-.09v0l-.19-.16a1.75,1.75,0,0,0-.42-.23,1.82,1.82,0,0,0-.71-.12,1.76,1.76,0,0,0-.63.11,1.94,1.94,0,0,0-.59.33,2.92,2.92,0,0,0-1,1.72,3.7,3.7,0,0,0,.4,2.58,2.46,2.46,0,0,0,.92.92,7.43,7.43,0,0,1,.8.37.49.49,0,0,1,.19.46,1.38,1.38,0,0,1-.27.71.87.87,0,0,1-1.14.28C19.88,64.14,19.61,63.33,19.51,63.42Z"/><path class="cls-21" d="M18.17,52.13c-.62.63-1.33.82-1.59.42s0-1.24.65-1.87,1.33-.81,1.59-.41S18.79,51.5,18.17,52.13Z"/><path class="cls-21" d="M20.49,49.06a.7.7,0,0,1-.3.8.43.43,0,0,1-.67-.22.7.7,0,0,1,.31-.8A.43.43,0,0,1,20.49,49.06Z"/><path class="cls-22" d="M61.83,64.83s3.93,1,9-2.62c0,0,2.57,1.55-1.9,3.36C62.93,68,61.83,64.83,61.83,64.83Z"/><path class="cls-20" d="M64.42,66.05a15.63,15.63,0,0,0,1.88,0,11.14,11.14,0,0,0,3.82-1.37,2.34,2.34,0,0,0,1.21-1.35,1.12,1.12,0,0,0-.55-1.14,2.72,2.72,0,0,0-1-.44,3.09,3.09,0,0,0-.44-.07,5.2,5.2,0,0,0-1.07,0,6,6,0,0,0-1.26.23,5.57,5.57,0,0,0-.76.29,17.1,17.1,0,0,0-1.64,1.06c0-.65,0-1.36,0-2.1,0-.41,0-.84,0-1.27,0-.86,0-1.74,0-2.54a12.38,12.38,0,0,1,.22-2.84,11.69,11.69,0,0,1,.39,2.82c.06.8.13,1.68.2,2.55,0,.44.06.87.09,1.28,0,.12,0,.16.06.18a1,1,0,0,1,.15-.12,6.81,6.81,0,0,1,.9-.39,6,6,0,0,1,1.51-.34,5.25,5.25,0,0,1,1.31,0,4.87,4.87,0,0,1,.59.11,4.25,4.25,0,0,1,1.47.72,2.63,2.63,0,0,1,.74.93,2.09,2.09,0,0,1,.11,1.38,3.21,3.21,0,0,1-1.79,1.87,10.52,10.52,0,0,1-4.22,1.09A2.84,2.84,0,0,1,64.42,66.05Z"/><path class="cls-21" d="M68.4,62.48c.12.28-.27.72-.88,1s-1.2.24-1.32-.05.28-.72.88-1S68.28,62.19,68.4,62.48Z"/><path class="cls-6" d="M54.26,66.55c.13,2.83-3.36,5.28-7.79,5.48s-8.13-1.94-8.25-4.76S41.58,62,46,61.79,54.14,63.72,54.26,66.55Zm28.2-8.19c-4.27,1-7.23,4-6.61,6.78s4.6,4.19,8.87,3.2,7.23-4,6.61-6.78S86.73,57.37,82.46,58.36Z"/><path class="cls-20" d="M56.35,68.36c.16.06,0,.79-.36,1.44A5.6,5.6,0,0,1,55,71a5.46,5.46,0,0,1-1.39.57c-.74.18-1.47.09-1.48-.08s.62-.4,1.15-.75a6.57,6.57,0,0,0,1-.75,6.92,6.92,0,0,0,1-.72C55.78,68.84,56.19,68.3,56.35,68.36Z"/><path class="cls-20" d="M77.65,69.7c0,.16-.57.44-1.25.38a3.5,3.5,0,0,1-1.28-.37,3.41,3.41,0,0,1-.84-1c-.31-.6-.29-1.27-.12-1.29s.45.45.84.77a3.48,3.48,0,0,0,.81.53,4.1,4.1,0,0,0,.8.55C77.06,69.46,77.61,69.53,77.65,69.7Z"/><path class="cls-22" d="M74.08,70.59h0v-.84h0a12.92,12.92,0,0,0-3.3-.17A4.46,4.46,0,0,0,68.1,71.5c-1.54-1.19-4-.91-7.46-.23a7.25,7.25,0,0,1-5.71-1.18s-.31.86-.3.89h0s0,.08.06.13v0c0,.13.14.32.25.55v0c.17.35.4.81.69,1.34h0a25.25,25.25,0,0,0,1.94,3h0a19.15,19.15,0,0,0,1.58,1.83l0,0,.58.55h0A8.46,8.46,0,0,0,65.3,80.9c7.6.08,8.65-7.07,8.77-10v0C74.08,70.81,74.08,70.7,74.08,70.59Z"/><path class="cls-23" d="M55.06,70.25s4.06,9.91,10.7,10c9.51.09,8.77-11.16,8.77-11.16S64.16,74.79,55.06,70.25Z"/><path class="cls-24" d="M74.53,69.06s-10.37,5.73-19.47,1.19a23.71,23.71,0,0,0,5.18,7.55c-.51-1.25-.78-2.88,1.25-3,3.31-.15,9.58-.29,9.58-.29s2.42-1.9,2.38.78A15.38,15.38,0,0,0,74.53,69.06Z"/><path class="cls-17" d="M57.07,71.29S60.94,77,65.9,77.05C73,77.1,73.19,70,73.19,70S63.87,74,57.07,71.29Z"/><path class="cls-25" d="M66.09,79c-.13.49-1,.7-1.84.48s-1.52-.8-1.4-1.28.94-.7,1.84-.48S66.21,78.52,66.09,79Z"/><path class="cls-26" d="M57.07,71.29a15.18,15.18,0,0,0,1,1.37,9.5,9.5,0,0,0,8.25,2.2c4.36-1,5-3.93,5.22-4.85v0S63.15,74,57.07,71.29Z"/><path class="cls-27" d="M61.89,73.28c5.09.81,8.2-1,9-1.49a6.22,6.22,0,0,0,.56-1.42,1.22,1.22,0,0,0-.15-.27c-1.33.6-8.69,3.66-14.2,1.19a15.18,15.18,0,0,0,1,1.37,9.68,9.68,0,0,0,6,2.39C60.64,74.39,57.34,72.56,61.89,73.28Z"/><path class="cls-23" d="M55.06,70.25a11.63,11.63,0,0,0,6,.34c3.42-.68,5.92-1,7.46.23a4.5,4.5,0,0,1,2.67-1.93,13,13,0,0,1,3.31.17S66.5,77.31,55.06,70.25Z"/><path class="cls-28" d="M55.06,70.25a11.63,11.63,0,0,0,6,.34c3.42-.68,5.92-1,7.46.23a4.5,4.5,0,0,1,2.67-1.93,13,13,0,0,1,3.31.17S66.5,77.31,55.06,70.25Z"/><path class="cls-20" d="M68,81c.08,0-.07.59-.4,1.08a4.55,4.55,0,0,1-.79.88,4.47,4.47,0,0,1-1.06.51,1.82,1.82,0,0,1-1.16.1c0-.09.52-.24,1-.5a5.91,5.91,0,0,0,.86-.61,5.7,5.7,0,0,0,.81-.66C67.61,81.47,67.9,81,68,81Z"/><path class="cls-17" d="M44.47,57.84c0,.08-.5.13-1,0a3.18,3.18,0,0,1-.9-.47,3.26,3.26,0,0,1-.58-.83c-.22-.46-.25-1-.16-1s.26.41.54.75a3.64,3.64,0,0,0,.61.59,3.3,3.3,0,0,0,.67.53C44,57.64,44.48,57.75,44.47,57.84Z"/><path class="cls-17" d="M45.24,59.17c0,.08-.48.3-1,.39a3.77,3.77,0,0,1-1.14,0,3,3,0,0,1-1-.53c-.47-.37-.66-.93-.58-1s.39.38.83.59a2.68,2.68,0,0,0,.91.29,4.06,4.06,0,0,0,1,.15C44.69,59.14,45.22,59.08,45.24,59.17Z"/><path class="cls-17" d="M85.44,53.85c.09,0,.11.48-.13.9a2.24,2.24,0,0,1-.62.7,2.36,2.36,0,0,1-.92.24c-.48,0-.89-.22-.85-.3s.43,0,.79-.14A4.56,4.56,0,0,0,85,54.49C85.22,54.23,85.35,53.84,85.44,53.85Z"/><path class="cls-17" d="M86,56.29c.08,0-.11.56-.55.91a2.43,2.43,0,0,1-1,.51,2.36,2.36,0,0,1-1.1-.16c-.53-.2-.88-.63-.81-.69s.47.21.93.27a2.2,2.2,0,0,0,.88,0,2.12,2.12,0,0,0,.84-.25C85.59,56.64,85.9,56.25,86,56.29Z"/><path class="cls-29" d="M48.63,43c-.08.16-.82,0-1.53.06a8.66,8.66,0,0,0-2.7.69c-.66.28-1.23.79-1.37.69s.22-.87.89-1.43a3.72,3.72,0,0,1,3.24-.83C48,42.33,48.72,42.84,48.63,43Z"/><path class="cls-29" d="M76.37,40.39c.11.14.81-.15,1.53-.19a8.61,8.61,0,0,1,2.77.25c.69.16,1.34.57,1.47.45s-.36-.82-1.11-1.27a3.76,3.76,0,0,0-3.34-.29C76.87,39.64,76.27,40.26,76.37,40.39Z"/><path class="cls-5" d="M56.71,178.24a5.64,5.64,0,0,0-4-2.53,2.06,2.06,0,0,0,.38-1c.14-2.39-3.36-5.05-3.83-2.72a10.41,10.41,0,0,1-1.76,3.58,27.7,27.7,0,0,0-4.14.73s-7.61,2.31-5.63,8.08,9.09,3.11,9.86,3.52-.86,2.9-1.11,4.13,3.45,2.74,6.83-.71,2.81-6,2.81-6,1.15,2.79,2.45,2S59.46,183.08,56.71,178.24Z"/><path class="cls-20" d="M52.42,186.44a7.35,7.35,0,0,1-.3,2.19,11.6,11.6,0,0,1-.74,2.1,8,8,0,0,1-1.31,1.81,2.32,2.32,0,0,1-1.36.77c-.44.05-.71-.06-.7-.09s.28,0,.66-.11a2.36,2.36,0,0,0,1.13-.82,9.22,9.22,0,0,0,1.11-1.8,13.75,13.75,0,0,0,.85-2C52.11,187.5,52.34,186.43,52.42,186.44Zm3.71-2.11a12.34,12.34,0,0,0-.31-2,10.81,10.81,0,0,0-.77-1.89,4.15,4.15,0,0,0-.87-1.12c-.3-.25-.55-.34-.57-.31s.19.18.42.46a4.35,4.35,0,0,1,.68,1.14,12.45,12.45,0,0,1,.6,1.86,15.4,15.4,0,0,1,.44,1.91c.17,1,.19,2,.27,2A5.69,5.69,0,0,0,56.13,184.33Zm-1.89.6a18.56,18.56,0,0,1,0,2.13,10,10,0,0,1-.25,2.08,15.45,15.45,0,0,1-.72,2,4.35,4.35,0,0,0,1.08-1.9,9.11,9.11,0,0,0,.42-2.16,15.09,15.09,0,0,0-.16-2.18,8.9,8.9,0,0,0-.48-2.12A13.91,13.91,0,0,0,54.24,184.93Zm-.69-9.15a2.41,2.41,0,0,0-1-.35c-.38-.05-.75-.06-1-.07h-.45a19.19,19.19,0,0,0-2.91.32,20.48,20.48,0,0,0,2.92.21l.45,0a9.62,9.62,0,0,1,1,0,2.55,2.55,0,0,1,.93.15c.24.1.38.22.41.19S53.8,176,53.55,175.78Z"/><path class="cls-6" d="M58.63,184.7c-.75,1.09-3.91-4.32-4-4.61s1.93,5.34,1.2,5.9-1.68-3.21-1.68-3.21,0,5.88-.89,5.88-.66-5.53-.66-5.53c-.14,1.12-1.45,8.11-3,7.62s.12-5,.12-5-2.06,1-6-1.64c-3.07-2.09-.53-6.3.78-8.08l-1.09.26a12.28,12.28,0,0,0-3.23,1.63,23.94,23.94,0,0,0-2.69,4,5.41,5.41,0,0,0,.29,2.42c2,5.78,9.09,3.11,9.86,3.52s-.86,2.9-1.11,4.13,3.45,2.74,6.83-.71,2.81-6,2.81-6,1.15,2.79,2.45,2c.82-.48.94-2,.22-4.32A3.52,3.52,0,0,1,58.63,184.7Z"/><path class="cls-6" d="M51.22,171.4a5.44,5.44,0,0,1,.15.61c.62,3.32-2.37,3.62-3.24,3.64a28.88,28.88,0,0,1,3.42.2c.72.11,2.21.44,3.57.77a7.3,7.3,0,0,0-2.36-.91,2.06,2.06,0,0,0,.38-1A4,4,0,0,0,51.22,171.4Z"/><path class="cls-20" d="M48.13,175.65h0Z"/><path class="cls-10" d="M30.2,102.78s-26.67,32.66-30,50,36,35.33,36,35.33,8-4.67,8-13.33c0,0-28-14.67-25.33-22s18.66-30.67,18.66-30.67S44.87,110.78,30.2,102.78Z"/><g class="cls-12"><path class="cls-10" d="M37.57,109.78a12.79,12.79,0,0,1,.68,3.63,21.94,21.94,0,0,1-.06,3.71,23.11,23.11,0,0,1-.85,3.62,12.8,12.8,0,0,1-1.55,3.35c-.08,0,.67-1.71,1.13-3.48a25.66,25.66,0,0,0,.65-3.56,25.12,25.12,0,0,0,.24-3.62C37.8,111.61,37.48,109.8,37.57,109.78Z"/><path class="cls-10" d="M40.17,115.42a5.55,5.55,0,0,1,0,2.4,10.74,10.74,0,0,1-.63,2.35,10.91,10.91,0,0,1-1.3,2,5.78,5.78,0,0,1-1.8,1.6c0-.07.81-.89,1.44-1.86a11.68,11.68,0,0,0,1.08-2,11.91,11.91,0,0,0,.78-2.17C40.07,116.61,40.08,115.42,40.17,115.42Z"/><path class="cls-10" d="M8.86,153.75a5.18,5.18,0,0,1,2.33-1.45,8.45,8.45,0,0,1,2.75-.42,8.63,8.63,0,0,1,2.7.68,5.4,5.4,0,0,1,2.18,1.66A16.8,16.8,0,0,0,16.47,153a8.44,8.44,0,0,0-1.75-.4c-.49-.06-.81-.07-.81-.07s-.33,0-.82,0a8.34,8.34,0,0,0-1.78.24A15.6,15.6,0,0,0,8.86,153.75Z"/><path class="cls-10" d="M12.6,156.88a5.32,5.32,0,0,1,1.19-1.45,5.42,5.42,0,0,1,1.05-.8,4.19,4.19,0,0,1,.55-.28,4,4,0,0,1,.62-.13,3.4,3.4,0,0,1,1.36.08,2.49,2.49,0,0,1,1.15.69c.25.28.32.52.29.53s-.18-.16-.45-.35a2.4,2.4,0,0,0-1.09-.43,3.14,3.14,0,0,0-1.16,0,4,4,0,0,0-.5.16,3.48,3.48,0,0,0-.5.2,5.54,5.54,0,0,0-1,.63A11.33,11.33,0,0,1,12.6,156.88Z"/><path class="cls-10" d="M37.1,106.39c-.08,0-.46-.79-1-1.52a11.55,11.55,0,0,0-1.09-1.39,12,12,0,0,0-1.19-1.3c-.65-.62-1.4-1.12-1.36-1.2a4.37,4.37,0,0,1,1.64.86,10.25,10.25,0,0,1,1.38,1.23,10,10,0,0,1,1,1.57A4.29,4.29,0,0,1,37.1,106.39Z"/></g><path class="cls-11" d="M29.9,184.91c3.75,2,6.3,3.2,6.3,3.2s8-4.67,8-13.33c0,0-28-14.67-25.33-22s18.66-30.67,18.66-30.67,5.32-11.9-2.6-19.36c.74,3.56,1.31,12.38-1,17.33-3.8,8.31-18.28,30.85-22.55,28.24-2.82-1.72-2.12-11.1-1.32-17.27C5.38,138.8,1.36,146.72.2,152.78c-1,5.23,1.88,10.52,6.39,15.36.15-4.43,1.15-9,4.6-9.61,6.89-1.19,24.45,14.47,27.3,18C40.45,179,35.06,183,29.9,184.91Z"/><path class="cls-30" d="M25.38,112.16c-2.33,3-4.52,6-4.52,6s-2.09,3.14-4,6.37-3.75,6.52-3.6,6.61,2.21-3,4.34-6.13,4.32-6.13,4.32-6.13,2.07-3.13,4.21-6.21,4.33-6.13,4.19-6.24A49.81,49.81,0,0,0,25.38,112.16Zm9-6a3.62,3.62,0,0,0-.35-1,3.81,3.81,0,0,0-.86-.7c-.49-.28-1-.37-1.09-.21s.26.5.5.87a5.61,5.61,0,0,1,.42.75,4.68,4.68,0,0,1,.55.66c.27.35.47.79.65.78S34.45,106.66,34.36,106.11ZM22.77,178.53l-4.49-3.41-4.65-3.21a36.76,36.76,0,0,1-3.1-2.26c-.79-.67-1.15-1.27-1.24-1.23s.17.74.89,1.58a25.29,25.29,0,0,0,2.92,2.62c2.19,1.8,4.44,3.51,4.44,3.51s2.34,1.61,4.72,3.13,4.83,3,4.92,2.82S25,180.24,22.77,178.53Z"/><path class="cls-6" d="M64.05,94.35a3.54,3.54,0,0,1,.3-1.51c.06-.14.13-.24.2-.37l.21-.81a3,3,0,0,1,.76-1.4,3.17,3.17,0,0,1,2-1.83,12.86,12.86,0,0,1,.21-9.18c-6.14-.51-10.94.35-11.1,2.06S64,82.53,64,82.53,58.12,90,60.85,93.38a3,3,0,0,0,3.2,1Z"/><path class="cls-5" d="M85.57,87.34c-.5-.8-8.62-8.23-15.46-9s-12.46.06-12.62,1.92,7.39,1.21,7.39,1.21S59,89,61.69,92.3,70,90.2,70,90.2,75,95.68,81.84,94C81.84,94,87.73,90.82,85.57,87.34Z"/><path class="cls-20" d="M67.39,82.5c.06.07-1.08,1-2,2.09a16.6,16.6,0,0,0-1.66,2.33s-.19.3-.46.77a16,16,0,0,0-.84,1.78c-.53,1.33-.72,2.78-.81,2.77A7.46,7.46,0,0,1,62,89.32a13.69,13.69,0,0,1,.75-1.9c.25-.5.44-.82.44-.82a14.33,14.33,0,0,1,1.87-2.31A8.67,8.67,0,0,1,67.39,82.5Z"/><path class="cls-20" d="M69.2,86.47a14,14,0,0,1-1.58,1.62c-.8.79-1.57,1.61-1.57,1.61s-.82.76-1.62,1.56a14.05,14.05,0,0,1-1.63,1.57A8.31,8.31,0,0,1,64.1,91c.72-.88,1.5-1.71,1.5-1.71s.84-.78,1.72-1.49A8.26,8.26,0,0,1,69.2,86.47Z"/><path class="cls-20" d="M68.6,80c0,.09-.47.1-.89.21a4.63,4.63,0,0,0-.8.28,4.69,4.69,0,0,0-.79.31c-.39.19-.74.48-.81.43s.18-.47.56-.79a3.6,3.6,0,0,1,.82-.54,3.72,3.72,0,0,1,1-.13C68.16,79.81,68.62,80,68.6,80Z"/><path class="cls-6" d="M85.3,87a6.57,6.57,0,0,1-.46,2.57c-2.41,6-13.72-1.21-13.72-1.21S65,94.41,62,90.56a3.32,3.32,0,0,1-.64-2.65c-.5,1.64-.58,3.26.35,4.39C64.42,95.65,70,90.2,70,90.2S75,95.68,81.84,94c0,0,5.89-3.22,3.73-6.7A3.5,3.5,0,0,0,85.3,87Z"/><path class="cls-6" d="M64.88,81.44a28.22,28.22,0,0,0-2.17,3.32,23.64,23.64,0,0,1,4.08-4.43,42.77,42.77,0,0,1-6.74-.12c-1.37-.13-1.94-.43-2.12-.75a1.16,1.16,0,0,0-.44.77C57.32,82.08,64.88,81.44,64.88,81.44Z"/><path class="cls-10" d="M85.91,85A33.36,33.36,0,0,0,78.34,96.8s16,13.36,20.39,18.71c5.87,7.16,16.61,27.33,26.07,26.28S133.42,122.87,85.91,85Z"/><g class="cls-12"><path class="cls-10" d="M118.17,140a6.78,6.78,0,0,1-1.27-.88c-.74-.56-1.68-1.36-2.59-2.2a46.15,46.15,0,0,1-3.43-3.56,49,49,0,0,1-2.89-4c-.66-1.05-1.28-2.12-1.7-2.94a8.14,8.14,0,0,1-.64-1.41,7.94,7.94,0,0,1,.85,1.29c.49.78,1.16,1.81,1.86,2.81,1.41,2,3,3.86,3,3.86s1.54,1.9,3.26,3.65c.86.86,1.75,1.71,2.43,2.33A10.67,10.67,0,0,1,118.17,140Z"/></g><g class="cls-12"><path class="cls-10" d="M114.94,139.08a14.65,14.65,0,0,1-2.64-2.3,30.21,30.21,0,0,1-2.26-2.69,29.35,29.35,0,0,1-1.77-3,14,14,0,0,1-1.27-3.26c.09,0,.79,1.56,1.66,3s1.89,2.88,1.89,2.88a34.24,34.24,0,0,0,2.08,2.76C113.74,137.81,115,139,114.94,139.08Z"/></g><path class="cls-31" d="M126.69,133.66c-2.12,5.29-9.08-3-15.43-9.83s-21.32-21-25.71-26.77c-3.16-4.14-1.84-8.58-.86-10.75A34.06,34.06,0,0,0,78.34,96.8s16,13.36,20.39,18.71c5.87,7.16,16.61,27.33,26.07,26.28,4.81-.53,7-5.43,1.63-15.1C127.13,129.28,127.42,131.84,126.69,133.66Z"/><path class="cls-32" d="M115,115.54a16.16,16.16,0,0,1-2.24-2.09L108,108.72c-3.47-3.43-7-6.78-7-6.78s-3.44-3.44-7-6.81l-4.88-4.61A16.73,16.73,0,0,1,87,88.33a15.63,15.63,0,0,1,2.47,1.82c1.44,1.14,3.31,2.72,5.16,4.32,3.7,3.21,7.26,6.58,7.26,6.58s3.47,3.45,6.78,7c1.66,1.8,3.29,3.62,4.48,5A15.75,15.75,0,0,1,115,115.54Zm6.31,5.55a14.83,14.83,0,0,0-1.11-1.73,15,15,0,0,0-1.55-1.36c-.82-.62-1.73-1.09-1.83-1s.6.86,1.23,1.61,1.2,1.53,1.2,1.53.69.68,1.33,1.42,1.25,1.53,1.41,1.45S121.84,122,121.35,121.09Z"/><path class="cls-6" d="M87.7,37.71c-3-9.58-11.15-26-31.61-25.86C27.4,12.06,21.77,35,22.25,49.08c-4.18.74-7.39,6.9-5.94,13,2.07,8.74,9.74,8.83,9.74,8.83,1.64,5.8,5.66,10.79,11.41,14.38a44.87,44.87,0,0,1-2.83-6.51c-4-11.32-6.64-28.68.92-39a15.8,15.8,0,0,1,2.05-2.29,47.3,47.3,0,0,1,4.67-3.55c2.7-1.94,3.71-5.21,6.68-7,5.33-3.09,12.55-.84,15.94,4.23C70.77,39.94,86.44,37.89,87.7,37.71Z"/><path class="cls-29" d="M36.67,36.08a15.65,15.65,0,0,0-2.05,2.28c-7.56,10.36-4.88,27.71-.93,39,1.73,4.95,4.46,10.41,8.45,13.87,0,0-23.63-3.92-30.3-12.89s-6.31-48,2.71-59,15.69-8,15.69-8S37.45-1.21,58.55.1s30.29,18.87,33.9,26,8.75,33.05,6.13,50.82c-.81,5.51-12.26,11-12.26,11s11.54-21.11.54-51.57c0,0-16.77,2.62-22.9-6.54C60.57,24.74,53.34,22.49,48,25.58c-3,1.73-4,5-6.68,6.94A45.87,45.87,0,0,0,36.67,36.08Z"/><path class="cls-4" d="M45.6,12.48c.58-.5.95-.86.95-.86S46.15,11.94,45.6,12.48Z"/><path class="cls-4" d="M23,14.92c.53,2.19-3.71,7.69-3.71,7.69s7.15-5.22,9.8-4.67-2.12,8.23-2.12,8.23,7.16-6.31,10.34-2.74c2.22,2.49.69,8.88-.44,12.5a51.48,51.48,0,0,1,4.5-3.41C44,30.58,45,27.31,48,25.58l.33-.17c-1.8-.34-2.9-1.14-1.8-2.8a17.07,17.07,0,0,1,6.89-6S41.52,21,42.31,17.66a12,12,0,0,1,3.29-5.18c-1.86,1.65-5.92,4.94-6.73,3.26-1.06-2.19,1.85-6.86,1.85-6.86S33,13,32.51,10a4.57,4.57,0,0,1,.08-1.57,15.93,15.93,0,0,0-2.35,2.9S25,9,17.6,16C19.6,14.9,22.62,13.46,23,14.92Z"/><g class="cls-33"><path class="cls-3" d="M29.9,37.76a18.56,18.56,0,0,1,2-3c1.07-1.46,2.26-2.81,2.26-2.81s1.24-1.31,2.58-2.49c.34-.3.67-.59,1-.86a4.17,4.17,0,0,1,1-.67,1,1,0,0,1,.84,0c.19.11.22.25.21.25s-.09-.08-.26-.13a.94.94,0,0,0-.69.16,3.69,3.69,0,0,0-.84.71l-.93.92c-1.26,1.25-2.43,2.59-2.43,2.59S33.33,33.64,32.19,35,30,37.81,29.9,37.76Z"/><path class="cls-3" d="M24.52,53.42a2.64,2.64,0,0,1-.08-.64c0-.4-.1-1-.09-1.68A34.86,34.86,0,0,1,24.67,46a38.27,38.27,0,0,1,1.11-5c.18-.68.41-1.22.53-1.61l.21-.6.25-.59c.17-.37.37-.92.68-1.54A35.93,35.93,0,0,1,30,32.21a31.66,31.66,0,0,1,3.16-3.94c.46-.52.9-.88,1.18-1.16a2.67,2.67,0,0,1,.48-.4s-.6.69-1.49,1.72a38.47,38.47,0,0,0-3,4A37.12,37.12,0,0,0,28,36.89c-.3.61-.49,1.16-.64,1.52s-.24.59-.24.59l-.22.59c-.12.38-.35.9-.55,1.57a39.74,39.74,0,0,0-1.22,4.9,39.23,39.23,0,0,0-.5,5C24.55,52.49,24.58,53.41,24.52,53.42Z"/><path class="cls-3" d="M45,7.44a25.83,25.83,0,0,0-2.78,1.37,13.25,13.25,0,0,0-2.36,2A13.49,13.49,0,0,0,38,13.24c-.82,1.35-1.23,2.91-1.32,2.88a8,8,0,0,1,.95-3.1,12.8,12.8,0,0,1,1.85-2.67,12.39,12.39,0,0,1,2.58-1.93A7.31,7.31,0,0,1,45,7.44Z"/><path class="cls-3" d="M41.9,15c.05.07-.32.45-.65.86s-.64.82-.64.82-.36.36-.69.76-.66.82-.74.78.12-.55.39-1a8.88,8.88,0,0,1,.58-.93,9.64,9.64,0,0,1,.81-.73C41.38,15.16,41.85,14.89,41.9,15Z"/><path class="cls-3" d="M59.24,17.41c0,.05-.52-.16-1.3-.35a11.47,11.47,0,0,0-2.9-.29,14.06,14.06,0,0,0-4.15.78s-.51.15-1.26.43A25,25,0,0,0,47,19.22c-1.91,1-3.73,2.22-3.78,2.14a5.92,5.92,0,0,1,1.07-.87c.66-.48,1.56-1.1,2.5-1.66a23,23,0,0,1,2.68-1.38c.76-.33,1.28-.5,1.28-.5s.53-.17,1.34-.34a13.26,13.26,0,0,1,3-.29,10,10,0,0,1,3,.51A4,4,0,0,1,59.24,17.41Z"/><path class="cls-3" d="M78.55,32.85a3.3,3.3,0,0,1-1.35.27,7.76,7.76,0,0,1-3-.52,11.44,11.44,0,0,1-2.69-1.49c-.68-.49-1.1-.86-1.1-.86s-.42-.38-1-1-1.34-1.41-2.1-2.22l-2.06-2.24a6.78,6.78,0,0,1-.88-1.08,7.25,7.25,0,0,1,1,.9l2.19,2.11c.8.76,1.59,1.53,2.19,2.11s1,.91,1,.91.4.37,1,.88a11.5,11.5,0,0,0,2.51,1.53,8,8,0,0,0,2.84.69C78,32.91,78.54,32.8,78.55,32.85Z"/><path class="cls-3" d="M82.54,31.37c-.06.06-1.55-1.45-3.1-2.87s-3.17-2.76-3.17-2.76S74.7,24.34,73.06,23s-3.33-2.56-3.28-2.63a5.2,5.2,0,0,1,1.14.64c.67.43,1.54,1,2.4,1.64,1.71,1.23,3.34,2.59,3.34,2.59s1.58,1.4,3.07,2.92c.74.76,1.46,1.54,2,2.14A5.77,5.77,0,0,1,82.54,31.37Z"/><path class="cls-3" d="M85.82,34.6c-.08,0-.86-1.72-1.82-3.35s-2.06-3.17-2.06-3.17-1-1.58-2.26-3-2.56-2.77-2.5-2.84A16.61,16.61,0,0,1,80,24.76a34.07,34.07,0,0,1,2.44,2.95A32.51,32.51,0,0,1,84.37,31,16.84,16.84,0,0,1,85.82,34.6Z"/><path class="cls-3" d="M88.66,31.32a12.94,12.94,0,0,1-.86-1.68c-.49-1-1.16-2.36-1.89-3.67a39.24,39.24,0,0,0-2.16-3.49c-.64-.92-1.1-1.5-1.1-1.5a25.94,25.94,0,0,0-4-4.3,21.07,21.07,0,0,0-3.34-2.27c-1-.52-1.65-.8-1.63-.84a1.52,1.52,0,0,1,.49.12,11.85,11.85,0,0,1,1.24.5,19,19,0,0,1,3.5,2.14,23.47,23.47,0,0,1,3,2.82c.76.84,1.22,1.44,1.22,1.44s.46.61,1.09,1.56a37.47,37.47,0,0,1,2.08,3.6c.68,1.35,1.3,2.74,1.73,3.79A11.77,11.77,0,0,1,88.66,31.32Z"/><path class="cls-3" d="M94.13,32.71a3.47,3.47,0,0,1-1.11,2A6.38,6.38,0,0,1,91.13,36a9.93,9.93,0,0,1-2.17.51,7.68,7.68,0,0,1-2.19.06,14.08,14.08,0,0,1,2.12-.5,11.17,11.17,0,0,0,2-.65,6.53,6.53,0,0,0,1.83-1A8.28,8.28,0,0,0,94.13,32.71Z"/><path class="cls-3" d="M88.72,24.72A10.52,10.52,0,0,1,90.42,27a25,25,0,0,1,1.33,2.57,24.77,24.77,0,0,1,.89,2.77,11.38,11.38,0,0,1,.46,2.86c-.08,0-.41-1.38-.87-2.73s-1-2.65-1-2.65-.51-1.33-1.15-2.6S88.65,24.77,88.72,24.72Z"/><path class="cls-3" d="M23.35,68.22a4.8,4.8,0,0,1-.34-.73c-.18-.47-.49-1.13-.75-2a50,50,0,0,1-1.7-6.18A54,54,0,0,1,19.7,53c-.08-.87-.07-1.61-.1-2.12s0-.8,0-.8,0-.3,0-.81,0-1.24.08-2.12a52.37,52.37,0,0,1,.78-6.38,48.63,48.63,0,0,1,1.62-6.2c.26-.84.56-1.5.73-2a3.88,3.88,0,0,1,.33-.73,4.31,4.31,0,0,1-.21.78c-.14.48-.4,1.16-.62,2a57,57,0,0,0-1.43,6.21,55.5,55.5,0,0,0-.65,6.33c0,.87,0,1.59,0,2.1V50s0,.29,0,.8,0,1.23.07,2.1A54.67,54.67,0,0,0,21,59.26a57.69,57.69,0,0,0,1.5,6.19c.23.84.5,1.51.65,2A7.23,7.23,0,0,1,23.35,68.22Z"/><path class="cls-3" d="M16.85,27.2A12,12,0,0,1,18,23.81a21.54,21.54,0,0,1,1.79-3.1,20.54,20.54,0,0,1,2.41-2.61,11.68,11.68,0,0,1,2.86-2c0,.08-1.36,1.09-2.57,2.34a23.22,23.22,0,0,0-2.22,2.66A23.81,23.81,0,0,0,18.33,24C17.49,25.55,16.93,27.23,16.85,27.2Z"/><path class="cls-3" d="M12.18,66.77A5.11,5.11,0,0,1,12,66c-.1-.5-.29-1.21-.43-2.07-.33-1.72-.64-4-.84-6.37s-.22-4.67-.17-6.42c0-.88.06-1.61.08-2.12s0-.81,0-.81l.08-.8c.06-.51.1-1.24.23-2.11.21-1.74.6-4,1.1-6.32a62.06,62.06,0,0,1,1.75-6.17c.26-.83.55-1.5.73-2a3.25,3.25,0,0,1,.32-.73,4.63,4.63,0,0,1-.21.77c-.14.49-.39,1.17-.62,2-.5,1.66-1.07,3.91-1.55,6.18s-.79,4.57-1,6.3c-.11.87-.14,1.59-.19,2.1l-.06.79-.05.8c0,.5-.1,1.22-.12,2.09-.07,1.74-.06,4.06.05,6.38s.38,4.63.64,6.36c.11.86.25,1.57.32,2.08A3.81,3.81,0,0,1,12.18,66.77Z"/><path class="cls-3" d="M25.17,83.26a2.75,2.75,0,0,1-.43-.43c-.24-.29-.63-.68-1-1.21a30.19,30.19,0,0,1-2.63-4.06,40.83,40.83,0,0,1-2-4.44c-.46-1.25-.73-2.09-.73-2.09s-.26-.85-.58-2.14-.7-3-1-4.77-.52-3.51-.66-4.83c-.07-.66-.11-1.21-.14-1.6a2.2,2.2,0,0,1,0-.61,20,20,0,0,1,.39,2.18c.2,1.3.5,3,.84,4.77s.75,3.44,1.11,4.71.62,2.1.62,2.1.26.84.68,2.08a41,41,0,0,0,1.85,4.43,33.26,33.26,0,0,0,2.44,4.12C24.66,82.54,25.21,83.22,25.17,83.26Z"/><path class="cls-3" d="M96.56,51.13c-.08,0-.32-1.69-.64-3.37s-.71-3.33-.71-3.33-.32-1.67-.73-3.32-.9-3.29-.82-3.32A18,18,0,0,1,94.89,41c.52,1.64.91,3.31.91,3.31s.34,1.69.55,3.4A18.38,18.38,0,0,1,96.56,51.13Z"/><path class="cls-3" d="M93.36,78.2s.39-.64.83-1.65a17.22,17.22,0,0,0,1-3.91c.47-2.94.65-5.92.65-5.92s.29-3,.32-5.95c0-1.5,0-3,0-4.11a15,15,0,0,1,0-1.87,9.87,9.87,0,0,1,.26,1.86c.11,1.12.2,2.61.23,4.11.08,3-.14,6-.14,6s-.26,3-.84,6a15.66,15.66,0,0,1-1.26,3.93,8.68,8.68,0,0,1-.7,1.16C93.5,78.07,93.38,78.21,93.36,78.2Z"/><path class="cls-3" d="M24.09,21.86a6,6,0,0,1,1.58-2.09,9.92,9.92,0,0,1,2.13-1.5,10,10,0,0,1,2.49-.74,5.77,5.77,0,0,1,2.55.09c0,.09-1.27.05-2.47.35a10.94,10.94,0,0,0-2.31.86,11.26,11.26,0,0,0-2.12,1.28C24.94,20.88,24.16,21.91,24.09,21.86Z"/><path class="cls-3" d="M28.63,23.78a7.35,7.35,0,0,1,1-1.73A14.34,14.34,0,0,1,31,20.51a7.59,7.59,0,0,1,1.7-1.11,3.34,3.34,0,0,1,1.94-.4c0,.09-.94.27-1.75.79A8.81,8.81,0,0,0,31.39,21,17.94,17.94,0,0,0,30,22.34,11.89,11.89,0,0,1,28.63,23.78Z"/></g><path class="cls-4" d="M16,57.08a5,5,0,0,0,.29,1.53C16.19,57.52,16.06,56.86,16,57.08Z"/><path class="cls-4" d="M33.69,77.4c-2.87-8.22-5.06-19.62-3.16-29.22C25.94,60.75,33.84,80.61,28.47,80c-5-.63-10.84-16.29-12.2-21.34.24,3.4-.06,11-4.12,9.74C8.51,67.21,7.76,54.6,7.44,46.69c-.75,13.24.8,26.85,4.4,31.69,6.67,9,30.3,12.89,30.3,12.89C38.15,87.81,35.42,82.35,33.69,77.4Z"/><path class="cls-4" d="M98.58,76.89c.21-1.4.36-2.85.47-4.33-1.43,2.49-3.36,4.92-5.69,5.64-5.26,1.63-.1-5-.33-11.29s-4.2-26.57-.24-26.81c1.69-.1,3.38,2.48,4.77,5.47-1.41-8.78-3.43-16.19-5.11-19.5-.78-1.55-1.83-3.59-3.21-5.84,1,3.93,2,9.23.29,10.7-2.8,2.41-11-7.73-11.65-8.21s7.69,8.69,4.66,10.62-17.12-8.7-17.12-8.7,5.47,6,4.77,7.25c-.44.76-4.18-1.33-6.91-3,.24.29.47.6.68.91,6.13,9.16,22.9,6.54,22.9,6.54,11,30.46-.54,51.57-.54,51.57S97.77,82.4,98.58,76.89Z"/><g class="cls-7"><path class="cls-3" d="M13.6,24c-3.61,4.65-5,11.45-4.93,17.34a.18.18,0,0,0,.36,0c.69-2.9,1.3-5.84,2.17-8.67s2.11-5.54,2.85-8.45c.06-.25-.28-.5-.45-.27Z"/></g><g class="cls-7"><path class="cls-3" d="M8.67,44.87a9.31,9.31,0,0,0-.22,3.2c0,.29.48.3.45,0A10.07,10.07,0,0,1,9,45c0-.23-.3-.34-.35-.1Z"/></g><g class="cls-7"><path class="cls-3" d="M17.4,30.39c-4.43,4.83-6.07,14.92-4.93,21.3.17.93,1.41.76,1.66,0,1.18-3.57,1.57-7.43,2.26-11.12C17,37.28,18.19,34,18,30.65a.36.36,0,0,0-.62-.26Z"/></g><g class="cls-7"><path class="cls-3" d="M17.18,48.07c-.37,3.86-.61,8.65.54,12.39a.28.28,0,0,0,.54-.08c-.17-2.07-.78-4.05-.91-6.13a51,51,0,0,1,.1-6.18c0-.18-.26-.17-.27,0Z"/></g><g class="cls-7"><path class="cls-3" d="M28.12,28.17c-3.51,4.4-6.9,10.5-5.53,16.43a.54.54,0,0,0,1.05,0c2-5.28,2.36-11.05,4.63-16.31,0-.09-.08-.21-.15-.12Z"/></g><g class="cls-7"><path class="cls-3" d="M28.92,40.43a29.5,29.5,0,0,0-2.07,21.23.22.22,0,0,0,.44-.07,62.36,62.36,0,0,1,2.29-20.88c.12-.4-.47-.67-.66-.28Z"/></g><g class="cls-7"><path class="cls-3" d="M43,5.73c4-1.67,8-2,12.23-2.79.64-.13.43-1.06-.15-1.11-4.21-.34-8.59,1.47-12.26,3.48-.22.12-.06.52.18.42Z"/></g><g class="cls-7"><path class="cls-3" d="M47.3,9c3.36.09,6.52-.68,9.94-.91,4.08-.28,8.15,0,12.23.1a.62.62,0,0,0,.41-1C65,1.94,57.49,2.53,51.34,4.74c-1.16.41-4.72,1.35-4.52,3.26,0,.29,0,.93.48.95Z"/></g><g class="cls-7"><path class="cls-3" d="M72.06,9.61a4.36,4.36,0,0,0,.68.54c.29.16.6.28.88.44a6.34,6.34,0,0,0,1.71.8.75.75,0,0,0,.82-1.1,3,3,0,0,0-1.57-1.4,3.69,3.69,0,0,0-2-.48c-.51.06-1,.79-.48,1.2Z"/></g><g class="cls-7"><path class="cls-3" d="M53.57,20.67c1.71.81,3.61.93,5.34,1.81a29.74,29.74,0,0,1,5.18,3.65.33.33,0,0,0,.5-.4c-1.88-3.3-7.18-6.67-11-5.32-.1,0-.15.21,0,.26Z"/></g><g class="cls-7"><path class="cls-3" d="M60.2,19.8c1.94,1.39,3.89,2.67,5.93,3.9C68,24.82,70.2,25.48,72,26.75c.73.51,1.78-.53,1.24-1.29-1.41-2-2.65-3.78-4.81-5a37.25,37.25,0,0,0-7.33-2.82c-1.28-.4-1.88,1.42-.87,2.14Z"/></g><g class="cls-7"><path class="cls-3" d="M50.85,11.88c4.46,1.14,9,1.41,13.45,2.84s8.42,3.91,12.87,5.22c.84.25,1.29-.8.8-1.41-5.67-7.09-19-9.91-27.12-6.74,0,0-.05.08,0,.09Z"/></g><g class="cls-7"><path class="cls-3" d="M79.83,20.69l1.62,1.46a.23.23,0,0,0,.32-.33l-1.56-1.53c-.26-.24-.65.17-.38.4Z"/></g><path class="cls-23" d="M29.09,49.53c.05.67.09,1.33.13,2l3.14,1.67,1.39.74.84-1.81Z"/><path class="cls-34" d="M29.16,50.55l.06,1,1.2.63L32,53l.06,0,.28.15,1.39.74.11-.25,0-.06.32-.69Z"/><path class="cls-23" d="M60.88,52.27,60,50.76c.2-.08,5-1.95,9.26-.61l-.71,1.57C65.14,50.63,60.92,52.26,60.88,52.27Z"/><path class="cls-34" d="M60.88,52.27s4.26-1.64,7.69-.55l.31-.69a15.65,15.65,0,0,0-8.37.6Z"/><path class="cls-35" d="M34,52.44s13.51-8,26.26-.84c0,0,1.69,16.07-12,16.49S34,52.44,34,52.44Z"/><g class="cls-16"><path class="cls-36" d="M53.17,49,45.45,67.91a15.46,15.46,0,0,0,2.87.18c.4,0,.78,0,1.15-.07l7.67-17.88A22.24,22.24,0,0,0,53.17,49Z"/><path class="cls-36" d="M43.66,49.1,37.83,63.37a12.27,12.27,0,0,0,3,2.77l7.51-17.5A29.17,29.17,0,0,0,43.66,49.1Z"/></g><path class="cls-23" d="M47.79,68.94c-13.88,0-14.67-16.31-14.67-16.47l0-.47.44-.26c.14-.08,14.15-8.17,27.24-.85l.39.22,0,.41c0,.36.86,8.79-4,13.82a12.34,12.34,0,0,1-8.87,3.59ZM35,52.9c.22,2.64,1.86,14.74,13.3,14.36a10.52,10.52,0,0,0,7.55-3c3.77-3.91,3.67-10.45,3.58-12.15C48.71,46.39,37.36,51.66,35,52.9Z"/><path class="cls-34" d="M56.43,64.8c4.48-4.64,3.72-12.41,3.68-12.74l0-.38-.36-.2c-12.07-6.75-25,.7-25.11.78l-.4.24v.43c0,.16.73,15.18,13.53,15.18h.51A11.38,11.38,0,0,0,56.43,64.8ZM35,52.9c2.37-1.24,13.72-6.51,24.43-.81.09,1.7.19,8.24-3.58,12.15a10.52,10.52,0,0,1-7.55,3C36.85,67.64,35.21,55.54,35,52.9Z"/><path class="cls-35" d="M69,50.9S81.71,42,95.12,48.24c0,0,3.28,15.9-10.3,17.26S69,50.9,69,50.9Z"/><g class="cls-16"><path class="cls-36" d="M87.75,46.18,81.94,65.52a14.64,14.64,0,0,0,2.88,0q.59-.06,1.14-.15L91.83,47A23.6,23.6,0,0,0,87.75,46.18Z"/><path class="cls-36" d="M78.28,46.9,73.89,61.52a13,13,0,0,0,3.23,2.56l5.74-18A28.76,28.76,0,0,0,78.28,46.9Z"/></g><path class="cls-23" d="M84.38,66.38C70.54,67.35,68.14,51.15,68.12,51l-.07-.47.41-.29c.13-.09,13.29-9.12,27.07-2.74l.41.19.08.41c.08.36,1.74,8.71-2.6,14.06a12,12,0,0,1-8.49,4.18ZM70,51.29c.48,2.62,3.32,14.56,14.69,13.38a10.13,10.13,0,0,0,7.22-3.53C95.3,57,94.55,50.47,94.29,48.79,83.05,43.85,72.26,49.89,70,51.29Z"/><path class="cls-34" d="M92.58,61.66c4-4.93,2.47-12.63,2.4-12.95l-.08-.38-.38-.18c-12.69-5.88-24.82,2.44-24.94,2.53l-.38.26.06.43c0,.16,2.24,15.08,15,14.19l.51,0A11,11,0,0,0,92.58,61.66ZM70,51.29c2.24-1.4,13-7.44,24.27-2.5.26,1.68,1,8.2-2.36,12.35a10.13,10.13,0,0,1-7.22,3.53C73.34,65.85,70.5,53.91,70,51.29Z"/></g></g></g></svg>