<svg xmlns="http://www.w3.org/2000/svg" xmlns:xlink="http://www.w3.org/1999/xlink" viewBox="0 0 1642.81 800.45"><defs><style>.cls-1{fill:none;}.cls-2,.cls-42,.cls-43{isolation:isolate;}.cls-3,.cls-45{fill:#884192;}.cls-4{clip-path:url(#clip-path);}.cls-26,.cls-27,.cls-5,.cls-7{fill:#feead1;}.cls-6{fill:#f7b18f;}.cls-11,.cls-12,.cls-14,.cls-16,.cls-18,.cls-19,.cls-20,.cls-24,.cls-27,.cls-32,.cls-36,.cls-39,.cls-40,.cls-46,.cls-47,.cls-51,.cls-7,.cls-9{mix-blend-mode:multiply;}.cls-10,.cls-11,.cls-8,.cls-9{fill:#f9b200;}.cls-22,.cls-33,.cls-36,.cls-9{opacity:0.45;}.cls-10,.cls-17,.cls-21,.cls-22,.cls-25,.cls-26,.cls-29,.cls-30,.cls-33,.cls-34,.cls-35,.cls-37,.cls-48{mix-blend-mode:screen;}.cls-12,.cls-14,.cls-30,.cls-35,.cls-39,.cls-40,.cls-47{opacity:0.5;}.cls-13,.cls-14,.cls-20,.cls-21{fill:#6fc5cf;}.cls-15,.cls-16,.cls-17,.cls-35{fill:#0e3f69;}.cls-16,.cls-19{opacity:0.34;}.cls-23,.cls-24,.cls-25{fill:#7f3816;}.cls-24{opacity:0.25;}.cls-27{opacity:0.62;}.cls-28{fill:#132c46;}.cls-31,.cls-32,.cls-36,.cls-37,.cls-40{fill:#eb5e6f;}.cls-33,.cls-34,.cls-38,.cls-42,.cls-43,.cls-55,.cls-57{fill:#fff;}.cls-39,.cls-46{fill:#d2daf0;}.cls-41{fill:#392152;}.cls-42{font-size:67.8px;}.cls-42,.cls-43{font-family:GreatVibes-Regular, Great Vibes;}.cls-43{font-size:40.47px;}.cls-44{font-size:116.1px;font-family:Bahnschrift-LightCondensed, Bahnschrift;font-weight:300;}.cls-44,.cls-53{fill:#1d1d1b;}.cls-45{font-family:Bahnschrift-Bold, Bahnschrift;font-weight:700;}.cls-46{opacity:0.35;}.cls-47{fill:#80c9c6;}.cls-48,.cls-51{opacity:0.6;}.cls-49,.cls-51{fill:#e73432;}.cls-50{fill:#60130e;}.cls-52{fill:#ee728c;}.cls-53{font-size:33px;font-family:D-DIN;}.cls-54{letter-spacing:-0.01em;}.cls-55{opacity:0.42;}.cls-56{stroke:#9f64a6;stroke-miterlimit:10;stroke-width:4px;fill:url(#Degradado_sin_nombre_10);}.cls-57{font-size:40px;font-family:Bahnschrift;letter-spacing:-0.11em;}.cls-58{letter-spacing:-0.07em;}.cls-59{fill:#484e55;}.cls-60{fill:#4a5158;}.cls-61{fill:#4e545b;}.cls-62{fill:#50575e;}.cls-63{fill:#525860;}</style><clipPath id="clip-path"><rect class="cls-1" y="491.42" width="327.94" height="309.03"/></clipPath><linearGradient id="Degradado_sin_nombre_10" x1="1376.59" y1="752.73" x2="1376.59" y2="663.99" gradientUnits="userSpaceOnUse"><stop offset="0.01" stop-color="#392152"/><stop offset="0.98" stop-color="#82368c"/></linearGradient></defs><g class="cls-2"><g id="Capa_2" data-name="Capa 2"><g id="Capa_2-2" data-name="Capa 2"><rect class="cls-3" width="1280" height="800"/><g class="cls-4"><path class="cls-5" d="M239,663.87l3.35-4.31s-7.5-9.26-3.85-16.15c1.15-2.15,2.81-4.2,3.75-6.44.55-1.31.74-3.07,2.08-3.55,2.22-.79,3.82,2.16,3.85,4,1.81-2.48,11.37-8.64,12.3-2.25A7.7,7.7,0,0,1,268,639.6a4.78,4.78,0,0,0,.55,1.08,6.13,6.13,0,0,0,1.15.94,4.78,4.78,0,0,1,1.86,3.91c0,.32.63.64.79.9,2.48,4.22-1.3,9.36-3.94,12.34-2.88,3.27-7.53,7.7-12.2,7.86l-3.62,7.67S236.61,667.81,239,663.87Z"/><path class="cls-6" d="M250.15,650.83a12.64,12.64,0,0,0-1.51-5.94,11.15,11.15,0,0,0-1.51-2.18,7.92,7.92,0,0,1,2,1.83,10,10,0,0,1,2.25,6.29,7.85,7.85,0,0,1-2.66,6.13,4.75,4.75,0,0,1-1.82.92,3.58,3.58,0,0,1-.73.11,4.62,4.62,0,0,0,2.11-1.49A8.84,8.84,0,0,0,250.15,650.83Z"/><path class="cls-6" d="M247.91,639.8a22.9,22.9,0,0,0-.15-3.48c-.08-1-.12-1.53-.12-1.53a9.23,9.23,0,0,1,1.54,5.08,6,6,0,0,1-1.53,3.54,11.21,11.21,0,0,1-1.1,1.1A17.85,17.85,0,0,0,247.91,639.8Z"/><path class="cls-6" d="M263.71,657.65a3.94,3.94,0,0,1,.42-3.25,2.69,2.69,0,0,1,.93-.94,4.35,4.35,0,0,0-.34,1.18,5.85,5.85,0,0,0,.21,2.63,4.07,4.07,0,0,0,1.38,2.1,1.4,1.4,0,0,0,1.09.28,1.37,1.37,0,0,1-1.31.31A3.3,3.3,0,0,1,263.71,657.65Z"/><path class="cls-6" d="M265.64,652.17a16,16,0,0,0,4.48-5.15,14.65,14.65,0,0,0,1.16-2.69,10.13,10.13,0,0,1-.58,2.94,12.3,12.3,0,0,1-4.3,5.92,5.7,5.7,0,0,1-4,1.45,2.58,2.58,0,0,1-1.76-1,2.23,2.23,0,0,1-.33-1.7,4.34,4.34,0,0,1,1-2,1.88,1.88,0,0,1,.63-.51,2.11,2.11,0,0,0-.47.62,4.6,4.6,0,0,0-.5,2,1.54,1.54,0,0,0,1.58,1.63A5.45,5.45,0,0,0,265.64,652.17Z"/><path class="cls-6" d="M262,647.47a40.93,40.93,0,0,0,4.77-5.21,7.91,7.91,0,0,0,1.28-2.64,6.57,6.57,0,0,1-.72,3,21.25,21.25,0,0,1-4.49,5.85,4.88,4.88,0,0,1-3.93,1.72,3.61,3.61,0,0,1-2.85-2.08,3.54,3.54,0,0,1,0-3,3.7,3.7,0,0,0,.52,2.75,3,3,0,0,0,2.38,1.31A4.31,4.31,0,0,0,262,647.47Z"/><path class="cls-6" d="M255.7,644.41c2.55-2.76,4.39-5.64,4.48-8.1a6.73,6.73,0,0,0-.34-2.84,5.71,5.71,0,0,0-.45-1,4.69,4.69,0,0,1,.63.89,6.44,6.44,0,0,1,.8,2.93c.26,2.68-1.55,6.14-4.17,8.94a4.19,4.19,0,0,1-2.73,1.61,2.77,2.77,0,0,1-2.62-1.65c-.68-1.94.12-3.45.57-4.6a16.3,16.3,0,0,1,2.15-3.47,22.37,22.37,0,0,0-1.55,3.7c-.34,1.12-.78,2.71-.2,3.91a1.66,1.66,0,0,0,1.54.89A3.14,3.14,0,0,0,255.7,644.41Z"/><path class="cls-6" d="M256.33,653.42a7.69,7.69,0,0,1,3.33,1.42,5.84,5.84,0,0,1,1.09,1,28.5,28.5,0,0,0-9.38-1.57,6.45,6.45,0,0,1,1.36-.6A7.69,7.69,0,0,1,256.33,653.42Z"/><path class="cls-7" d="M259.4,633c-2.72-2.42-9.75,2.27-11.27,4.36a5.17,5.17,0,0,0-1.59-3.46,27.79,27.79,0,0,1-2.08,9.59s3.61,3,.23,9.68c-1.57,3.09-3.62,2.71-5.39,1.48a28,28,0,0,0,3,4.88L239,663.87c-2.34,3.94,13.6,10.43,13.6,10.43l3.62-7.67c4.67-.16,9.32-4.59,12.2-7.86l.31-.35a12.71,12.71,0,0,1-1.43-1.1c-2.07-2,3.14-7.17,5.64-9.45a5.87,5.87,0,0,0-.58-1.44c-.16-.26-.8-.58-.79-.9a4.88,4.88,0,0,0-.1-1.08l-.14-.12c-1.1,6.17-8,10.51-9,8.15-.82-1.81,5.21-7.55,8.12-10.18a4.44,4.44,0,0,0-.69-.68,6.13,6.13,0,0,1-1.15-.94,4.78,4.78,0,0,1-.55-1.08,7.64,7.64,0,0,0-4.57-4.07l-3-.39c-.47,6-5.93,11.59-8.16,9.62C250.39,643.1,257.19,635.43,259.4,633Zm3.34,4.25c7.64,2.7-4.05,11.9-4.76,10.55S260.39,640.16,262.74,637.28Z"/><path class="cls-8" d="M255.38,630.41l1.74,28.42s-7.79,1.27-8.83.23-1.16-16.35-1.16-16.35a18.51,18.51,0,0,1-7.31-9C237.59,627.65,254.35,628,255.38,630.41Z"/><path class="cls-9" d="M239.82,633.72c-.82-2.23.93-3.59,3.52-4.3,4.12-.44,8.79.24,9.32,1.48l1.73,28.3c-2.36.27-5.47.49-6.1-.14-1-1-1.16-16.35-1.16-16.35A18.51,18.51,0,0,1,239.82,633.72Z"/><path class="cls-8" d="M288.39,633.76c-.09.53-40.15-3.51-48.57,0s-17.33,1-18.81-8.42,8.41-11.39,9.9-12.38,33.18-35.16,33.18-35.16S291.39,614.49,288.39,633.76Z"/><path class="cls-10" d="M230.91,612.92c1.15-.76,20.25-21.25,28.91-30.57-.52,1.5-1,3-1.41,4.53-9.33,10-25.7,27.56-26.76,28.26-1.49,1-11.39,3-9.9,12.38a14.09,14.09,0,0,0,.38,1.39A13.17,13.17,0,0,1,221,625.3C219.52,615.89,229.42,613.91,230.91,612.92Z"/><path class="cls-8" d="M295.64,598.09c5.76,16.23,2.52,32.2-7.25,35.67s-22.36-6.87-28.13-23.1-2.52-32.2,7.25-35.67S289.87,581.87,295.64,598.09Z"/><path class="cls-11" d="M260.26,610.66c-5.31-15-2.95-29.68,5.1-34.61l.35-.16c9.77-3.47,22.36,6.88,28.13,23.1,5.31,15,3,29.69-5.1,34.61-.12,0-.23.12-.35.16C278.62,637.23,266,626.89,260.26,610.66Z"/><path class="cls-10" d="M260.26,610.66c4,11.33,11.37,19.75,18.77,22.64-1.9-.12-4-.25-6.22-.37-6-3.92-11.62-11.31-14.94-20.67-3.55-10-3.66-19.84-1-26.77l3.45-3.71C256.67,588.71,256.33,599.58,260.26,610.66Z"/><path class="cls-11" d="M260.26,610.66c-4.73-13.32-3.38-26.45,2.65-32.65,8.95.11,19,9.72,24,23.75,4.73,13.32,3.38,26.45-2.65,32.65C275.33,634.3,265.25,624.69,260.26,610.66Z"/><path class="cls-11" d="M267.31,623.81c9-2.27,22.91-5.79,31.11-7.78-.5,8.74-4,15.6-10,17.73C281.65,636.15,273.57,632,267.31,623.81Z"/><path class="cls-11" d="M267.51,575c7.52-2.67,16.69,2.86,23.16,12.94-9.58,5.54-24.14,13.9-31.79,18.09C255.2,591.49,258.68,578.13,267.51,575Z"/><path class="cls-11" d="M224.3,616.39a12.75,12.75,0,0,0,.11,10c3.12,8.1,14.94.63,14.94.63l25.54-6.77c4,6.37,9,11,14.07,13-12.41-.79-33.32-2-39.14.42-8.42,3.47-17.33,1-18.81-8.42A8.91,8.91,0,0,1,224.3,616.39Z"/><path class="cls-5" d="M258.36,641.29s-3,6.09-5.65,4.26,1-8,1.22-8.78,1.56-4.34,1.56-4.34,3.48-.87,4.09,1.91S258.36,641.29,258.36,641.29Z"/><g class="cls-12"><path class="cls-6" d="M250.15,650.83a12.64,12.64,0,0,0-1.51-5.94,11.15,11.15,0,0,0-1.51-2.18,7.92,7.92,0,0,1,2,1.83,10,10,0,0,1,2.25,6.29,7.85,7.85,0,0,1-2.66,6.13,4.75,4.75,0,0,1-1.82.92,3.58,3.58,0,0,1-.73.11,4.62,4.62,0,0,0,2.11-1.49A8.84,8.84,0,0,0,250.15,650.83Z"/><path class="cls-6" d="M247.91,639.8a22.9,22.9,0,0,0-.15-3.48c-.08-1-.12-1.53-.12-1.53a9.23,9.23,0,0,1,1.54,5.08,6,6,0,0,1-1.53,3.54,11.21,11.21,0,0,1-1.1,1.1A17.85,17.85,0,0,0,247.91,639.8Z"/><path class="cls-6" d="M263.71,657.65a3.94,3.94,0,0,1,.42-3.25,2.69,2.69,0,0,1,.93-.94,4.35,4.35,0,0,0-.34,1.18,5.85,5.85,0,0,0,.21,2.63,4.07,4.07,0,0,0,1.38,2.1,1.4,1.4,0,0,0,1.09.28,1.37,1.37,0,0,1-1.31.31A3.3,3.3,0,0,1,263.71,657.65Z"/><path class="cls-6" d="M265.64,652.17a16,16,0,0,0,4.48-5.15,14.65,14.65,0,0,0,1.16-2.69,10.13,10.13,0,0,1-.58,2.94,12.3,12.3,0,0,1-4.3,5.92,5.7,5.7,0,0,1-4,1.45,2.58,2.58,0,0,1-1.76-1,2.23,2.23,0,0,1-.33-1.7,4.34,4.34,0,0,1,1-2,1.88,1.88,0,0,1,.63-.51,2.11,2.11,0,0,0-.47.62,4.6,4.6,0,0,0-.5,2,1.54,1.54,0,0,0,1.58,1.63A5.45,5.45,0,0,0,265.64,652.17Z"/><path class="cls-6" d="M262,647.47a40.93,40.93,0,0,0,4.77-5.21,7.91,7.91,0,0,0,1.28-2.64,6.57,6.57,0,0,1-.72,3,21.25,21.25,0,0,1-4.49,5.85,4.88,4.88,0,0,1-3.93,1.72,3.61,3.61,0,0,1-2.85-2.08,3.54,3.54,0,0,1,0-3,3.7,3.7,0,0,0,.52,2.75,3,3,0,0,0,2.38,1.31A4.31,4.31,0,0,0,262,647.47Z"/><path class="cls-6" d="M255.7,644.41c2.55-2.76,4.39-5.64,4.48-8.1a6.73,6.73,0,0,0-.34-2.84,5.71,5.71,0,0,0-.45-1,4.69,4.69,0,0,1,.63.89,6.44,6.44,0,0,1,.8,2.93c.26,2.68-1.55,6.14-4.17,8.94a4.19,4.19,0,0,1-2.73,1.61,2.77,2.77,0,0,1-2.62-1.65c-.68-1.94.12-3.45.57-4.6a16.3,16.3,0,0,1,2.15-3.47,22.37,22.37,0,0,0-1.55,3.7c-.34,1.12-.78,2.71-.2,3.91a1.66,1.66,0,0,0,1.54.89A3.14,3.14,0,0,0,255.7,644.41Z"/></g><path class="cls-5" d="M241.67,637.73s1.13-4.26,2.52-4.87,4.52,2.09,4.09,6.09l-.44,4s3,4.35,2.87,7.56-1,7.91-4.87,7.48S241.06,638.42,241.67,637.73Z"/><path class="cls-7" d="M245.84,658c-1-.11-1.72-1.34-2.34-3.14a5.56,5.56,0,0,0,1.19-1.64c3.38-6.66-.23-9.68-.23-9.68a27.79,27.79,0,0,0,2.08-9.59,5.17,5.17,0,0,1,1.59,3.46l.11-.11a7.07,7.07,0,0,1,0,1.67l-.44,4s3,4.35,2.87,7.56S249.76,658.41,245.84,658Z"/><path class="cls-13" d="M175.55,647.33s9.89,4.78,14.77,19.84c6.2,19.14,10.68,51.55,15.62,52.77,8.82,2.18,23.19-58.37,23.19-58.37s22.05.67,28.33,12.78c0,0-31.74,85.71-55.64,79.53s-29.22-69.37-29.22-69.37S174.25,645.25,175.55,647.33Z"/><path class="cls-14" d="M175.55,647.33s9.89,4.78,14.77,19.84c6.2,19.14,10.68,51.55,15.62,52.77,8.82,2.18,23.19-58.37,23.19-58.37s22.05.67,28.33,12.78c0,0-31.74,85.71-55.64,79.53s-29.22-69.37-29.22-69.37S174.25,645.25,175.55,647.33Z"/><g class="cls-12"><path class="cls-15" d="M204.44,724a21.33,21.33,0,0,0-2.65,6.72,45.58,45.58,0,0,1,7.35-12.19A21.18,21.18,0,0,0,204.44,724Z"/><path class="cls-15" d="M202.69,722.93a13,13,0,0,0-2.29,4,11,11,0,0,0-.5,1.82,20.37,20.37,0,0,1,8-9.5,11.13,11.13,0,0,0-1.71.8A13.15,13.15,0,0,0,202.69,722.93Z"/></g><path class="cls-14" d="M175.55,647.33s6.62,3.21,11.7,12.62c-3.15,17.24-1.53,46.41,4.31,57.29,4.14,7.71,8.34,1.71,10.29-3.57,1.17,3.54,2.52,5.88,4.09,6.27h0c8.82,2.18,23.19-58.37,23.19-58.37h.64l.5,0h.12c.48,0,1.07.09,1.78.16h0l1.15.14.13,0a59.33,59.33,0,0,1,6,1.09h0a49.51,49.51,0,0,1,5.07,1.5l.26.1c.53.19,1.06.4,1.59.62l.3.13a33,33,0,0,1,3.21,1.59,1.63,1.63,0,0,1-.29-.08c-4.89-1.9-20.61,2-24.8,24.51s-26.22,48.1-21.31,55.52c3.1,4.68,9.88,2.26,14.48-.17a41.35,41.35,0,0,1-3.22,2.86c-.35.28-.7.58-1.05.84s-.74.5-1.11.74-.76.51-1.14.73-.69.39-1,.56-.81.4-1.21.57-.65.26-1,.38-.85.26-1.27.36-.61.15-.9.2a11.46,11.46,0,0,1-1.42.11c-.25,0-.49,0-.74,0a10.2,10.2,0,0,1-2.12-.29c-6-1.55-10.79-6.66-14.65-13.45-5.3-9.34-8.81-21.87-11-32.7-.41-2-.78-3.88-1.1-5.7s-.62-3.57-.87-5.2c-.51-3.26-.87-6.05-1.12-8.15-.12-1-.22-1.93-.29-2.6-.1-1-.15-1.57-.15-1.57S174.25,645.25,175.55,647.33Z"/><path class="cls-15" d="M121.74,772.32s-21.32,29.73-25,67.18S108.5,941.58,108.5,941.58s-19.83,55.81.73,137.33c0,0,23.91,12.26,36.5-.33,0,0-9.33-73.11.22-127.45s2.94-102.08,2.94-102.08,15.42,66.09,20.56,95.47c0,0-6.24,59.77,33.25,131.87,0,0,26.24,9.13,40.19-1.89,0,0-27.32-58.2-37.45-128.51,0,0,1.46-130.72-22.77-170.38C182.67,775.61,129.84,766.82,121.74,772.32Z"/><path class="cls-16" d="M121.74,772.32s-21.32,29.73-25,67.18S108.5,941.58,108.5,941.58s-19.83,55.81.73,137.33c0,0,23.91,12.26,36.5-.33,0,0-9.33-73.11.22-127.45s2.94-102.08,2.94-102.08,15.42,66.09,20.56,95.47c0,0-6.24,59.77,33.25,131.87,0,0,26.24,9.13,40.19-1.89,0,0-27.32-58.2-37.45-128.51,0,0,1.46-130.72-22.77-170.38C182.67,775.61,129.84,766.82,121.74,772.32Z"/><path class="cls-17" d="M107.72,936.34l-1-4.94a12.93,12.93,0,0,1-.39-2.27,10.68,10.68,0,0,1,.75,2.18c.39,1.32.87,3.09,1.33,4.87.9,3.57,1.65,7.17,1.65,7.17s.65,3.62,1.14,7.26c.25,1.82.46,3.65.59,5a11,11,0,0,1,.12,2.3,12.24,12.24,0,0,1-.49-2.25c-.24-1.35-.57-3.16-.89-5-.67-3.6-1.42-7.19-1.42-7.19S108.45,939.93,107.72,936.34Zm.59,13.48s.22,7.58.48,7.58.48-7.58.48-7.58-.21-7.58-.48-7.58S108.31,949.82,108.31,949.82Zm68.28,11.52-2-6.42s-1.15-3.17-2.31-6.34c-.59-1.57-1.19-3.15-1.64-4.33a10.11,10.11,0,0,0-.85-1.93,10.42,10.42,0,0,0,.5,2.06l1.35,4.43,2,6.42,2.3,6.32c.6,1.58,1.2,3.16,1.64,4.34a10.47,10.47,0,0,0,.86,1.93,8.77,8.77,0,0,0-.5-2C177.58,964.57,177.08,963,176.59,961.34Zm-6.8-17c-.26.06,1.41,8.46,1.41,8.46s2.1,8.31,2.36,8.25-1.41-8.46-1.41-8.46S170.05,944.31,169.79,944.37Zm35.65-.29a44.3,44.3,0,0,0-.46-6.55c-.14,0-.12,3.28-.23,6.54s-.3,6.53-.3,6.53-.09,3.26-.29,6.52-.51,6.52-.38,6.53a40.69,40.69,0,0,0,1.06-6.47c.38-3.26.58-6.54.58-6.54S205.52,947.36,205.44,944.08ZM160.2,841.2c-1.63,1.81-3.45,3.42-3.45,3.42s-1.74,1.7-3.66,3.2-4,2.79-3.94,2.91a18.26,18.26,0,0,0,4.34-2.36,41.08,41.08,0,0,0,3.92-3,39.77,39.77,0,0,0,3.31-3.69,18.85,18.85,0,0,0,2.67-4.16C163.27,837.41,161.84,839.4,160.2,841.2Zm-14.78-5.74a26.89,26.89,0,0,1,4.24,7.34c.72,2,1,4.18,1.09,4.17a11.35,11.35,0,0,0-.44-4.37,15.24,15.24,0,0,0-4.4-7.61,11,11,0,0,0-3.57-2.55C142.27,832.55,144,833.83,145.42,835.46Zm2.93,9.18a18.91,18.91,0,0,0-2.89-3.35,33.11,33.11,0,0,0-3.6-2.54,20.09,20.09,0,0,0-3.88-2,34.31,34.31,0,0,0,3.5,2.57,39.68,39.68,0,0,1,3.34,2.7,20.32,20.32,0,0,1,3,3,31.92,31.92,0,0,1,2.18,3.68A9.11,9.11,0,0,0,148.35,844.64Zm-27.68-49.45c-.39.63-.82,1.41-1.3,2.32s-1,1.92-1.56,3.07a98.77,98.77,0,0,0-6.43,17.34,129.25,129.25,0,0,0-3.48,18.18c-.32,2.51-.5,4.6-.61,6.07l-.18,2.31s-.21,3.37-.27,8.41.11,11.78.55,18.49,1.08,13.4,1.61,18.42c.27,2.5.5,4.59.67,6.05.09.73.16,1.3.21,1.69a2.36,2.36,0,0,0,.11.6,4.09,4.09,0,0,0,0-.61c0-.39-.07-1-.12-1.7-.12-1.47-.29-3.56-.49-6.07-.41-5-1-11.71-1.3-18.42s-.46-13.41-.34-18.43.35-8.37.35-8.37,0-.83.15-2.3.27-3.54.55-6A131.36,131.36,0,0,1,112,818.09a104.31,104.31,0,0,1,6.11-17.35c.51-1.15,1-2.19,1.48-3.1s.85-1.71,1.21-2.35.62-1.16.8-1.51a3.6,3.6,0,0,0,.26-.55,2.62,2.62,0,0,0-.34.5Zm-5.86,137.18c-.69-5.52-1.18-11-1.18-11s-.61-5.52-1-11.06c-.19-2.77-.38-5.54-.53-7.62a27.93,27.93,0,0,0-.29-3.46,3.15,3.15,0,0,0-.07,1c0,.61,0,1.48,0,2.53,0,2.08.09,4.87.22,7.65.25,5.56.76,11.11.76,11.11s.6,5.54,1.46,11c.43,2.75.9,5.49,1.3,7.54.2,1,.38,1.88.51,2.47a4.36,4.36,0,0,0,.26.93,26.5,26.5,0,0,0-.4-3.46Zm.86,135.07c-.26-1.52-.63-3.7-1.07-6.3-.89-5.21-2.07-12.16-3.08-19.13s-1.81-14-2.22-19.23-.56-8.77-.56-8.77-.21-3.52-.23-8.79a155.94,155.94,0,0,1,1.06-19.29,125.48,125.48,0,0,1,3.73-19c.34-1.28.69-2.43,1-3.46s.6-1.91.86-2.64.43-1.3.57-1.7a4.47,4.47,0,0,0,.17-.61,3.18,3.18,0,0,0-.27.58c-.15.38-.37,1-.66,1.67s-.6,1.6-.94,2.61-.74,2.17-1.11,3.44a118.94,118.94,0,0,0-4,19,153.48,153.48,0,0,0-1.27,19.38c0,5.3.16,8.83.16,8.83s.15,3.53.63,8.81,1.33,12.28,2.43,19.25,2.38,13.9,3.39,19.1c.52,2.59,1,4.75,1.25,6.26.16.76.29,1.35.37,1.75a2.59,2.59,0,0,0,.17.62,4.12,4.12,0,0,0-.07-.64C115.89,1068.8,115.79,1068.2,115.67,1067.44Z"/><path class="cls-16" d="M145.73,1078.58s-1-8.19-2.08-21.11c-3,5.26-7.26,9-13.38,8.1C112,1063.05,110.1,991.81,117,974.16c5.57-14.17,20.48-5.58,26.14-1.65.67-7.3,1.57-14.49,2.78-21.38,1.4-8,2.44-15.78,3.22-23.32-7.53,14.79-26.53,22.51-37.47-27.68-13.53-62,16.09-115.81,15.42-118.24-1.27-4.61-2.88-7.83-4.73-9.92a5,5,0,0,0-.65.35s-21.32,29.73-25,67.18S108.5,941.58,108.5,941.58s-19.83,55.81.73,137.33C109.23,1078.91,133.14,1091.17,145.73,1078.58Z"/><path class="cls-16" d="M188.16,777.78a43.88,43.88,0,0,0-5-6.24c-30.84-31.86-57.56-3.09-57.56-3.09a45,45,0,0,0-3.9,3.87l28.94,18L163,778l14.39,9.25Z"/><path class="cls-13" d="M197.61,702.82c-.86-10.45-6-20-9.83-29.6-2.92-7.27-6.15-20.54-12.67-25.62-6.07-4.73-40.07-.82-40.07-.82s-26,9.6-26.87,13.76,13.37,43,16.16,57.64,7,39,7,39l-10.79,11.3L150.31,787l12.33-12.33L177,783.87l13.36-11.69s-8.06-7.7-10-14.26c1.53-6,4-26.48,9.38-34C194.63,717.06,198.31,711.3,197.61,702.82Z"/><path class="cls-14" d="M127.62,772.87a21.89,21.89,0,0,1,3.44-5.75c4.66-5.6,14.37-2.24,17.45-1-5.85-3.31-11.78-21.21-10.19-28.62,1.67-7.82,19.54-7.26,33-5.58a21.57,21.57,0,0,1,13.12,6.13c1.37-5.65,3.1-11,5.36-14.19,4.88-6.82,8.56-12.58,7.86-21.06a43.25,43.25,0,0,0-1.13-6.72c-.66,4.94-1.73,9.87-3.43,11.82-3.91,4.47-7.26.56-22.34,4.47s-25.13,2.24-35.74-10.61c-8.54-10.34-13.8-27.14-15.53-33.3-2,1.58-4.16,5.52-6.38,11.13,4.15,13.31,9.65,30,11.27,38.57,2.78,14.66,7,39,7,39l-10.79,11.3Z"/><path class="cls-5" d="M136.83,635.51S135.11,653,142,656.07s14.62,3.08,17.2-4.11,0-17.47,0-17.47S137.69,631.4,136.83,635.51Z"/><path class="cls-7" d="M156,656.33c-11.08-1.68-17.9-14.41-14.22-12.57s14.61.4,18.54-.23a45.61,45.61,0,0,0-1.14-9s-21.49-3.09-22.35,1c0,0-1.72,17.48,5.15,20.56C147,658.31,152.41,658.9,156,656.33Z"/><g class="cls-18"><g class="cls-19"><path class="cls-20" d="M175.15,719.85c-.19,2.91-.59,6.8-1.19,10.65s-1.38,7.68-2.06,10.53-1.22,4.72-1.22,4.72-.53,1.88-1.46,4.66-2.29,6.42-3.44,10.12a47.07,47.07,0,0,0-2.18,10.39c-.09,1.44-.09,2.66-.06,3.5a6.54,6.54,0,0,1,0,1.34,7.35,7.35,0,0,1-.22-1.32,25.58,25.58,0,0,1-.12-3.54,44.57,44.57,0,0,1,1.89-10.57c1.09-3.75,2.4-7.42,3.26-10.2s1.37-4.64,1.37-4.64.56-1.86,1.28-4.68,1.59-6.6,2.26-10.42c1.11-6.23,2.37-12.68,1.07-19-.28-1.3-.67-2.58-1.06-3.85-1.09-3.54-1.86-7.48-3.36-10.84a348.27,348.27,0,0,1-14.79-39.39c1.43,4.65,3.82,9.18,5.63,13.7q2.9,7.25,5.68,14.52c3.43,9,7.22,18.06,8.68,27.64A29.67,29.67,0,0,1,175.15,719.85Z"/></g><g class="cls-19"><path class="cls-13" d="M163,724.36a10.66,10.66,0,0,1-2.38.78,27.84,27.84,0,0,1-5.47.74,31.74,31.74,0,0,1-5.53-.35c-.75-.09-1.36-.26-1.8-.34l-.68-.14-.66-.2c-.42-.14-1-.29-1.74-.57a32.2,32.2,0,0,1-5-2.35,28.76,28.76,0,0,1-4.44-3.28,11.12,11.12,0,0,1-1.71-1.83,19,19,0,0,1,2,1.54,33.13,33.13,0,0,0,4.54,3,32.32,32.32,0,0,0,5,2.11c.69.25,1.29.37,1.7.5l.65.18.66.15c.42.09,1,.27,1.73.38a33.33,33.33,0,0,0,5.38.55,32.64,32.64,0,0,0,5.4-.43A18.81,18.81,0,0,1,163,724.36Z"/></g><g class="cls-19"><path class="cls-13" d="M136.39,761.33a5.32,5.32,0,0,1-2.12-1.42,12.59,12.59,0,0,1-1.66-2,12.84,12.84,0,0,1-1-2.38,5.36,5.36,0,0,1-.28-2.53,20.9,20.9,0,0,1,.92,2.3,30.82,30.82,0,0,0,2.5,4.12A24.66,24.66,0,0,1,136.39,761.33Z"/></g><g class="cls-19"><path class="cls-13" d="M177,763.3c-.09-.11.88-1.13,1.54-2.34a13.48,13.48,0,0,0,1.08-2.5,13.63,13.63,0,0,0,.72-2.63c.23-1.36.12-2.76.25-2.79a5.87,5.87,0,0,1,.43,2.85,8.71,8.71,0,0,1-1.9,5.44A6,6,0,0,1,177,763.3Z"/></g><g class="cls-19"><path class="cls-13" d="M193.55,719a7.54,7.54,0,0,1-1.92,2,23.05,23.05,0,0,1-2.26,1.61,21.26,21.26,0,0,1-2.54,1.09,7.2,7.2,0,0,1-2.7.6,16.31,16.31,0,0,1,2.43-1.23c1.21-.6,2.34-1.3,2.34-1.3s1.19-.61,2.33-1.33A16.12,16.12,0,0,1,193.55,719Z"/></g></g><path class="cls-14" d="M154,658.69s10.37,9.58,12.37,4.39a3.38,3.38,0,0,0,.08-.34,83.25,83.25,0,0,0-6.11-15c-.54,2.85-2.24,6.88-7.56,7.64-6.89,1-12.55-3.66-14.8-8.66-.74,3.77-2.83,17,8,21.75C147.41,669.12,150.47,667.87,154,658.69Z"/><path class="cls-13" d="M136.76,642.16c-.17-1.25-4.17,12.41,7.8,24.38,0,0,4,4.39,9.17-9.17,0,0,10.38,9.57,12.37,4.39s-5.78-18.23-5.78-18.23.58,9.35-7.8,10.54S137.56,648.14,136.76,642.16Z"/><path class="cls-21" d="M136.76,642.16c-.17-1.25-4.17,12.41,7.8,24.38,0,0,4,4.39,9.17-9.17,0,0,10.38,9.57,12.37,4.39s-5.78-18.23-5.78-18.23.58,9.35-7.8,10.54S137.56,648.14,136.76,642.16Z"/><path class="cls-14" d="M166.1,660c-2,5.19-12.37-4.38-12.37-4.38-5.18,13.56-9.17,9.17-9.17,9.17A27.72,27.72,0,0,1,136,646.08c-.18,4.74,1,12.93,8.56,20.46,0,0,4,4.39,9.17-9.17,0,0,10.38,9.57,12.37,4.39a6.6,6.6,0,0,0,.27-2.91A4.58,4.58,0,0,1,166.1,660Z"/><g class="cls-22"><path class="cls-13" d="M192.44,695.1a13.12,13.12,0,0,1-.64-2.79,48.38,48.38,0,0,0-1.71-6c-.75-2.14-1.61-4.24-2.25-5.84l-1.06-2.65s-6-17.31-5.47-17.49,7.28,16.82,7.28,16.82l.92,2.71c.55,1.62,1.29,3.81,1.89,6.05a36.21,36.21,0,0,1,1.15,6.26A7.2,7.2,0,0,1,192.44,695.1Z"/><path class="cls-13" d="M192.77,703.58c-.54-.07-.62-2.64-.62-2.64s.76-2.45,1.3-2.38.61,2.64.61,2.64S193.29,703.66,192.77,703.58Z"/><path class="cls-13" d="M174.7,762.25c-.21-.18,1.3-2.35,2.38-4.72a68.45,68.45,0,0,0,3.21-9.8c.53-2.54.6-5.19.87-5.21s.68,2.66.48,5.39a19.11,19.11,0,0,1-3.36,10.28C176.82,760.51,174.89,762.43,174.7,762.25Z"/><path class="cls-13" d="M178.13,778.82c-.33-.42,8-7.47,8-7.47l.2-.15h.05s0,0,0,0,0,0-.06-.08l-.54-.43a23.54,23.54,0,0,1-2.33-2.2c-1.51-1.61-2.55-3.34-2.37-3.47s1.53,1.3,3.19,2.59a28.21,28.21,0,0,0,2.47,1.77l1.46.89,1.39.82-2.3,1.83S178.45,779.24,178.13,778.82Z"/></g><path class="cls-5" d="M94.06,574.8c-.76-21.76,8.23-57.07,54.06-57.4,46.08-.33,53.06,50.22,53.06,50.22s4.79,18.59,4.25,32.81-8,35.34-41,38.73-58.41-10.49-64.35-30.76c0,0-12.25-.14-15.56-13.6C82.27,585.44,87.38,575.94,94.06,574.8Z"/><g class="cls-18"><path class="cls-5" d="M94.06,574.8a70.08,70.08,0,0,1,2.68-21.9,56.39,56.39,0,0,1,7.47-15.65c-6.62,11.11-7.77,27.78-7.41,37.91a28.37,28.37,0,0,1-2.89-.32Z"/><path class="cls-5" d="M88.05,578.52a19.36,19.36,0,0,0-1.36,13c3.32,13.46,15.57,13.6,15.57,13.6,5.93,20.28,31.34,34.14,64.35,30.76,17.38-1.78,27.65-8.49,33.56-16.51-5.44,9.4-16,17.73-35.69,19.75-33,3.38-58.41-10.49-64.35-30.76,0,0-12.25-.14-15.56-13.6A18.77,18.77,0,0,1,88.05,578.52Z"/></g><path class="cls-23" d="M181.43,586.37c-.08,4.36,1.83,7.9,4.27,7.91s4.48-3.52,4.56-7.88-1.84-7.91-4.28-7.91S181.5,582,181.43,586.37Z"/><path class="cls-24" d="M183.93,579.41a12.77,12.77,0,0,0-.52,3.43c-.08,4.37,1.83,7.91,4.27,7.92a3.1,3.1,0,0,0,2.06-.92c-.77,2.63-2.29,4.45-4,4.44-2.44,0-4.35-3.55-4.27-7.91C181.48,583.33,182.5,580.73,183.93,579.41Z"/><path class="cls-25" d="M189.4,585c.1,1.5-.44,2.77-1.21,2.84s-1.48-1.08-1.58-2.57.44-2.77,1.22-2.84S189.3,583.54,189.4,585Z"/><path class="cls-25" d="M186.39,581a.57.57,0,0,0,.55.61.59.59,0,0,0,.58-.61.58.58,0,0,0-.55-.61A.59.59,0,0,0,186.39,581Z"/><path class="cls-23" d="M129.47,590.12c.49,4.34,2.85,7.62,5.27,7.33s4-4.05,3.5-8.38-2.85-7.62-5.27-7.33S129,585.79,129.47,590.12Z"/><path class="cls-24" d="M130.91,583.08a13.81,13.81,0,0,0,0,2.87c.49,4.33,2.85,7.61,5.27,7.32a3.15,3.15,0,0,0,2.05-1.33c-.3,3-1.65,5.28-3.51,5.51-2.42.29-4.78-3-5.27-7.33A10.1,10.1,0,0,1,130.91,583.08Z"/><path class="cls-25" d="M136.85,587.64c.29,1.47-.08,2.8-.84,3s-1.6-.89-1.89-2.36.08-2.8.83-3S136.55,586.16,136.85,587.64Z"/><path class="cls-25" d="M133.34,584.05a.59.59,0,0,0,.63.54.61.61,0,0,0,.5-.68.58.58,0,0,0-.64-.54A.6.6,0,0,0,133.34,584.05Z"/><path class="cls-6" d="M91.68,599.85a3.16,3.16,0,0,0,1.35,2.7,2.33,2.33,0,0,0,1.36.48,2.24,2.24,0,0,0,1.67-.77,4,4,0,0,0,1-2,2.85,2.85,0,0,0-.71-2.49,8.45,8.45,0,0,0-1.41-.93,2.14,2.14,0,0,1-.67-.83,3,3,0,0,1-.19-2,1.46,1.46,0,0,1,1-1.06,1.65,1.65,0,0,1,.41-.11,1.13,1.13,0,0,1,.44,0,.78.78,0,0,1,.24.09.74.74,0,0,1,.12.09l.35.52c.52.76.93,1,1.43,1a1.23,1.23,0,0,0,.85-.39,1.88,1.88,0,0,0,.49-.92,13,13,0,0,0,.25-2.83,18.74,18.74,0,0,0-.12-2,11.52,11.52,0,0,0-1-3.65,6.3,6.3,0,0,0-1.92-2.33c-1.4-1-2.57-.7-2.55-.54s1,.33,2,1.44a8.18,8.18,0,0,1,1.88,5.4c0,.57,0,1.14,0,1.71s-.07.43-.1.57-.23-.06-.21-.14v0l-.3-.26a3.13,3.13,0,0,0-.65-.34,2.77,2.77,0,0,0-1.1-.19,2.81,2.81,0,0,0-1,.17,3.29,3.29,0,0,0-.91.51,4.47,4.47,0,0,0-1.6,2.65,5.66,5.66,0,0,0,.61,4,3.77,3.77,0,0,0,1.42,1.41,10.84,10.84,0,0,1,1.23.58.73.73,0,0,1,.29.7,2.18,2.18,0,0,1-.41,1.1,1.35,1.35,0,0,1-1.76.43C92.26,601,91.84,599.73,91.68,599.85Z"/><path class="cls-26" d="M89.62,582.46c-1,1-2.05,1.25-2.45.64s0-1.9,1-2.87,2-1.26,2.45-.64S90.57,581.49,89.62,582.46Z"/><path class="cls-26" d="M93.21,577.72a1.09,1.09,0,0,1-.48,1.24.66.66,0,0,1-1-.34,1.08,1.08,0,0,1,.47-1.24A.68.68,0,0,1,93.21,577.72Z"/><path class="cls-27" d="M156.93,602s6.06,1.58,13.81-4c0,0,3.95,2.4-2.94,5.18C158.63,606.87,156.93,602,156.93,602Z"/><path class="cls-6" d="M160.92,603.92a26.37,26.37,0,0,0,2.9,0,17.48,17.48,0,0,0,5.9-2.12,3.66,3.66,0,0,0,1.86-2.07,1.76,1.76,0,0,0-.84-1.77,4.51,4.51,0,0,0-1.62-.68,6.76,6.76,0,0,0-.69-.1,6.94,6.94,0,0,0-1.64-.06,8.78,8.78,0,0,0-1.95.35,8.68,8.68,0,0,0-1.17.45,22.47,22.47,0,0,0-2.52,1.63c0-1,0-2.09,0-3.24,0-.63,0-1.28,0-2,0-1.33.06-2.69.08-3.92.07-2.45.17-4.36.34-4.38s.38,1.89.59,4.35c.1,1.23.2,2.6.31,3.94.05.67.09,1.33.14,2,0,.18,0,.25.08.28l.24-.18a9.56,9.56,0,0,1,1.39-.6,9.83,9.83,0,0,1,2.33-.53,8.9,8.9,0,0,1,2,0,6.67,6.67,0,0,1,.91.18,6.18,6.18,0,0,1,2.26,1.11A4.1,4.1,0,0,1,173,598a3.26,3.26,0,0,1,.17,2.12,5,5,0,0,1-2.76,2.89,16.15,16.15,0,0,1-6.52,1.68C162,604.69,160.86,604,160.92,603.92Z"/><path class="cls-26" d="M167.06,598.41c.19.44-.42,1.12-1.35,1.51s-1.85.37-2-.07.42-1.12,1.36-1.52S166.88,598,167.06,598.41Z"/><path class="cls-7" d="M145.27,604.68c.19,4.36-5.19,8.14-12,8.45s-12.53-3-12.72-7.34,5.19-8.14,12-8.44S145.08,600.33,145.27,604.68Zm43.46-12.63c-6.58,1.53-11.14,6.21-10.18,10.46s7.09,6.46,13.68,4.94,11.14-6.2,10.18-10.45S195.32,590.53,188.73,592.05Z"/><path class="cls-23" d="M130.17,591.26c0,.13-.77.2-1.52,0a4.6,4.6,0,0,1-1.39-.72,4.66,4.66,0,0,1-.9-1.28c-.35-.71-.38-1.49-.25-1.5s.4.63.83,1.15a13.47,13.47,0,0,0,2,1.72C129.49,591,130.18,591.12,130.17,591.26Z"/><path class="cls-23" d="M131.35,593.31c0,.12-.74.45-1.59.6a5.75,5.75,0,0,1-1.75,0,4.21,4.21,0,0,1-1.58-.82c-.73-.56-1-1.43-.9-1.48s.59.59,1.28.92a4.34,4.34,0,0,0,1.4.44,6.7,6.7,0,0,0,1.51.23C130.5,593.26,131.32,593.18,131.35,593.31Z"/><path class="cls-23" d="M193.33,585.11c.13,0,.17.73-.2,1.38a2.46,2.46,0,0,1-2.37,1.45c-.75,0-1.38-.34-1.32-.46s.67,0,1.22-.22a3.23,3.23,0,0,0,1-.51,3.41,3.41,0,0,0,.92-.65C193,585.69,193.2,585.1,193.33,585.11Z"/><path class="cls-23" d="M194.16,588.87c.13,0-.17.85-.84,1.41a3.83,3.83,0,0,1-1.53.78,3.75,3.75,0,0,1-1.7-.25c-.81-.3-1.35-1-1.25-1.06s.73.32,1.44.41a3.47,3.47,0,0,0,1.35-.06,3.51,3.51,0,0,0,1.3-.38C193.57,589.4,194.05,588.81,194.16,588.87Z"/><path class="cls-28" d="M136.59,568.37c-.13.24-1.27,0-2.37.09a13.5,13.5,0,0,0-4.15,1.06c-1,.43-1.9,1.21-2.12,1.06s.33-1.34,1.37-2.21a5.79,5.79,0,0,1,5-1.28C135.65,567.35,136.72,568.14,136.59,568.37Z"/><path class="cls-28" d="M179.35,564.35c.16.22,1.25-.23,2.35-.29a14,14,0,0,1,4.28.38c1.07.26,2.06.89,2.26.71s-.55-1.27-1.71-2a5.77,5.77,0,0,0-5.14-.46C180.12,563.2,179.19,564.15,179.35,564.35Z"/><path class="cls-7" d="M196.82,560.22c-4.64-14.77-17.19-40.1-48.73-39.86-44.23.32-52.92,35.64-52.18,57.4-6.44,1.13-11.38,10.64-9.16,20,3.2,13.47,15,13.6,15,13.6,2.53,8.95,8.73,16.65,17.6,22.17a69.28,69.28,0,0,1-4.38-10c-6.09-17.46-10.23-44.22,1.43-60.18a24.1,24.1,0,0,1,3.16-3.53,72.41,72.41,0,0,1,7.2-5.48c4.16-3,5.71-8,10.3-10.7,8.21-4.77,19.34-1.29,24.57,6.51C170.72,563.66,194.87,560.5,196.82,560.22Z"/><path class="cls-28" d="M118.14,557.71a24.59,24.59,0,0,0-3.16,3.52c-11.66,16-7.52,42.72-1.43,60.18,2.67,7.64,6.88,16.06,13,21.39,0,0-36.42-6-46.7-19.88s-9.74-74,4.17-91,24.18-12.38,24.18-12.38,11.12-19.3,43.65-17.29,46.71,29.1,52.27,40,13.48,51,9.45,78.35c-1.25,8.49-18.9,17-18.9,17s17.79-32.55.83-79.5c0,0-25.85,4-35.31-10.08-5.22-7.8-16.36-11.28-24.57-6.51-4.59,2.67-6.14,7.72-10.3,10.71A70.92,70.92,0,0,0,118.14,557.71Z"/><path class="cls-16" d="M131.92,521.33c.88-.77,1.46-1.32,1.46-1.32S132.77,520.5,131.92,521.33Z"/><path class="cls-16" d="M97,525.09c.82,3.38-5.72,11.85-5.72,11.85s11-8,15.12-7.2-3.27,12.7-3.27,12.7,11-9.73,15.93-4.23c3.43,3.84,1.06,13.69-.67,19.26a77.07,77.07,0,0,1,6.93-5.24c4.16-3,5.71-8,10.3-10.71l.5-.25c-2.76-.54-4.47-1.77-2.76-4.33A26.36,26.36,0,0,1,144,527.63s-18.39,6.77-17.16,1.69c.81-3.37,3.41-6.35,5.08-8-2.88,2.54-9.14,7.62-10.39,5-1.63-3.39,2.86-10.58,2.86-10.58s-11.85,6.34-12.66,1.69a7.1,7.1,0,0,1,.12-2.42,25.38,25.38,0,0,0-3.63,4.47s-8-3.59-19.48,7.28C91.83,525.05,96.48,522.85,97,525.09Z"/><g class="cls-29"><path class="cls-15" d="M107.71,560.3a28.23,28.23,0,0,1,3-4.68c1.64-2.24,3.49-4.32,3.49-4.32s1.9-2,4-3.84c.52-.46,1-.91,1.54-1.32a6.2,6.2,0,0,1,1.48-1,1.53,1.53,0,0,1,1.29-.08c.3.17.35.37.33.38s-.14-.12-.4-.2a1.43,1.43,0,0,0-1.07.24,6.1,6.1,0,0,0-1.29,1.1L118.64,548c-2,1.94-3.75,4-3.75,4s-1.89,2-3.65,4.09S107.82,560.38,107.71,560.3Z"/><path class="cls-15" d="M99.42,584.44a4,4,0,0,1-.13-1c0-.62-.15-1.52-.14-2.6a52.46,52.46,0,0,1,.5-7.88,55.58,55.58,0,0,1,1.71-7.72c.28-1,.62-1.87.81-2.47s.32-.94.32-.94l.39-.91c.26-.57.56-1.42,1.05-2.37a56.71,56.71,0,0,1,3.88-6.83,49.8,49.8,0,0,1,4.88-6.07c.7-.8,1.38-1.36,1.82-1.79a3.49,3.49,0,0,1,.74-.62c.06.06-.92,1.07-2.3,2.66a58.76,58.76,0,0,0-4.59,6.21,57.93,57.93,0,0,0-3.65,6.82c-.46.95-.74,1.79-1,2.36l-.36.9-.33.91c-.2.58-.56,1.4-.85,2.41a54.32,54.32,0,0,0-2.66,15.34C99.45,583,99.5,584.44,99.42,584.44Z"/><path class="cls-15" d="M131.05,513.55a44.05,44.05,0,0,0-4.29,2.12,19.79,19.79,0,0,0-3.63,3.05,20.47,20.47,0,0,0-2.95,3.78,44.21,44.21,0,0,0-2,4.45,12.49,12.49,0,0,1,1.46-4.79,19.35,19.35,0,0,1,2.86-4.12,18.93,18.93,0,0,1,4-3A11.4,11.4,0,0,1,131.05,513.55Z"/><path class="cls-15" d="M126.2,525.15c.08.11-.48.7-1,1.32s-1,1.26-1,1.26-.55.57-1.07,1.19-1,1.26-1.13,1.2.18-.86.59-1.6a13.08,13.08,0,0,1,.91-1.42,14.11,14.11,0,0,1,1.23-1.13C125.41,525.45,126.12,525,126.2,525.15Z"/><path class="cls-15" d="M152.94,528.93c0,.07-.81-.25-2-.54a17.19,17.19,0,0,0-4.47-.45,22,22,0,0,0-6.4,1.2s-.79.23-1.94.67a39.43,39.43,0,0,0-4.13,1.91c-2.94,1.56-5.75,3.42-5.83,3.29a10,10,0,0,1,1.65-1.33c1-.74,2.41-1.69,3.86-2.56A34.26,34.26,0,0,1,137.8,529c1.17-.51,2-.77,2-.77a20.18,20.18,0,0,1,2.06-.53,20.41,20.41,0,0,1,4.62-.44A15.69,15.69,0,0,1,151,528,6.18,6.18,0,0,1,152.94,528.93Z"/><path class="cls-15" d="M182.7,552.73a4.76,4.76,0,0,1-2.08.41,11.79,11.79,0,0,1-4.61-.8,17.37,17.37,0,0,1-4.14-2.29c-1.05-.76-1.69-1.33-1.69-1.33s-.65-.58-1.55-1.5-2.08-2.16-3.24-3.41l-3.18-3.46a10.82,10.82,0,0,1-1.37-1.66,9.76,9.76,0,0,1,1.62,1.39l3.39,3.24,3.36,3.26c.93.86,1.57,1.4,1.57,1.4s.61.58,1.6,1.35a17.47,17.47,0,0,0,3.87,2.37,12.63,12.63,0,0,0,4.38,1.07C181.86,552.83,182.69,552.65,182.7,552.73Z"/><path class="cls-15" d="M188.86,550.45c-.1.09-2.39-2.23-4.78-4.42s-4.89-4.26-4.89-4.26-2.41-2.16-4.94-4.19-5.14-4-5.07-4.06a8.44,8.44,0,0,1,1.77,1c1,.64,2.37,1.56,3.69,2.51,2.64,1.9,5.15,4,5.15,4s2.45,2.17,4.74,4.51c1.14,1.17,2.26,2.37,3.06,3.3A9,9,0,0,1,188.86,550.45Z"/><path class="cls-15" d="M193.92,555.42c-.12.05-1.33-2.64-2.81-5.16s-3.18-4.89-3.18-4.89-1.62-2.42-3.48-4.66-3.95-4.27-3.86-4.38a25.16,25.16,0,0,1,4.34,3.92,51.41,51.41,0,0,1,3.75,4.56,51.73,51.73,0,0,1,3,5.11A26.89,26.89,0,0,1,193.92,555.42Z"/><path class="cls-15" d="M198.29,550.38a21.87,21.87,0,0,1-1.32-2.59c-.76-1.57-1.79-3.65-2.91-5.67a63.13,63.13,0,0,0-3.33-5.38c-1-1.41-1.7-2.3-1.7-2.3a39.86,39.86,0,0,0-6.22-6.63,31.33,31.33,0,0,0-5.14-3.5c-1.49-.81-2.55-1.23-2.52-1.31a2.49,2.49,0,0,1,.76.2,17.64,17.64,0,0,1,1.92.77,27.79,27.79,0,0,1,5.39,3.3,35.85,35.85,0,0,1,4.66,4.34c1.17,1.3,1.88,2.23,1.88,2.23s.71.93,1.67,2.39a59,59,0,0,1,3.21,5.56c1.06,2.08,2,4.22,2.66,5.84A16.46,16.46,0,0,1,198.29,550.38Z"/><path class="cls-15" d="M206.73,552.52a5.33,5.33,0,0,1-1.72,3.05,9.88,9.88,0,0,1-2.9,2,16.25,16.25,0,0,1-3.35.78,12,12,0,0,1-3.38.09,20.15,20.15,0,0,1,3.27-.77,17.41,17.41,0,0,0,3.11-1,10.08,10.08,0,0,0,2.82-1.59A12.88,12.88,0,0,0,206.73,552.52Z"/><path class="cls-15" d="M198.39,540.19a17,17,0,0,1,2.62,3.57,39.84,39.84,0,0,1,2.05,4,40.51,40.51,0,0,1,1.37,4.27,17,17,0,0,1,.71,4.42c-.13,0-.63-2.14-1.34-4.22s-1.59-4.09-1.59-4.09-.79-2-1.78-4S198.29,540.27,198.39,540.19Z"/><path class="cls-15" d="M97.6,607.25a6,6,0,0,1-.51-1.11c-.28-.73-.75-1.75-1.16-3a76.46,76.46,0,0,1-2.63-9.53A82.5,82.5,0,0,1,92,583.75c-.14-1.34-.12-2.48-.17-3.26s0-1.25,0-1.25,0-.45,0-1.24,0-1.92.12-3.27a82.7,82.7,0,0,1,1.2-9.84,77.53,77.53,0,0,1,2.51-9.56c.39-1.29.86-2.31,1.13-3a6.41,6.41,0,0,1,.5-1.13,6.09,6.09,0,0,1-.33,1.19c-.21.76-.62,1.8-1,3.1a77.84,77.84,0,0,0-3.2,19.33c-.09,1.33,0,2.45-.07,3.23s0,1.23,0,1.23,0,.44,0,1.22,0,1.9.1,3.24A88.86,88.86,0,0,0,94,593.45,88,88,0,0,0,96.27,603c.35,1.3.77,2.33,1,3.09A5.83,5.83,0,0,1,97.6,607.25Z"/><path class="cls-15" d="M87.58,544a19,19,0,0,1,1.71-5.24A33.11,33.11,0,0,1,92.05,534a31.59,31.59,0,0,1,3.71-4,17.83,17.83,0,0,1,4.41-3.1c.08.12-2.11,1.68-4,3.61a44.67,44.67,0,0,0-6.32,8.6C88.58,541.47,87.71,544.07,87.58,544Z"/><path class="cls-15" d="M80.39,605a5.8,5.8,0,0,1-.32-1.19c-.17-.77-.45-1.86-.67-3.19a97.86,97.86,0,0,1-1.29-9.81c-.26-3.59-.34-7.2-.27-9.91,0-1.35.1-2.48.12-3.26s.06-1.24.06-1.24,0-.45.12-1.24.16-1.91.35-3.25c.32-2.68.93-6.24,1.7-9.75a97.84,97.84,0,0,1,2.69-9.51c.41-1.28.85-2.31,1.12-3a6.41,6.41,0,0,1,.5-1.13,6.43,6.43,0,0,1-.32,1.19c-.22.76-.6,1.81-1,3.1-.78,2.57-1.66,6-2.4,9.53s-1.22,7-1.49,9.72c-.17,1.33-.21,2.45-.29,3.22s-.1,1.23-.1,1.23,0,.44-.08,1.22-.15,1.9-.17,3.24c-.12,2.68-.1,6.26.07,9.84s.59,7.13,1,9.79c.16,1.34.39,2.43.49,3.21A6.41,6.41,0,0,1,80.39,605Z"/><path class="cls-15" d="M100.41,630.44a3.88,3.88,0,0,1-.65-.65c-.38-.45-1-1-1.58-1.87a45.44,45.44,0,0,1-4.05-6.26,58.46,58.46,0,0,1-3.07-6.84c-.71-1.93-1.13-3.23-1.13-3.23s-.4-1.31-.9-3.3-1.06-4.67-1.54-7.36-.8-5.4-1-7.44c-.11-1-.17-1.87-.22-2.46a4.11,4.11,0,0,1,0-.95,28.55,28.55,0,0,1,.6,3.36c.32,2,.78,4.7,1.3,7.36s1.16,5.3,1.72,7.26,1,3.24,1,3.24.39,1.29,1,3.21a64.16,64.16,0,0,0,2.85,6.83,52.55,52.55,0,0,0,3.76,6.35C99.62,629.34,100.47,630.38,100.41,630.44Z"/><path class="cls-15" d="M210.47,580.91c-.13,0-.48-2.61-1-5.19s-1.09-5.13-1.09-5.13-.5-2.58-1.14-5.13-1.38-5.07-1.26-5.12a27.67,27.67,0,0,1,1.9,4.93c.8,2.52,1.41,5.1,1.41,5.1s.52,2.61.83,5.24A27.38,27.38,0,0,1,210.47,580.91Z"/><path class="cls-15" d="M205.54,622.64c-.06,0,.61-1,1.27-2.54a26.56,26.56,0,0,0,1.63-6c.72-4.53,1-9.13,1-9.13s.44-4.57.49-9.17c0-2.3,0-4.6-.06-6.33a21.85,21.85,0,0,1,0-2.89,17.28,17.28,0,0,1,.4,2.87c.16,1.72.3,4,.35,6.35.12,4.63-.22,9.26-.22,9.26s-.4,4.61-1.29,9.16a24.34,24.34,0,0,1-2,6.07,13.59,13.59,0,0,1-1.08,1.79C205.76,622.45,205.57,622.66,205.54,622.64Z"/><path class="cls-15" d="M98.76,535.78a9.53,9.53,0,0,1,2.42-3.21,16,16,0,0,1,3.29-2.32,15.76,15.76,0,0,1,3.84-1.13,8.77,8.77,0,0,1,3.93.14c0,.13-2,.06-3.81.53a17.12,17.12,0,0,0-3.56,1.33,16.91,16.91,0,0,0-3.27,2C100.06,534.27,98.86,535.86,98.76,535.78Z"/><path class="cls-15" d="M105.75,538.75a10.5,10.5,0,0,1,1.61-2.66,20.66,20.66,0,0,1,2-2.38A11.94,11.94,0,0,1,112,532a5.17,5.17,0,0,1,3-.61,29.45,29.45,0,0,0-2.7,1.22,12.83,12.83,0,0,0-2.29,1.83,25.93,25.93,0,0,0-2.14,2.1A17.72,17.72,0,0,1,105.75,538.75Z"/></g><path class="cls-16" d="M86.24,590.08a8.24,8.24,0,0,0,.45,2.37C86.57,590.76,86.37,589.75,86.24,590.08Z"/><path class="cls-16" d="M113.55,621.41c-4.42-12.68-7.81-30.25-4.87-45-7.08,19.37,5.1,50-3.19,49-7.69-1-16.69-25.11-18.8-32.89.37,5.24-.09,17-6.35,15-5.6-1.77-6.76-21.21-7.25-33.4-1.16,20.4,1.22,41.39,6.78,48.85,10.28,13.83,46.7,19.88,46.7,19.88C120.43,637.47,116.22,629.05,113.55,621.41Z"/><path class="cls-16" d="M213.59,620.62c.32-2.15.55-4.39.73-6.67-2.21,3.83-5.19,7.58-8.78,8.69-8.11,2.52-.15-7.73-.51-17.41s-6.47-41-.36-41.32c2.6-.16,5.21,3.82,7.34,8.42-2.17-13.52-5.28-25-7.87-30.06-1.21-2.38-2.83-5.52-4.95-9,1.58,6.06,3.07,14.23.45,16.49-4.31,3.73-16.89-11.91-18-12.65s11.86,13.4,7.19,16.38-26.4-13.41-26.4-13.41,8.43,9.31,7.35,11.17c-.67,1.17-6.43-2-10.64-4.62.37.45.72.92,1,1.4,9.46,14.12,35.31,10.08,35.31,10.08,17,46.95-.83,79.5-.83,79.5S212.34,629.11,213.59,620.62Z"/><g class="cls-30"><path class="cls-15" d="M82.57,539C77,546.21,74.81,556.69,75,565.77a.27.27,0,0,0,.54.07c1.07-4.45,2-9,3.36-13.36s3.25-8.53,4.39-13c.1-.39-.43-.77-.7-.42Z"/></g><g class="cls-30"><path class="cls-15" d="M75,571.26a14.88,14.88,0,0,0-.34,4.93c.05.46.75.47.7,0a15.9,15.9,0,0,1,.18-4.77c.07-.37-.45-.52-.54-.16Z"/></g><g class="cls-30"><path class="cls-15" d="M88.44,548.93c-6.83,7.46-9.36,23-7.6,32.84.26,1.43,2.17,1.17,2.56,0,1.81-5.49,2.41-11.45,3.49-17.14,1-5.07,2.76-10.08,2.5-15.29a.56.56,0,0,0-1-.41Z"/></g><g class="cls-30"><path class="cls-15" d="M88.09,576.2c-.56,5.95-.93,13.34.84,19.09.14.45.87.4.83-.11-.25-3.19-1.2-6.24-1.4-9.45a77.7,77.7,0,0,1,.15-9.53c0-.28-.39-.27-.42,0Z"/></g><g class="cls-30"><path class="cls-15" d="M105,545.52c-5.42,6.77-10.65,16.19-8.53,25.32a.84.84,0,0,0,1.62,0c3.1-8.13,3.63-17,7.13-25.14,0-.14-.11-.32-.22-.18Z"/></g><g class="cls-30"><path class="cls-15" d="M106.2,564.41a45.51,45.51,0,0,0-3.2,32.73.35.35,0,0,0,.69-.1,95.77,95.77,0,0,1,3.53-32.18c.18-.62-.73-1-1-.45Z"/></g><g class="cls-30"><path class="cls-15" d="M127.82,510.93c6.22-2.58,12.36-3.07,18.86-4.32,1-.18.66-1.63-.22-1.7-6.5-.53-13.25,2.26-18.91,5.36-.34.18-.1.81.27.66Z"/></g><g class="cls-30"><path class="cls-15" d="M134.53,515.88c5.18.14,10.05-1,15.33-1.4,6.28-.42,12.56.06,18.84.16a1,1,0,0,0,.64-1.6c-7.59-8-19.1-7-28.58-3.65-1.79.64-7.28,2.08-7,5,0,.44.05,1.43.74,1.45Z"/></g><g class="cls-30"><path class="cls-15" d="M172.7,516.91a6.9,6.9,0,0,0,1.05.82c.44.25.92.43,1.36.69a9.47,9.47,0,0,0,2.64,1.23A1.16,1.16,0,0,0,179,518a4.67,4.67,0,0,0-2.41-2.16,5.78,5.78,0,0,0-3.16-.73c-.78.08-1.54,1.21-.74,1.85Z"/></g><g class="cls-30"><path class="cls-15" d="M144.2,534c2.64,1.25,5.56,1.44,8.22,2.8a46.43,46.43,0,0,1,8,5.61.49.49,0,0,0,.76-.61c-2.89-5.08-11.07-10.28-16.93-8.19-.16.05-.23.31-.05.39Z"/></g><g class="cls-30"><path class="cls-15" d="M154.42,532.61c3,2.15,6,4.13,9.14,6,2.87,1.72,6.28,2.74,9,4.69,1.12.8,2.73-.81,1.91-2-2.17-3.05-4.08-5.82-7.42-7.68a58.24,58.24,0,0,0-11.3-4.35c-2-.62-2.9,2.18-1.34,3.3Z"/></g><g class="cls-30"><path class="cls-15" d="M140,520.4c6.88,1.75,14,2.18,20.74,4.38s13,6,19.85,8.05c1.29.38,2-1.23,1.22-2.18-8.73-10.93-29.26-15.28-41.81-10.39a.07.07,0,0,0,0,.14Z"/></g><g class="cls-30"><path class="cls-15" d="M184.68,534l2.5,2.25c.34.3.82-.19.49-.51l-2.4-2.35c-.4-.39-1,.24-.59.61Z"/></g><path class="cls-31" d="M106.46,578.45c.08,1,.14,2,.2,3.07l4.84,2.58,2.14,1.14,1.3-2.79Q110.7,580.47,106.46,578.45Z"/><path class="cls-32" d="M106.56,580c0,.5.07,1,.1,1.5l1.85,1,2.46,1.31.1,0,.43.23,2.14,1.14.17-.37,0-.11.5-1.06C111.75,582.48,109.16,581.24,106.56,580Z"/><path class="cls-31" d="M155.46,582.68l-1.32-2.33c.31-.13,7.74-3,14.28-.94l-1.1,2.41C162,580.14,155.52,582.65,155.46,582.68Z"/><path class="cls-32" d="M155.46,582.68c.06,0,6.57-2.54,11.86-.86l.48-1.06c-5.36-1.39-11.08.3-12.9.93Z"/><path class="cls-33" d="M114.08,582.93s20.84-12.28,40.5-1.29c0,0,2.6,24.78-18.47,25.42S114.08,582.93,114.08,582.93Z"/><g class="cls-22"><path class="cls-34" d="M143.57,577.68l-11.88,29.1a23,23,0,0,0,4.42.28c.61,0,1.19-.06,1.77-.12l11.83-27.55A36.21,36.21,0,0,0,143.57,577.68Z"/><path class="cls-34" d="M128.91,577.78l-9,22a18.83,18.83,0,0,0,4.56,4.27l11.58-27A44.79,44.79,0,0,0,128.91,577.78Z"/></g><path class="cls-33" d="M154.67,585.07a29.82,29.82,0,0,0-.09-3.43c-19.66-11-40.5,1.29-40.5,1.29a32.36,32.36,0,0,0,.52,4.08C123.12,591,137.76,594.3,154.67,585.07Z"/><path class="cls-31" d="M135.29,608.37c-21.4,0-22.61-25.14-22.62-25.39l0-.73.67-.4c.22-.13,21.82-12.59,42-1.31l.6.34.07.64c0,.55,1.33,13.55-6.16,21.3-3.38,3.5-8,5.36-13.68,5.53Zm-19.74-24.73c.34,4.07,2.87,22.72,20.51,22.14,4.89-.15,8.8-1.72,11.64-4.66,5.81-6,5.66-16.1,5.51-18.72C136.7,573.61,119.21,581.73,115.55,583.64Z"/><path class="cls-32" d="M148.61,602c6.9-7.14,5.73-19.13,5.68-19.63l-.06-.59-.56-.31c-18.6-10.4-38.5,1.09-38.7,1.2l-.62.37,0,.67c0,.24,1.13,23.4,20.85,23.4l.79,0C141.27,606.91,145.5,605.2,148.61,602Zm-33.06-18.34c3.66-1.91,21.15-10,37.66-1.24.15,2.62.3,12.7-5.51,18.72-2.84,2.94-6.75,4.51-11.64,4.66C118.42,606.36,115.89,587.71,115.55,583.64Z"/><path class="cls-33" d="M168,580.55s19.54-13.69,40.22-4.1c0,0,5.06,24.52-15.88,26.62S168,580.55,168,580.55Z"/><g class="cls-22"><path class="cls-34" d="M196.9,573.27l-9,29.83a23.5,23.5,0,0,0,4.43,0c.61-.06,1.19-.14,1.76-.24l9.05-28.28A36.48,36.48,0,0,0,196.9,573.27Z"/><path class="cls-34" d="M182.3,574.39l-6.77,22.54a19.39,19.39,0,0,0,5,3.94l8.86-27.68A42.74,42.74,0,0,0,182.3,574.39Z"/></g><path class="cls-33" d="M208.68,579.86a28.47,28.47,0,0,0-.43-3.41c-20.68-9.59-40.22,4.1-40.22,4.1a32.29,32.29,0,0,0,.92,4C177.83,587.91,192.76,590.24,208.68,579.86Z"/><path class="cls-31" d="M191.69,604.43c-21.33,1.48-25-23.48-25.07-23.74l-.1-.72.63-.44c.21-.14,20.5-14.07,41.73-4.22l.64.29.13.63c.11.55,2.67,13.42-4,21.67-3,3.71-7.42,5.88-13.08,6.45Zm-22.13-23.28c.74,4,5.12,22.45,22.64,20.64,4.86-.49,8.6-2.32,11.14-5.44,5.19-6.41,4-16.45,3.63-19.05C189.65,569.69,173,579,169.56,581.15Z"/><path class="cls-32" d="M204.33,597.14c6.17-7.6,3.81-19.46,3.71-20l-.12-.58-.59-.27c-19.56-9.08-38.26,3.75-38.45,3.88l-.58.41.09.67c0,.23,3.45,23.24,23.1,21.87l.79-.07C197.5,602.56,201.56,600.56,204.33,597.14Zm-34.77-16C173,579,189.65,569.69,207,577.3c.41,2.6,1.56,12.64-3.63,19.05-2.54,3.12-6.28,4.95-11.14,5.44C174.68,603.6,170.3,585.19,169.56,581.15Z"/><path class="cls-13" d="M111.49,657.38a53,53,0,0,1,9.23,16.85c5.64,18.94-18.77,82.51-18.84,89s3.27,84.7,3.27,84.7-15.7,10.85-24.05,3.62-3.86-89.24-1.82-98.3S98.14,661.89,111.49,657.38Z"/><path class="cls-14" d="M81.1,851.54c8.35,7.23,24.05-3.62,24.05-3.62s-3.34-78.21-3.27-84.7,24.48-70.05,18.83-89a40.63,40.63,0,0,0-1.95-5.09c0,.35,0,.67,0,1.08,1,20.62-8.45,42.26-12.17,50.38S93.1,751.7,94.45,755.42,103.24,841,90.05,842c-8.08.62-11.71-6.13-13.31-11.44C77.39,841.33,78.72,849.48,81.1,851.54Z"/><path class="cls-35" d="M80.94,771c-.8,14.32-2.08,25.86-2.08,25.86s0-11.61.81-25.93c.47-7.12.7-13.61,1.75-18.26a25.24,25.24,0,0,1,1.78-5.29,16.88,16.88,0,0,1,1-1.79,18.65,18.65,0,0,0-.8,1.87,26.94,26.94,0,0,0-1.34,5.33C81.32,757.33,81.41,763.83,80.94,771Zm-1.37,29.49a40.92,40.92,0,0,0-1.06,16.87s.62-3.78.92-8.42S79.57,800.45,79.57,800.45Zm12.48-93.69a47,47,0,0,1-1.77,6.34,36,36,0,0,0,2.38-6.17c1.2-3.9,2.87-9.26,4.93-15.1,4.09-11.74,8.1-21,8.1-21a126.73,126.73,0,0,0-9.3,20.59A135.84,135.84,0,0,0,92.05,706.76Zm21-45.19a12.15,12.15,0,0,0-1.85-1.66,27.22,27.22,0,0,1,5.08,15.32,12.41,12.41,0,0,0,.48-2.44,14.27,14.27,0,0,0-.65-6A14.47,14.47,0,0,0,113.06,661.57Z"/><g class="cls-18"><path class="cls-5" d="M151.08,623h0c-.38-.65-.74-1.32-1.08-2-.13-.16-.29-.31-.41-.47h0a38.07,38.07,0,0,1-3-4.63h0c-.45-.81-.8-1.52-1.06-2.07l0,0c-.17-.35-.3-.64-.39-.84a7,7,0,0,1-1.63.61c-1.13.27-2.27.14-2.28-.12s.95-.62,1.77-1.15a11.07,11.07,0,0,0,1.51-1.16,10.76,10.76,0,0,0,1.56-1.1c.75-.63,1.37-1.46,1.62-1.36s0,1.21-.56,2.22a2.07,2.07,0,0,1-.17.24c.52.34,1,.7,1.54,1l.41.19a18.81,18.81,0,0,0,6.09-.19c5.27-1.06,9.13-1.49,11.5.35,0,0,1.75-2.72,4.12-3a19.53,19.53,0,0,1,5.08.27,4.08,4.08,0,0,1-.36-.61c-.48-.94-.45-2-.19-2s.69.7,1.29,1.19a5.64,5.64,0,0,0,1.26.82,5.78,5.78,0,0,0,1.23.85c.69.36,1.54.47,1.59.73s-.87.68-1.91.6a5.37,5.37,0,0,1-2-.58,6,6,0,0,1-.91-1s-.25.24-.67.61l.15-.09h0v.94c0,.22,0,.51,0,.8,0,.1,0,.18,0,.29,0,.33,0,.71-.06,1.1,0,.1,0,.19,0,.3,0,.37-.07.79-.12,1.2,0,.16,0,.3,0,.46,0,.37-.11.77-.16,1.16,0,.23-.06.44-.1.68s-.1.53-.16.79a28.52,28.52,0,0,1-.67,2.85c0,.1,0,.21-.08.31h0c-1.63,5.4-5.09,10.69-12.42,10.21-4.16-.28-7.46-3.8-9.93-7.87Z"/><path class="cls-5" d="M162.23,635.45a8,8,0,0,0,1.26-1c.59-.57,1-1.3,1.16-1.24s-.12.91-.63,1.67a6.9,6.9,0,0,1-1.21,1.36,7.12,7.12,0,0,1-1.64.79c-.87.28-1.77.27-1.78.14s.81-.37,1.52-.77A8.5,8.5,0,0,0,162.23,635.45Z"/></g><path class="cls-6" d="M148.48,607.48c.25.1,0,1.22-.56,2.22a7.75,7.75,0,0,1-1.47,1.79,8,8,0,0,1-2.15.88c-1.13.28-2.26.15-2.28-.12s1-.62,1.77-1.15a9.62,9.62,0,0,0,1.51-1.16,10.76,10.76,0,0,0,1.56-1.1C147.61,608.21,148.23,607.38,148.48,607.48Z"/><path class="cls-6" d="M181.32,609.54c.06.26-.87.67-1.92.59a5.45,5.45,0,0,1-2-.57,5.35,5.35,0,0,1-1.29-1.62c-.48-.93-.45-2-.19-2s.7.69,1.29,1.19a6.09,6.09,0,0,0,1.26.81,5.78,5.78,0,0,0,1.23.85C180.41,609.16,181.26,609.28,181.32,609.54Z"/><path class="cls-27" d="M175.82,610.92v0c0-.15,0-.29,0-.42v0c0-.12,0-.24,0-.33v-.52h0a19.55,19.55,0,0,0-5.08-.26c-2.37.26-4.13,3-4.13,3-2.37-1.84-6.23-1.4-11.49-.35a11.18,11.18,0,0,1-8.8-1.83s-.49,1.33-.47,1.37v0l.08.19,0,0c.08.19.21.48.38.83l0,0c.26.55.62,1.25,1.06,2.06h0a39.12,39.12,0,0,0,3,4.63h0a26.66,26.66,0,0,0,2.43,2.82l.07.07c.28.29.58.57.89.84h0a13,13,0,0,0,8.5,3.73c11.7.12,13.33-10.9,13.51-15.36v0C175.81,611.25,175.82,611.08,175.82,610.92Z"/><path class="cls-31" d="M146.81,609.35s5.1,20.15,15.32,20.82c14.63,1,13.85-21.1,13.85-21.1S160.3,619.16,146.81,609.35Z"/><path class="cls-36" d="M175.82,609.17l.16-.08A38,38,0,0,1,174.55,620c-.21-3.83-3.59-.74-3.59-.74s-9.66-.22-14.78-.2c-3.13,0-2.91,3.29-2.26,5.83-.34-.44-.67-.9-1-1.37l-.37-.59c-.23-.36-.46-.73-.67-1.1-.11-.19-.23-.38-.33-.57-.29-.5-.56-1-.81-1.52-.11-.22-.22-.43-.32-.65s-.34-.71-.5-1.06l-.29-.63-.61-1.45-.23-.6c-.13-.32-.25-.64-.36-.94l-.21-.56c-.15-.43-.3-.84-.43-1.22,0-.14-.08-.27-.13-.4s-.18-.54-.25-.78l-.12-.38c-.09-.29-.17-.57-.24-.79l-.05-.17c0-.18-.09-.35-.12-.46l0-.1c0-.08-.05-.17-.05-.17C159.54,618.61,174.2,610.16,175.82,609.17Z"/><path class="cls-23" d="M149.76,611.88S155,625,162.61,625.45c10.94.71,12.15-15.14,12.15-15.14S159.88,618.52,149.76,611.88Z"/><path class="cls-37" d="M162.6,628.13c-.13.62-1.34.73-2.7.25s-2.36-1.36-2.23-2,1.34-.72,2.7-.24S162.73,627.52,162.6,628.13Z"/><path class="cls-38" d="M149.59,612a23.62,23.62,0,0,0,1.5,2.11,14.67,14.67,0,0,0,12.72,3.4c6.72-1.47,7.7-6.07,8-7.48v0S159,616.19,149.59,612Z"/><path class="cls-39" d="M157,615.06c7.85,1.24,12.64-1.51,13.82-2.3a9.4,9.4,0,0,0,.86-2.18,1.41,1.41,0,0,0-.22-.42c-2.06.92-13.4,5.64-21.9,1.83a23.62,23.62,0,0,0,1.5,2.11,15,15,0,0,0,9.24,3.7C155.09,616.77,150,614,157,615.06Z"/><path class="cls-31" d="M146.5,610.39a18,18,0,0,0,9.3.53c5.26-1,9.12-1.49,11.49.35,0,0,1.76-2.72,4.13-3a20.06,20.06,0,0,1,5.08.26S164.13,621.27,146.5,610.39Z"/><path class="cls-40" d="M146.5,610.39a18,18,0,0,0,9.3.53c5.26-1,9.12-1.49,11.49.35,0,0,1.76-2.72,4.13-3a20.06,20.06,0,0,1,5.08.26S164.13,621.27,146.5,610.39Z"/><path class="cls-37" d="M167.33,624.53a9,9,0,0,1-4.71.92c-3.57-.22-6.59-3.2-8.82-6.3A18.61,18.61,0,0,1,167.33,624.53Z"/><path class="cls-6" d="M165.45,632c.13,0-.12.91-.63,1.67a6.68,6.68,0,0,1-1.2,1.36,7.12,7.12,0,0,1-1.64.79c-.87.28-1.77.28-1.78.14s.8-.36,1.51-.77a8.89,8.89,0,0,0,1.33-.93,8.21,8.21,0,0,0,1.25-1C164.88,632.65,165.33,631.93,165.45,632Z"/><path class="cls-40" d="M153.76,611.21c1.77.82,5.3,1.84,11.46,1.42,5.88-.4,8-2.64,8.74-4.38a23.37,23.37,0,0,1,2.54.3s-12.37,12.72-30,1.84A17.7,17.7,0,0,0,153.76,611.21Z"/></g><path class="cls-38" d="M1642.81,800V497.33L1121.35,152.42,0,149.4V468.19l281.56,6.72a131.52,131.52,0,0,1,94,39.73L652.78,800l73.37-.07L395.62,463.63a81.43,81.43,0,0,0-60.38-27.07h-152a18.41,18.41,0,1,1,.64-9H335.24a90.21,90.21,0,0,1,66.87,30L738.26,800.07"/><path class="cls-41" d="M1305.28,594.37c-65.84,0-123.61-29.32-143.75-73l-147.65-320c-12.31-26.66-18.06-49.84-17.12-68.89.78-15.67,5.94-28.55,15.64-38.92a18.94,18.94,0,1,0-7.07-7c-11.43,12.13-17.66,27.33-18.56,45.46-1,20.67,5,45.43,18,73.57l147.65,320c21.74,47.11,83.16,78.76,152.83,78.76h337.53v-10Z"/><path class="cls-41" d="M1642.81,1.5H1183l-64.15,33.66c-53.28,28-75.57,77.51-55.22,122.75l144,320c20.35,45.24,78.71,75.86,144.56,75.86h290.71Z"/><g id="Capa_2-3" data-name="Capa 2"><g id="Capa_1-2" data-name="Capa 1-2"><text class="cls-42" transform="matrix(0.83, -0.32, 0.41, 0.91, 110.59, 118.21)">Caroline</text><text class="cls-43" transform="matrix(0.9, 0.02, -0.02, 1, 193.37, 111.65)">Sada</text></g></g><text class="cls-44" transform="translate(73.13 261.78)">Curso<tspan class="cls-45"><tspan x="0" y="100">Virtual</tspan></tspan></text><rect class="cls-3" x="1051.25" y="477.75" width="9.78" height="61.74"/><polygon class="cls-15" points="1298.54 448.21 1328.98 381.26 1324.13 379.62 1292.94 448.21 1298.54 448.21"/><polygon class="cls-16" points="1298.54 448.21 1328.81 381.64 1326.3 380.79 1295.64 448.21 1298.54 448.21"/><polygon class="cls-15" points="1353.83 448.21 1323.39 381.26 1328.24 379.62 1359.43 448.21 1353.83 448.21"/><polygon class="cls-16" points="1323.47 381.45 1353.83 448.21 1356.58 448.21 1325.86 380.64 1323.47 381.45"/><rect class="cls-15" x="1323.71" y="270.16" width="5.21" height="191.11"/><rect class="cls-16" x="1326.09" y="271.07" width="2.83" height="190.2"/><rect class="cls-38" x="1260.9" y="95.34" width="130.57" height="173.4"/><polygon class="cls-8" points="1274.54 256.28 1272.48 255.83 1286.57 190.65 1299.81 227.59 1318.75 124.53 1337.45 186.87 1351.82 151.5 1356.39 165.22 1372.98 134.63 1374.84 135.64 1355.92 170.51 1351.62 157.6 1337.15 193.22 1319.24 133.53 1300.47 235.7 1287.08 198.32 1274.54 256.28"/><polygon class="cls-15" points="1383.09 257.17 1268.96 257.17 1268.96 105.71 1271.08 105.71 1271.08 255.05 1383.09 255.05 1383.09 257.17"/><path class="cls-46" d="M1391.47,95.34H1260.9v7.53h106.95s8.13,70.72-24.37,109.91c-26.45,31.9-67.47,28.65-82.58,26.33v29.64h130.57Z"/><rect class="cls-31" x="1255.03" y="90.61" width="142.31" height="10.16" rx="3.47"/><path class="cls-37" d="M1391.2,94.79h-130c-.91,0-1.65-.52-1.65-1.16h0c0-.63.74-1.16,1.65-1.16h130c.91,0,1.65.53,1.65,1.16h0C1392.85,94.27,1392.11,94.79,1391.2,94.79Z"/><path class="cls-40" d="M1396,91.37v3.11c0,1.59-1.87,2.9-4.14,2.9h-134a5.14,5.14,0,0,1-2.76-.76v1.25c0,1.59,1.86,2.9,4.14,2.9h134c2.28,0,4.14-1.31,4.14-2.9V93.51A2.62,2.62,0,0,0,1396,91.37Z"/><rect class="cls-31" x="1255.03" y="262.88" width="142.31" height="10.16" rx="3.47"/><path class="cls-37" d="M1391.2,267.06h-130c-.91,0-1.65-.52-1.65-1.15h0c0-.64.74-1.16,1.65-1.16h130c.91,0,1.65.52,1.65,1.16h0C1392.85,266.54,1392.11,267.06,1391.2,267.06Z"/><path class="cls-40" d="M1396,263.64v3.11c0,1.6-1.87,2.91-4.14,2.91h-134a5.23,5.23,0,0,1-2.76-.76v1.24c0,1.6,1.86,2.9,4.14,2.9h134c2.28,0,4.14-1.3,4.14-2.9v-4.36A2.62,2.62,0,0,0,1396,263.64Z"/><ellipse class="cls-47" cx="1389.78" cy="443.99" rx="134.64" ry="23.48"/><path class="cls-5" d="M1377.77,170.49a65.93,65.93,0,0,0-6.26-15.22c-4-6.54-7.87-10.24-9.14-7.79s5.25,10.82,5.08,12.08-7.18,1.94-8.17,10.08,6,4,6,4-1.83,3.85,1.13,6.36C1369.78,182.86,1379.33,179,1377.77,170.49Z"/><path class="cls-6" d="M1364.73,168.09a9.67,9.67,0,0,0,2.48,1,9.07,9.07,0,0,0,1.13.23.91.91,0,0,0,.22,0,6.67,6.67,0,0,0-.74,1.39,5.52,5.52,0,0,0-.34,2,5.17,5.17,0,0,0,1.06,3,5.31,5.31,0,0,0,1.51,1.36,4.12,4.12,0,0,0,.64.32,4.29,4.29,0,0,1-.59-.39,5,5,0,0,1-1.32-1.45,5,5,0,0,1-.77-2.86,5.28,5.28,0,0,1,.41-1.77,6.33,6.33,0,0,1,1.7-2.22c-.44,0-1.22-.11-1.65-.19a8,8,0,0,1-1-.24,9.65,9.65,0,0,1-2.26-.95,1.89,1.89,0,0,1-1.2-1.91,2.36,2.36,0,0,1,1.41-1.74,7.18,7.18,0,0,1,4.36-.13,9.19,9.19,0,0,1,2.81,1.21,10.21,10.21,0,0,1,.92.68,7.75,7.75,0,0,0-.84-.78,8.73,8.73,0,0,0-2.77-1.52,7.35,7.35,0,0,0-4.77-.12,3.08,3.08,0,0,0-1.93,2.27,2.24,2.24,0,0,0,.33,1.66A3.73,3.73,0,0,0,1364.73,168.09Z"/><path class="cls-6" d="M1367.88,161a2.39,2.39,0,0,0,1,.86,2.27,2.27,0,0,0-.28-1.29,2.34,2.34,0,0,0-1-.86A2.31,2.31,0,0,0,1367.88,161Z"/><path class="cls-6" d="M1363.43,167.75a7.83,7.83,0,0,1-.55-4.32,5.24,5.24,0,0,1,.6-1.8l-.34.4a5.17,5.17,0,0,0-.67,1.29,6.51,6.51,0,0,0,.18,4.77,5.11,5.11,0,0,0,1.74,2.13,3.58,3.58,0,0,0,2.18.55,2.23,2.23,0,0,0,1.74-.92,1.62,1.62,0,0,1-.43.27,2.44,2.44,0,0,1-1.31.22,3.34,3.34,0,0,1-1.76-.71A5.35,5.35,0,0,1,1363.43,167.75Z"/><path class="cls-6" d="M1361.9,170.65a3.89,3.89,0,0,1-1.32-3.46,12.13,12.13,0,0,1,.19-1.73,7.3,7.3,0,0,0-.62,1.68,5,5,0,0,0-.09,2,3.4,3.4,0,0,0,1.32,2.19,4.22,4.22,0,0,0,4.4.35,3.94,3.94,0,0,0,1.09-.77,3.25,3.25,0,0,0,.32-.36,4.68,4.68,0,0,1-1.56.74A4.32,4.32,0,0,1,1361.9,170.65Z"/><path class="cls-6" d="M1364.06,173.54a5.51,5.51,0,0,1-1.47.55,4.57,4.57,0,0,1-.73.1,1.91,1.91,0,0,0,.71.33,2.68,2.68,0,0,0,1.89-.23,2.59,2.59,0,0,0,1.24-1.44,1.82,1.82,0,0,0,.12-.76,5.64,5.64,0,0,1-.48.54A6,6,0,0,1,1364.06,173.54Z"/><path class="cls-7" d="M1359.24,170.25c1.22.75,3.41-.32,3.44-1.4a19.43,19.43,0,0,1,.57-4.25c.24-.6,2.22-2.15,2.41-3.77,1-.53,1.73-.87,1.79-1.27.17-1.26-6.34-9.62-5.08-12.08a2,2,0,0,1,.26-.37c.71,3.84,10.29,17,12.16,16.31a.76.76,0,0,0,.45-.49,70.55,70.55,0,0,1,2.53,7.56,9.47,9.47,0,0,1,.14,2.22c-2,.12-2.82-5.92-3.52-6.65s-4.49-3.24-7.51-3.1a2.64,2.64,0,0,0-2.08,4.32c1,1,5.41,1.8,5.41,1.8s.94.17-.78,1.76,1.26,6.59,1.26,6.59a4.78,4.78,0,0,1-2.69-1.21c-.93-1-1.23-4-1.23-4l-1.59,1.48a1,1,0,0,0,.06-.15S1358.68,177.53,1359.24,170.25Z"/><path class="cls-13" d="M1453.23,163.31s-23.09,34.28-39.17,43-46.37-24.09-46.37-24.09,2.08-9.29,10.64-12c0,0,23.4,22.76,29.8,17.85s35.71-38.78,35.71-38.78S1440.66,151.49,1453.23,163.31Z"/><path class="cls-14" d="M1453.23,163.31s-23.09,34.28-39.17,43-46.37-24.09-46.37-24.09,2.08-9.29,10.64-12c0,0,23.4,22.76,29.8,17.85s35.71-38.78,35.71-38.78S1440.66,151.49,1453.23,163.31Z"/><path class="cls-14" d="M1371.07,175.37a1.17,1.17,0,0,1,.42.79c.21,3.4,20.17,24.91,26.23,19.09,3.11-3,3.31-5.91,2.78-8.06,2.49,1.2,4.72,1.8,6.36,1.42,1.09,3.68,5.59,14.32,18,1.1,13.32-14.15,12.43-31.19,13.58-31,4,.67,5.71,8.09,5.84,16.92-8.2,10.74-20.5,25.39-30.24,30.66-16.08,8.7-46.37-24.09-46.37-24.09A19.35,19.35,0,0,1,1371.07,175.37Z"/><g class="cls-12"><path class="cls-13" d="M1406.26,193a5.8,5.8,0,0,0,1.32,2.75,4.75,4.75,0,0,0,1,.83,6.34,6.34,0,0,1-.78-1,7.33,7.33,0,0,1-1.06-2.69,7.16,7.16,0,0,1,.07-2.89,6.8,6.8,0,0,1,.4-1.16,4.34,4.34,0,0,0-.6,1.1A5.58,5.58,0,0,0,1406.26,193Z"/><path class="cls-13" d="M1404.31,192.32a4.9,4.9,0,0,0,.22,2.36,3.8,3.8,0,0,0,.43.88,7.32,7.32,0,0,1,.91-6.15,3.81,3.81,0,0,0-.66.72A4.94,4.94,0,0,0,1404.31,192.32Z"/><path class="cls-13" d="M1437.58,173.79c.39,5.45.93,9.84.93,9.84s-.11-4.42-.5-9.87c-.23-2.71-.43-5.17-.57-6.95a8.24,8.24,0,0,1,.28-2.85,7.59,7.59,0,0,0-.5,2.86C1437.22,168.62,1437.4,171.07,1437.58,173.79Z"/><path class="cls-13" d="M1435.77,177.68a26,26,0,0,0,2.29,4.3s-.85-2-1.89-4.47l-1.87-4.46A26.11,26.11,0,0,0,1435.77,177.68Z"/></g><path class="cls-15" d="M1482.34,435.7s0,.16,0,.45c0,2.35.13,13-1.3,14-1.61,1.11-1.08-12.4-1.08-12.4"/><path class="cls-16" d="M1482.34,435.7s0,.16,0,.45c0,2.35.13,13-1.3,14-1.61,1.11-1.08-12.4-1.08-12.4"/><path class="cls-5" d="M1488.87,324.83l-6.22,22.27s14.69,11.19-.93,81.67c-.55,2.45,1,5.36.62,7.83-.71,5.46-4.28,12.2-8.2,16.09-1.84,1.82-11.56,6-9.48.55,3.41-9,5.74-11.44,8.31-17.81,1.91-4.74,1.25-7.31.85-12.47-.89-11.42-1.93-22.83-2.82-34.25-1-13.24-2.13-26.66-4.42-39.75-2.15-12.28-3.06-33.89,1.16-52.86S1498.58,261.12,1488.87,324.83Z"/><path class="cls-7" d="M1469.65,442.35a3,3,0,0,0,2.31,2c5.46.52,9.92-20.7,12.34-42.21s-.66-44.54-6.93-49.45c-4.19-3.29-7.88-.36-9.88,1.94q-.42-2.85-.91-5.68c-2.15-12.28-3.06-33.89,1.16-52.86,1.67-7.54,6.88-14.6,12-16.39a61.49,61.49,0,0,1,10,8.33c1.77,7,2,18.65-.81,36.79l-6.22,22.27s14.69,11.19-.93,81.67c-.55,2.45,1,5.36.62,7.83-.71,5.46-4.28,12.2-8.2,16.09-1.84,1.82-11.56,6-9.48.55A82.89,82.89,0,0,1,1469.65,442.35Z"/><path class="cls-15" d="M1468.74,444.08c-1.58,4.25.1,5.59,2.93,4.52,7.38-2.81,9.78-18.38,9.78-18.38l.16-.08c.06,2.12,1,4.44.73,6.46-.71,5.46-4.28,12.2-8.2,16.09-1.84,1.82-11.56,6-9.48.55A79.38,79.38,0,0,1,1468.74,444.08Z"/><path class="cls-5" d="M1474,341.5a1,1,0,1,0,1-1A1,1,0,0,0,1474,341.5Z"/><path class="cls-5" d="M1470.8,345.43a1.75,1.75,0,1,0,1.7-1.8A1.75,1.75,0,0,0,1470.8,345.43Z"/><g class="cls-30"><path class="cls-15" d="M1466.8,453.31c0,.18,1.77,0,3.42-.62a14.65,14.65,0,0,0,3.09-1.68,15,15,0,0,0,2.35-2.62c1-1.45,1.56-3.11,1.4-3.18s-1,1.41-2.11,2.62a16.2,16.2,0,0,1-2.43,2.18,17.16,17.16,0,0,1-2.68,1.86C1468.4,452.68,1466.77,453.14,1466.8,453.31Z"/></g><path class="cls-16" d="M1474.14,452.69c-1.73,1.71-10.43,5.55-9.73,1.42.66,2.3,4.36,1.21,8-1.38,5.37-3.86,9-14.31,8.74-14.94s-2.71,3.5-3.47,4.84a3,3,0,0,0-.2.38v-.35a45.15,45.15,0,0,0,4-12.44l.16-.08c.06,2.12,1,4.44.73,6.46C1481.63,442.06,1478.06,448.8,1474.14,452.69Z"/><path class="cls-5" d="M1410.67,431.61a17.69,17.69,0,0,0,.58-4.7l9-.75c-.49,2.21-.87,3.76-1.07,4.41,0,0-.1,2.94-.31,6.64-.32,5.38-.88,12.37-1.74,14.2-1.46,3.1-1.28-10.56-1.28-10.56s-5,10.69-8,11.78-13.63.13-14.19-1.9S1402,452.39,1410.67,431.61Z"/><path class="cls-7" d="M1403.54,444a3.45,3.45,0,0,0,1.81.34c4.54-.2,8.16-7.12,11.15-17.83l3.72-.31c-.49,2.21-.87,3.76-1.07,4.41,0,0-.1,2.94-.31,6.64-.09,1.49-.2,3.11-.32,4.71-.92,1.21-1.83,2.35-2.68,3.39,0-2.36,0-4.46,0-4.46s-3.55,7.65-6.49,10.67c-1.07.43-2.57,1-4.29,1.53-4.3.21-11-.72-11.41-2.32S1397.73,450.77,1403.54,444Z"/><path class="cls-15" d="M1401.06,446.47c-.44,1.53.75,1.71,5.2-.24,6.47-2.84,12.89-15.66,12.89-15.66s-.1,2.94-.31,6.64c-.32,5.38-.88,12.37-1.74,14.2-1.46,3.1-1.28-10.56-1.28-10.56s-5,10.69-8,11.78-13.63.13-14.19-1.9C1393.29,449.49,1396.51,450.39,1401.06,446.47Z"/><g class="cls-30"><path class="cls-15" d="M1399.62,451.27a6.81,6.81,0,0,0,3.46-.31,14.83,14.83,0,0,0,3.23-1.39,14.67,14.67,0,0,0,2.58-2.39c1.14-1.36,1.84-3,1.68-3s-1.11,1.31-2.33,2.41a17,17,0,0,1-2.63,1.95,16.27,16.27,0,0,1-2.83,1.61C1401.27,450.78,1399.61,451.09,1399.62,451.27Z"/></g><path class="cls-16" d="M1394.43,449.94c.91,1.27,4.65,3.2,10.46,1.91,6.77-1.51,10.46-13.64,10.46-13.64-8.34,12.05-14.22,10.57-14.79,9.93a1.35,1.35,0,0,1,0-1.26c.16-.14.33-.26.5-.41-.44,1.53.75,1.71,5.2-.24,6.47-2.84,12.89-15.66,12.89-15.66s-.1,2.94-.31,6.64c-.32,5.38-.88,12.37-1.74,14.2-1.46,3.1-1.28-10.56-1.28-10.56s-5,10.69-8,11.78-13.63.13-14.19-1.9C1393.52,450.31,1393.82,450.14,1394.43,449.94Z"/><path class="cls-15" d="M1479.34,231.69s14.11,19.67,16.54,44.45-7.78,67.54-7.78,67.54,13.12,36.93-.48,90.86c0,0-15.82,8.11-24.15-.22,0,0,6.17-48.37-.15-84.32a243.47,243.47,0,0,1-1.94-67.54s-10.2,43.73-13.6,63.16c0,0,4.12,39.55-22,87.25,0,0-17.36,6-26.59-1.25,0,0,18.07-38.5,24.78-85,0,0-1-86.48,15.06-112.72C1439,233.87,1474,228.05,1479.34,231.69Z"/><path class="cls-16" d="M1479.34,231.69s14.11,19.67,16.54,44.45-7.78,67.54-7.78,67.54,13.12,36.93-.48,90.86c0,0-15.82,8.11-24.15-.22,0,0,6.17-48.37-.15-84.32a243.47,243.47,0,0,1-1.94-67.54s-10.2,43.73-13.6,63.16c0,0,4.12,39.55-22,87.25,0,0-17.36,6-26.59-1.25,0,0,18.07-38.5,24.78-85,0,0-1-86.48,15.06-112.72C1439,233.87,1474,228.05,1479.34,231.69Z"/><path class="cls-17" d="M1487.71,345s-.5,2.37-.93,4.76c-.22,1.19-.44,2.38-.6,3.28a9,9,0,0,1-.32,1.49,7.61,7.61,0,0,1,.08-1.53c.08-.9.23-2.11.39-3.32.33-2.41.76-4.8.76-4.8s.49-2.38,1.09-4.74c.3-1.18.61-2.35.87-3.23a7.71,7.71,0,0,1,.5-1.44,8.56,8.56,0,0,1-.25,1.5c-.19.89-.43,2.08-.68,3.27C1488.14,342.58,1487.71,345,1487.71,345Zm.2-.86a39.54,39.54,0,0,0,0,10,39.54,39.54,0,0,0,0-10Zm-45.75,15.58a5.47,5.47,0,0,0-.33,1.35,6.32,6.32,0,0,0,.56-1.28l1.09-2.87c.76-2.09,1.53-4.18,1.53-4.18l1.34-4.25c.33-1.06.65-2.13.9-2.93a6.9,6.9,0,0,0,.33-1.36,6.71,6.71,0,0,0-.57,1.27c-.29.79-.69,1.83-1.08,2.87l-1.53,4.19s-.67,2.13-1.35,4.25C1442.72,357.82,1442.4,358.89,1442.16,359.69ZM1446,351s-1.1,5.56-.93,5.6,1.56-5.46,1.56-5.46,1.1-5.56.93-5.6S1446,351,1446,351Zm-22-1.31s.13,2.17.38,4.33a28.06,28.06,0,0,0,.7,4.28c.09,0-.12-2.16-.25-4.32s-.19-4.32-.19-4.32-.14-2.15-.2-4.31-.06-4.33-.15-4.33a27.09,27.09,0,0,0-.3,4.33C1423.91,347.5,1424,349.67,1424,349.67Zm27.81-74.87a11.66,11.66,0,0,0,1.76,2.75,25.71,25.71,0,0,0,2.2,2.44,26.4,26.4,0,0,0,2.59,2,12.16,12.16,0,0,0,2.87,1.56c0-.08-1.34-.93-2.61-1.93s-2.42-2.11-2.42-2.11-1.2-1.07-2.28-2.27S1451.86,274.75,1451.79,274.8Zm13.92-3.34a7.53,7.53,0,0,0-2.36,1.7,12.5,12.5,0,0,0-1.82,2.3,12.71,12.71,0,0,0-1.09,2.73,7.48,7.48,0,0,0-.29,2.89c.09,0,.24-1.43.72-2.76a14.12,14.12,0,0,1,1.21-2.54,13.84,13.84,0,0,1,1.6-2.31C1464.6,272.38,1465.76,271.54,1465.71,271.46Zm-5,10.78a20.25,20.25,0,0,1,1.44-2.44,13.65,13.65,0,0,1,2-2,26.3,26.3,0,0,1,2.21-1.78,23.29,23.29,0,0,0,2.32-1.7,13.25,13.25,0,0,0-2.57,1.32,22.53,22.53,0,0,0-2.38,1.68,12.48,12.48,0,0,0-1.92,2.22A6.17,6.17,0,0,0,1460.66,282.24Zm18.8-36.38a1.45,1.45,0,0,0-.22-.33,2.06,2.06,0,0,0,.17.36l.53,1c.24.42.5,1,.8,1.55s.64,1.29,1,2.05a69,69,0,0,1,4,11.48,87.64,87.64,0,0,1,2.16,12c.19,1.65.29,3,.36,4l.1,1.52s.16,2.21.23,5.54,0,7.76-.22,12.2-.59,8.86-.86,12.18c-.14,1.66-.25,3.05-.33,4,0,.48-.06.86-.08,1.12a2,2,0,0,0,0,.4,2.13,2.13,0,0,0,.07-.39c0-.26.08-.64.14-1.12.11-1,.26-2.35.44-4,.36-3.32.78-7.75,1.07-12.19s.41-8.89.36-12.23-.18-5.56-.18-5.56l-.11-1.53c-.08-1-.2-2.36-.41-4a85.62,85.62,0,0,0-2.3-12,65.53,65.53,0,0,0-4.26-11.47c-.35-.76-.71-1.44-1-2s-.6-1.12-.86-1.54Zm3.81,96.73a16.65,16.65,0,0,0-.26,2.29,2.81,2.81,0,0,0,.17-.61c.08-.39.21-1,.34-1.64.26-1.35.57-3.17.86-5,.57-3.64,1-7.3,1-7.3s.34-3.67.51-7.35c.08-1.84.13-3.68.14-5.07,0-.69,0-1.26,0-1.66a2.55,2.55,0,0,0,0-.64,19.26,19.26,0,0,0-.19,2.3c-.1,1.37-.23,3.21-.35,5-.29,3.66-.69,7.31-.69,7.31s-.33,3.66-.78,7.31Zm-.1,85.53a1.85,1.85,0,0,0,0,.42,2.13,2.13,0,0,0,.11-.41c0-.27.14-.66.25-1.16.19-1,.48-2.43.82-4.14.67-3.44,1.52-8,2.24-12.64s1.31-9.24,1.61-12.74.42-5.82.42-5.82.12-2.34.11-5.85a104.57,104.57,0,0,0-.84-12.82,80.46,80.46,0,0,0-2.68-12.55c-.25-.85-.5-1.61-.74-2.28s-.43-1.26-.62-1.73l-.44-1.1a2.17,2.17,0,0,0-.17-.39,2.13,2.13,0,0,0,.11.41c.09.26.21.64.37,1.12s.36,1.07.57,1.75.45,1.44.68,2.29A85.08,85.08,0,0,1,1487.4,373a105,105,0,0,1,.7,12.77c0,3.48-.16,5.81-.16,5.81s-.08,2.32-.36,5.8-.8,8.11-1.47,12.73-1.45,9.2-2,12.65c-.3,1.73-.54,3.16-.71,4.17C1483.28,427.45,1483.22,427.85,1483.17,428.12Z"/><path class="cls-16" d="M1463.47,434.32s.69-5.42,1.37-14c2,3.48,4.81,5.91,8.86,5.36,12.09-1.67,13.34-48.8,8.76-60.48-3.69-9.38-13.55-3.7-17.3-1.1-.44-4.83-1-9.59-1.84-14.14-.92-5.27-1.61-10.44-2.13-15.44,5,9.79,17.56,14.9,24.8-18.3,9-41.06-10.65-76.63-10.21-78.24a16.6,16.6,0,0,1,3.13-6.56,3.45,3.45,0,0,1,.43.23s14.11,19.67,16.54,44.45-7.78,67.54-7.78,67.54,13.12,36.93-.48,90.86C1487.62,434.54,1471.8,442.65,1463.47,434.32Z"/><path class="cls-16" d="M1405.6,416.09c3.05,7.45,11.12,8.77,20.06-4.74,11.87-18,13.08-47.78,5.48-50.52-3.56-1.28-7.51,1.76-10.72,5.36,1.36-6.3,2.58-12.86,3.55-19.6,0,0-.13-11.37.47-27.11,1.48,11.08,4.7,24,11.56,20.36,11.57-6.09,16.13-63.3,16.13-63.3,1.16.58,8.3,6.39,9,7-1.57,6.77-10.28,44.46-13.36,62.11,0,0,4.12,39.55-22,87.25,0,0-17.36,6-26.59-1.25C1399.19,431.62,1401.89,425.85,1405.6,416.09Z"/><g class="cls-48"><path class="cls-15" d="M1463.91,333.09a19,19,0,0,0-.31-3.21c-.23-1.92-.49-4.48-.68-7.05-.36-5.13-.25-10.26-.25-10.26s-.05-5.13.37-10.26c.22-2.56.51-5.12.76-7a17.7,17.7,0,0,0,.34-3.22,17.41,17.41,0,0,0-.83,3.13c-.41,1.9-.83,4.46-1.17,7-.66,5.14-.74,10.34-.74,10.34s0,5.2.62,10.36c.31,2.57.7,5.13,1.09,7A15.89,15.89,0,0,0,1463.91,333.09Z"/><path class="cls-15" d="M1434,255.17a.35.35,0,1,0,0-.38.34.34,0,1,0,0,.38Z"/><path class="cls-15" d="M1428.67,315.81a36.36,36.36,0,0,0,.17-4.55c0-2.74.12-6.38.26-10,.29-7.28.93-14.52.93-14.52s.48-7.26,1.33-14.49c.42-3.62.9-7.23,1.28-9.93a37.42,37.42,0,0,0,.54-4.53,5.18,5.18,0,0,0-.34,1.21c-.18.78-.44,1.89-.69,3.24-.54,2.68-1.15,6.28-1.69,9.89-1.08,7.23-1.7,14.51-1.7,14.51s-.51,7.29-.56,14.6c0,3.65,0,7.3.14,10,0,1.37.12,2.51.18,3.31A4.69,4.69,0,0,0,1428.67,315.81Z"/><path class="cls-15" d="M1427.5,325.41c.36,0,.41-3.31.41-3.31s-.52-3.24-.87-3.21-.41,3.31-.41,3.31S1427.15,325.43,1427.5,325.41Z"/><path class="cls-15" d="M1468.44,410.61A21.86,21.86,0,0,0,1469,407c.23-2.16.48-5,.67-7.91.38-5.76.46-11.54.46-11.54s0-5.78-.38-11.54c-.17-2.89-.4-5.76-.62-7.92a21.53,21.53,0,0,0-.5-3.57,22.46,22.46,0,0,0,0,3.6c.05,2.16.13,5,.2,7.92.11,5.75,0,11.5,0,11.5s.06,5.75-.09,11.51c-.09,2.88-.19,5.75-.26,7.91A22.9,22.9,0,0,0,1468.44,410.61Z"/><path class="cls-15" d="M1412.35,407.25a17.66,17.66,0,0,0,1.38-3.06c.76-1.87,1.68-4.39,2.54-6.94,1.72-5.09,3.08-10.3,3.08-10.3s1.25-5.24,2.12-10.54c.44-2.65.81-5.31,1-7.31a16.94,16.94,0,0,0,.22-3.36A20.75,20.75,0,0,0,1422,369c-.36,2-.87,4.61-1.42,7.22-1.09,5.24-2.47,10.4-2.47,10.4s-1.21,5.2-2.7,10.34c-.75,2.57-1.54,5.13-2.14,7A19.36,19.36,0,0,0,1412.35,407.25Z"/></g><path class="cls-16" d="M1435.4,235.3a29.05,29.05,0,0,1,3.28-4.13c20.4-21.08,38.08-2,38.08-2a28.39,28.39,0,0,1,2.58,2.56l-19.14,11.88-8.16-8.16-9.52,6.12Z"/><path class="cls-13" d="M1429.15,185.71c.57-6.92,3.95-13.26,6.5-19.59,1.93-4.81,4.07-13.59,8.38-17,4-3.13,26.51-.54,26.51-.54s17.22,6.35,17.78,9.1-8.85,28.44-10.69,38.14-4.61,25.78-4.61,25.78l7.14,7.48-19.72,12.24-8.16-8.16-9.52,6.12-8.84-7.73s5.34-5.1,6.63-9.44c-1-4-2.62-17.52-6.2-22.52C1431.12,195.13,1428.68,191.32,1429.15,185.71Z"/><path class="cls-14" d="M1475.45,232.05a14.56,14.56,0,0,0-2.27-3.8c-3.09-3.7-9.51-1.48-11.55-.65,3.87-2.19,7.79-14,6.74-18.93-1.11-5.18-12.93-4.81-21.8-3.7a14.32,14.32,0,0,0-8.68,4.06c-.9-3.74-2.05-7.31-3.54-9.39-3.23-4.51-5.67-8.32-5.2-13.93a27.74,27.74,0,0,1,.74-4.45c.44,3.27,1.14,6.53,2.27,7.82,2.59,3,4.81.37,14.78,3s16.63,1.48,23.65-7c5.65-6.84,9.13-18,10.27-22,1.32,1,2.76,3.65,4.22,7.36-2.74,8.81-6.38,19.87-7.45,25.52-1.84,9.7-4.61,25.78-4.61,25.78l7.14,7.48Z"/><path class="cls-5" d="M1469.36,141.17s1.14,11.56-3.41,13.6-9.67,2-11.38-2.72,0-11.56,0-11.56S1468.79,138.45,1469.36,141.17Z"/><path class="cls-7" d="M1456.67,154.94c7.33-1.1,11.85-9.53,9.41-8.31s-9.66.26-12.26-.15a30,30,0,0,1,.75-6s14.22-2,14.79.68c0,0,1.14,11.56-3.41,13.6C1462.65,156.25,1459.05,156.65,1456.67,154.94Z"/><g class="cls-18"><g class="cls-19"><path class="cls-20" d="M1444,197c.13,1.93.4,4.5.79,7.05s.92,5.08,1.37,7,.8,3.13.8,3.13.35,1.24,1,3.08,1.51,4.25,2.28,6.7a31.67,31.67,0,0,1,1.44,6.87,20.82,20.82,0,0,1,0,2.32,5.52,5.52,0,0,0,0,.89,3.8,3.8,0,0,0,.15-.88,15.79,15.79,0,0,0,.08-2.34,29.65,29.65,0,0,0-1.25-7c-.72-2.49-1.58-4.91-2.15-6.75s-.91-3.07-.91-3.07-.37-1.23-.85-3.1-1-4.36-1.5-6.89c-.73-4.12-1.56-8.39-.7-12.56.18-.86.44-1.71.7-2.55a64.71,64.71,0,0,1,2.22-7.17,228.93,228.93,0,0,0,9.79-26.06c-1,3.07-2.53,6.07-3.73,9.06q-1.92,4.8-3.75,9.61c-2.28,5.95-4.78,11.95-5.75,18.29A20.23,20.23,0,0,0,1444,197Z"/></g><g class="cls-19"><path class="cls-13" d="M1452,200a7.57,7.57,0,0,0,1.58.52,19.34,19.34,0,0,0,3.62.49,21,21,0,0,0,3.65-.24c.5-.06.91-.17,1.19-.22l.46-.09.44-.14c.27-.09.68-.19,1.15-.38a21.66,21.66,0,0,0,3.32-1.55,18.89,18.89,0,0,0,2.93-2.17,7.91,7.91,0,0,0,1.14-1.21,12.06,12.06,0,0,0-1.3,1,19.77,19.77,0,0,1-6.29,3.36c-.45.17-.85.24-1.12.33l-.43.12-.44.1c-.28.06-.66.18-1.15.25a20,20,0,0,1-7.12.08A14.13,14.13,0,0,0,1452,200Z"/></g><g class="cls-19"><path class="cls-13" d="M1469.65,224.42a3.53,3.53,0,0,0,1.4-.94,5.49,5.49,0,0,0,1.75-2.88,3.41,3.41,0,0,0,.18-1.67c-.09,0-.27.78-.61,1.52a9.18,9.18,0,0,1-.77,1.39,9.36,9.36,0,0,1-.88,1.33C1470.22,223.81,1469.6,224.34,1469.65,224.42Z"/></g><g class="cls-19"><path class="cls-13" d="M1442.77,225.72c.06-.07-.58-.75-1-1.55a9.15,9.15,0,0,1-.71-1.65,9,9,0,0,1-.48-1.74c-.15-.9-.07-1.83-.16-1.85a3.86,3.86,0,0,0-.29,1.89,8,8,0,0,0,.33,1.91,7.85,7.85,0,0,0,.93,1.69A3.92,3.92,0,0,0,1442.77,225.72Z"/></g><g class="cls-19"><path class="cls-13" d="M1431.83,196.38a4.85,4.85,0,0,0,1.27,1.32,8.36,8.36,0,0,0,3.18,1.79,4.92,4.92,0,0,0,1.78.4,10.49,10.49,0,0,0-1.6-.82c-.8-.39-1.55-.86-1.55-.86s-.79-.4-1.55-.88A10.92,10.92,0,0,0,1431.83,196.38Z"/></g></g><path class="cls-14" d="M1458,156.51s-6.86,6.34-8.18,2.91c0-.08,0-.16-.06-.23a55,55,0,0,1,4-9.91,5.75,5.75,0,0,0,5,5.05c4.56.65,8.3-2.42,9.79-5.73.49,2.5,1.87,11.28-5.29,14.39C1462.36,163.41,1460.34,162.58,1458,156.51Z"/><path class="cls-13" d="M1469.41,145.57c.11-.83,2.76,8.21-5.16,16.13,0,0-2.64,2.91-6.08-6.07,0,0-6.86,6.34-8.18,2.91s3.83-12.06,3.83-12.06-.39,6.18,5.16,7S1468.88,149.53,1469.41,145.57Z"/><path class="cls-21" d="M1469.41,145.57c.11-.83,2.76,8.21-5.16,16.13,0,0-2.64,2.91-6.08-6.07,0,0-6.86,6.34-8.18,2.91s3.83-12.06,3.83-12.06-.39,6.18,5.16,7S1468.88,149.53,1469.41,145.57Z"/><path class="cls-14" d="M1450,157.38c1.32,3.44,8.18-2.9,8.18-2.9,3.44,9,6.08,6.07,6.08,6.07a18.38,18.38,0,0,0,5.66-12.38,18.13,18.13,0,0,1-5.66,13.53s-2.64,2.91-6.08-6.07c0,0-6.86,6.34-8.18,2.91a4.52,4.52,0,0,1-.18-1.92A3.52,3.52,0,0,0,1450,157.38Z"/><g class="cls-22"><path class="cls-13" d="M1432.56,180.6a8.68,8.68,0,0,0,.43-1.85,32.16,32.16,0,0,1,1.13-3.95c.49-1.41,1.06-2.81,1.49-3.86l.7-1.75s4-11.46,3.62-11.58-4.82,11.13-4.82,11.13-.24.72-.61,1.79-.85,2.52-1.24,4a22.93,22.93,0,0,0-.76,4.14A4.84,4.84,0,0,0,1432.56,180.6Z"/><path class="cls-13" d="M1432.35,186.21c.35-.05.41-1.75.41-1.75s-.51-1.62-.86-1.57-.41,1.75-.41,1.75S1432,186.26,1432.35,186.21Z"/><path class="cls-13" d="M1444.3,225c.14-.12-.86-1.56-1.57-3.12a22.81,22.81,0,0,1-1.18-3.21,22.48,22.48,0,0,1-.94-3.28c-.36-1.68-.4-3.43-.58-3.44s-.45,1.75-.32,3.56a12.57,12.57,0,0,0,2.23,6.8A8,8,0,0,0,1444.3,225Z"/><path class="cls-13" d="M1442,236c.21-.28-5.28-4.94-5.28-4.94l-.14-.1h0a0,0,0,0,1,0,0s0,0,0-.06l.35-.28a14.83,14.83,0,0,0,1.55-1.46,5.83,5.83,0,0,0,1.56-2.29,17,17,0,0,0-2.1,1.71c-.55.43-1.13.85-1.64,1.17l-1,.59-.92.54,1.52,1.22S1441.82,236.27,1442,236Z"/></g><path class="cls-5" d="M1497.65,101c.51-14.4-5.44-37.77-35.76-38-30.49-.22-35.11,33.22-35.11,33.22s-3.17,12.3-2.81,21.71,5.26,23.38,27.09,25.62,38.65-6.93,42.58-20.35a11.18,11.18,0,0,0,10.3-9C1505.46,108,1502.08,101.76,1497.65,101Z"/><g class="cls-18"><path class="cls-5" d="M1497.65,101a46.13,46.13,0,0,0-1.77-14.5,37.32,37.32,0,0,0-4.94-10.35c4.38,7.35,5.14,18.38,4.91,25.08a16.91,16.91,0,0,0,1.91-.21Z"/><path class="cls-5" d="M1501.63,103.46a12.81,12.81,0,0,1,.9,8.63,11.18,11.18,0,0,1-10.3,9c-3.92,13.42-20.74,22.59-42.57,20.35-11.5-1.18-18.3-5.61-22.21-10.92,3.6,6.22,10.59,11.73,23.61,13.06,21.84,2.24,38.65-6.93,42.58-20.35a11.18,11.18,0,0,0,10.3-9A12.42,12.42,0,0,0,1501.63,103.46Z"/></g><path class="cls-6" d="M1499.23,117.58a2.07,2.07,0,0,1-.89,1.78,1.51,1.51,0,0,1-.9.32,1.45,1.45,0,0,1-1.1-.51,2.58,2.58,0,0,1-.67-1.35,1.88,1.88,0,0,1,.47-1.65,5.06,5.06,0,0,1,.93-.61,1.4,1.4,0,0,0,.45-.56,2,2,0,0,0,.12-1.33.91.91,0,0,0-.67-.69.64.64,0,0,0-.26-.08.79.79,0,0,0-.3,0,.47.47,0,0,0-.15.06l-.09.06-.23.34c-.34.51-.61.64-.94.65a.83.83,0,0,1-.57-.25,1.27,1.27,0,0,1-.32-.61,8.38,8.38,0,0,1-.16-1.88A9.41,9.41,0,0,1,1494,110a7.46,7.46,0,0,1,.67-2.42A4.1,4.1,0,0,1,1496,106c.93-.67,1.7-.47,1.69-.36s-.66.22-1.34,1a5.46,5.46,0,0,0-1.24,3.57,10.73,10.73,0,0,0,0,1.13c0,.37,0,.28.06.37s.15,0,.14-.08v0l.19-.17a2,2,0,0,1,.43-.23,1.91,1.91,0,0,1,.73-.12,1.86,1.86,0,0,1,.64.11,2,2,0,0,1,.6.34,2.91,2.91,0,0,1,1.06,1.75,3.78,3.78,0,0,1-.41,2.63,2.5,2.5,0,0,1-.94.94,7.41,7.41,0,0,0-.81.38.48.48,0,0,0-.19.47,1.42,1.42,0,0,0,.27.72.87.87,0,0,0,1.16.28C1498.85,118.32,1499.13,117.5,1499.23,117.58Z"/><path class="cls-26" d="M1500.6,106.07c.63.64,1.35.83,1.62.42s0-1.25-.66-1.9-1.36-.83-1.63-.42S1500,105.43,1500.6,106.07Z"/><path class="cls-26" d="M1498.22,102.94a.73.73,0,0,0,.31.82.45.45,0,0,0,.68-.23.71.71,0,0,0-.31-.82A.45.45,0,0,0,1498.22,102.94Z"/><path class="cls-27" d="M1456.06,119s-4,1-9.14-2.67c0,0-2.61,1.58,1.95,3.42C1454.94,122.22,1456.06,119,1456.06,119Z"/><path class="cls-6" d="M1453.42,120.27c0-.1-.79.16-1.92,0a11.69,11.69,0,0,1-3.9-1.4,2.4,2.4,0,0,1-1.23-1.37,1.15,1.15,0,0,1,.55-1.17,2.93,2.93,0,0,1,1.08-.45,3.09,3.09,0,0,1,.45-.07,4.6,4.6,0,0,1,1.09,0,5.44,5.44,0,0,1,1.28.23,4.77,4.77,0,0,1,.78.3,15,15,0,0,1,1.67,1.08c0-.66,0-1.39,0-2.14,0-.42,0-.85,0-1.29,0-.88,0-1.79,0-2.6a11.73,11.73,0,0,0-.23-2.89,12.08,12.08,0,0,0-.39,2.87c-.06.81-.13,1.72-.2,2.61,0,.44-.06.88-.09,1.3,0,.12,0,.16-.06.18a1.11,1.11,0,0,0-.16-.12,6.58,6.58,0,0,0-.92-.4,6.74,6.74,0,0,0-1.54-.35,6.15,6.15,0,0,0-1.33,0,4.32,4.32,0,0,0-.61.12,4.07,4.07,0,0,0-1.49.74,2.6,2.6,0,0,0-.76.94,2.16,2.16,0,0,0-.12,1.4,3.34,3.34,0,0,0,1.83,1.92,10.79,10.79,0,0,0,4.31,1.11A2.92,2.92,0,0,0,1453.42,120.27Z"/><path class="cls-26" d="M1449.35,116.62c-.12.29.28.74.9,1s1.22.24,1.35,0-.28-.74-.9-1S1449.48,116.33,1449.35,116.62Z"/><path class="cls-7" d="M1472.19,115.92c4.52.2,8.08,2.71,8,5.59s-3.89,5-8.41,4.85-8.08-2.7-8-5.58S1467.67,115.72,1472.19,115.92Zm-46.22-.23c-.64,2.81,2.38,5.91,6.74,6.92s8.41-.46,9-3.27-2.37-5.91-6.73-6.92S1426.61,112.88,1426,115.69Z"/><path class="cls-28" d="M1469.52,96.75c.08.16.84,0,1.57.06a8.92,8.92,0,0,1,2.74.7c.68.28,1.26.8,1.4.7s-.22-.88-.9-1.46a3.84,3.84,0,0,0-3.31-.85C1470.14,96.08,1469.43,96.6,1469.52,96.75Z"/><path class="cls-28" d="M1441.22,94.09c-.1.14-.82-.15-1.55-.19a9,9,0,0,0-2.83.25c-.71.17-1.36.59-1.49.47s.36-.84,1.13-1.3a3.82,3.82,0,0,1,3.4-.3C1440.72,93.33,1441.33,94,1441.22,94.09Z"/><path class="cls-7" d="M1429.67,91.36c3.07-9.77,11.37-26.53,32.24-26.38,29.26.22,35,23.59,34.52,38,4.27.75,7.53,7,6.06,13.23-2.11,8.91-9.94,9-9.94,9-1.67,5.92-5.77,11-11.64,14.67a46,46,0,0,0,2.9-6.63c4-11.56,6.77-29.26-1-39.82a15.79,15.79,0,0,0-2.09-2.33,49.22,49.22,0,0,0-4.76-3.63c-2.75-2-3.78-5.32-6.82-7.08-5.43-3.16-12.8-.86-16.25,4.31C1446.94,93.63,1431,91.54,1429.67,91.36Z"/><path class="cls-28" d="M1481.72,89.69a16.41,16.41,0,0,1,2.09,2.34c7.72,10.56,5,28.26,1,39.81-1.76,5.06-4.55,10.63-8.61,14.15,0,0,24.09-4,30.9-13.15s6.44-49-2.76-60.22-16-8.19-16-8.19-7.36-12.77-28.88-11.44-30.91,19.25-34.59,26.49-8.92,33.72-6.25,51.84c.83,5.62,12.51,11.24,12.51,11.24s-11.77-21.53-.55-52.6c0,0,17.1,2.67,23.36-6.67,3.46-5.16,10.83-7.46,16.25-4.3,3,1.76,4.07,5.1,6.82,7.08A46.48,46.48,0,0,1,1481.72,89.69Z"/><path class="cls-16" d="M1472.61,65.63c-.59-.52-1-.88-1-.88S1472.05,65.08,1472.61,65.63Z"/><path class="cls-16" d="M1495.7,68.11c-.54,2.24,3.78,7.84,3.78,7.84s-7.3-5.32-10-4.76,2.16,8.4,2.16,8.4-7.29-6.44-10.54-2.8c-2.26,2.55-.7,9.06.45,12.75a53.5,53.5,0,0,0-4.59-3.47c-2.75-2-3.78-5.32-6.82-7.08a3.41,3.41,0,0,0-.33-.17c1.83-.36,3-1.17,1.83-2.87a17.43,17.43,0,0,0-7-6.16s12.16,4.48,11.35,1.12a12.17,12.17,0,0,0-3.36-5.28c1.9,1.67,6,5,6.87,3.32,1.08-2.24-1.89-7-1.89-7s7.84,4.2,8.38,1.12a5,5,0,0,0-.08-1.6,16.36,16.36,0,0,1,2.4,3s5.31-2.38,12.89,4.82C1499.13,68.09,1496.06,66.63,1495.7,68.11Z"/><g class="cls-29"><path class="cls-15" d="M1488.63,91.41a19.3,19.3,0,0,0-2-3.09c-1.09-1.49-2.31-2.86-2.31-2.86s-1.26-1.34-2.63-2.55c-.34-.3-.69-.6-1-.87a4.18,4.18,0,0,0-1-.68,1,1,0,0,0-.86-.06c-.2.12-.23.25-.22.26s.1-.08.26-.14a1,1,0,0,1,.71.16,4.18,4.18,0,0,1,.86.73l1,.94c1.28,1.28,2.47,2.65,2.47,2.65s1.26,1.31,2.42,2.7S1488.55,91.46,1488.63,91.41Z"/><path class="cls-15" d="M1494.11,107.38a2.94,2.94,0,0,0,.09-.65c0-.41.1-1,.09-1.71a34.9,34.9,0,0,0-.33-5.22,38.38,38.38,0,0,0-1.13-5.11c-.19-.69-.41-1.24-.54-1.64s-.21-.61-.21-.61-.1-.22-.26-.6-.37-.94-.7-1.58a36.56,36.56,0,0,0-2.56-4.51,33,33,0,0,0-3.23-4c-.46-.53-.91-.9-1.2-1.19a3.7,3.7,0,0,0-.49-.41,23.22,23.22,0,0,0,1.52,1.77,34.54,34.54,0,0,1,5.45,8.62c.31.63.49,1.18.65,1.56l.24.59.22.61c.14.38.37.92.57,1.59a39.65,39.65,0,0,1,1.24,5,41.49,41.49,0,0,1,.52,5.15C1494.09,106.43,1494.06,107.38,1494.11,107.38Z"/><path class="cls-15" d="M1473.18,60.48a28.14,28.14,0,0,1,2.84,1.4,12.86,12.86,0,0,1,2.4,2,13.35,13.35,0,0,1,1.95,2.5,29.79,29.79,0,0,1,1.35,2.94,8.35,8.35,0,0,0-1-3.16,12.63,12.63,0,0,0-1.89-2.73,12.48,12.48,0,0,0-2.63-2A7.31,7.31,0,0,0,1473.18,60.48Z"/><path class="cls-15" d="M1476.39,68.15c-.05.08.32.47.66.88s.65.83.65.83.37.38.71.79.67.83.75.79-.12-.57-.39-1.06a9.89,9.89,0,0,0-.6-.94,9.84,9.84,0,0,0-.82-.74C1476.92,68.36,1476.44,68.08,1476.39,68.15Z"/><path class="cls-15" d="M1458.7,70.65s.54-.16,1.33-.35a11.43,11.43,0,0,1,3-.3,14.5,14.5,0,0,1,4.23.79s.52.16,1.28.45a24.08,24.08,0,0,1,2.74,1.26c1.94,1,3.8,2.26,3.85,2.18a5.58,5.58,0,0,0-1.08-.88c-.68-.49-1.6-1.12-2.56-1.7a24.08,24.08,0,0,0-2.74-1.41c-.77-.33-1.3-.51-1.3-.51s-.54-.17-1.36-.34a13.25,13.25,0,0,0-3.06-.29,10.05,10.05,0,0,0-3,.51A4.26,4.26,0,0,0,1458.7,70.65Z"/><path class="cls-15" d="M1439,86.4a3,3,0,0,0,1.37.27,7.7,7.7,0,0,0,3-.53,11,11,0,0,0,2.74-1.51c.7-.51,1.12-.88,1.12-.88s.43-.39,1-1,1.37-1.43,2.15-2.26l2.1-2.29a6.42,6.42,0,0,0,.9-1.1,7.59,7.59,0,0,0-1.07.92l-2.24,2.15-2.23,2.15c-.61.57-1,.93-1,.93s-.41.38-1.06.89a11.58,11.58,0,0,1-2.56,1.57,8.17,8.17,0,0,1-2.9.71C1439.56,86.47,1439,86.35,1439,86.4Z"/><path class="cls-15" d="M1434.93,84.89c.07.06,1.58-1.47,3.17-2.92s3.23-2.82,3.23-2.82,1.6-1.43,3.27-2.77,3.4-2.61,3.35-2.69a6.32,6.32,0,0,0-1.17.66c-.68.43-1.56,1-2.44,1.66-1.75,1.26-3.4,2.65-3.4,2.65s-1.62,1.43-3.14,3c-.76.77-1.49,1.57-2,2.18A6.05,6.05,0,0,0,1434.93,84.89Z"/><path class="cls-15" d="M1431.59,88.18c.08,0,.88-1.74,1.86-3.41s2.1-3.24,2.1-3.24,1.07-1.6,2.3-3.08,2.61-2.83,2.55-2.9a17.57,17.57,0,0,0-2.87,2.6,33.67,33.67,0,0,0-2.48,3,36.48,36.48,0,0,0-2,3.38A17.59,17.59,0,0,0,1431.59,88.18Z"/><path class="cls-15" d="M1428.69,84.85a16.68,16.68,0,0,0,.88-1.72c.5-1,1.18-2.41,1.92-3.75a40.76,40.76,0,0,1,2.21-3.56c.65-.93,1.12-1.52,1.12-1.52a26.15,26.15,0,0,1,4.12-4.39,20.51,20.51,0,0,1,3.4-2.31c1-.54,1.68-.82,1.67-.87a1.82,1.82,0,0,0-.51.13c-.31.11-.75.27-1.27.51a19.43,19.43,0,0,0-3.56,2.18,24.57,24.57,0,0,0-3.09,2.88c-.77.86-1.24,1.47-1.24,1.47s-.47.62-1.11,1.59a39,39,0,0,0-2.12,3.67c-.7,1.38-1.33,2.79-1.76,3.87A10.76,10.76,0,0,0,1428.69,84.85Z"/><path class="cls-15" d="M1423.11,86.26a3.51,3.51,0,0,0,1.14,2,6.66,6.66,0,0,0,1.92,1.31,10.27,10.27,0,0,0,2.21.51,7.24,7.24,0,0,0,2.24.06,14.57,14.57,0,0,0-2.16-.5,11.63,11.63,0,0,1-2.06-.67,6.66,6.66,0,0,1-1.87-1A8.25,8.25,0,0,1,1423.11,86.26Z"/><path class="cls-15" d="M1428.63,78.11a10.34,10.34,0,0,0-1.73,2.36,26.61,26.61,0,0,0-1.36,2.62,25.28,25.28,0,0,0-.91,2.82,11.59,11.59,0,0,0-.47,2.92c.09,0,.42-1.41.89-2.79s1-2.7,1-2.7.52-1.35,1.18-2.65S1428.7,78.16,1428.63,78.11Z"/><path class="cls-15" d="M1495.31,122.48a4.16,4.16,0,0,0,.34-.74c.19-.49.5-1.16.77-2a50.35,50.35,0,0,0,1.74-6.3,54.1,54.1,0,0,0,.87-6.5c.09-.89.07-1.64.11-2.16s0-.83,0-.83,0-.29,0-.82,0-1.27-.09-2.16a54.65,54.65,0,0,0-.79-6.51,50.16,50.16,0,0,0-1.66-6.33c-.26-.85-.56-1.53-.74-2a6.13,6.13,0,0,0-.33-.75,3.45,3.45,0,0,0,.21.79c.14.5.41,1.19.63,2a58.62,58.62,0,0,1,1.46,6.33,58,58,0,0,1,.66,6.46c.06.88,0,1.62,0,2.14s0,.81,0,.81,0,.3,0,.81,0,1.26-.07,2.14a57.09,57.09,0,0,1-.73,6.45,59.33,59.33,0,0,1-1.53,6.31c-.24.86-.52,1.54-.66,2A4.58,4.58,0,0,0,1495.31,122.48Z"/><path class="cls-15" d="M1501.94,80.64a12.37,12.37,0,0,0-1.13-3.46A21.81,21.81,0,0,0,1499,74a20.54,20.54,0,0,0-2.46-2.66,11.34,11.34,0,0,0-2.92-2c0,.07,1.4,1.11,2.63,2.38a29.64,29.64,0,0,1,4.18,5.69C1501.28,79,1501.86,80.67,1501.94,80.64Z"/><path class="cls-15" d="M1506.7,121a4.31,4.31,0,0,0,.22-.79c.1-.51.29-1.23.44-2.11a64.46,64.46,0,0,0,.85-6.49c.17-2.38.23-4.76.18-6.56,0-.89-.07-1.63-.08-2.16s0-.82,0-.82l-.08-.81c-.06-.52-.1-1.27-.23-2.15-.21-1.78-.62-4.13-1.13-6.46a64.59,64.59,0,0,0-1.78-6.29c-.27-.84-.56-1.53-.74-2a4.17,4.17,0,0,0-.33-.75,4.27,4.27,0,0,0,.21.79c.15.5.4,1.2.63,2,.52,1.7,1.1,4,1.59,6.31s.8,4.66,1,6.43c.12.88.15,1.62.2,2.13l.06.81s0,.3.06.81.1,1.26.11,2.14c.08,1.78.07,4.14,0,6.51s-.4,4.72-.66,6.48c-.11.88-.26,1.61-.33,2.13A5.07,5.07,0,0,0,1506.7,121Z"/><path class="cls-15" d="M1493.45,137.82a2.41,2.41,0,0,0,.44-.44,15.6,15.6,0,0,0,1-1.23,29.8,29.8,0,0,0,2.68-4.14,39.58,39.58,0,0,0,2-4.53c.47-1.27.75-2.13.75-2.13s.26-.87.59-2.19.71-3.09,1-4.87.53-3.57.67-4.92c.08-.67.12-1.24.15-1.63a3,3,0,0,0,0-.62,16.51,16.51,0,0,0-.4,2.22c-.21,1.33-.51,3.11-.86,4.87s-.77,3.51-1.13,4.8-.64,2.14-.64,2.14-.26.86-.69,2.12a42.6,42.6,0,0,1-1.88,4.53,36.75,36.75,0,0,1-2.49,4.2C1494,137.09,1493.41,137.78,1493.45,137.82Z"/><path class="cls-15" d="M1420.63,105c.09,0,.33-1.72.65-3.43s.73-3.39.73-3.39.33-1.71.75-3.4.91-3.35.83-3.38a17.71,17.71,0,0,0-1.25,3.26c-.53,1.67-.93,3.38-.93,3.38s-.35,1.72-.56,3.46A18.56,18.56,0,0,0,1420.63,105Z"/><path class="cls-15" d="M1423.9,132.66s-.4-.65-.84-1.69a17,17,0,0,1-1.08-4c-.48-3-.67-6-.67-6s-.29-3-.32-6.07c0-1.52,0-3,0-4.19a15.7,15.7,0,0,0,0-1.91,10.63,10.63,0,0,0-.27,1.9c-.1,1.14-.2,2.66-.23,4.2-.08,3.06.15,6.12.15,6.12s.26,3.06.85,6.07a16,16,0,0,0,1.29,4,9.26,9.26,0,0,0,.71,1.19C1423.75,132.53,1423.88,132.67,1423.9,132.66Z"/><path class="cls-15" d="M1494.55,75.19a6.34,6.34,0,0,0-1.6-2.13,10.74,10.74,0,0,0-2.18-1.53,10.22,10.22,0,0,0-2.54-.75,5.83,5.83,0,0,0-2.6.09c0,.09,1.29,0,2.52.35a13.94,13.94,0,0,1,4.52,2.19C1493.69,74.19,1494.48,75.24,1494.55,75.19Z"/><path class="cls-15" d="M1489.92,77.15a6.78,6.78,0,0,0-1.06-1.76,13.76,13.76,0,0,0-1.34-1.57,8,8,0,0,0-1.72-1.14,3.41,3.41,0,0,0-2-.4,17.73,17.73,0,0,1,1.79.8,8.69,8.69,0,0,1,1.51,1.22,19.71,19.71,0,0,1,1.42,1.38A11.09,11.09,0,0,0,1489.92,77.15Z"/></g><path class="cls-16" d="M1502.83,111.12a5,5,0,0,1-.3,1.56C1502.61,111.57,1502.75,110.89,1502.83,111.12Z"/><path class="cls-16" d="M1484.76,131.84c2.93-8.38,5.17-20,3.22-29.8,4.69,12.82-3.37,33.08,2.11,32.4,5.09-.63,11.05-16.61,12.44-21.76-.24,3.47.06,11.24,4.2,9.94,3.71-1.17,4.48-14,4.8-22.1.77,13.5-.81,27.38-4.48,32.32-6.81,9.15-30.9,13.15-30.9,13.15C1480.21,142.47,1483,136.9,1484.76,131.84Z"/><path class="cls-16" d="M1418.57,131.32c-.21-1.42-.36-2.9-.48-4.42,1.46,2.54,3.44,5,5.81,5.76,5.36,1.67.1-5.12.34-11.52s4.28-27.09.23-27.34c-1.72-.11-3.44,2.52-4.85,5.57,1.43-9,3.49-16.51,5.2-19.89.8-1.57,1.87-3.65,3.28-6-1,4-2,9.41-.3,10.91,2.86,2.46,11.18-7.88,11.89-8.37s-7.85,8.86-4.76,10.83S1452.4,78,1452.4,78s-5.58,6.16-4.86,7.39c.44.78,4.26-1.36,7-3.06a10.16,10.16,0,0,0-.69.93c-6.26,9.34-23.36,6.67-23.36,6.67-11.22,31.07.55,52.6.55,52.6S1419.4,136.94,1418.57,131.32Z"/><g class="cls-30"><path class="cls-15" d="M1505.26,77.34c3.68,4.75,5.13,11.68,5,17.69a.18.18,0,0,1-.36,0c-.7-3-1.33-6-2.22-8.85s-2.15-5.64-2.9-8.61c-.07-.26.28-.51.46-.28Z"/></g><g class="cls-30"><path class="cls-15" d="M1510.28,98.66a9.47,9.47,0,0,1,.23,3.27c0,.3-.49.3-.46,0a10.46,10.46,0,0,0-.12-3.16c0-.24.3-.35.35-.11Z"/></g><g class="cls-30"><path class="cls-15" d="M1501.38,83.89c4.52,4.93,6.19,15.22,5,21.73-.17.94-1.43.77-1.69,0-1.2-3.64-1.6-7.58-2.31-11.35-.63-3.35-1.82-6.66-1.65-10.11a.37.37,0,0,1,.63-.27Z"/></g><g class="cls-30"><path class="cls-15" d="M1501.61,101.93c.37,3.94.61,8.82-.56,12.63-.09.3-.57.26-.55-.07.17-2.11.8-4.13.93-6.25a53.15,53.15,0,0,0-.1-6.31c0-.18.26-.18.28,0Z"/></g><g class="cls-30"><path class="cls-15" d="M1490.44,81.63c3.58,4.48,7,10.71,5.64,16.76a.56.56,0,0,1-1.07,0c-2-5.38-2.4-11.28-4.71-16.64,0-.09.07-.21.14-.12Z"/></g><g class="cls-30"><path class="cls-15" d="M1489.63,94.13a30.11,30.11,0,0,1,2.11,21.65.23.23,0,0,1-.45-.06,63.57,63.57,0,0,0-2.34-21.3.37.37,0,0,1,.68-.29Z"/></g><g class="cls-30"><path class="cls-15" d="M1475.32,58.74c-4.12-1.7-8.18-2-12.48-2.85-.65-.12-.43-1.08.15-1.13,4.3-.35,8.77,1.5,12.51,3.55.22.12.07.53-.18.43Z"/></g><g class="cls-30"><path class="cls-15" d="M1470.88,62c-3.43.09-6.65-.69-10.14-.92-4.16-.29-8.31,0-12.47.1a.63.63,0,0,1-.42-1.06c5-5.27,12.63-4.66,18.91-2.41,1.18.42,4.82,1.37,4.61,3.33,0,.3,0,.95-.49,1Z"/></g><g class="cls-30"><path class="cls-15" d="M1445.63,62.7a5.29,5.29,0,0,1-.7.55c-.29.16-.61.28-.9.45a6.05,6.05,0,0,1-1.75.81.76.76,0,0,1-.83-1.12,3.06,3.06,0,0,1,1.6-1.43,3.77,3.77,0,0,1,2.09-.48c.51.05,1,.8.49,1.22Z"/></g><g class="cls-30"><path class="cls-15" d="M1464.49,74c-1.75.82-3.69,1-5.45,1.85a31.08,31.08,0,0,0-5.29,3.71c-.27.22-.71-.05-.5-.4,1.91-3.37,7.32-6.8,11.2-5.42.1,0,.15.2,0,.26Z"/></g><g class="cls-30"><path class="cls-15" d="M1457.72,73.09c-2,1.42-4,2.73-6,4-1.9,1.14-4.15,1.82-6,3.11-.74.52-1.81-.54-1.26-1.31,1.43-2,2.7-3.86,4.91-5.09a38.67,38.67,0,0,1,7.47-2.87c1.31-.41,1.93,1.44.89,2.18Z"/></g><g class="cls-30"><path class="cls-15" d="M1467.26,65c-4.55,1.16-9.24,1.45-13.72,2.9s-8.59,4-13.13,5.32c-.86.25-1.31-.81-.81-1.43,5.77-7.24,19.36-10.12,27.66-6.88,0,0,0,.08,0,.09Z"/></g><g class="cls-30"><path class="cls-15" d="M1437.7,74,1436,75.49a.23.23,0,0,1-.32-.34l1.59-1.55c.26-.26.66.16.39.4Z"/></g><path class="cls-5" d="M1544.8,172.78c3.16-1.78,6.7-3,9.82-4.64.91-.49,10.17-5.22,8.45-7.08-1.43-1.55-5,.52-5,.52s11.65-10.46,4.82-13.44S1542.1,157,1542.1,157s3.23-7.74-3.93-7.59c-3.47.08,0,6.57-1,9.25-1.17,3.19-2.94,6.79-1.6,10.24l-2.36,2.77a50.83,50.83,0,0,0,6.32,5.35A18.07,18.07,0,0,1,1544.8,172.78Z"/><path class="cls-6" d="M1542.47,163.7a5.94,5.94,0,0,0-2.41,2.28,5.11,5.11,0,0,0-.56,1.3,8.18,8.18,0,0,1,3.24-2.94,7.24,7.24,0,0,1,4.14-.78,4.56,4.56,0,0,0-1.26-.38A5.35,5.35,0,0,0,1542.47,163.7Z"/><path class="cls-6" d="M1550.88,159.92c1.25,3,2.13,5.49,2.13,5.49a22.19,22.19,0,0,0-1.54-5.79,21.61,21.61,0,0,0-3-5.07S1549.65,156.94,1550.88,159.92Z"/><path class="cls-6" d="M1556,162.07a9.32,9.32,0,0,0-2,1.51,8.75,8.75,0,0,0,2.29-.87,9.52,9.52,0,0,0,2-1.51A8.73,8.73,0,0,0,1556,162.07Z"/><path class="cls-6" d="M1558.3,155.88a25.87,25.87,0,0,0-5.38,4.57s2.49-1.92,5.71-4,5.94-3.49,5.94-3.49A24.24,24.24,0,0,0,1558.3,155.88Z"/><path class="cls-6" d="M1556.7,151.4a25.31,25.31,0,0,0-5.61,4.8,67.65,67.65,0,0,1,12.21-7.67A23.19,23.19,0,0,0,1556.7,151.4Z"/><path class="cls-7" d="M1544.84,172.88c-5.61-.75-8.1-2.74-9-5,1.66,1.54,6.09,3.65,9.77,2.21s2.59-4.73.91-6.43-6.67,3.33-6.67,3.33a6.53,6.53,0,0,1,.83-2.22c.65-1.34,2-1.4,3.21-1.84,1.52-.59,1-2-.09-3a5,5,0,0,0-7.51,1c.36-1,.72-1.76.92-2.29.48-1.32-.11-3.56-.42-5.5.46,1.23,1.73,4,3.84,4,1.94,0,1.05-4.45,1-6.76,2.41,2,.51,6.63.51,6.63s8.89-7.53,16-9.06a42.9,42.9,0,0,0-5.49,4c-2.06,1.76-1.74,8.65,2.85,9,3.17.23,7.2-5.05,9.39-8.35-1,3.52-5.32,7.7-6.44,8.75-1.62,1-3.29,2-3.84,2.37-1,.72-1.6,2.89.9,1.75s7.65-4.36,7.65-4.36C1565.59,163.77,1544.84,172.88,1544.84,172.88Z"/><path class="cls-13" d="M1486.82,156.13s-4.5,2.1-8,10.31c-4.79,11.26,13.58,42.5,25.71,45.07s39.28-32.08,39.28-32.08-5-11.23-13.21-9.94L1508,194.73C1502.93,195.24,1492.6,160.38,1486.82,156.13Z"/><path class="cls-14" d="M1533.81,169.63c2.26,1.4,4.38,3.54,4.3,6.67-.17,6.58-24.35,28-28.46,25-3.38-2.47,1.55-9.74,3.43-12.28l-5.1,5.69c-.8.08-1.74-.73-2.77-2.17-1.7,1.6-3.63,3.4-4.65,4.24-2.06,1.69-7.89.57-14.23-14.48a44.49,44.49,0,0,1-3.26-23.19c-1.46,1.37-3.07,4.53-4.37,7.58-4.79,11.26,13.7,42.23,25.83,44.8s39.28-32.08,39.28-32.08S1540.09,171.11,1533.81,169.63Z"/><g class="cls-18"><g class="cls-12"><path class="cls-13" d="M1477.93,172.83a20.51,20.51,0,0,1,.26-7.05,12.84,12.84,0,0,1,.9-2.75,15.6,15.6,0,0,0-.72,2.79,24,24,0,0,0-.06,7,54.65,54.65,0,0,0,1.4,6.82l.73,2.8-.92-2.74A39.38,39.38,0,0,1,1477.93,172.83Z"/></g><g class="cls-12"><path class="cls-13" d="M1479.55,177.41A24,24,0,0,1,1480,172s-.16,2.43-.06,5.39.37,5.37.37,5.37A24.19,24.19,0,0,1,1479.55,177.41Z"/></g><g class="cls-12"><path class="cls-13" d="M1485,157.58a24.54,24.54,0,0,1-2.43,2,25.66,25.66,0,0,1,2.2-2.32,3.42,3.42,0,0,1,2-1,1.32,1.32,0,0,1,.87.25,1.29,1.29,0,0,0-.85,0A4.41,4.41,0,0,0,1485,157.58Z"/></g><g class="cls-12"><path class="cls-13" d="M1506.4,198.62a17.48,17.48,0,0,0-.34,4.64,10.58,10.58,0,0,1-.22-1.37,11.59,11.59,0,0,1,.19-3.36,11.06,11.06,0,0,1,1.14-3.13,9.93,9.93,0,0,1,.73-1.14A17.2,17.2,0,0,0,1506.4,198.62Z"/></g><g class="cls-12"><path class="cls-13" d="M1505.27,197.49a23.34,23.34,0,0,0-1.29,2.76,8.31,8.31,0,0,1,1-3,7.45,7.45,0,0,1,2-2.32A21.13,21.13,0,0,0,1505.27,197.49Z"/></g></g><path class="cls-23" d="M1469.3,115.7a4.78,4.78,0,0,1-2.81-.46,3.16,3.16,0,0,1-1.54-1.76,3.68,3.68,0,0,1-.16-1.8,3.9,3.9,0,0,1,.18-.71,3.43,3.43,0,0,0-1.06,2.68,4.06,4.06,0,0,0,1.58,3.06,5.43,5.43,0,0,0,4.11,1.07,16.25,16.25,0,0,0,1.93-.5,10,10,0,0,0,.94-.36,4.84,4.84,0,0,0,.85-.53,9.53,9.53,0,0,0,2.22-2.23,7.65,7.65,0,0,0,1-1.85,5.57,5.57,0,0,0,.21-.73,10.06,10.06,0,0,1-1.94,1.86,14.23,14.23,0,0,1-2.38,1.43,4,4,0,0,1-.64.28l-.75.19C1470.49,115.43,1469.71,115.63,1469.3,115.7Z"/><path class="cls-23" d="M1437.38,112.54a4.76,4.76,0,0,1-2.8-.46,3.13,3.13,0,0,1-1.54-1.76,3.71,3.71,0,0,1-.16-1.81,3.92,3.92,0,0,1,.18-.7,3.43,3.43,0,0,0-1.06,2.68,4.06,4.06,0,0,0,1.58,3.06,5.42,5.42,0,0,0,4.1,1.07,16,16,0,0,0,1.94-.5,8.89,8.89,0,0,0,.93-.36,5.38,5.38,0,0,0,.86-.53,9.47,9.47,0,0,0,2.21-2.23,7.4,7.4,0,0,0,1-1.85,4.49,4.49,0,0,0,.2-.73,9.78,9.78,0,0,1-1.93,1.86,14.23,14.23,0,0,1-2.38,1.43,3.74,3.74,0,0,1-.65.28c-.22.06-.47.13-.75.19C1438.58,112.27,1437.8,112.47,1437.38,112.54Z"/><path class="cls-7" d="M1446.91,127.2s-5,5-.37,7.86,12.16-.49,14-6.8C1460.55,128.26,1451.62,126.09,1446.91,127.2Z"/><path class="cls-31" d="M1446.5,126.45s-5,5-.37,7.86,12-.39,14-6.2C1460.09,128.11,1451.22,125.34,1446.5,126.45Z"/><path class="cls-36" d="M1446.5,126.45a9.47,9.47,0,0,0-2.19,3.69c.56-.71,1.18-1.35,1.51-1.19.67.34-.4,2.14,2.19,3.38s8.56-2.82,9.41-2.36c.59.31-.59,2.29-1.78,3.67a10.65,10.65,0,0,0,4.45-5.53S1451.22,125.34,1446.5,126.45Z"/><path class="cls-31" d="M1442.32,126.25c-.71-.82,1.48-2.38,2.15-2.68,1.62-.72,3.21,0,4.44,1.12,0,0,2.86-5.17,11.55,3.61-.48-.49-2.43-.56-3.06-.68a61.63,61.63,0,0,0-7.16-1,41,41,0,0,0-4.29-.12c-.71,0-3,.33-3.56-.19Z"/><path class="cls-40" d="M1442.32,126.25c-.71-.82,1.48-2.38,2.15-2.68,1.62-.72,3.21,0,4.44,1.12,0,0,2.86-5.17,11.55,3.61-.48-.49-2.43-.56-3.06-.68a61.63,61.63,0,0,0-7.16-1,41,41,0,0,0-4.29-.12c-.71,0-3,.33-3.56-.19Z"/><g class="cls-18"><path class="cls-49" d="M1452.78,126.28a30.9,30.9,0,0,1,5.94,1.23c1.48.47,2.36.85,2.36.85s-3.75-.77-8.39-1.25c-2.32-.25-4.42-.38-6-.45l-1.82-.06a.7.7,0,0,0-.6.18s.13-.26.59-.31,1-.16,1.82-.23A30.78,30.78,0,0,1,1452.78,126.28Z"/></g><path class="cls-50" d="M1457.4,127.62a61.63,61.63,0,0,0-7.16-1c-.71-.06-1.43-.1-2.14-.12l-.33,0s-4,5.55,2,5.95c5.43.37,8.3-4.8,8.3-4.8h0Z"/><path class="cls-51" d="M1454.6,125.8c-4.11-.45-6.14.28-9.29-.34-1.52-.3-1.92-.77-1.93-1.18-.77.61-1.52,1.44-1.06,2l.07.07c.59.52,2.85.21,3.56.19a41,41,0,0,1,4.29.12,61.63,61.63,0,0,1,7.16,1c.63.12,2.58.19,3.06.68a26.18,26.18,0,0,0-3.91-3.33C1456.64,125.55,1456.23,126,1454.6,125.8Z"/><path class="cls-52" d="M1457.26,128.91c-6.14-1.28-9.18,1.36-10.21,2.6a4,4,0,0,0,2.75,1A9,9,0,0,0,1457.26,128.91Z"/><path class="cls-37" d="M1450.75,134.07c.09.4.89.48,1.79.16s1.56-.9,1.48-1.31-.89-.47-1.79-.16S1450.67,133.66,1450.75,134.07Z"/><path class="cls-31" d="M1488.82,107.22c0,.68-.09,1.36-.13,2l-3.2,1.7c-.08,0-1.42.75-1.42.76l-.86-1.85Z"/><path class="cls-32" d="M1488.75,108.26l-.06,1-1.22.64-1.64.87-.06,0-.28.15c-.08,0-1.42.75-1.42.76l-.11-.25,0-.07c-.09-.2-.21-.45-.32-.71C1485.32,109.89,1487,109.07,1488.75,108.26Z"/><path class="cls-31" d="M1456.4,110l.87-1.54c-.2-.08-5.11-2-9.44-.63l.72,1.6C1452.05,108.34,1456.36,110,1456.4,110Z"/><path class="cls-32" d="M1456.4,110s-4.35-1.68-7.85-.57l-.32-.7a16,16,0,0,1,8.54.61Z"/><path class="cls-33" d="M1483.78,110.19s-13.79-8.13-26.79-.86c0,0-1.73,16.4,12.22,16.82S1483.78,110.19,1483.78,110.19Z"/><g class="cls-22"><path class="cls-34" d="M1464.27,106.71l7.86,19.26a15.12,15.12,0,0,1-2.92.18c-.41,0-.8,0-1.17-.08l-7.83-18.23A24.19,24.19,0,0,1,1464.27,106.71Z"/><path class="cls-34" d="M1474,106.78l5.94,14.55a12.39,12.39,0,0,1-3,2.83l-7.66-17.85A29.39,29.39,0,0,1,1474,106.78Z"/></g><path class="cls-33" d="M1456.93,111.6a18,18,0,0,1,.06-2.27c13-7.27,26.79.86,26.79.86a21.78,21.78,0,0,1-.35,2.7C1477.8,115.49,1468.11,117.71,1456.93,111.6Z"/><path class="cls-31" d="M1469.17,127a12.62,12.62,0,0,1-9-3.66c-5-5.13-4.12-13.74-4.08-14.1l0-.42.39-.23c13.36-7.46,27.65.79,27.8.87l.44.26,0,.49c0,.17-.8,16.79-15,16.79Zm-11.28-17.18c-.1,1.74-.2,8.41,3.65,12.39a10.69,10.69,0,0,0,7.7,3.08c11.67.39,13.35-12,13.57-14.65C1480.39,109.39,1468.81,104,1457.89,109.83Z"/><path class="cls-32" d="M1469.27,126.16h.52c13,0,13.79-15.32,13.8-15.48v-.44l-.41-.25c-.13-.07-13.3-7.67-25.61-.8l-.36.21,0,.39c0,.33-.81,8.26,3.75,13A11.64,11.64,0,0,0,1469.27,126.16Zm0-.86a10.69,10.69,0,0,1-7.7-3.08c-3.85-4-3.75-10.65-3.65-12.39,10.92-5.81,22.5-.44,24.92.82C1482.59,113.35,1480.91,125.69,1469.24,125.3Z"/><path class="cls-33" d="M1448.09,108.61s-12.94-9-26.62-2.71c0,0-3.35,16.22,10.51,17.61S1448.09,108.61,1448.09,108.61Z"/><g class="cls-22"><path class="cls-34" d="M1429,103.8l5.92,19.73a15.15,15.15,0,0,1-2.93,0c-.4,0-.79-.09-1.16-.16l-6-18.71A24.55,24.55,0,0,1,1429,103.8Z"/><path class="cls-34" d="M1438.65,104.53l4.47,14.92a13.25,13.25,0,0,1-3.28,2.61L1434,103.74A29.84,29.84,0,0,1,1438.65,104.53Z"/></g><path class="cls-33" d="M1421.19,108.16a19.9,19.9,0,0,1,.28-2.26c13.68-6.34,26.62,2.71,26.62,2.71a22.06,22.06,0,0,1-.62,2.67A28.58,28.58,0,0,1,1421.19,108.16Z"/><path class="cls-31" d="M1431.86,124.36a12.24,12.24,0,0,1-8.65-4.27c-4.43-5.46-2.74-14-2.66-14.34l.09-.41.41-.2c14-6.51,27.48,2.7,27.61,2.79l.42.3-.06.48c0,.16-2.48,16.68-16.59,15.7Zm-9.54-17.9c-.27,1.72-1,8.37,2.4,12.6a10.43,10.43,0,0,0,7.37,3.61c11.59,1.19,14.49-11,15-13.66C1444.78,107.59,1433.78,101.43,1422.32,106.46Z"/><path class="cls-32" d="M1432,123.52l.52,0c13,.9,15.26-14.31,15.28-14.47l.07-.44-.39-.27c-.12-.09-12.49-8.58-25.44-2.57l-.39.17-.08.39c-.06.33-1.62,8.18,2.46,13.21A11.21,11.21,0,0,0,1432,123.52Zm0-.85a10.43,10.43,0,0,1-7.37-3.61c-3.43-4.23-2.67-10.88-2.4-12.6,11.46-5,22.46,1.13,24.75,2.55C1446.58,111.68,1443.68,123.86,1432.09,122.67Z"/><text class="cls-53" transform="translate(487.27 497.5)"><tspan class="cls-54">A</tspan><tspan x="18.78" y="0">yude a sus seguidores con las finanzas </tspan><tspan x="102.2" y="32">de sus emprendimientos.</tspan></text><path class="cls-55" d="M386.22,716.82a12,12,0,1,0-24,0v83.63h24Z"/><path class="cls-55" d="M417.83,751.15a12,12,0,0,0-24,0v49.3h24Z"/><path class="cls-55" d="M452.5,721.82a12,12,0,0,0-24,0v78.63h24Z"/><path class="cls-55" d="M383.36,72.51a12,12,0,0,0,24,0V1.5h-24Z"/><path class="cls-55" d="M415,106.84a12,12,0,1,0,24,0V1.5H415Z"/><path class="cls-55" d="M449.64,77.5a12,12,0,0,0,24,0V1.5h-24Z"/><path class="cls-55" d="M493.58,77.5a12,12,0,0,0,24,0V1.5h-24Z"/><path class="cls-55" d="M525.2,111.83a12,12,0,1,0,24,0V1.5h-24Z"/><path class="cls-55" d="M559.86,82.5a12,12,0,0,0,24,0V1.5h-24Z"/><path class="cls-55" d="M603.81,82.5a12,12,0,0,0,24,0V1.5h-24Z"/><path class="cls-55" d="M635.42,116.83a12,12,0,1,0,24,0V1.5h-24Z"/><path class="cls-55" d="M670.08,87.5a12,12,0,0,0,12,12h0a12,12,0,0,0,12-12V1.5h-24Z"/><path class="cls-55" d="M714,87.5a12,12,0,0,0,12,12h0a12,12,0,0,0,12-12V1.5H714Z"/><path class="cls-55" d="M745.64,121.83a12,12,0,1,0,24,0V1.5h-24Z"/><path class="cls-55" d="M780.31,92.5a12,12,0,0,0,12,12h0a12,12,0,0,0,12-12V1.5h-24Z"/><path class="cls-55" d="M824.25,92.5a12,12,0,0,0,12,12h0a12,12,0,0,0,12-12V1.5h-24Z"/><path class="cls-55" d="M855.86,126.83a12,12,0,1,0,24,0V1.5h-24Z"/><path class="cls-55" d="M890.53,97.49a12,12,0,0,0,12,12h0a12,12,0,0,0,12-12V1.5h-24Z"/><rect class="cls-56" x="1241.47" y="663.99" width="270.26" height="88.74" rx="26.5"/><text class="cls-57" transform="translate(1330.16 721.84)">V<tspan class="cls-58" x="19.08" y="0" xml:space="preserve">er  Curso</tspan></text><path class="cls-38" d="M1302.16,703l-8.24,4.1a1,1,0,0,1-.92.5,3.6,3.6,0,0,1-3.9,0c-6.57-3.38-13.18-6.68-19.77-10-.49-.25-1.17-.39-1.18-1.1s.74-.92,1.27-1.19c6.78-3.39,13.58-6.76,20.35-10.17a2.53,2.53,0,0,1,2.54,0c6.6,3.33,13.22,6.61,19.82,9.93.68.34,1.76.43,1.78,1.44s-1.1.91-1.64,1.4a1,1,0,0,1-1,.49l-8.22,4.11A1,1,0,0,1,1302.16,703Z"/><path class="cls-38" d="M1291.08,718.54a2.64,2.64,0,0,1-1.34-.44L1269.4,708c-.54-.28-1.25-.45-1.25-1.22s.81-.82,1.28-1.18c2.71-2.07,5.25-1.84,8.15-.06,3.36,2.06,7.06,3.56,10.57,5.37a5.83,5.83,0,0,0,5.72,0c4.5-2.3,9.06-4.48,13.55-6.79a2.21,2.21,0,0,1,2.37,0c1,.57,2,1,3.06,1.53.5.26,1.13.44,1.09,1.17s-.6.81-1.06,1L1302.65,713l-10.24,5.09A3.05,3.05,0,0,1,1291.08,718.54Z"/><path class="cls-38" d="M1297.92,725.7c-1.84.9-3.7,1.76-5.51,2.71a2.69,2.69,0,0,1-2.7,0q-10.2-5.16-20.44-10.28c-.49-.25-1.15-.41-1.12-1.14s.62-.8,1.07-1c4.12-2.2,4.12-2.2,8.38-.09l11.41,5.63a4.68,4.68,0,0,0,4.39-.13c4.69-2.35,9.39-4.67,14.07-7a2,2,0,0,1,2.11,0c1.12.64,2.3,1.16,3.46,1.73.43.22.89.43.9,1s-.48.76-.9,1q-2.82,1.41-5.62,2.84a.5.5,0,0,1-.32.23l-8.85,4.37A.31.31,0,0,1,1297.92,725.7Z"/><path class="cls-59" d="M1346.64,702.39a5.57,5.57,0,0,1,3.31-1.73C1349.8,703.06,1348.58,703.42,1346.64,702.39Z"/><path class="cls-60" d="M1314.74,718.41a5.67,5.67,0,0,1,3.26-1.73C1317.85,719,1316.68,719.43,1314.74,718.41Z"/><path class="cls-61" d="M1282.83,734.43l3.23-1.74C1285.89,735,1284.75,735.42,1282.83,734.43Z"/><path class="cls-62" d="M1331.94,781.5l1.11-.78c.16.67.9,1.52-.07,1.93C1332.3,782.94,1332.12,782.05,1331.94,781.5Z"/><path class="cls-63" d="M1300,797.53l1.13-.79c0,.61.3,1.63.07,1.76C1300.33,799,1300.22,798.1,1300,797.53Z"/></g></g></g></svg>