<svg xmlns="http://www.w3.org/2000/svg" xmlns:xlink="http://www.w3.org/1999/xlink" viewBox="0 0 92.89 132.96"><defs><style>.cls-1{fill:none;}.cls-2{isolation:isolate;}.cls-3{clip-path:url(#clip-path);}.cls-13,.cls-15,.cls-4,.cls-5{fill:#c83634;}.cls-10,.cls-11,.cls-12,.cls-13,.cls-18,.cls-21,.cls-25,.cls-31,.cls-34,.cls-36,.cls-5,.cls-8{mix-blend-mode:multiply;}.cls-5{opacity:0.25;}.cls-24,.cls-25,.cls-6,.cls-8{fill:#f8e9d0;}.cls-7{fill:#ebb18e;}.cls-10,.cls-12,.cls-22,.cls-9{fill:#8dcbd2;}.cls-10,.cls-13,.cls-28,.cls-29,.cls-34,.cls-36{opacity:0.5;}.cls-11,.cls-18{opacity:0.34;}.cls-14{fill:#6f3a1e;}.cls-15,.cls-19,.cls-20,.cls-22,.cls-23,.cls-24,.cls-27,.cls-28,.cls-29,.cls-32,.cls-33,.cls-35{mix-blend-mode:screen;}.cls-16,.cls-32,.cls-33{fill:#fff;}.cls-17,.cls-18,.cls-19,.cls-29{fill:#294168;}.cls-20{opacity:0.6;}.cls-23,.cls-32{opacity:0.45;}.cls-25{opacity:0.62;}.cls-26{fill:#212f47;}.cls-30,.cls-31,.cls-34,.cls-35{fill:#f15e6b;}.cls-36{fill:#d3dbfd;}</style><clipPath id="clip-path"><rect class="cls-1" width="92.89" height="132.96"/></clipPath></defs><g class="cls-2"><g id="Capa_2" data-name="Capa 2"><g id="OBJECTS"><g class="cls-3"><path class="cls-4" d="M5.47,59.89a.7.7,0,0,0-.11.23,11.24,11.24,0,0,0-.11,4.25,16.45,16.45,0,0,0,.91,4.34,8.39,8.39,0,0,0,8,5.74c10.9.18,10.34-9,10.34-10.77q0-1.65-.09-3.3c0-.91-.93-1-1.7-1.25a22.67,22.67,0,0,0-2.3-.56,25.42,25.42,0,0,0-4-.48,30,30,0,0,0-8,.55C7.46,58.87,6.09,58.94,5.47,59.89Z"/><path class="cls-5" d="M24.52,63.68q0-1.65-.09-3.3c0-.91-.93-1-1.7-1.25l-.5-.13c0,.88.06,1.76.06,2.64,0,1.76.56,11-10.34,10.77A8.64,8.64,0,0,1,7.44,71.1a8.31,8.31,0,0,0,6.74,3.35C25.08,74.63,24.52,65.44,24.52,63.68Z"/><path class="cls-6" d="M30.14,69.69l-1.49-.78s.93-3.55-1-5c-.59-.46-1.32-.82-1.86-1.33-.33-.3-.6-.77-1-.74-.72.06-.8,1.09-.57,1.61-.83-.47-4.29-1-3.74.92a2.38,2.38,0,0,0-1.55,2.21,1.51,1.51,0,0,1,0,.37,1.56,1.56,0,0,1-.2.41,1.47,1.47,0,0,0,0,1.34c0,.08-.1.26-.11.35-.16,1.5,1.55,2.46,2.67,3s3.09,1.21,4.42.66l2,1.69S31.29,70.5,30.14,69.69Z"/><path class="cls-7" d="M25.34,67.45A3.91,3.91,0,0,1,25,65.6a3.49,3.49,0,0,1,.15-.81,2.39,2.39,0,0,0-.34.77,3.07,3.07,0,0,0,.17,2A2.42,2.42,0,0,0,26.51,69a1.52,1.52,0,0,0,.63,0,.64.64,0,0,0,.21-.06,1.41,1.41,0,0,1-.78-.15A2.73,2.73,0,0,1,25.34,67.45Z"/><path class="cls-7" d="M24.57,64.07a8.56,8.56,0,0,1-.4-1L24,62.63a2.87,2.87,0,0,0,.21,1.63,1.88,1.88,0,0,0,.88.79,3.62,3.62,0,0,0,.45.17A5.31,5.31,0,0,1,24.57,64.07Z"/><path class="cls-7" d="M22.4,71.09a1.19,1.19,0,0,0-.53-.86.89.89,0,0,0-.38-.15,1.53,1.53,0,0,1,.25.29,1.75,1.75,0,0,1,.27.76,1.22,1.22,0,0,1-.12.77.46.46,0,0,1-.27.22A.47.47,0,0,0,22,72,1,1,0,0,0,22.4,71.09Z"/><path class="cls-7" d="M21.17,69.79a4.72,4.72,0,0,1-1.91-.88,4.49,4.49,0,0,1-.67-.6,3,3,0,0,0,.54.75,3.76,3.76,0,0,0,1.95,1.12,1.8,1.8,0,0,0,1.31-.1.82.82,0,0,0,.36-.52.73.73,0,0,0-.12-.52,1.36,1.36,0,0,0-.53-.45.5.5,0,0,0-.24-.06.73.73,0,0,1,.21.11,1.55,1.55,0,0,1,.39.5.47.47,0,0,1-.24.65A1.63,1.63,0,0,1,21.17,69.79Z"/><path class="cls-7" d="M21.61,68a12,12,0,0,1-2-.86,2.65,2.65,0,0,1-.7-.58,2.06,2.06,0,0,0,.58.74,6.59,6.59,0,0,0,2,1.07,1.53,1.53,0,0,0,1.32,0,1.15,1.15,0,0,0,.54-1,1.14,1.14,0,0,0-.4-.85,1.17,1.17,0,0,1,.2.84.92.92,0,0,1-.5.67A1.33,1.33,0,0,1,21.61,68Z"/><path class="cls-7" d="M23,66.36a4.42,4.42,0,0,1-2.28-1.71,2.17,2.17,0,0,1-.27-.84,1.72,1.72,0,0,1,0-.33,1.12,1.12,0,0,0-.07.33,2,2,0,0,0,.15.92,4,4,0,0,0,2.3,2,1.24,1.24,0,0,0,1,.11.85.85,0,0,0,.53-.79,1.82,1.82,0,0,0-.75-1.22,4.67,4.67,0,0,0-1-.7,6.86,6.86,0,0,1,.91.84A1.79,1.79,0,0,1,24,66a.52.52,0,0,1-.32.44A1,1,0,0,1,23,66.36Z"/><path class="cls-7" d="M23.94,69a2.48,2.48,0,0,0-.76.82,1.81,1.81,0,0,0-.18.42,8.2,8.2,0,0,1,1.15-.91,8.46,8.46,0,0,1,1.29-.71,1.87,1.87,0,0,0-.46,0A2.42,2.42,0,0,0,23.94,69Z"/><path class="cls-8" d="M24,66c-.38.83-2.62,0-3.51-1.67l-.78.49a2.32,2.32,0,0,0-.77,1.72,1.51,1.51,0,0,1,0,.37,1.56,1.56,0,0,1-.2.41,1.36,1.36,0,0,0-.11.28c1.15.37,3.57,1.22,3.57,1.83,0,.79-2.48.45-3.57-1.14l0,0a1.35,1.35,0,0,0,.11.32c0,.08-.1.26-.11.35a1.54,1.54,0,0,0,0,.48c1,.32,3.11,1.11,2.78,1.93a4,4,0,0,1-.26.49l.13.06c1.22.55,3.09,1.21,4.42.66l2,1.69s3.64-3.84,2.49-4.65l-1.49-.78a8.55,8.55,0,0,0,.22-1.75c-.34.57-.86.93-1.7.26C25.38,66,26,64.68,26,64.68a8.53,8.53,0,0,1-1.8-2.43,1.6,1.6,0,0,0,0,1.18c-.7-.4-3.26-.82-3.72.2C21.41,64,24.29,65.31,24,66Zm-1.22,1.59c0,.46-4.47-.64-2.67-2.36C21.12,65.76,22.79,67.14,22.76,67.61Z"/><path class="cls-9" d="M30.69,68.44c.17-.06,1.19,1.71,1.31,1.87,1.37,1.79,3.43,3,5.24,4.23a22.15,22.15,0,0,0,4.3,2.08,9.2,9.2,0,0,0,2.86.47c.8-2.7,4.4-14.67,5.6-16.79,1.36-2.4,4-5.17,4.18-4.95,3.13,3.31-2.83,27.4-6.34,29.38-.48.69-1.21.59-2.4.7-4.61.41-9.47-2.19-13-4.87a56.39,56.39,0,0,1-6.82-5.93S26.55,70,30.69,68.44Z"/><path class="cls-10" d="M30.69,68.44c.17-.06,1.19,1.71,1.31,1.87,1.37,1.79,3.43,3,5.24,4.23a22.15,22.15,0,0,0,4.3,2.08,9.2,9.2,0,0,0,2.86.47c.8-2.7,4.4-14.67,5.6-16.79,1.36-2.4,4-5.17,4.18-4.95,3.13,3.31-2.83,27.4-6.34,29.38-.48.69-1.21.59-2.4.7-4.61.41-9.47-2.19-13-4.87a56.39,56.39,0,0,1-6.82-5.93S26.55,70,30.69,68.44Z"/><path class="cls-9" d="M29.85,77.77A13.48,13.48,0,0,0,32,79.56c1.09.85,2.22,1.65,2.22,1.65s1.17.75,2.37,1.45a11,11,0,0,0,1.71.9,1.44,1.44,0,0,0,.89.13s-.34-.11-.78-.36a14.74,14.74,0,0,1-1.56-1l-2.26-1.6-2.32-1.49A16.93,16.93,0,0,0,29.85,77.77Z"/><g class="cls-11"><path class="cls-12" d="M44.24,78.83a2.64,2.64,0,0,0,.64,1.31,2.19,2.19,0,0,0,.46.38,3.13,3.13,0,0,1-.9-1.74,3.65,3.65,0,0,1,0-1.42,2.75,2.75,0,0,1,.19-.58,2.27,2.27,0,0,0-.29.56A2.9,2.9,0,0,0,44.24,78.83Z"/><path class="cls-12" d="M43.29,78.55a2.37,2.37,0,0,0,.12,1.15,2.21,2.21,0,0,0,.2.42,3.39,3.39,0,0,1-.11-1.55A3.68,3.68,0,0,1,44,77.08a2.28,2.28,0,0,0-.32.37A2.75,2.75,0,0,0,43.29,78.55Z"/></g><path class="cls-10" d="M25.57,74.63s1-4.61,5.12-6.19c0,0,.11.06.19.16-1.29,1.75-3.16,5.73,3.17,9.86,8.3,5.41,11.56,3.19,11.56,3.19a14.11,14.11,0,0,1-1.17-2.87,7.07,7.07,0,0,1,0-1.89c.9-3,4.37-14.52,5.54-16.59,1.36-2.4,4-5.17,4.18-4.95,3.13,3.31-2.83,27.4-6.34,29.38-.48.69-1.21.59-2.4.7-4.61.41-9.47-2.19-13-4.87A56.39,56.39,0,0,1,25.57,74.63Z"/><path class="cls-13" d="M23.67,60.23c0,.94-4,1.7-8.85,1.7S6,61.17,6,60.23s4-1.49,8.89-1.49S23.67,59.29,23.67,60.23Z"/><path class="cls-14" d="M14.82,61.93c3.75,0,6.94-.44,8.23-1.08-1.11-.64-4.43-1-8.4-1-3.73,0-6.95.32-8.26.89C7.53,61.43,10.87,61.93,14.82,61.93Z"/><path class="cls-4" d="M21.05,72.67l.06,0a5.38,5.38,0,0,0,3.59-5.59c-.16-3.59-2.71-4.83-4-5a.83.83,0,0,0-.93.72.82.82,0,0,0,.73.91c.25,0,2.42.42,2.55,3.42a3.76,3.76,0,0,1-2.39,4,.82.82,0,0,0-.56,1A.84.84,0,0,0,21.05,72.67Z"/><path class="cls-13" d="M20.63,71.08a3.76,3.76,0,0,0,2.39-4c-.13-3-2.3-3.38-2.55-3.42a.82.82,0,0,1-.73-.91.83.83,0,0,1,.93-.72l.33.06a.94.94,0,0,0-.27.84c.11.35,1.56.36,2.32,2.56s-.15,4.24.51,4.49c.34.13.69-.46.94-1.07a5.23,5.23,0,0,1-3.39,3.69l-.06,0a.84.84,0,0,1-1-.57A.82.82,0,0,1,20.63,71.08Z"/><path class="cls-15" d="M23.37,64.41a7.57,7.57,0,0,1,.94,1.9,2.94,2.94,0,0,0-.07-.64,3.82,3.82,0,0,0-.6-1.44,4.05,4.05,0,0,0-1.12-1.09,3,3,0,0,0-.57-.3A7.74,7.74,0,0,1,23.37,64.41Zm.77,3a3,3,0,0,0,.06.73,1.23,1.23,0,0,0,.27-.71,1.25,1.25,0,0,0-.18-.73A3.2,3.2,0,0,0,24.14,67.41Z"/><path class="cls-16" d="M13,65.85h-.46l.19-1.46a.31.31,0,0,0-.06-.19.27.27,0,0,0-.19-.08H12a.25.25,0,0,0-.25.21l-.21,1.52h-.45l.19-1.46a.25.25,0,0,0,0-.19.27.27,0,0,0-.19-.08H10.5a.25.25,0,0,0-.24.21l-.21,1.52H9.4a.25.25,0,0,0-.24.25v.54a.24.24,0,0,0,.24.24h.5l-.1.83H9.18a.24.24,0,0,0-.24.24v.54a.25.25,0,0,0,.24.25h.47l-.2,1.5a.24.24,0,0,0,.24.28h.55a.24.24,0,0,0,.24-.21l.21-1.57h.45l-.2,1.5a.24.24,0,0,0,.24.28h.55a.26.26,0,0,0,.25-.21l.2-1.57h.65a.25.25,0,0,0,.25-.25V68a.25.25,0,0,0-.25-.24h-.5l.1-.83H13a.25.25,0,0,0,.25-.24V66.1A.25.25,0,0,0,13,65.85Zm-1.75,1.86h-.45l.11-.83h.45Z"/><path class="cls-16" d="M16.29,64.12h-.68a.27.27,0,0,0-.12,0l-1.29.69a.24.24,0,0,0-.12.27l.15.61a.25.25,0,0,0,.36.16l.68-.37v4.76a.25.25,0,0,0,.25.25h.77a.25.25,0,0,0,.25-.25V64.36A.25.25,0,0,0,16.29,64.12Z"/><path class="cls-6" d="M74.09,135.35,71.2,145.71s6.84,5.21-.43,38c-.26,1.14.44,2.49.29,3.64a14.51,14.51,0,0,1-3.82,7.49c-.85.85-5.38,2.81-4.41.25,1.59-4.2,2.67-5.32,3.87-8.28.89-2.21.58-3.4.39-5.8-.41-5.32-.9-10.63-1.31-16-.48-6.16-1-12.4-2.06-18.49a69.71,69.71,0,0,1,.54-24.6C66.22,113.15,78.61,105.7,74.09,135.35Z"/><path class="cls-8" d="M65.15,190a1.37,1.37,0,0,0,1.08.93c2.54.24,4.61-9.63,5.74-19.64s-.31-20.73-3.23-23c-1.94-1.53-3.66-.17-4.59.9-.13-.88-.27-1.76-.43-2.64a69.71,69.71,0,0,1,.54-24.6c.78-3.51,3.21-6.8,5.56-7.63a28.46,28.46,0,0,1,4.65,3.88c.83,3.25.91,8.68-.38,17.12L71.2,145.71s6.84,5.21-.43,38c-.26,1.14.44,2.49.29,3.64a14.51,14.51,0,0,1-3.82,7.49c-.85.85-5.38,2.81-4.41.25A38.44,38.44,0,0,1,65.15,190Z"/><path class="cls-17" d="M55,145s.08.71.1,2a.7.7,0,0,0-.08.1c-2.09,2.86-6.65,5.87-8.63,1.19-1.06-2.52-1-5.89-1.34-8.6,0-4.3-.83-8.53-.67-12.88s.67-8.74,1.2-13.09C46.38,106.94,47.24,99,50.9,93c0,0,16.27-2.7,18.76-1a47.57,47.57,0,0,1,7.7,20.68c1.13,11.53-3.62,31.43-3.62,31.43s6.1,17.18-.23,42.28c0,0-7.36,3.78-11.23-.1,0,0,2.87-22.51-.07-39.24a113.32,113.32,0,0,1-.91-31.43S56.55,136,55,145Z"/><path class="cls-18" d="M55,145s.08.71.1,2a.7.7,0,0,0-.08.1c-2.09,2.86-6.65,5.87-8.63,1.19-1.06-2.52-1-5.89-1.34-8.6,0-4.3-.83-8.53-.67-12.88s.67-8.74,1.2-13.09C46.38,106.94,47.24,99,50.9,93c0,0,16.27-2.7,18.76-1a47.57,47.57,0,0,1,7.7,20.68c1.13,11.53-3.62,31.43-3.62,31.43s6.1,17.18-.23,42.28c0,0-7.36,3.78-11.23-.1,0,0,2.87-22.51-.07-39.24a113.32,113.32,0,0,1-.91-31.43S56.55,136,55,145Z"/><path class="cls-19" d="M62.37,111.45a7,7,0,0,0-.74,1.07,6.35,6.35,0,0,0-.56,1.19c-.23.62-.3,1.28-.34,1.28a3.54,3.54,0,0,1,.14-1.35,5.6,5.6,0,0,1,.5-1.26,6.18,6.18,0,0,1,.85-1.08,3.33,3.33,0,0,1,1.1-.78S62.8,110.94,62.37,111.45Z"/><path class="cls-19" d="M57.66,113.35a6.15,6.15,0,0,1-.82-1.28s.48.59,1,1.14,1.06,1.06,1.06,1.06.54.52,1.13,1,1.23.86,1.21.9a6,6,0,0,1-1.33-.73,11.72,11.72,0,0,1-1.21-.93A13.49,13.49,0,0,1,57.66,113.35Z"/><path class="cls-19" d="M61.47,114.27a5.77,5.77,0,0,1,.89-1,11.22,11.22,0,0,1,1.11-.78,5.35,5.35,0,0,1,1.19-.61,12.84,12.84,0,0,1-1.08.79,10.75,10.75,0,0,0-1,.83,6.06,6.06,0,0,0-.92.93,9.43,9.43,0,0,0-.67,1.13A2.85,2.85,0,0,1,61.47,114.27Z"/><path class="cls-19" d="M71.8,141.28c.21-1.69.36-3.4.36-3.4s.19-1.7.32-3.4c.06-.85.12-1.71.16-2.35a9.14,9.14,0,0,1,.09-1.07,1,1,0,0,1,0,.3c0,.19,0,.46,0,.78,0,.64,0,1.5-.07,2.35-.08,1.71-.24,3.42-.24,3.42s-.18,1.71-.45,3.4c-.13.85-.27,1.69-.4,2.32-.06.32-.11.58-.15.77a1.08,1.08,0,0,1-.08.28,7.89,7.89,0,0,1,.12-1.06C71.57,143,71.68,142.13,71.8,141.28Z"/><path class="cls-19" d="M70,99.05c.12.19.25.43.4.71s.32.6.48.95a30.27,30.27,0,0,1,2,5.34,38.86,38.86,0,0,1,1.07,5.59c.1.78.16,1.42.19,1.87l.06.72s.06,1,.08,2.59,0,3.62-.17,5.69-.33,4.12-.49,5.67c-.09.77-.16,1.41-.21,1.86,0,.22,0,.4-.07.52s0,.19,0,.18v-.18l0-.53.15-1.86c.13-1.55.29-3.61.4-5.67s.14-4.13.11-5.68-.11-2.58-.11-2.58l-.05-.7c0-.45-.08-1.1-.17-1.86a40.54,40.54,0,0,0-1-5.58,32.16,32.16,0,0,0-1.88-5.34c-.16-.36-.32-.68-.46-1s-.26-.52-.37-.72-.19-.36-.25-.46l-.08-.17s0,0,.11.15Z"/><path class="cls-18" d="M62.28,186.3s.32-2.52.63-6.5c.93,1.62,2.24,2.76,4.12,2.5,5.63-.78,6.22-22.71,4.08-28.15-1.71-4.36-6.3-1.72-8-.51-.2-2.25-.48-4.46-.85-6.58-.43-2.45-.75-4.86-1-7.18,2.32,4.55,8.16,6.93,11.53-8.52C76.92,112.25,67.8,95.7,68,95a7.59,7.59,0,0,1,1.45-3l.2.11a47.57,47.57,0,0,1,7.7,20.68c1.13,11.53-3.62,31.43-3.62,31.43s6.1,17.18-.23,42.28C73.51,186.4,66.15,190.18,62.28,186.3Z"/><path class="cls-18" d="M46.36,148.33c-1.06-2.52-1-5.89-1.34-8.6,0-.8,0-1.6-.08-2.4.87,3.51,2.28,6.2,4.55,5C54.88,139.5,57,112.88,57,112.88c.54.27,3.86,3,4.19,3.24l-.07.28v.07l0,.18L61,117l-.07.29,0,.16c-.07.33-.16.7-.25,1.1l0,.13-.12.55-.06.22-.12.55,0,.17-.15.66-.08.37c0,.15-.07.3-.11.45s-.1.46-.16.7l-.06.27c-.15.66-.3,1.35-.46,2.06l-.06.25c0,.24-.11.49-.16.74s-.08.33-.11.49l-.15.65-.1.44-.15.69c0,.15-.07.31-.1.47s-.11.46-.16.7l-.09.4-.18.85c0,.11-.05.22-.08.33s-.11.5-.16.75-.07.32-.1.48l-.18.8c0,.12,0,.23-.08.35-.06.3-.12.6-.19.89l-.09.43c-.07.35-.15.7-.22,1l0,.18c-.07.32-.14.64-.2,1l-.09.41c-.05.23-.1.46-.14.69s-.07.32-.1.48-.09.44-.14.66l-.09.46-.12.6c0,.16-.07.32-.1.48l-.12.59-.09.44c0,.2-.07.39-.11.58s0,.28-.08.42-.07.37-.11.55,0,.27-.07.4-.08.4-.11.6l-.06.29L55,145h0s.06.54.09,1.55c0,.15,0,.3,0,.46a.7.7,0,0,0-.08.1C52.9,150,48.34,153,46.36,148.33Z"/><g class="cls-20"><path class="cls-17" d="M62.48,139.19a9,9,0,0,0-.14-1.49c-.11-.9-.23-2.09-.32-3.28-.17-2.39-.11-4.78-.11-4.78s0-2.38.17-4.77c.1-1.19.23-2.38.35-3.27a9.28,9.28,0,0,0,.16-1.5,7,7,0,0,0-.39,1.46c-.19.88-.39,2.07-.54,3.27-.31,2.39-.35,4.81-.35,4.81s0,2.42.29,4.82c.14,1.2.33,2.39.51,3.27A7.07,7.07,0,0,0,62.48,139.19Z"/><path class="cls-17" d="M48.56,102.94a.63.63,0,0,0,.3-.09.54.54,0,0,0-.6,0A.63.63,0,0,0,48.56,102.94Z"/><path class="cls-17" d="M46.08,131.15a15.42,15.42,0,0,0,.08-2.12c0-1.27.06-3,.12-4.65.13-3.39.44-6.76.44-6.76s.22-3.38.61-6.74c.2-1.69.42-3.37.6-4.62a16.88,16.88,0,0,0,.25-2.11,2,2,0,0,0-.16.56c-.08.36-.2.88-.32,1.51-.25,1.25-.53,2.92-.79,4.6-.5,3.36-.79,6.75-.79,6.75s-.23,3.4-.26,6.8c0,1.69,0,3.39.07,4.67,0,.63,0,1.16.08,1.53A2.58,2.58,0,0,0,46.08,131.15Z"/><path class="cls-17" d="M45.54,135.62c.16,0,.19-1.54.19-1.54s-.24-1.51-.41-1.49-.19,1.53-.19,1.53S45.37,135.63,45.54,135.62Z"/></g><path class="cls-18" d="M50.41,95.51a14,14,0,0,1,1.53-1.92c9.5-9.81,17.72-1,17.72-1a13.94,13.94,0,0,1,1.2,1.19L62,99.36l-3.79-3.79-4.43,2.84Z"/><path class="cls-9" d="M47.51,72.43c.26-3.21,1.84-6.16,3-9.11.9-2.24,1.89-6.32,3.9-7.89s12.34-.25,12.34-.25,8,3,8.27,4.24-4.12,13.23-5,17.74-2.15,12-2.15,12l3.33,3.48-9.18,5.7-3.8-3.8-4.43,2.85-4.11-3.6s2.48-2.37,3.08-4.39c-.47-1.86-1.22-8.15-2.88-10.48C48.42,76.82,47.29,75.05,47.51,72.43Z"/><path class="cls-10" d="M69.06,94A6.93,6.93,0,0,0,68,92.23c-1.44-1.72-4.43-.69-5.38-.3,1.8-1,3.63-6.53,3.14-8.81s-6-2.24-10.14-1.72a6.63,6.63,0,0,0-4,1.89,14.07,14.07,0,0,0-1.65-4.37c-1.51-2.1-2.64-3.87-2.42-6.49a13.14,13.14,0,0,1,.34-2.07A8.4,8.4,0,0,0,48.91,74c1.2,1.37,2.24.17,6.88,1.37s7.73.69,11-3.27c2.63-3.18,4.25-8.35,4.78-10.25a9.2,9.2,0,0,1,2,3.43c-1.28,4.1-3,9.25-3.47,11.87-.86,4.52-2.15,12-2.15,12l3.33,3.48Z"/><path class="cls-6" d="M66.22,51.71s.53,5.38-1.59,6.33-4.5,1-5.29-1.27a11.05,11.05,0,0,1,0-5.37S66,50.45,66.22,51.71Z"/><path class="cls-8" d="M60.31,58.12c3.42-.52,5.52-4.44,4.38-3.87s-4.49.12-5.7-.07a14,14,0,0,1,.35-2.78s6.62-.95,6.88.31c0,0,.53,5.38-1.59,6.33C63.1,58.73,61.42,58.91,60.31,58.12Z"/><g class="cls-21"><g class="cls-11"><path class="cls-12" d="M54.42,77.68c.06.9.18,2.09.37,3.28s.42,2.36.63,3.24.38,1.45.38,1.45.16.58.45,1.44.7,2,1.06,3.11A15.29,15.29,0,0,1,58,93.4c0,.45,0,.82,0,1.08a3.18,3.18,0,0,0,0,.41,1.72,1.72,0,0,0,.07-.41,8.24,8.24,0,0,0,0-1.09,13.89,13.89,0,0,0-.58-3.25c-.34-1.15-.74-2.28-1-3.14s-.43-1.43-.43-1.43-.17-.57-.39-1.44-.49-2-.7-3.21a15.54,15.54,0,0,1-.33-5.84c.09-.4.21-.79.33-1.19a28.6,28.6,0,0,1,1-3.33,107.27,107.27,0,0,0,4.55-12.13c-.44,1.43-1.18,2.83-1.73,4.22s-1.18,3-1.75,4.47a41.85,41.85,0,0,0-2.68,8.51A9.37,9.37,0,0,0,54.42,77.68Z"/></g><g class="cls-11"><path class="cls-9" d="M58.15,79.07a4.36,4.36,0,0,0,.73.24,9.46,9.46,0,0,0,1.69.23,10.7,10.7,0,0,0,1.7-.11,5.26,5.26,0,0,0,.55-.11l.21,0,.21-.06c.13,0,.32-.09.53-.18a9.06,9.06,0,0,0,1.55-.72,10,10,0,0,0,1.37-1,2.84,2.84,0,0,0,.52-.57,7.25,7.25,0,0,0-.6.48,10.82,10.82,0,0,1-1.39.91,9.66,9.66,0,0,1-1.53.65c-.22.08-.4.12-.53.16L63,79l-.2.05c-.13,0-.31.08-.54.12a10.5,10.5,0,0,1-1.65.17,11.08,11.08,0,0,1-1.66-.14A5.29,5.29,0,0,0,58.15,79.07Z"/></g><g class="cls-11"><path class="cls-9" d="M66.36,90.45A1.69,1.69,0,0,0,67,90a3.87,3.87,0,0,0,.51-.6,4.5,4.5,0,0,0,.3-.74,1.62,1.62,0,0,0,.08-.78s-.12.37-.28.71a4.73,4.73,0,0,1-.36.65,3.94,3.94,0,0,1-.41.62C66.62,90.16,66.33,90.41,66.36,90.45Z"/></g><g class="cls-11"><path class="cls-9" d="M53.85,91.05s-.27-.34-.48-.71a4.19,4.19,0,0,1-.33-.78,3.68,3.68,0,0,1-.22-.8c-.07-.42,0-.86-.08-.86a1.76,1.76,0,0,0-.13.87,3.51,3.51,0,0,0,.15.89,3.39,3.39,0,0,0,.44.79C53.46,90.82,53.82,91.09,53.85,91.05Z"/></g><g class="cls-11"><path class="cls-9" d="M48.76,77.4a2.07,2.07,0,0,0,.59.62,5.92,5.92,0,0,0,.69.49,6.33,6.33,0,0,0,.79.34,2.25,2.25,0,0,0,.83.18,5.4,5.4,0,0,0-.75-.38c-.37-.18-.72-.4-.72-.4s-.37-.18-.72-.4A5.91,5.91,0,0,0,48.76,77.4Z"/></g></g><path class="cls-10" d="M60.94,58.85s-3.19,2.95-3.81,1.35l0-.11A26,26,0,0,1,59,55.48a2.67,2.67,0,0,0,2.32,2.35,4.44,4.44,0,0,0,4.56-2.66c.23,1.16.87,5.24-2.46,6.69C63,62.06,62,61.67,60.94,58.85Z"/><path class="cls-9" d="M66.24,53.76c.05-.39,1.29,3.82-2.4,7.51,0,0-1.23,1.35-2.83-2.83,0,0-3.19,3-3.8,1.35S59,54.18,59,54.18s-.18,2.88,2.4,3.25A4.48,4.48,0,0,0,66.24,53.76Z"/><path class="cls-22" d="M66.24,53.76c.05-.39,1.29,3.82-2.4,7.51,0,0-1.23,1.35-2.83-2.83,0,0-3.19,3-3.8,1.35S59,54.18,59,54.18s-.18,2.88,2.4,3.25A4.48,4.48,0,0,0,66.24,53.76Z"/><path class="cls-10" d="M57.21,59.26c.61,1.59,3.8-1.36,3.8-1.36,1.6,4.18,2.83,2.83,2.83,2.83A8.54,8.54,0,0,0,66.47,55a8.43,8.43,0,0,1-2.63,6.31S62.61,62.62,61,58.44c0,0-3.19,3-3.8,1.35a2,2,0,0,1-.09-.89A1.36,1.36,0,0,0,57.21,59.26Z"/><g class="cls-23"><path class="cls-9" d="M49.1,70.06a4.09,4.09,0,0,0,.19-.86,16.5,16.5,0,0,1,.53-1.84c.23-.66.5-1.31.69-1.8l.33-.81s1.84-5.33,1.68-5.39-2.24,5.18-2.24,5.18l-.28.83c-.17.5-.4,1.18-.58,1.87a10.53,10.53,0,0,0-.36,1.93A2.08,2.08,0,0,0,49.1,70.06Z"/><path class="cls-9" d="M49,72.67c.16,0,.19-.81.19-.81s-.24-.76-.4-.74-.19.82-.19.82S48.83,72.69,49,72.67Z"/><path class="cls-9" d="M54.56,90.73c.06,0-.4-.72-.73-1.45a10.9,10.9,0,0,1-.55-1.49,9.79,9.79,0,0,1-.44-1.53c-.17-.78-.19-1.59-.27-1.6a3.74,3.74,0,0,0-.15,1.66,5.8,5.8,0,0,0,1,3.16A3.61,3.61,0,0,0,54.56,90.73Z"/><path class="cls-9" d="M53.5,95.83a22.17,22.17,0,0,0-2.45-2.3l-.07,0h0s0,0,0,0l0,0,.16-.13a7.5,7.5,0,0,0,.72-.68,2.69,2.69,0,0,0,.73-1.07,9.18,9.18,0,0,0-1,.8c-.25.2-.53.39-.76.54l-.45.28-.43.25.71.56A23.07,23.07,0,0,0,53.5,95.83Z"/></g><path class="cls-6" d="M79.39,33c.23-6.7-2.54-17.57-16.65-17.67S46.41,30.81,46.41,30.81a42.62,42.62,0,0,0-1.31,10.1c.17,4.38,2.44,10.88,12.6,11.92s18-3.22,19.82-9.47a5.2,5.2,0,0,0,4.79-4.18C83,36.29,81.44,33.37,79.39,33Z"/><g class="cls-21"><path class="cls-6" d="M79.39,33a21.65,21.65,0,0,0-.83-6.74,17.16,17.16,0,0,0-2.3-4.82c2,3.42,2.39,8.55,2.28,11.67.18,0,.61-.09.89-.1Z"/><path class="cls-6" d="M81.24,34.16a6,6,0,0,1,.42,4,5.23,5.23,0,0,1-4.8,4.19C75,48.61,67.21,52.88,57.05,51.84c-5.35-.55-8.51-2.62-10.33-5.09,1.67,2.9,4.93,5.46,11,6.08,10.17,1.05,18-3.22,19.82-9.47a5.2,5.2,0,0,0,4.79-4.18A5.81,5.81,0,0,0,81.24,34.16Z"/></g><path class="cls-7" d="M80.12,40.73a1,1,0,0,1-.42.83.71.71,0,0,1-.42.15.68.68,0,0,1-.51-.24,1.25,1.25,0,0,1-.31-.63.88.88,0,0,1,.22-.76,2.28,2.28,0,0,1,.43-.29.61.61,0,0,0,.21-.26.92.92,0,0,0,.06-.62.43.43,0,0,0-.31-.32l-.13,0a.28.28,0,0,0-.13,0l-.07,0s0,0,0,0l-.11.16a.55.55,0,0,1-.44.3.37.37,0,0,1-.26-.12.58.58,0,0,1-.15-.28,3.86,3.86,0,0,1-.08-.87,4.26,4.26,0,0,1,0-.61A3.37,3.37,0,0,1,78,36.08a1.91,1.91,0,0,1,.59-.72c.43-.31.79-.21.79-.16s-.31.1-.62.44a2.48,2.48,0,0,0-.58,1.66,4.69,4.69,0,0,0,0,.53c0,.17,0,.13,0,.17s.07,0,.06,0h0l.09-.07a.66.66,0,0,1,.2-.11.9.9,0,0,1,.34-.06,1,1,0,0,1,.29,0,.93.93,0,0,1,.28.16,1.36,1.36,0,0,1,.5.82A1.79,1.79,0,0,1,79.81,40a1.24,1.24,0,0,1-.44.44,4.15,4.15,0,0,0-.38.17.25.25,0,0,0-.09.22.75.75,0,0,0,.13.34.42.42,0,0,0,.54.13C79.94,41.08,80.07,40.69,80.12,40.73Z"/><path class="cls-24" d="M80.75,35.38c.3.29.64.38.76.19s0-.58-.31-.88-.63-.39-.75-.2S80.46,35.08,80.75,35.38Z"/><path class="cls-24" d="M79.65,33.92a.33.33,0,0,0,.15.38.2.2,0,0,0,.31-.1.35.35,0,0,0-.14-.39A.21.21,0,0,0,79.65,33.92Z"/><path class="cls-25" d="M60,41.4a5.41,5.41,0,0,1-4.25-1.24s-1.22.74.9,1.59C59.51,42.89,60,41.4,60,41.4Z"/><path class="cls-7" d="M58.8,42a6,6,0,0,1-.89,0,5.35,5.35,0,0,1-1.82-.65,1.11,1.11,0,0,1-.57-.64.53.53,0,0,1,.26-.54,1.45,1.45,0,0,1,.5-.21,1,1,0,0,1,.21,0,1.91,1.91,0,0,1,.5,0,2.56,2.56,0,0,1,.6.11,1.78,1.78,0,0,1,.36.14,5.59,5.59,0,0,1,.78.5c0-.31,0-.65,0-1v-.6c0-.41,0-.83,0-1.21a5.83,5.83,0,0,0-.1-1.34,5.39,5.39,0,0,0-.18,1.33c0,.38-.07.8-.1,1.22,0,.2,0,.41,0,.6s0,.08,0,.09l-.07-.06a2.2,2.2,0,0,0-.43-.18,2.94,2.94,0,0,0-.72-.17,2.47,2.47,0,0,0-.62,0l-.28.05a2.09,2.09,0,0,0-.7.34,1.26,1.26,0,0,0-.35.45,1,1,0,0,0-.05.65,1.53,1.53,0,0,0,.85.89,4.93,4.93,0,0,0,2,.51A1.29,1.29,0,0,0,58.8,42Z"/><path class="cls-24" d="M56.91,40.29c-.06.13.13.34.42.46s.57.12.62,0-.13-.34-.41-.47S57,40.15,56.91,40.29Z"/><path class="cls-8" d="M67.54,40c2.1.09,3.76,1.26,3.7,2.6s-1.81,2.35-3.92,2.26-3.76-1.26-3.7-2.6S65.43,39.87,67.54,40ZM46,39.85c-.3,1.31,1.1,2.75,3.13,3.22s3.92-.21,4.21-1.52-1.1-2.75-3.13-3.22S46.33,38.54,46,39.85Z"/><path class="cls-26" d="M66.29,31c0,.07.39,0,.73,0a4.31,4.31,0,0,1,1.28.33c.31.13.58.38.65.33s-.1-.41-.42-.68A1.76,1.76,0,0,0,67,30.65C66.58,30.73,66.25,31,66.29,31Z"/><path class="cls-26" d="M53.13,29.8c-.05.07-.39-.07-.73-.09a4.45,4.45,0,0,0-1.31.12c-.33.08-.64.27-.7.22s.17-.39.53-.61a1.8,1.8,0,0,1,1.58-.14C52.89,29.45,53.18,29.74,53.13,29.8Z"/><path class="cls-8" d="M47.75,28.53C49.18,24,53,16.18,62.75,16.26c13.62.1,16.29,11,16.07,17.67,2,.35,3.5,3.27,2.82,6.16A5.05,5.05,0,0,1,77,44.27,12,12,0,0,1,71.6,51.1,21.24,21.24,0,0,0,72.94,48c1.88-5.37,3.15-13.61-.44-18.53a7.83,7.83,0,0,0-1-1.08,22.71,22.71,0,0,0-2.22-1.69c-1.28-.92-1.76-2.47-3.17-3.29a5.87,5.87,0,0,0-7.56,2C55.78,29.59,48.35,28.62,47.75,28.53Z"/><path class="cls-26" d="M72,27.76a7.34,7.34,0,0,1,1,1.08c3.59,4.92,2.31,13.15.44,18.53a15.66,15.66,0,0,1-4,6.58s11.21-1.86,14.38-6.11,3-22.8-1.29-28S75,16,75,16s-3.43-5.94-13.44-5.32-14.38,9-16.1,12.32-4.15,15.7-2.91,24.13c.39,2.61,5.83,5.23,5.83,5.23s-5.48-10-.26-24.48c0,0,8,1.24,10.87-3.1a5.87,5.87,0,0,1,7.56-2c1.42.82,1.9,2.38,3.18,3.3A22.19,22.19,0,0,1,72,27.76Z"/><path class="cls-18" d="M67.73,16.56l-.45-.41A5.76,5.76,0,0,1,67.73,16.56Z"/><path class="cls-18" d="M78.48,17.71c-.26,1,1.76,3.65,1.76,3.65s-3.4-2.47-4.66-2.21,1,3.9,1,3.9-3.4-3-4.91-1.3c-1.05,1.19-.32,4.22.21,5.93a25.25,25.25,0,0,0-2.13-1.61c-1.28-.92-1.76-2.48-3.18-3.3l-.15-.08c.85-.16,1.38-.54.85-1.33A8.17,8.17,0,0,0,64,18.49s5.66,2.09,5.28.53a5.62,5.62,0,0,0-1.56-2.46c.89.78,2.81,2.34,3.2,1.54.5-1-.88-3.25-.88-3.25s3.65,2,3.9.52a2.5,2.5,0,0,0,0-.75A7.68,7.68,0,0,1,75,16s2.47-1.11,6,2.24C80.07,17.7,78.64,17,78.48,17.71Z"/><g class="cls-27"><path class="cls-17" d="M75.18,28.55a8.15,8.15,0,0,0-.92-1.44c-.51-.69-1.08-1.33-1.08-1.33S72.6,25.16,72,24.6l-.48-.41a1.82,1.82,0,0,0-.45-.31.48.48,0,0,0-.4,0c-.09,0-.11.12-.1.12s0,0,.12-.06A.44.44,0,0,1,71,24a2.27,2.27,0,0,1,.4.34l.44.44C72.42,25.35,73,26,73,26s.59.61,1.13,1.26S75.15,28.58,75.18,28.55Z"/><path class="cls-17" d="M77.74,36a1.57,1.57,0,0,0,0-.3c0-.2,0-.47,0-.8a16.86,16.86,0,0,0-.15-2.43,17.83,17.83,0,0,0-.53-2.38c-.09-.32-.19-.58-.25-.76l-.1-.29-.12-.28c-.08-.17-.17-.43-.32-.73a16.5,16.5,0,0,0-1.2-2.1,15.25,15.25,0,0,0-1.5-1.87,5.53,5.53,0,0,0-.56-.55c-.14-.13-.22-.2-.23-.19s.29.33.71.82A18.25,18.25,0,0,1,75,26a18.49,18.49,0,0,1,1.12,2.1c.14.29.23.55.3.72l.11.28.11.28c.06.18.17.43.26.75a19.57,19.57,0,0,1,.58,2.32,19.42,19.42,0,0,1,.24,2.4C77.73,35.54,77.71,36,77.74,36Z"/><path class="cls-17" d="M68,14.16a14,14,0,0,1,1.32.65,6.17,6.17,0,0,1,1.12.94,6.08,6.08,0,0,1,.9,1.17A13.38,13.38,0,0,1,72,18.28a3.83,3.83,0,0,0-.45-1.47,6.18,6.18,0,0,0-.88-1.27,6,6,0,0,0-1.22-.91A3.6,3.6,0,0,0,68,14.16Z"/><path class="cls-17" d="M69.49,17.73s.15.22.31.41.3.39.3.39.17.17.33.36.31.39.35.37a1.17,1.17,0,0,0-.18-.49c-.13-.23-.28-.44-.28-.44a3.48,3.48,0,0,0-.38-.34C69.74,17.83,69.51,17.7,69.49,17.73Z"/><path class="cls-17" d="M61.26,18.89a4.19,4.19,0,0,0,.62-.16,5.61,5.61,0,0,1,1.37-.14,6.86,6.86,0,0,1,2,.37s.25.07.6.21a10.33,10.33,0,0,1,1.27.58c.91.49,1.77,1.06,1.8,1a2.67,2.67,0,0,0-.51-.41c-.31-.23-.74-.52-1.19-.79a12.12,12.12,0,0,0-1.27-.66c-.36-.15-.61-.23-.61-.23s-.25-.08-.63-.17a6.71,6.71,0,0,0-1.43-.13,4.69,4.69,0,0,0-1.4.24A1.94,1.94,0,0,0,61.26,18.89Z"/><path class="cls-17" d="M52.09,26.22a1.5,1.5,0,0,0,.64.13,3.64,3.64,0,0,0,1.42-.25,5.45,5.45,0,0,0,1.28-.7c.32-.24.52-.41.52-.41s.2-.18.48-.46.64-.67,1-1.05l1-1.07a3.23,3.23,0,0,0,.42-.51,2.77,2.77,0,0,0-.5.43l-1,1-1,1c-.29.27-.48.43-.48.43s-.19.18-.5.42a5.28,5.28,0,0,1-1.19.73,3.87,3.87,0,0,1-1.35.32C52.35,26.25,52.1,26.2,52.09,26.22Z"/><path class="cls-17" d="M50.2,25.52s.73-.69,1.47-1.36,1.51-1.31,1.51-1.31.74-.67,1.52-1.29,1.58-1.22,1.56-1.25a2.7,2.7,0,0,0-.55.31c-.31.2-.73.48-1.13.77C53.76,22,53,22.62,53,22.62s-.75.67-1.46,1.39c-.35.36-.69.73-.94,1A3.27,3.27,0,0,0,50.2,25.52Z"/><path class="cls-17" d="M48.64,27.05s.41-.81.87-1.59,1-1.5,1-1.5a17.07,17.07,0,0,1,1.07-1.44c.57-.69,1.21-1.31,1.19-1.35a7.62,7.62,0,0,0-1.34,1.21,16.86,16.86,0,0,0-1.16,1.4,16.43,16.43,0,0,0-.92,1.58A8.39,8.39,0,0,0,48.64,27.05Z"/><path class="cls-17" d="M47.29,25.5a5.92,5.92,0,0,0,.41-.8c.23-.48.55-1.12.9-1.74a19.27,19.27,0,0,1,1-1.66c.31-.43.53-.71.53-.71a12.49,12.49,0,0,1,1.91-2,10.15,10.15,0,0,1,1.58-1.08c.46-.25.79-.38.78-.4a.65.65,0,0,0-.23.06,5.25,5.25,0,0,0-.59.24,8.3,8.3,0,0,0-1.66,1,11.3,11.3,0,0,0-1.44,1.34c-.36.4-.58.69-.58.69s-.22.28-.51.73a17.72,17.72,0,0,0-1,1.72c-.33.64-.62,1.29-.82,1.79A7.48,7.48,0,0,0,47.29,25.5Z"/><path class="cls-17" d="M44.7,26.16a1.57,1.57,0,0,0,.53.94,3.16,3.16,0,0,0,.89.61,5.42,5.42,0,0,0,1,.24,3.46,3.46,0,0,0,1,0,6.93,6.93,0,0,0-1-.23,5.56,5.56,0,0,1-1-.31,3,3,0,0,1-.87-.49A3.65,3.65,0,0,1,44.7,26.16Z"/><path class="cls-17" d="M47.26,22.36a5.32,5.32,0,0,0-.8,1.1,11,11,0,0,0-.63,1.22A10.4,10.4,0,0,0,45.41,26a4.94,4.94,0,0,0-.22,1.37s.19-.66.41-1.3a13.1,13.1,0,0,1,.49-1.26s.24-.63.55-1.23S47.3,22.39,47.26,22.36Z"/><path class="cls-17" d="M78.3,43a2.3,2.3,0,0,0,.15-.34c.09-.23.24-.54.36-.94a23.46,23.46,0,0,0,.81-2.93,27.13,27.13,0,0,0,.41-3c0-.42,0-.77,0-1V34c0-.24,0-.59,0-1a24.09,24.09,0,0,0-.37-3A23.07,23.07,0,0,0,78.9,27c-.12-.39-.26-.71-.35-.93a2.19,2.19,0,0,0-.15-.35,2.21,2.21,0,0,0,.1.37c.07.23.19.55.29.95a26.21,26.21,0,0,1,.68,3,26.84,26.84,0,0,1,.31,3c0,.41,0,.76,0,1v.75c0,.24,0,.59,0,1a27.56,27.56,0,0,1-.34,3,28.4,28.4,0,0,1-.71,2.94c-.11.39-.24.71-.31.94A2.21,2.21,0,0,0,78.3,43Z"/><path class="cls-17" d="M81.38,23.54a5.61,5.61,0,0,0-.52-1.61A10.48,10.48,0,0,0,80,20.46a10.14,10.14,0,0,0-1.15-1.24,5.34,5.34,0,0,0-1.36-.95s.65.52,1.23,1.11a10.41,10.41,0,0,1,1,1.26,11.79,11.79,0,0,1,.9,1.39C81.07,22.76,81.34,23.56,81.38,23.54Z"/><path class="cls-17" d="M83.6,42.32s0-.13.1-.36.13-.57.2-1c.16-.82.3-1.92.4-3s.1-2.21.08-3.05c0-.41,0-.76,0-1v-.38l0-.38c0-.25-.05-.59-.11-1-.1-.83-.29-1.93-.52-3s-.56-2.14-.83-2.92c-.13-.4-.26-.72-.35-.94a2.19,2.19,0,0,0-.15-.35,2.21,2.21,0,0,0,.1.37c.07.23.18.55.29.95.24.79.51,1.86.74,2.94s.37,2.17.46,3c0,.41.06.75.09,1l0,.38,0,.38c0,.24,0,.58.06,1,0,.83,0,1.93,0,3s-.19,2.2-.31,3c-.05.41-.12.74-.15,1A1.53,1.53,0,0,0,83.6,42.32Z"/><path class="cls-17" d="M77.43,50.15s.08-.07.2-.2a6,6,0,0,0,.49-.58,14.57,14.57,0,0,0,1.25-1.92,18.8,18.8,0,0,0,.94-2.11c.22-.59.35-1,.35-1s.12-.41.28-1,.32-1.44.47-2.27.25-1.66.31-2.29c0-.31,0-.57.07-.76a1.14,1.14,0,0,0,0-.29s-.08.42-.18,1-.24,1.44-.4,2.26-.36,1.64-.53,2.24-.29,1-.29,1l-.33,1a19.9,19.9,0,0,1-.87,2.11A16.2,16.2,0,0,1,78,49.3,10.37,10.37,0,0,0,77.43,50.15Z"/><path class="cls-17" d="M43.54,34.9s.15-.8.31-1.6.33-1.58.33-1.58.16-.79.35-1.58a15.89,15.89,0,0,0,.39-1.57,7.78,7.78,0,0,0-.58,1.51c-.25.78-.44,1.58-.44,1.58s-.16.8-.25,1.61A9,9,0,0,0,43.54,34.9Z"/><path class="cls-17" d="M45.06,47.75s-.18-.3-.39-.78a8.32,8.32,0,0,1-.5-1.86c-.22-1.4-.31-2.81-.31-2.81s-.14-1.41-.15-2.83c0-.7,0-1.41,0-1.94a8.75,8.75,0,0,0,0-.89,4.44,4.44,0,0,0-.13.88c0,.53-.09,1.24-.1,1.95,0,1.43.06,2.85.06,2.85s.13,1.43.4,2.83a7.48,7.48,0,0,0,.6,1.87,5.26,5.26,0,0,0,.33.55Z"/><path class="cls-17" d="M77.94,21a2.9,2.9,0,0,0-.74-1,5.21,5.21,0,0,0-1-.72A5,5,0,0,0,75,19a2.73,2.73,0,0,0-1.21.05s.6,0,1.17.16a4.9,4.9,0,0,1,1.1.41,5.42,5.42,0,0,1,1,.61C77.54,20.54,77.91,21,77.94,21Z"/><path class="cls-17" d="M75.79,21.92a3.11,3.11,0,0,0-.5-.82,6.74,6.74,0,0,0-.62-.73,3.48,3.48,0,0,0-.8-.53,1.58,1.58,0,0,0-.93-.19,7.42,7.42,0,0,1,.83.38,3.87,3.87,0,0,1,.71.56,7.71,7.71,0,0,1,.66.65A5.54,5.54,0,0,0,75.79,21.92Z"/></g><path class="cls-18" d="M81.79,37.72a2.31,2.31,0,0,1-.13.73C81.69,37.93,81.75,37.62,81.79,37.72Z"/><path class="cls-18" d="M73.39,47.37c1.36-3.9,2.4-9.31,1.5-13.87,2.17,6-1.57,15.4,1,15.08,2.37-.3,5.14-7.73,5.79-10.13-.12,1.61,0,5.23,2,4.63,1.73-.55,2.08-6.53,2.23-10.29.36,6.29-.37,12.75-2.08,15.05C80.59,52.09,69.38,54,69.38,54A15.66,15.66,0,0,0,73.39,47.37Z"/><path class="cls-18" d="M42.58,47.13c-.09-.67-.17-1.35-.22-2.06a5.56,5.56,0,0,0,2.7,2.68c2.5.77,0-2.38.16-5.36s2-12.61.11-12.72c-.8-.05-1.6,1.17-2.26,2.59A38.41,38.41,0,0,1,45.49,23c.38-.73.87-1.7,1.53-2.77-.49,1.87-1,4.38-.14,5.08,1.33,1.15,5.2-3.67,5.53-3.9s-3.65,4.13-2.21,5.05,8.13-4.13,8.13-4.13-2.6,2.87-2.27,3.44c.21.36,2-.63,3.28-1.43-.11.14-.22.29-.32.44-2.91,4.34-10.87,3.1-10.87,3.1-5.22,14.46.26,24.48.26,24.48S43,49.74,42.58,47.13Z"/><g class="cls-28"><path class="cls-17" d="M82.92,22a13.44,13.44,0,0,1,2.34,8.23.09.09,0,0,1-.17,0c-.32-1.37-.61-2.77-1-4.11s-1-2.63-1.35-4c0-.12.13-.24.21-.13Z"/></g><g class="cls-28"><path class="cls-17" d="M85.26,31.93a4.56,4.56,0,0,1,.11,1.52c0,.14-.23.14-.22,0A4.83,4.83,0,0,0,85.1,32c0-.11.14-.16.16-.05Z"/></g><g class="cls-28"><path class="cls-17" d="M81.12,25.05c2.1,2.3,2.88,7.09,2.34,10.12-.08.44-.67.36-.79,0a41.15,41.15,0,0,1-1.07-5.28,20.61,20.61,0,0,1-.78-4.71.18.18,0,0,1,.3-.13Z"/></g><g class="cls-28"><path class="cls-17" d="M81.22,33.45A15.91,15.91,0,0,1,81,39.33c0,.13-.26.12-.25,0,.08-1,.37-1.92.43-2.91a23.88,23.88,0,0,0,0-2.93c0-.09.12-.08.12,0Z"/></g><g class="cls-28"><path class="cls-17" d="M76,24c1.67,2.09,3.28,5,2.62,7.8a.25.25,0,0,1-.49,0c-1-2.5-1.12-5.24-2.2-7.74,0,0,0-.1.07-.06Z"/></g><g class="cls-28"><path class="cls-17" d="M75.65,29.82a14,14,0,0,1,1,10.08c0,.11-.22.1-.21,0A29.56,29.56,0,0,0,75.34,30c-.06-.19.22-.32.31-.14Z"/></g><g class="cls-28"><path class="cls-17" d="M69,13.35A28.18,28.18,0,0,0,63.19,12c-.31-.06-.21-.51.06-.53a11,11,0,0,1,5.83,1.65c.1.06,0,.25-.09.2Z"/></g><g class="cls-28"><path class="cls-17" d="M66.93,14.88c-1.6,0-3.1-.32-4.72-.43-1.94-.13-3.87,0-5.81.05a.3.3,0,0,1-.19-.5c2.34-2.45,5.88-2.17,8.8-1.12.55.2,2.24.64,2.15,1.55,0,.14,0,.44-.23.45Z"/></g><g class="cls-28"><path class="cls-17" d="M55.18,15.19a2.69,2.69,0,0,1-.33.26l-.42.21a3,3,0,0,1-.81.38.36.36,0,0,1-.39-.53,1.43,1.43,0,0,1,.75-.66,1.81,1.81,0,0,1,1-.23c.24,0,.47.38.23.57Z"/></g><g class="cls-28"><path class="cls-17" d="M64,20.44c-.81.38-1.71.45-2.53.86A14.53,14.53,0,0,0,59,23a.15.15,0,0,1-.24-.19c.89-1.56,3.41-3.16,5.22-2.52,0,0,.07.1,0,.12Z"/></g><g class="cls-28"><path class="cls-17" d="M60.8,20c-.92.66-1.84,1.27-2.81,1.85s-1.94.85-2.78,1.45c-.34.24-.84-.25-.58-.61a7,7,0,0,1,2.28-2.37A18.13,18.13,0,0,1,60.39,19c.61-.19.89.68.41,1Z"/></g><g class="cls-28"><path class="cls-17" d="M65.24,16.27c-2.12.54-4.3.67-6.38,1.35s-4,1.86-6.11,2.48c-.4.11-.61-.38-.38-.67,2.69-3.37,9-4.71,12.87-3.2,0,0,0,0,0,0Z"/></g><g class="cls-28"><path class="cls-17" d="M51.49,20.45c-.26.23-.52.46-.77.7s-.26-.06-.16-.16l.75-.73c.12-.11.3.08.18.19Z"/></g><path class="cls-6" d="M79.27,117.77c0,.3-2.26,3.9-1,4.55s1.75-1.79,2.42-1.77-.76,7,.21,7.48,3.13-2.83,3.6-3.54c0,0,0,1.21.5,1.16s.69-5.54.37-7.84S79.48,116.53,79.27,117.77Z"/><path class="cls-7" d="M83.16,122.46a8,8,0,0,1-.25,1.54c-.16.76-.35,1.51-.35,1.51l-.15.47c-.09.28-.2.65-.35,1a2.33,2.33,0,0,1-.6.9.6.6,0,0,1-.44.21,1.12,1.12,0,0,0,.38-.27,2.66,2.66,0,0,0,.51-.9c.12-.36.22-.74.29-1l.13-.47s.22-.74.42-1.49S83.13,122.46,83.16,122.46Zm.59,1.66c-.24.67-.53,1.31-.53,1.31l-.17.41a7.71,7.71,0,0,1-.43.87,3.78,3.78,0,0,1-.59.76c-.19.18-.34.28-.33.29s.17-.05.39-.22a3.26,3.26,0,0,0,.67-.74,7.34,7.34,0,0,0,.49-.87l.18-.41s.27-.66.48-1.35a7.67,7.67,0,0,0,.33-1.4S84,123.45,83.75,124.12Zm1-1.39c0,.37-.14.73-.14.73s-.07.37-.17.72a5.43,5.43,0,0,0-.23.73,2.2,2.2,0,0,0,.38-.67,6,6,0,0,0,.25-.73,4.85,4.85,0,0,0,.07-.77,2.27,2.27,0,0,0-.07-.76A6.8,6.8,0,0,0,84.74,122.73Z"/><path class="cls-8" d="M85,125.65c.09,0,.17-.21.24-.54a6.09,6.09,0,0,1-.32-2.37c0-.06-1.39,3.55-2.62,3.82s-.67-3.52-.92-4.81-.69-1.2-.69-1.2c.67,0-.76,7,.21,7.48s3.13-2.83,3.6-3.54C84.48,124.49,84.51,125.7,85,125.65Z"/><path class="cls-8" d="M78.25,122.32c.66.35,1.11-.19,1.5-.76a1.14,1.14,0,0,1-.8.23c-.91-.12,0-4.11,1.74-3,1.29.83,3.62.36,4.76.06,0-.39-.06-.75-.1-1-.33-2.29-5.87-1.28-6.08,0C79.22,118.07,77,121.67,78.25,122.32Z"/><path class="cls-9" d="M73.84,58.34a16.37,16.37,0,0,0-2.63,5.29C69.7,69.53,78,88.79,78.09,90.78s0,26.1,0,26.1,5,3.14,7.45.82.09-27.51-.65-30.27S78,59.56,73.84,58.34Z"/><path class="cls-10" d="M85.57,117.7c-2.49,2.32-7.45-.82-7.45-.82s.07-24.11,0-26.1S69.7,69.53,71.21,63.63A11.89,11.89,0,0,1,71.75,62v.34c-.06,6.35,3.12,12.89,4.36,15.35s4.54,9.4,4.17,10.56-1.65,26.42,2.41,26.57c2.5.1,3.53-2,4-3.68C86.58,114.51,86.27,117,85.57,117.7Z"/><path class="cls-29" d="M84.07,87.32a9,9,0,0,0-.48-1.63,6,6,0,0,0-.27-.56,5,5,0,0,1,.32.54,7.63,7.63,0,0,1,.62,1.6,41.85,41.85,0,0,1,.76,5.6c.42,4.39.57,8,.57,8s-.54-3.53-1-7.92C84.4,90.72,84.34,88.72,84.07,87.32Zm1.49,17.24c.15,1.42.39,2.58.39,2.58a12.62,12.62,0,0,0-.54-5.18S85.41,103.14,85.56,104.56ZM78.9,68.62a38.34,38.34,0,0,0-3.11-6.22s1.35,2.8,2.75,6.36c.7,1.78,1.28,3.4,1.7,4.59a11.28,11.28,0,0,0,.81,1.87,15.19,15.19,0,0,1-.63-1.93A41,41,0,0,0,78.9,68.62Zm-6.37-7.34a4.59,4.59,0,0,0-.13,1.86,3.77,3.77,0,0,0,.18.75,8,8,0,0,1,.33-2.5,7.87,7.87,0,0,1,1-2.28,3.32,3.32,0,0,0-.55.54A4.35,4.35,0,0,0,72.53,61.28Z"/><path class="cls-14" d="M50.67,35.67a2.78,2.78,0,0,0-1.91,1.24,3.42,3.42,0,0,0-.52,1.35c-.15.1-.48-.08-.66-.23a1.11,1.11,0,0,1-.26-.27.93.93,0,0,0,.14.36,1.46,1.46,0,0,0,.32.38,1.67,1.67,0,0,0,.73.36,5.67,5.67,0,0,1,.91-1.45,2.25,2.25,0,0,1,1.37-.77,1.68,1.68,0,0,1,1.36.48,2.86,2.86,0,0,1,.73,1.18c.14.41.21.77.27,1l.09.39.06-.39a4.81,4.81,0,0,0,.06-1.1,2.89,2.89,0,0,0-.6-1.64A2.31,2.31,0,0,0,50.67,35.67Z"/><path class="cls-14" d="M67.46,36.67a3.12,3.12,0,0,1,1.89,1.56,3.05,3.05,0,0,1,.36,1.43c.15.12.54,0,.76-.12a1.13,1.13,0,0,0,.33-.22,1,1,0,0,1-.22.34,1.42,1.42,0,0,1-.4.31,1.94,1.94,0,0,1-.86.23,5.35,5.35,0,0,0-.76-1.59,2.6,2.6,0,0,0-1.39-1,2,2,0,0,0-1.55.23,2.69,2.69,0,0,0-1,1,7.48,7.48,0,0,0-.45.95L64,40.2s0-.14,0-.4a4.51,4.51,0,0,1,.11-1.1,2.66,2.66,0,0,1,3.33-2Z"/><path class="cls-30" d="M75.57,34.14l-.06,1L74,35.88l-.66.35-.4-.86C73.83,35,74.7,34.55,75.57,34.14Z"/><path class="cls-31" d="M75.54,34.63l0,.46-.57.3-.76.4,0,0-.13.07-.66.35,0-.11,0,0c0-.1-.1-.21-.15-.33Z"/><path class="cls-30" d="M60.48,35.44l.41-.71a7.42,7.42,0,0,0-4.4-.29l.34.74A6.47,6.47,0,0,1,60.48,35.44Z"/><path class="cls-31" d="M60.48,35.44a6.47,6.47,0,0,0-3.65-.26l-.15-.33a7.58,7.58,0,0,1,4,.29Z"/><path class="cls-32" d="M73.22,35.52s-6.41-3.78-12.47-.4c0,0-.8,7.63,5.69,7.83S73.22,35.52,73.22,35.52Z"/><g class="cls-23"><path class="cls-33" d="M64.14,33.91l3.66,9a7.37,7.37,0,0,1-1.36.08c-.19,0-.37,0-.54,0l-3.65-8.49A10.69,10.69,0,0,1,64.14,33.91Z"/><path class="cls-33" d="M68.66,33.94l2.76,6.77A5.66,5.66,0,0,1,70,42l-3.57-8.3A12.83,12.83,0,0,1,68.66,33.94Z"/></g><path class="cls-32" d="M60.73,36.18a9.3,9.3,0,0,1,0-1.06c6.06-3.38,12.47.4,12.47.4a9.67,9.67,0,0,1-.16,1.26A13.37,13.37,0,0,1,60.73,36.18Z"/><path class="cls-30" d="M66.43,43.35a5.87,5.87,0,0,1-4.21-1.7c-2.31-2.39-1.92-6.39-1.9-6.56l0-.2.19-.1c6.21-3.48,12.86.36,12.93.4l.21.12v.23c0,.07-.38,7.81-7,7.81Zm-5.26-8c0,.8-.09,3.91,1.7,5.76a5,5,0,0,0,3.59,1.44c5.43.18,6.21-5.57,6.31-6.82C71.64,35.15,66.26,32.65,61.17,35.36Z"/><path class="cls-31" d="M66.47,43h.24c6.08,0,6.42-7.13,6.42-7.2v-.21L73,35.44c-.06,0-6.19-3.58-11.92-.37l-.17.09,0,.18c0,.16-.37,3.85,1.75,6A5.42,5.42,0,0,0,66.47,43Zm0-.4a5,5,0,0,1-3.59-1.44c-1.79-1.85-1.74-5-1.7-5.76,5.09-2.71,10.47-.21,11.6.38C72.67,37,71.89,42.74,66.46,42.56Z"/><path class="cls-32" d="M56.61,34.79s-6-4.21-12.38-1.26c0,0-1.56,7.54,4.89,8.19S56.61,34.79,56.61,34.79Z"/><g class="cls-23"><path class="cls-33" d="M47.72,32.55l2.76,9.18a6.89,6.89,0,0,1-1.36,0l-.54-.07-2.79-8.71A11.59,11.59,0,0,1,47.72,32.55Z"/><path class="cls-33" d="M52.22,32.89l2.08,6.94a5.8,5.8,0,0,1-1.53,1.22l-2.72-8.53A14,14,0,0,1,52.22,32.89Z"/></g><path class="cls-32" d="M44.1,34.58a7.62,7.62,0,0,1,.13-1c6.36-3,12.38,1.26,12.38,1.26A10.24,10.24,0,0,1,56.33,36,13.29,13.29,0,0,1,44.1,34.58Z"/><path class="cls-30" d="M49.06,42.12a5.69,5.69,0,0,1-4-2c-2.06-2.54-1.28-6.5-1.24-6.67l0-.2.19-.09c6.54-3,12.79,1.26,12.85,1.3l.2.14,0,.22c0,.08-1.16,7.77-7.72,7.31Zm-4.44-8.33c-.12.8-.48,3.89,1.12,5.86a4.86,4.86,0,0,0,3.43,1.68c5.39.56,6.74-5.11,7-6.36C55.08,34.31,50,31.45,44.62,33.79Z"/><path class="cls-31" d="M49.15,41.73l.24,0c6,.42,7.1-6.66,7.11-6.73l0-.21-.18-.12c-.06,0-5.81-4-11.84-1.2l-.18.08,0,.18c0,.16-.75,3.81,1.15,6.15A5.23,5.23,0,0,0,49.15,41.73Zm0-.4a4.86,4.86,0,0,1-3.43-1.68c-1.6-2-1.24-5.06-1.12-5.86C50,31.45,55.08,34.31,56.14,35,55.91,36.22,54.56,41.89,49.17,41.33Z"/><path class="cls-8" d="M62.59,45.17s-2.44,4.92-5.74,4.22-2.41-3.32-3.16-4a13.09,13.09,0,0,0,2.18-1c.4-.35,4.05,1,4.45,1.2A7.59,7.59,0,0,0,62.59,45.17Z"/><path class="cls-30" d="M62.46,45.13S59.94,49.7,56.64,49s-2.49-3.52-3.24-4.21a9.51,9.51,0,0,0,2.25-.8c.41-.35,4.05,1,4.46,1.21A11.2,11.2,0,0,0,62.46,45.13Z"/><path class="cls-34" d="M55.65,44a9.51,9.51,0,0,1-2.25.8c.41.38.35,1.41.77,2.37a1.3,1.3,0,0,0,.08.17l.07.14c-.07-.49-.11-1,.07-1.19.34-.31.86.39.86.39a46.55,46.55,0,0,1,5,0c.32.1,0,.77-.26,1.34a10.73,10.73,0,0,0,2.43-2.88,11.1,11.1,0,0,1-2.34.07c-.07,0-.26-.11-.53-.2l-.95-.35A20.86,20.86,0,0,0,56.47,44l-.29,0-.23,0A.47.47,0,0,0,55.65,44Z"/><path class="cls-14" d="M61.3,45.19a4.57,4.57,0,0,1-4.36,2.5c-2.36-.18-1.91-2.46-2.43-2.92A9.15,9.15,0,0,0,56,44.12c.29-.23,2.85.69,3.14.79A21.22,21.22,0,0,0,61.3,45.19Z"/><path class="cls-35" d="M57.47,48.4c.06.22.46.32.89.22s.73-.36.67-.58-.45-.31-.88-.21S57.41,48.19,57.47,48.4Z"/><path class="cls-35" d="M61.05,45.62c-1.84-.84-4.18.72-5.33,1.65a2.31,2.31,0,0,0,1.22.42A4.45,4.45,0,0,0,61.05,45.62Z"/><path class="cls-7" d="M57.15,50.22a1.87,1.87,0,0,1-.28-.41,1.54,1.54,0,0,1-.09-.22.62.62,0,0,0-.08.25.86.86,0,0,0,.18.61.81.81,0,0,0,.56.28.61.61,0,0,0,.26,0l-.2-.13A1.92,1.92,0,0,1,57.15,50.22Z"/><path class="cls-16" d="M60.77,45.14a13,13,0,0,1-1.59-.23c-.28-.1-2.69-1-3.1-.81l-.1.06a7.94,7.94,0,0,1-1.15.49.9.9,0,0,0,.11.28,3.43,3.43,0,0,0,2.68,1.27A8.75,8.75,0,0,0,60,46c.31-.05,1.05-.32,1.19-.62C61.08,45.33,60.89,45.15,60.77,45.14Z"/><path class="cls-36" d="M59.18,44.91c-.28-.1-2.69-1-3.1-.81l-.1.06a7.94,7.94,0,0,1-1.15.49.9.9,0,0,0,.11.28,2.07,2.07,0,0,0,.17.24c.19,0,1-.15,1.67-.32s1.84.61,2.67.8c.63.15-.75.45-1.66.56A9.4,9.4,0,0,0,60,46c.31-.05,1.05-.32,1.19-.62-.08-.08-.27-.26-.39-.27A13,13,0,0,1,59.18,44.91Z"/><path class="cls-30" d="M62.42,45.13a3.68,3.68,0,0,1-2.48.44,6.49,6.49,0,0,1-3-1.19,3.84,3.84,0,0,1-3.55.41,2.18,2.18,0,0,0,1.35-1.19,1.49,1.49,0,0,1,2.34-.21,1.71,1.71,0,0,1,2.47.45A3.43,3.43,0,0,0,62.42,45.13Z"/><path class="cls-34" d="M62.42,45.13a3.68,3.68,0,0,1-2.48.44,6.49,6.49,0,0,1-3-1.19,3.84,3.84,0,0,1-3.55.41,2.18,2.18,0,0,0,1.35-1.19,1.49,1.49,0,0,1,2.34-.21,1.71,1.71,0,0,1,2.47.45A3.43,3.43,0,0,0,62.42,45.13Z"/><path class="cls-34" d="M53.42,44.79a2.41,2.41,0,0,0,1.06-.71.53.53,0,0,0,.26.47c.59.32,2.25-.63,2.25-.63a4.65,4.65,0,0,0,2.44,1c.72.1,1-.06,1.06-.27a3.45,3.45,0,0,0,1.93.5,3.68,3.68,0,0,1-2.48.44,6.49,6.49,0,0,1-3-1.19A3.84,3.84,0,0,1,53.42,44.79Z"/><path class="cls-7" d="M62.57,45.05a1.72,1.72,0,0,0,.44.52.58.58,0,0,1-.25,0,.73.73,0,0,1-.52-.34.71.71,0,0,1-.07-.62.5.5,0,0,1,.14-.22A1.5,1.5,0,0,0,62.57,45.05Z"/><path class="cls-7" d="M53.05,44.53l.3-.29.14-.16a.69.69,0,0,1-.16.73.67.67,0,0,1-.72.16l.15-.14Z"/></g></g></g></g></svg>