<svg xmlns="http://www.w3.org/2000/svg" viewBox="0 0 783.89 746.16"><defs><style>.cls-1{fill:#2f353f;}</style></defs><g id="Capa_2" data-name="Capa 2"><g id="Object"><path class="cls-1" d="M411.53,371.1c-7.77-8.1-13.16-18-17.13-28.25-1.08,13.08,6.89,27.85,16.56,36.63,5.07,4.6,12.56,8.84,18.88,6.58,3.86-1.38,6-5.11,6.12-9.49C429.78,385,418.45,378.3,411.53,371.1Z"/><path class="cls-1" d="M437.39,130.58c-51.71-27.84-101.24-30.85-139.48-8.47-45.62,26.71-71.42,76.11-72.45,134.83a317.49,317.49,0,0,0,2.42,44.59,373,373,0,0,1-43.59,51.23A94.88,94.88,0,0,0,165,361.32c-1.94,1.14-3.91,2.41-6.18,4L50.66,432.9C-.11,462.62-15.27,531.47,16.87,586.38s99.6,75.38,150.14,45.78l11.11-5.94L282.18,735.35c9.5,11.49,27.55,14.24,41.23,6.23l.35-.22,27.61-18.49a19.89,19.89,0,0,0,6.88-7.93,18.89,18.89,0,0,0,1.5-2.43c10.31-19.73,10.79-22.1,11-23.37a19.86,19.86,0,0,0-8.8-20.75L334.9,651a132.29,132.29,0,0,1-31.27-27.91L267.34,578.5l10.46-5.59a91.29,91.29,0,0,0,8.5-4.34,93.29,93.29,0,0,0,16.9-12.72c24.9-6.34,50.36-8.88,73.32-9.45a290.76,290.76,0,0,0,27,16.43c55.91,29.92,102.7,33,154.14,2.89,38.23-22.39,59.86-67.05,60.89-125.77,1-56.33-17.24-119.42-51.33-177.65S487,157.29,437.39,130.58ZM333.15,439.05l56.57-41.71-64.22,29,31.75-25.28-39.59,14.49-1.05-1.74,22.1-17.68-28,7.51c-.39-.7-.78-1.4-1.16-2.1l17.62-14.36-22.88,4.48-1.2-2.34L319,376.57l-20.52,3.21c-.4-.85-.78-1.69-1.17-2.54l15-12.06-19.06,3-1.05-2.46,82.91-32.32c-2.65,12.69.43,28.93,9.48,44.39a76.42,76.42,0,0,0,17.12,20.44l-67.49,42.32Zm101.76-44.94c-8.74,5.11-26.67-3.19-38.43-23.29S386.25,331,395,325.92s26.66,3.19,38.42,23.28S443.64,389,434.91,394.11ZM287.09,266c-4.74,7.07-9.56,14.11-14.74,20.89,7.32-17.17,16.24-33.71,25.2-50.12,11.78-21.55,24.55-42.71,38.26-63.15,4.74-7.07,9.56-14.11,14.74-20.89-7.31,17.18-16.23,33.71-25.19,50.12C313.59,224.42,300.78,245.56,287.09,266Zm-15.42-19.28c3.39-14.21,9.21-28,15.32-41.24s12.9-26.6,21.57-38.35c-3.38,14.22-9.21,28-15.33,41.24S280.32,235,271.67,246.73Zm130,263.54,42.92,2.36L385,493.89l99.3-1.71-113-15.77,87.61-13.61-81.49-3.27,67.27-55.25a6.77,6.77,0,0,0,1-1c13.43-11.67,13.64-37.3-.27-61.07a81.27,81.27,0,0,0-10.72-14.42l71.17-60.59L418,315.05a42.09,42.09,0,0,0-10.4-3.75l85.91-77q-6.81-9.08-14.12-17.73l-83.25,79.67,72.54-91.8A316.49,316.49,0,0,0,423.59,164l-.87-.61L346.41,253.1l67.88-95.38c-7.05-4.47-14.37-8.48-21.78-12.36C444.33,161,500.84,209,541,277.6c62.29,106.4,62.15,222.71-.31,259.28C502.89,559,450.74,546.9,401.66,510.27Zm-109,216.19-.37-.42L190.72,619.48l3.12-1.66,23,17.63-12.8-23.11,4.1-2.19,22.49,17.22L218.18,604.8l4.33-2.32,22,16.81-12.19-22,3.1-1.66,47.91,58.91a133,133,0,0,0,31.5,28.11l28.81,18.46a6.19,6.19,0,0,1,.11,10.35l-27.42,18.36C309.35,733.75,298.28,733.37,292.7,726.46ZM262.49,585.91c11.11,12.1,21.63,24.76,32.13,37.38,7.19,8.64,14.46,16.94,23,24.25,8.16,7,17.16,12.64,26,18.57,8.33,5.55,18.79,10.7,20,21.78-3.43-9.09-11.68-12.78-19.52-17.51-9.11-5.49-18.32-11-26.61-17.67-16.75-13.5-29.44-31.7-42.15-48.86C271,597.93,266.66,592,262.49,585.91Zm-175-82.31c-4.69-21.49-4.59-43.15,2.82-64.09A90.4,90.4,0,0,0,84.51,450c-9.05,19.37-11.23,39.88-9,61-4.69-21.5-4.6-43.16,2.82-64.1a89.74,89.74,0,0,0-5.83,10.45c-9.05,19.37-11.24,39.88-9,61-4.69-21.49-4.6-43.16,2.82-64.09a90.32,90.32,0,0,0-5.84,10.44c-9,19.37-11.23,39.88-9,60.95-4.7-21.49-4.6-43.16,2.82-64.09a90.32,90.32,0,0,0-5.84,10.44c-9,19.37-11.23,39.88-9,60.95-4.7-21.49-4.6-43.16,2.82-64.09a91.16,91.16,0,0,0-5.84,10.44c-9,19.38-11.23,39.89-8.95,60.95-4.7-21.5-4.6-43.18,2.82-64.12a101.63,101.63,0,0,1,6.24-14,85.8,85.8,0,0,1,21.06-17.35L143,391.38c-4.8,6-19.71,30.45-22.62,36.68-9,19.37-11.23,39.88-9,60.94-4.7-21.49-4.6-43.16,2.82-64.09a90.46,90.46,0,0,0-5.84,10.45c-9,19.37-11.23,39.88-9,60.94-4.7-21.49-4.6-43.16,2.82-64.09a90.46,90.46,0,0,0-5.84,10.45C87.43,462,85.25,482.54,87.52,503.6Zm232.23,10.15a131.15,131.15,0,0,0,14.2,8.81,125.6,125.6,0,0,1-27.34-10.07c-16.4-8.35-30.43-19.95-42.94-33.34,11.38,15.72,24.69,29.45,40.89,40.27A123.73,123.73,0,0,0,317.7,527a121,121,0,0,1-26.63-8.78c-16.48-7.67-30.59-18.87-43.1-31.93,11.49,15.45,25,28.84,41.51,38.95a121.6,121.6,0,0,0,12.14,6.52,112.83,112.83,0,0,1-23.81-6.7c-17.48-7.1-32.4-18.21-45.54-31.59C244,508.94,258,522.18,275.1,531.64c3.46,1.91,7,3.62,10.53,5.16a104.48,104.48,0,0,1-23.88-5.93c-17.33-6.61-32.12-17.16-45.18-30.18,12,15.36,26.39,28.47,43.94,37.25,2.95,1.48,5.92,2.8,8.92,4a98.54,98.54,0,0,1-23.18-5c-17.44-6.05-32.25-16.27-45.39-29.08,12.38,15.48,27.32,28.52,45.57,36.65,2.22,1,4.44,1.89,6.68,2.72a94.75,94.75,0,0,1-21.72-3.92c-17.8-5.42-32.89-15.5-46.23-28.27,12.29,15,27,27.5,45,35.16,2.23.95,4.48,1.81,6.73,2.59a88.22,88.22,0,0,1-21.28-3.31c-17.8-5-32.78-14.68-46.17-27.25,12.44,14.91,27,26.47,45,34a87.83,87.83,0,0,0,8.45,3c-29.37-3.3-57.28-21.37-74-49.91-21.51-36.75-18.43-82.25,6.64-111.51,30.52-19.76,56.12-46.72,76.15-72.62a349.77,349.77,0,0,0,41.39,108.1,368.21,368.21,0,0,0,63,80.17,126.16,126.16,0,0,1-14.54-6.94c-16.1-9-29.85-21-42.2-34.58C290.64,488,303.75,502.32,319.75,513.75Zm10.68-40A369.35,369.35,0,0,1,273.19,381c-17.28-40.06-27.37-84.78-24.71-128.55,2.48-40.64,17.13-83,52-106.87,2.66-1.82,5.48-3.37,8.26-5-14.28,10-26.12,22.13-34.61,37.46-9.93,17.94-15.19,38.25-17.25,58.56-4.31,42.57,4.4,85.8,19.5,125.53a372.06,372.06,0,0,0,51,91.85c25.8,34.1,58.08,64.8,96.18,84.74,35.27,18.44,76.81,27.78,114.91,12.38,2.82-1.14,5.54-2.55,8.29-3.87-16,9.37-32.88,14.79-51.5,15.49-20.89.78-41.54-3.75-60.91-11.33C393.83,535.51,358.42,506.74,330.43,473.74Zm276.21-87.33c2.75,16.15,4.51,32.52,4,48.93A208.49,208.49,0,0,1,605,477c5.21-26.61,5.28-53,1.18-79.81-4.49-29.34-13.58-58.12-25.41-85.31-24.28-55.76-60.9-107.43-107.93-146.24-23.29-19.22-49.27-33.75-78.18-42.44a206.78,206.78,0,0,1,71.11,34.21c24.39,17.95,45.42,39.36,64.3,63a387.28,387.28,0,0,1,48.7,79.39C591.51,327.42,601.52,356.39,606.64,386.41Z"/><path class="cls-1" d="M473.52,123.77c5-5.75,9.55-11.85,14-18,12.07-16.62,22.77-34.11,33.3-51.72-7.28.32-14.55.64-21.82,1.07C508.55,37.25,517.66,19,524.76,0c-6.3,7.6-12.13,15.6-17.77,23.7-9.92,14.24-19.05,29-28.19,43.7,7.1-.17,14.19-.37,21.28-.66-.91,1.68-1.85,3.34-2.75,5C488.41,88.53,479.81,105.82,473.52,123.77Z"/><path class="cls-1" d="M541.76,177.13c6.66-4,13-8.57,19.33-13.17,16.41-12,31.82-25.26,47.1-38.66-7-1.93-14-3.86-21.09-5.69,14.55-14.07,28.83-28.68,41.41-44.56-8.33,5.3-16.33,11.13-24.18,17.1-13.82,10.51-27,21.72-40.24,32.95,6.81,2,13.61,4,20.45,5.9-1.38,1.32-2.78,2.61-4.15,3.94C566.74,148.15,553.25,162,541.76,177.13Z"/><path class="cls-1" d="M658.21,211c18.19-8.9,36.28-18.4,53.14-29.62-9.56,2.48-19,5.55-28.28,8.81-16.38,5.74-32.4,12.32-48.44,18.93,5.85,4,11.7,8,17.6,11.9-7.82,3.77-15.57,7.68-23.23,11.79a321.05,321.05,0,0,0-31.66,18.91c7.58-1.8,15-4.12,22.45-6.56,19.32-6.37,38.06-14.22,56.73-22.25C670.43,218.88,664.35,214.88,658.21,211Z"/><path class="cls-1" d="M721.74,329.85c-4.94-5.35-9.87-10.71-14.88-16,19.79-4.25,39.64-9.09,58.71-15.9-9.87.09-19.74.8-29.57,1.71-17.28,1.61-34.42,4.13-51.58,6.66,4.71,5.3,9.42,10.59,14.21,15.81q-12.75,2.64-25.39,5.83a321.66,321.66,0,0,0-35.3,10.69c7.8.09,15.61-.36,23.38-.94C681.61,336.22,701.68,333.13,721.74,329.85Z"/><path class="cls-1" d="M783.89,419.34c-9.58-2.36-19.32-4.12-29.07-5.68-17.13-2.73-34.36-4.53-51.61-6.34,3.24,6.3,6.5,12.59,9.84,18.84-8.68-.4-17.36-.64-26-.66a321.41,321.41,0,0,0-36.85,1.61c7.53,2,15.21,3.52,22.88,4.88,20,3.57,40.24,5.56,60.49,7.36-3.46-6.41-6.91-12.82-10.46-19.18C743.3,421,763.73,421.21,783.89,419.34Z"/></g></g></svg>