<svg xmlns="http://www.w3.org/2000/svg" xmlns:xlink="http://www.w3.org/1999/xlink" viewBox="0 0 595.28 841.89"><defs><style>.cls-1{fill:none;}.cls-2{isolation:isolate;}.cls-3{clip-path:url(#clip-path);}.cls-4{fill:#80c9c6;}.cls-13,.cls-14,.cls-15,.cls-16,.cls-20,.cls-24,.cls-26,.cls-29,.cls-30,.cls-33,.cls-36,.cls-4,.cls-6,.cls-8{mix-blend-mode:multiply;}.cls-13,.cls-29,.cls-30,.cls-34,.cls-4,.cls-9{opacity:0.5;}.cls-10,.cls-5,.cls-6{fill:#0e3f69;}.cls-15,.cls-6{opacity:0.34;}.cls-23,.cls-24,.cls-7,.cls-8{fill:#feead1;}.cls-10,.cls-11,.cls-17,.cls-18,.cls-21,.cls-23,.cls-27,.cls-32,.cls-34,.cls-35,.cls-37,.cls-38,.cls-9{mix-blend-mode:screen;}.cls-11{opacity:0.6;}.cls-12,.cls-13,.cls-16,.cls-17,.cls-32,.cls-33,.cls-34{fill:#6fc5cf;}.cls-18,.cls-26,.cls-32{opacity:0.45;}.cls-19,.cls-20,.cls-21{fill:#7f3816;}.cls-20,.cls-33,.cls-37{opacity:0.25;}.cls-22{fill:#f7b18f;}.cls-24{opacity:0.62;}.cls-25,.cls-26,.cls-27,.cls-30,.cls-36{fill:#eb5e6f;}.cls-28,.cls-37,.cls-38{fill:#fff;}.cls-29{fill:#d2daf0;}.cls-31{fill:#132c46;}</style><clipPath id="clip-path"><rect class="cls-1" x="211.98" y="213.48" width="172.04" height="201.96"/></clipPath></defs><g class="cls-2"><g id="Capa_1" data-name="Capa 1"><g class="cls-3"><ellipse class="cls-4" cx="312.31" cy="612.09" rx="70.19" ry="15.43"/><path class="cls-5" d="M271.22,595.29v.45c0,2.29-.13,12.74,1.27,13.71,1.58,1.09,1.06-12.16,1.06-12.16"/><path class="cls-6" d="M271.22,595.29v.45c0,2.29-.13,12.74,1.27,13.71,1.58,1.09,1.06-12.16,1.06-12.16"/><path class="cls-7" d="M264.83,486.6l6.1,21.83s-14.41,11,.91,80.07c.53,2.4-.93,5.25-.61,7.68.69,5.35,4.2,12,8,15.77,1.8,1.78,11.33,5.92,9.3.53-3.35-8.86-5.64-11.21-8.16-17.45-1.87-4.65-1.22-7.17-.83-12.23.88-11.19,1.9-22.38,2.77-33.58,1-13,2.08-26.13,4.33-39,2.11-12,3-33.22-1.13-51.82S255.31,424.13,264.83,486.6Z"/><path class="cls-8" d="M283.67,601.81a2.91,2.91,0,0,1-2.26,2c-5.35.51-9.73-20.3-12.1-41.38s.64-43.66,6.79-48.48c4.11-3.22,7.73-.35,9.68,1.91q.42-2.8.9-5.58c2.11-12,3-33.22-1.13-51.82-1.65-7.39-6.76-14.31-11.72-16.07a60.16,60.16,0,0,0-9.8,8.17c-1.73,6.85-1.91,18.29.8,36.07l6.1,21.83s-14.41,11,.91,80.07c.53,2.4-.93,5.25-.61,7.68.69,5.35,4.2,12,8,15.77,1.8,1.78,11.33,5.92,9.3.53A83,83,0,0,0,283.67,601.81Z"/><path class="cls-5" d="M284.56,603.51c1.55,4.16-.1,5.48-2.87,4.43-7.23-2.75-9.59-18-9.59-18l-.16-.08c-.05,2.08-1,4.35-.71,6.34.69,5.35,4.2,12,8,15.77,1.8,1.78,11.33,5.92,9.3.53A78.87,78.87,0,0,0,284.56,603.51Z"/><path class="cls-7" d="M279.44,502.94a1,1,0,0,1-1,.94,1,1,0,0,1,.06-1.93A1,1,0,0,1,279.44,502.94Z"/><path class="cls-7" d="M282.54,506.8a1.72,1.72,0,1,1-1.66-1.77A1.72,1.72,0,0,1,282.54,506.8Z"/><g class="cls-9"><path class="cls-5" d="M286.46,612.56c0,.17-1.73,0-3.35-.61a14.67,14.67,0,0,1-3-1.65,14,14,0,0,1-2.3-2.57,6.68,6.68,0,0,1-1.37-3.11c.16-.07,1,1.38,2.06,2.57a17.21,17.21,0,0,0,2.39,2.13,16.65,16.65,0,0,0,2.63,1.83C284.9,611.94,286.49,612.39,286.46,612.56Z"/></g><path class="cls-6" d="M279.27,612c1.69,1.68,10.23,5.44,9.54,1.39-.65,2.26-4.28,1.18-7.82-1.36-5.26-3.78-8.83-14-8.56-14.64s2.65,3.43,3.4,4.74c.1.18.17.31.2.38v-.35a44.29,44.29,0,0,1-3.93-12.19l-.16-.08c-.05,2.08-1,4.35-.71,6.34C271.92,601.53,275.43,608.14,279.27,612Z"/><path class="cls-7" d="M341.49,591.29a17.44,17.44,0,0,1-.56-4.61l-8.8-.74c.48,2.16.85,3.68,1.05,4.32,0,0,.09,2.89.31,6.51.3,5.28.85,12.13,1.7,13.92,1.43,3,1.26-10.35,1.26-10.35s4.86,10.48,7.83,11.55,13.37.13,13.92-1.86S350,611.65,341.49,591.29Z"/><path class="cls-8" d="M348.48,603.39a3.34,3.34,0,0,1-1.78.33c-4.45-.19-8-7-10.92-17.47l-3.65-.31c.48,2.16.85,3.68,1.05,4.32,0,0,.09,2.89.31,6.51.08,1.47.19,3.05.31,4.62.9,1.19,1.79,2.31,2.62,3.32.05-2.31,0-4.37,0-4.37s3.48,7.5,6.35,10.46c1.05.42,2.52,1,4.21,1.51,4.21.2,10.76-.71,11.19-2.28S354.17,610.07,348.48,603.39Z"/><path class="cls-5" d="M350.91,605.85c.43,1.5-.73,1.68-5.09-.23-6.35-2.79-12.64-15.36-12.64-15.36s.09,2.89.31,6.51c.3,5.28.85,12.13,1.7,13.92,1.43,3,1.26-10.35,1.26-10.35s4.86,10.48,7.83,11.55,13.37.13,13.92-1.86C358.53,608.81,355.37,609.69,350.91,605.85Z"/><g class="cls-9"><path class="cls-5" d="M352.32,610.55a6.57,6.57,0,0,1-3.38-.3,14.54,14.54,0,0,1-3.17-1.36,14.33,14.33,0,0,1-2.53-2.35,6.68,6.68,0,0,1-1.65-3c.15-.09,1.09,1.28,2.29,2.36a26.18,26.18,0,0,0,5.35,3.49C350.71,610.08,352.34,610.38,352.32,610.55Z"/></g><path class="cls-6" d="M357.41,609.25c-.89,1.25-4.56,3.14-10.25,1.87-6.64-1.48-10.25-13.37-10.25-13.37,8.17,11.81,13.94,10.36,14.5,9.73.23-.26.16-.74,0-1.23l-.5-.4c.43,1.5-.73,1.68-5.09-.23-6.35-2.79-12.64-15.36-12.64-15.36s.09,2.89.31,6.51c.3,5.28.85,12.13,1.7,13.92,1.43,3,1.26-10.35,1.26-10.35s4.86,10.48,7.83,11.55,13.37.13,13.92-1.86C358.31,609.62,358,609.45,357.41,609.25Z"/><path class="cls-5" d="M274.17,395.29S260.34,414.57,258,438.86s7.62,66.22,7.62,66.22-12.86,36.2.47,89.07c0,0,15.51,8,23.68-.21,0,0-6.05-47.42.14-82.67a238.69,238.69,0,0,0,1.91-66.21s10,42.87,13.34,61.92c0,0-4.05,38.77,21.56,85.54,0,0,17,5.92,26.07-1.22,0,0-17.72-37.75-24.29-83.37,0,0,1-84.79-14.77-110.51C313.69,397.42,279.42,391.72,274.17,395.29Z"/><path class="cls-6" d="M274.17,395.29S260.34,414.57,258,438.86s7.62,66.22,7.62,66.22-12.86,36.2.47,89.07c0,0,15.51,8,23.68-.21,0,0-6.05-47.42.14-82.67a238.69,238.69,0,0,0,1.91-66.21s10,42.87,13.34,61.92c0,0-4.05,38.77,21.56,85.54,0,0,17,5.92,26.07-1.22,0,0-17.72-37.75-24.29-83.37,0,0,1-84.79-14.77-110.51C313.69,397.42,279.42,391.72,274.17,395.29Z"/><path class="cls-10" d="M265.07,501.67l-.66-3.2a8.2,8.2,0,0,1-.25-1.47,8,8,0,0,1,.49,1.41c.25.86.56,2,.86,3.17.58,2.31,1.07,4.64,1.07,4.64s.42,2.35.74,4.71c.16,1.19.3,2.37.38,3.26a7.23,7.23,0,0,1,.08,1.49,8.13,8.13,0,0,1-.32-1.46c-.16-.87-.37-2-.58-3.21-.43-2.34-.92-4.67-.92-4.67S265.55,504,265.07,501.67Zm.39,8.75a47.78,47.78,0,0,0,.31,4.92,39.2,39.2,0,0,0,0-9.84A47.78,47.78,0,0,0,265.46,510.42Zm44.29,7.48c-.66-2.09-1.33-4.17-1.33-4.17s-.74-2.06-1.49-4.11l-1.07-2.81a6.17,6.17,0,0,0-.55-1.25,7.1,7.1,0,0,0,.32,1.33l.88,2.88,1.32,4.16,1.5,4.1c.38,1,.77,2.05,1.06,2.81a6.44,6.44,0,0,0,.56,1.26,6.75,6.75,0,0,0-.33-1.33C310.39,520,310.07,518.94,309.75,517.9Zm-4.41-11c-.17,0,.91,5.49.91,5.49s1.36,5.39,1.53,5.35-.92-5.48-.92-5.48S305.51,506.85,305.34,506.88Zm23.12-.18a27.47,27.47,0,0,0-.3-4.25c-.09,0-.08,2.13-.15,4.24s-.19,4.23-.19,4.23-.06,2.12-.19,4.23-.33,4.23-.24,4.24a28.17,28.17,0,0,0,.68-4.2c.25-2.11.37-4.24.37-4.24S328.51,508.82,328.46,506.7ZM299.11,440a29.71,29.71,0,0,1-2.23,2.22,31.07,31.07,0,0,1-2.38,2.08c-1.24,1-2.59,1.81-2.55,1.89a12.54,12.54,0,0,0,2.81-1.53,18.3,18.3,0,0,0,4.69-4.37,12,12,0,0,0,1.73-2.7C301.11,437.51,300.18,438.8,299.11,440Zm-9.59-3.72a13.71,13.71,0,0,1,1.57,2.27,14.16,14.16,0,0,1,1.19,2.49c.47,1.31.61,2.71.7,2.71a7.12,7.12,0,0,0-.28-2.84,13,13,0,0,0-1.06-2.67,13.28,13.28,0,0,0-1.79-2.26,7.44,7.44,0,0,0-2.32-1.66C287.48,434.35,288.62,435.18,289.52,436.24Zm1.91,6a12,12,0,0,0-1.88-2.18,22.16,22.16,0,0,0-2.33-1.64,12.91,12.91,0,0,0-2.52-1.3,22.17,22.17,0,0,0,2.27,1.67,25.28,25.28,0,0,1,2.17,1.74,13.11,13.11,0,0,1,1.93,2,18.12,18.12,0,0,1,1.41,2.4A5.79,5.79,0,0,0,291.43,442.2Zm-18-32.08c-.25.41-.53.92-.84,1.51s-.66,1.24-1,2a64.26,64.26,0,0,0-4.17,11.25,83.31,83.31,0,0,0-2.26,11.8c-.2,1.62-.32,3-.4,3.94l-.11,1.49s-.14,2.19-.18,5.46.08,7.64.36,12,.7,8.7,1,11.95c.18,1.62.33,3,.44,3.92.06.47.1.85.13,1.1a2.77,2.77,0,0,0,.07.39,1.4,1.4,0,0,0,0-.4c0-.25-.05-.63-.08-1.1-.07-.95-.18-2.31-.32-3.94-.26-3.25-.61-7.59-.84-11.94s-.3-8.7-.22-12,.22-5.43.22-5.43,0-.54.1-1.49.18-2.3.36-3.92A86.42,86.42,0,0,1,267.87,425a68.43,68.43,0,0,1,4-11.26c.33-.75.66-1.42,1-2s.55-1.11.78-1.52l.52-1a1.73,1.73,0,0,0,.17-.36,1.84,1.84,0,0,0-.22.33Zm-3.8,89c-.44-3.58-.76-7.16-.76-7.16s-.4-3.58-.68-7.18c-.12-1.79-.25-3.59-.34-4.94a18.44,18.44,0,0,0-.19-2.25,2.45,2.45,0,0,0-.05.62c0,.4,0,1,0,1.64,0,1.35.06,3.16.14,5,.16,3.61.49,7.21.49,7.21s.4,3.59,1,7.16c.28,1.78.59,3.56.85,4.89.12.67.24,1.22.33,1.6s.14.61.17.6a21.1,21.1,0,0,0-.26-2.24C270.14,502.67,269.91,500.89,269.67,499.1Zm.56,87.61c-.17-1-.41-2.39-.69-4.08-.58-3.38-1.35-7.89-2-12.41s-1.18-9.06-1.44-12.47-.36-5.7-.36-5.7-.14-2.27-.16-5.69a104.83,104.83,0,0,1,.69-12.52,82.64,82.64,0,0,1,2.42-12.3c.23-.82.45-1.57.67-2.24s.38-1.24.55-1.71.28-.85.37-1.1a2.16,2.16,0,0,0,.11-.4,2.24,2.24,0,0,0-.17.38l-.43,1.08c-.19.46-.39,1-.61,1.7s-.48,1.4-.72,2.23a77.88,77.88,0,0,0-2.63,12.31,100,100,0,0,0-.82,12.57c0,3.43.1,5.72.1,5.72s.1,2.29.41,5.72.87,8,1.58,12.49,1.54,9,2.2,12.38c.33,1.68.61,3.08.81,4.07.1.48.18.87.24,1.13a2.14,2.14,0,0,0,.11.4,2.42,2.42,0,0,0,0-.41C270.37,587.59,270.31,587.21,270.23,586.71Z"/><path class="cls-6" d="M289.73,593.94s-.68-5.31-1.35-13.69c-1.94,3.41-4.71,5.8-8.68,5.25-11.86-1.63-13.08-47.84-8.58-59.29,3.61-9.19,13.28-3.62,16.95-1.07.43-4.74,1-9.4,1.8-13.87.91-5.17,1.59-10.23,2.09-15.13-4.89,9.6-17.21,14.6-24.31-17.95-8.77-40.25,10.44-75.12,10-76.7a16.22,16.22,0,0,0-3.07-6.43,2.4,2.4,0,0,0-.42.23S260.34,414.57,258,438.86s7.62,66.22,7.62,66.22-12.86,36.2.47,89.07C266.05,594.15,281.56,602.11,289.73,593.94Z"/><path class="cls-6" d="M346.46,576.07c-3,7.3-10.9,8.6-19.66-4.65-11.64-17.61-12.83-46.84-5.37-49.53,3.48-1.25,7.36,1.73,10.5,5.26-1.33-6.18-2.52-12.61-3.47-19.22,0,0,.12-11.14-.47-26.58-1.45,10.87-4.61,23.5-11.33,20-11.34-6-15.81-62.05-15.81-62.05-1.14.57-8.14,6.26-8.83,6.83,1.54,6.63,10.07,43.59,13.1,60.89,0,0-4.05,38.77,21.56,85.54,0,0,17,5.92,26.07-1.22C352.75,591.3,350.1,585.63,346.46,576.07Z"/><g class="cls-11"><path class="cls-5" d="M289.3,494.7a18.91,18.91,0,0,1,.3-3.16c.23-1.88.48-4.39.66-6.9.36-5,.25-10.06.25-10.06s.06-5-.36-10.06c-.22-2.51-.5-5-.75-6.9a18.5,18.5,0,0,1-.33-3.15,16.1,16.1,0,0,1,.81,3.07c.4,1.86.82,4.37,1.15,6.89.65,5,.73,10.14.73,10.14s0,5.1-.61,10.15c-.3,2.52-.69,5-1.07,6.9A15.81,15.81,0,0,1,289.3,494.7Z"/><path class="cls-5" d="M318.63,418.31a.34.34,0,1,1,.62-.19A1.25,1.25,0,0,1,318.63,418.31Z"/><path class="cls-5" d="M323.84,477.76a39.24,39.24,0,0,1-.16-4.47c0-2.68-.12-6.25-.26-9.81-.28-7.13-.91-14.24-.91-14.24s-.47-7.11-1.3-14.2c-.41-3.54-.88-7.08-1.26-9.74a36.81,36.81,0,0,1-.53-4.44,5.41,5.41,0,0,1,.34,1.19c.17.76.43,1.86.68,3.17.52,2.63,1.12,6.16,1.65,9.7,1.06,7.09,1.67,14.23,1.67,14.23s.5,7.15.55,14.31c0,3.58,0,7.16-.14,9.84,0,1.34-.12,2.45-.17,3.23A4.35,4.35,0,0,1,323.84,477.76Z"/><path class="cls-5" d="M325,487.17c-.35,0-.4-3.24-.4-3.24s.51-3.18.86-3.16.39,3.24.39,3.24S325.33,487.19,325,487.17Z"/><path class="cls-5" d="M284.86,570.69a20.46,20.46,0,0,1-.52-3.5c-.23-2.11-.47-4.93-.66-7.75-.37-5.65-.45-11.32-.45-11.32s0-5.66.37-11.31c.17-2.83.39-5.65.61-7.76a20.62,20.62,0,0,1,.49-3.51,21.74,21.74,0,0,1,0,3.54c-.05,2.12-.13,4.94-.2,7.76-.11,5.64,0,11.28,0,11.28s-.06,5.64.09,11.28c.09,2.82.19,5.64.26,7.76A21.86,21.86,0,0,1,284.86,570.69Z"/><path class="cls-5" d="M339.85,567.4a16.5,16.5,0,0,1-1.36-3c-.74-1.83-1.64-4.31-2.49-6.8-1.68-5-3-10.1-3-10.1s-1.22-5.13-2.08-10.33c-.42-2.6-.79-5.21-1-7.18a16.51,16.51,0,0,1-.21-3.28,19.73,19.73,0,0,1,.69,3.21c.36,1.94.86,4.51,1.39,7.08,1.08,5.13,2.43,10.2,2.43,10.2s1.19,5.1,2.65,10.13c.73,2.52,1.5,5,2.1,6.9A20.84,20.84,0,0,1,339.85,567.4Z"/></g><path class="cls-12" d="M359.47,362s-12.69,6-38.55-17.08-15.29-31.39-13.5-31.07,17.57,6.84,27.81,17.57S365.81,358.07,359.47,362Z"/><path class="cls-13" d="M359.47,362s-12.69,6-38.55-17.08-15.29-31.39-13.5-31.07,17.57,6.84,27.81,17.57S365.81,358.07,359.47,362Z"/><path class="cls-13" d="M359.47,362c5.71-3.51-10.2-16.78-20.91-27.23,1.9,6.41,3.9,16.46-3.44,13.49-10.55-4.26-19.53-30.53-19.53-30.53-.4-.33-.77-.64-1.14-.93a44.18,44.18,0,0,0-7-2.95c-1.79-.32-12.36,8,13.5,31.07S359.47,362,359.47,362Z"/><path class="cls-6" d="M317.25,398.83a28.51,28.51,0,0,0-3.22-4.05c-20-20.67-37.33-2-37.33-2a27.28,27.28,0,0,0-2.53,2.51l18.77,11.65,8-8,9.33,6Z"/><path class="cls-12" d="M323.38,350.2c-.56-6.77-3.88-13-6.37-19.2-1.9-4.71-4-13.32-8.22-16.61-3.94-3.07-26-.53-26-.53s-16.87,6.22-17.42,8.92,8.67,27.88,10.48,37.39,4.52,25.28,4.52,25.28l-7,7.33,19.33,12,8-8,9.33,6,8.67-7.58s-5.23-5-6.5-9.25c1-3.93,2.57-17.18,6.08-22.08C321.45,359.45,323.83,355.71,323.38,350.2Z"/><path class="cls-13" d="M278,395.64a14.48,14.48,0,0,1,2.23-3.73c3-3.63,9.32-1.45,11.32-.63-3.79-2.15-7.64-13.76-6.61-18.57,1.09-5.07,12.68-4.7,21.37-3.62a14,14,0,0,1,8.51,4c.89-3.67,2-7.16,3.48-9.2,3.17-4.42,5.55-8.16,5.1-13.67a28.15,28.15,0,0,0-.73-4.36c-.43,3.21-1.12,6.41-2.23,7.68-2.53,2.89-4.71.36-14.49,2.89s-16.3,1.45-23.18-6.88c-5.54-6.71-8.95-17.6-10.07-21.6-1.29,1-2.7,3.58-4.14,7.22,2.69,8.63,6.26,19.48,7.31,25,1.8,9.51,4.52,25.28,4.52,25.28l-7,7.33Z"/><path class="cls-7" d="M284,306.55s-1.11,11.33,3.35,13.33,9.48,2,11.16-2.67,0-11.33,0-11.33S284.51,303.88,284,306.55Z"/><path class="cls-8" d="M296.39,320.05c-7.19-1.09-11.61-9.35-9.22-8.16s9.47.26,12-.14a29.63,29.63,0,0,0-.73-5.87s-13.95-2-14.51.67c0,0-1.11,11.33,3.35,13.33C290.54,321.33,294.06,321.72,296.39,320.05Z"/><g class="cls-14"><g class="cls-15"><path class="cls-16" d="M308.81,361.25c-.12,1.89-.38,4.41-.77,6.91s-.9,5-1.34,6.83-.79,3.06-.79,3.06-.34,1.22-.94,3-1.49,4.17-2.24,6.57a30.23,30.23,0,0,0-1.41,6.74c-.06.93-.06,1.72,0,2.27a3.42,3.42,0,0,1,0,.87,5,5,0,0,1-.14-.86,16.67,16.67,0,0,1-.08-2.3,29,29,0,0,1,1.23-6.85c.7-2.43,1.55-4.81,2.11-6.62s.89-3,.89-3,.36-1.2.83-3,1-4.28,1.47-6.76c.71-4,1.53-8.23.69-12.31-.18-.85-.43-1.68-.69-2.5a63.66,63.66,0,0,0-2.18-7,225.62,225.62,0,0,1-9.59-25.55c.93,3,2.47,6,3.65,8.89q1.88,4.68,3.68,9.41c2.23,5.84,4.69,11.72,5.63,17.93A18.36,18.36,0,0,1,308.81,361.25Z"/></g><g class="cls-15"><path class="cls-12" d="M301,364.18a6.58,6.58,0,0,1-1.54.5,18,18,0,0,1-3.55.49,21.36,21.36,0,0,1-3.59-.23c-.48-.06-.88-.17-1.16-.22l-.45-.09-.43-.14c-.27-.09-.67-.18-1.13-.37a20.38,20.38,0,0,1-3.25-1.52,18.1,18.1,0,0,1-2.88-2.13,7.53,7.53,0,0,1-1.11-1.18,11.55,11.55,0,0,1,1.27,1,20.25,20.25,0,0,0,2.94,1.93,21.43,21.43,0,0,0,3.22,1.37c.45.16.84.24,1.11.32l.42.12.43.1c.27.06.65.18,1.12.25a19.55,19.55,0,0,0,7,.07A12.47,12.47,0,0,1,301,364.18Z"/></g><g class="cls-15"><path class="cls-12" d="M283.67,388.15a3.22,3.22,0,0,1-1.37-.91,8.2,8.2,0,0,1-1.08-1.28,8.37,8.37,0,0,1-.64-1.55,3.58,3.58,0,0,1-.18-1.64,13.57,13.57,0,0,1,.6,1.49,9.44,9.44,0,0,0,.76,1.37,10.14,10.14,0,0,0,.86,1.31A15.73,15.73,0,0,1,283.67,388.15Z"/></g><g class="cls-15"><path class="cls-12" d="M310,389.43c-.06-.06.57-.73,1-1.51a12.51,12.51,0,0,0,1.16-3.33c.15-.88.08-1.79.17-1.81a3.86,3.86,0,0,1,.28,1.85,5.66,5.66,0,0,1-1.24,3.53A3.76,3.76,0,0,1,310,389.43Z"/></g><g class="cls-15"><path class="cls-12" d="M320.75,360.67A4.92,4.92,0,0,1,319.5,362,13.64,13.64,0,0,1,318,363a16.43,16.43,0,0,1-1.65.71,4.89,4.89,0,0,1-1.75.39,9,9,0,0,1,1.57-.8c.78-.39,1.52-.85,1.52-.85s.77-.39,1.51-.86A11.26,11.26,0,0,1,320.75,360.67Z"/></g></g><path class="cls-13" d="M295.08,321.58s6.73,6.21,8,2.85a1.8,1.8,0,0,0,.06-.22,54.17,54.17,0,0,0-4-9.72,5.66,5.66,0,0,1-4.9,5c-4.47.63-8.14-2.38-9.6-5.62-.48,2.45-1.84,11.05,5.19,14.11C290.82,328.35,292.8,327.53,295.08,321.58Z"/><path class="cls-12" d="M283.91,310.86c-.11-.81-2.71,8.05,5.06,15.81,0,0,2.59,2.85,5.95-5.95,0,0,6.73,6.21,8,2.85s-3.75-11.82-3.75-11.82.38,6.06-5.06,6.84S284.43,314.74,283.91,310.86Z"/><path class="cls-17" d="M283.91,310.86c-.11-.81-2.71,8.05,5.06,15.81,0,0,2.59,2.85,5.95-5.95,0,0,6.73,6.21,8,2.85s-3.75-11.82-3.75-11.82.38,6.06-5.06,6.84S284.43,314.74,283.91,310.86Z"/><path class="cls-13" d="M302.94,322.44c-1.29,3.36-8-2.85-8-2.85-3.36,8.8-5.95,6-5.95,6a18,18,0,0,1-5.55-12.15A17.74,17.74,0,0,0,289,326.67s2.59,2.85,5.95-5.95c0,0,6.73,6.21,8,2.85a4.33,4.33,0,0,0,.18-1.88A2.94,2.94,0,0,1,302.94,322.44Z"/><g class="cls-18"><path class="cls-12" d="M320,345.2a8,8,0,0,1-.42-1.81,31,31,0,0,0-1.11-3.88c-.48-1.38-1-2.75-1.45-3.78l-.7-1.72s-3.87-11.23-3.54-11.35,4.72,10.91,4.72,10.91l.6,1.76c.35,1.05.83,2.47,1.22,3.92a24,24,0,0,1,.75,4.07A4.73,4.73,0,0,1,320,345.2Z"/><path class="cls-12" d="M320.24,350.7c-.35-.05-.4-1.71-.4-1.71s.49-1.59.84-1.55.4,1.72.4,1.72S320.58,350.75,320.24,350.7Z"/><path class="cls-12" d="M308.52,388.75c-.13-.11.84-1.52,1.54-3.06a43.65,43.65,0,0,0,2.08-6.35c.35-1.65.4-3.37.57-3.38s.44,1.72.31,3.5a18.58,18.58,0,0,1-.61,3.49,18.09,18.09,0,0,1-1.57,3.17C309.9,387.63,308.65,388.87,308.52,388.75Z"/><path class="cls-12" d="M310.74,399.5c-.21-.27,5.18-4.84,5.18-4.84l.13-.1h0s0,0,0,0,0,0,0-.06l-.34-.27a15.41,15.41,0,0,1-1.52-1.43,5.76,5.76,0,0,1-1.53-2.25,17.77,17.77,0,0,1,2.06,1.68c.54.42,1.11.83,1.61,1.15l.94.57.9.53-1.49,1.19S311,399.77,310.74,399.5Z"/></g><path class="cls-7" d="M256.22,267.17c-.5-14.12,5.33-37,35.06-37.24,29.89-.21,34.42,32.58,34.42,32.58s3.11,12.06,2.75,21.28-5.15,22.92-26.56,25.12-37.89-6.8-41.74-20a11,11,0,0,1-10.09-8.82C248.56,274.07,251.88,267.9,256.22,267.17Z"/><g class="cls-14"><path class="cls-7" d="M256.22,267.17A45.42,45.42,0,0,1,258,253a36.85,36.85,0,0,1,4.84-10.15c-4.28,7.21-5,18-4.8,24.59a18.82,18.82,0,0,1-1.88-.21Z"/><path class="cls-7" d="M252.32,269.58a12.55,12.55,0,0,0-.89,8.46,11,11,0,0,0,10.1,8.82c3.85,13.15,20.33,22.15,41.74,19.95,11.27-1.16,17.94-5.51,21.77-10.71-3.53,6.1-10.38,11.5-23.15,12.81-21.4,2.2-37.89-6.8-41.74-20a11,11,0,0,1-10.09-8.82A12.13,12.13,0,0,1,252.32,269.58Z"/></g><path class="cls-19" d="M312.88,274.67c-.05,2.83,1.19,5.13,2.77,5.13s2.91-2.28,3-5.11-1.19-5.13-2.77-5.13S312.93,271.84,312.88,274.67Z"/><path class="cls-20" d="M314.51,270.16a8.13,8.13,0,0,0-.34,2.22c-.05,2.83,1.19,5.13,2.77,5.14a2,2,0,0,0,1.33-.6c-.49,1.7-1.48,2.89-2.62,2.88-1.58,0-2.82-2.3-2.77-5.13A6.44,6.44,0,0,1,314.51,270.16Z"/><path class="cls-21" d="M318.06,273.8c.06,1-.29,1.8-.79,1.85s-1-.71-1-1.68.28-1.79.78-1.84S318,272.83,318.06,273.8Z"/><path class="cls-21" d="M316.1,271.21a.38.38,0,0,0,.36.4.4.4,0,0,0,.38-.39.37.37,0,1,0-.74,0Z"/><path class="cls-19" d="M279.18,277.11c.32,2.81,1.85,4.94,3.42,4.75s2.59-2.63,2.27-5.44-1.85-4.94-3.42-4.75S278.86,274.29,279.18,277.11Z"/><path class="cls-20" d="M280.12,272.53a8.37,8.37,0,0,0,0,1.87c.32,2.81,1.85,4.94,3.42,4.75a2.08,2.08,0,0,0,1.33-.87c-.2,2-1.07,3.43-2.28,3.58-1.57.19-3.1-1.94-3.42-4.75A6.63,6.63,0,0,1,280.12,272.53Z"/><path class="cls-21" d="M284,275.49c.19,1-.05,1.82-.54,1.93s-1-.58-1.23-1.54.05-1.81.54-1.92S283.78,274.54,284,275.49Z"/><path class="cls-21" d="M281.69,273.16a.37.37,0,0,0,.41.35.38.38,0,0,0,.32-.44.39.39,0,0,0-.41-.35A.4.4,0,0,0,281.69,273.16Z"/><path class="cls-22" d="M254.67,283.42a2,2,0,0,0,.87,1.75,1.54,1.54,0,0,0,.89.31,1.47,1.47,0,0,0,1.08-.51,2.53,2.53,0,0,0,.65-1.32,1.86,1.86,0,0,0-.46-1.62,5.48,5.48,0,0,0-.91-.6,1.38,1.38,0,0,1-.44-.54,1.9,1.9,0,0,1-.12-1.3.93.93,0,0,1,.65-.69.89.89,0,0,1,.27-.07.69.69,0,0,1,.28,0l.16,0s0,0,.08.07l.23.33c.33.5.6.62.92.64a.79.79,0,0,0,.55-.25,1.28,1.28,0,0,0,.32-.6,8,8,0,0,0,.16-1.84,11,11,0,0,0-.08-1.27,7,7,0,0,0-.66-2.36,4,4,0,0,0-1.24-1.52c-.91-.65-1.67-.45-1.66-.35s.65.22,1.31.94a5.35,5.35,0,0,1,1.22,3.5,10.29,10.29,0,0,1,0,1.11c0,.37,0,.27-.06.37s-.15,0-.13-.09v0l-.2-.16a1.9,1.9,0,0,0-.41-.23,1.86,1.86,0,0,0-.72-.12,1.73,1.73,0,0,0-.62.11,1.94,1.94,0,0,0-.59.33,2.87,2.87,0,0,0-1,1.72,3.64,3.64,0,0,0,.4,2.58,2.37,2.37,0,0,0,.91.92,7.43,7.43,0,0,1,.8.37.47.47,0,0,1,.19.46,1.46,1.46,0,0,1-.26.71.87.87,0,0,1-1.14.28C255.05,284.14,254.77,283.33,254.67,283.42Z"/><path class="cls-23" d="M253.33,272.13c-.62.63-1.33.82-1.59.42s0-1.24.65-1.86,1.33-.82,1.59-.42S254,271.5,253.33,272.13Z"/><path class="cls-23" d="M255.66,269.06a.7.7,0,0,1-.31.8.42.42,0,0,1-.66-.22.7.7,0,0,1,.3-.8A.44.44,0,0,1,255.66,269.06Z"/><path class="cls-24" d="M297,284.83s3.93,1,9-2.62c0,0,2.56,1.55-1.91,3.36C298.1,288,297,284.83,297,284.83Z"/><path class="cls-22" d="M299.58,286.05a15.81,15.81,0,0,0,1.88,0,11.11,11.11,0,0,0,3.83-1.37,2.37,2.37,0,0,0,1.21-1.35,1.13,1.13,0,0,0-.55-1.14,2.78,2.78,0,0,0-1.05-.44,3.09,3.09,0,0,0-.45-.07,5.13,5.13,0,0,0-1.06,0,5.75,5.75,0,0,0-1.26.23,5.12,5.12,0,0,0-.76.29,15.94,15.94,0,0,0-1.64,1.06c0-.65,0-1.36,0-2.1,0-.41,0-.84,0-1.27,0-.86,0-1.74,0-2.54a11.74,11.74,0,0,1,.22-2.84,11.43,11.43,0,0,1,.38,2.82c.07.8.14,1.68.2,2.55,0,.44.06.87.09,1.28,0,.12,0,.16.06.18a1.11,1.11,0,0,1,.16-.12,6.18,6.18,0,0,1,.89-.39,6.64,6.64,0,0,1,1.52-.34,5.06,5.06,0,0,1,1.9.1,4.22,4.22,0,0,1,1.46.72,2.63,2.63,0,0,1,.75.93,2.16,2.16,0,0,1,.11,1.38,3.24,3.24,0,0,1-1.79,1.87,10.36,10.36,0,0,1-4.23,1.09A2.9,2.9,0,0,1,299.58,286.05Z"/><path class="cls-23" d="M303.57,282.48c.12.28-.27.72-.88,1s-1.2.24-1.32,0,.27-.72.88-1S303.45,282.19,303.57,282.48Z"/><path class="cls-8" d="M289.43,286.55c.12,2.83-3.37,5.28-7.8,5.48s-8.12-1.94-8.25-4.76,3.37-5.28,7.8-5.48S289.3,283.72,289.43,286.55Zm28.19-8.19c-4.27,1-7.23,4-6.6,6.78s4.6,4.19,8.87,3.2,7.23-4,6.6-6.78S321.9,277.37,317.62,278.36Z"/><path class="cls-22" d="M291.51,288.36c.17.07,0,.79-.36,1.44a5.1,5.1,0,0,1-.95,1.17,5.43,5.43,0,0,1-1.4.57c-.73.18-1.47.09-1.48-.08s.62-.4,1.15-.75a6.57,6.57,0,0,0,1-.75,7.32,7.32,0,0,0,1-.71C291,288.84,291.35,288.3,291.51,288.36Z"/><path class="cls-22" d="M312.81,289.7c0,.17-.56.44-1.24.38a3.59,3.59,0,0,1-1.29-.37,3.46,3.46,0,0,1-.83-1c-.31-.6-.29-1.27-.12-1.29s.45.45.83.77a3.66,3.66,0,0,0,.82.53,3.75,3.75,0,0,0,.8.55C312.22,289.46,312.78,289.53,312.81,289.7Z"/><path class="cls-24" d="M309.25,290.59h0v-.53a.76.76,0,0,0,0-.15v-.16h0a13,13,0,0,0-3.3-.17,4.49,4.49,0,0,0-2.68,1.93c-1.54-1.19-4-.91-7.45-.22a7.26,7.26,0,0,1-5.71-1.19s-.32.86-.31.89h0l.05.13v0c.06.13.14.32.25.55v0c.17.35.41.81.69,1.34h0a23.87,23.87,0,0,0,1.93,3h0a19,19,0,0,0,1.57,1.83l.05,0c.18.19.38.37.57.55h0a8.44,8.44,0,0,0,5.51,2.42c7.59.08,8.65-7.07,8.77-10v0C309.24,290.81,309.24,290.7,309.25,290.59Z"/><path class="cls-25" d="M290.23,290.25s4,9.91,10.69,10c9.52.09,8.77-11.16,8.77-11.16S299.33,294.79,290.23,290.25Z"/><path class="cls-26" d="M309.69,289.06s-10.36,5.73-19.46,1.19a23.52,23.52,0,0,0,5.18,7.55c-.51-1.25-.79-2.88,1.25-3,3.31-.15,9.58-.29,9.58-.29s2.41-1.9,2.38.78A15.47,15.47,0,0,0,309.69,289.06Z"/><path class="cls-19" d="M292.23,291.29s3.87,5.72,8.83,5.76c7.11.05,7.3-7.06,7.3-7.06S299,294,292.23,291.29Z"/><path class="cls-27" d="M301.25,299c-.12.49-.94.7-1.84.48s-1.52-.8-1.4-1.28.95-.7,1.84-.48S301.37,298.53,301.25,299Z"/><path class="cls-28" d="M292.23,291.29a14.32,14.32,0,0,0,1,1.37,9.49,9.49,0,0,0,8.25,2.2c4.36-.95,5-3.93,5.21-4.85v0S298.32,294,292.23,291.29Z"/><path class="cls-29" d="M297.06,293.28c5.09.81,8.2-1,9-1.49a6.22,6.22,0,0,0,.56-1.42,1.16,1.16,0,0,0-.14-.27c-1.34.6-8.69,3.66-14.21,1.19a14.32,14.32,0,0,0,1,1.37,9.65,9.65,0,0,0,6,2.39C295.8,294.39,292.5,292.56,297.06,293.28Z"/><path class="cls-25" d="M290.23,290.25a11.6,11.6,0,0,0,6,.34c3.41-.68,5.92-1,7.45.23a4.49,4.49,0,0,1,2.68-1.93,12.92,12.92,0,0,1,3.3.17S301.67,297.31,290.23,290.25Z"/><path class="cls-30" d="M290.23,290.25a11.6,11.6,0,0,0,6,.34c3.41-.68,5.92-1,7.45.23a4.49,4.49,0,0,1,2.68-1.93,12.92,12.92,0,0,1,3.3.17S301.67,297.31,290.23,290.25Z"/><path class="cls-22" d="M303.15,301c.08,0-.08.59-.41,1.08a4.55,4.55,0,0,1-.78.89,4.6,4.6,0,0,1-1.07.5,1.78,1.78,0,0,1-1.15.1c0-.09.52-.24,1-.5a5.31,5.31,0,0,0,.86-.61,5.48,5.48,0,0,0,.82-.66C302.78,301.47,303.07,301,303.15,301Z"/><path class="cls-19" d="M279.64,277.84c0,.09-.5.13-1,0a2.18,2.18,0,0,1-1.49-1.3c-.22-.46-.24-1-.16-1s.26.41.54.75a3.5,3.5,0,0,0,.62.59,3.3,3.3,0,0,0,.67.53C279.2,277.64,279.64,277.75,279.64,277.84Z"/><path class="cls-19" d="M280.4,279.17c0,.08-.48.3-1,.39a3.7,3.7,0,0,1-1.13,0,2.69,2.69,0,0,1-1-.53c-.47-.37-.67-.93-.58-1s.38.38.83.59a2.68,2.68,0,0,0,.91.29,4,4,0,0,0,1,.15C279.85,279.14,280.38,279.08,280.4,279.17Z"/><path class="cls-19" d="M320.6,273.85c.09,0,.11.48-.12.9a1.65,1.65,0,0,1-1.54.94c-.49,0-.9-.22-.86-.3s.44,0,.79-.14a2.18,2.18,0,0,0,.65-.33,2.21,2.21,0,0,0,.6-.43C320.38,274.23,320.52,273.85,320.6,273.85Z"/><path class="cls-19" d="M321.14,276.29c.08,0-.11.56-.54.91a2.49,2.49,0,0,1-1,.51,2.4,2.4,0,0,1-1.11-.16c-.52-.2-.87-.63-.81-.69s.48.21.93.27a2.2,2.2,0,0,0,.88,0,2.14,2.14,0,0,0,.85-.25C320.76,276.64,321.07,276.25,321.14,276.29Z"/><path class="cls-31" d="M283.8,263c-.08.16-.83,0-1.54.06a8.67,8.67,0,0,0-2.69.69c-.66.28-1.23.79-1.38.69s.22-.87.9-1.43a3.71,3.71,0,0,1,3.24-.83C283.19,262.33,283.88,262.84,283.8,263Z"/><path class="cls-31" d="M311.54,260.39c.1.14.81-.15,1.52-.19a8.87,8.87,0,0,1,2.77.25c.7.16,1.34.57,1.47.46s-.35-.83-1.11-1.28a3.73,3.73,0,0,0-3.33-.29C312,259.64,311.43,260.26,311.54,260.39Z"/><path class="cls-7" d="M291.87,398.24a5.62,5.62,0,0,0-3.94-2.53,2.16,2.16,0,0,0,.38-1c.14-2.39-3.37-5.05-3.84-2.72a10.57,10.57,0,0,1-1.75,3.58,27.69,27.69,0,0,0-4.15.73s-7.6,2.31-5.62,8.08,9.08,3.11,9.86,3.52-.87,2.9-1.12,4.13,3.45,2.74,6.83-.71,2.82-6.05,2.82-6.05,1.15,2.79,2.45,2S294.63,403.08,291.87,398.24Z"/><path class="cls-22" d="M287.58,406.44a7.35,7.35,0,0,1-.3,2.19,12,12,0,0,1-.73,2.1,8.42,8.42,0,0,1-1.31,1.81,2.37,2.37,0,0,1-1.37.77,1,1,0,0,1-.7-.09s.29,0,.66-.11a2.36,2.36,0,0,0,1.13-.82,9,9,0,0,0,1.12-1.8,14.38,14.38,0,0,0,.84-2C287.27,407.5,287.51,406.43,287.58,406.44Zm3.71-2.11a12.34,12.34,0,0,0-.31-2,10.81,10.81,0,0,0-.77-1.89,4,4,0,0,0-.87-1.12c-.3-.25-.55-.34-.56-.31s.18.18.42.46a4.84,4.84,0,0,1,.68,1.14,13.14,13.14,0,0,1,.59,1.86,14.46,14.46,0,0,1,.45,1.91c.17,1,.19,2,.26,2A5.53,5.53,0,0,0,291.29,404.33Zm-1.89.6a16.24,16.24,0,0,1,0,2.13,9.66,9.66,0,0,1-.24,2.08,17.36,17.36,0,0,1-.72,2,4.35,4.35,0,0,0,1.08-1.9,8.81,8.81,0,0,0,.41-2.16,14.31,14.31,0,0,0-.15-2.18,9.21,9.21,0,0,0-.49-2.12A17.56,17.56,0,0,0,289.4,404.93Zm-.68-9.15a2.52,2.52,0,0,0-1-.35c-.38-.05-.75-.06-1-.07h-.46a18.92,18.92,0,0,0-2.9.32,20.35,20.35,0,0,0,2.91.21l.45,0c.28,0,.64-.05,1,0a2.54,2.54,0,0,1,.93.16c.24.09.38.21.41.18S289,396,288.72,395.78Z"/><path class="cls-8" d="M293.79,404.7c-.74,1.09-3.9-4.32-4-4.61s1.93,5.34,1.2,5.9-1.68-3.21-1.68-3.21,0,5.88-.89,5.88-.65-5.53-.65-5.53c-.14,1.13-1.46,8.11-3,7.62s.13-5,.13-5-2.06,1-5.95-1.64c-3.08-2.08-.53-6.3.78-8.08-.68.15-1.1.26-1.1.26a12.14,12.14,0,0,0-3.22,1.63,23.1,23.1,0,0,0-2.7,4,5.4,5.4,0,0,0,.3,2.41c2,5.78,9.08,3.11,9.86,3.52s-.87,2.9-1.12,4.13,3.45,2.74,6.83-.71,2.82-6.05,2.82-6.05,1.15,2.79,2.45,2c.81-.48.93-2,.21-4.32A3.4,3.4,0,0,1,293.79,404.7Z"/><path class="cls-8" d="M286.38,391.4a5.62,5.62,0,0,1,.15.62c.63,3.31-2.37,3.61-3.23,3.63a28.73,28.73,0,0,1,3.41.2c.73.11,2.21.44,3.57.77a7.24,7.24,0,0,0-2.35-.91,2.16,2.16,0,0,0,.38-1A4,4,0,0,0,286.38,391.4Z"/><path class="cls-22" d="M283.3,395.65h0Z"/><path class="cls-12" d="M265.37,322.78s-26.67,32.67-30,50,36,35.33,36,35.33,8-4.66,8-13.33c0,0-28-14.67-25.34-22s18.67-30.67,18.67-30.67S280,330.78,265.37,322.78Z"/><g class="cls-14"><path class="cls-12" d="M272.74,329.78a13.2,13.2,0,0,1,.68,3.63,17.35,17.35,0,0,1-.91,7.33,13.18,13.18,0,0,1-1.55,3.35c-.08,0,.67-1.71,1.12-3.48a25.66,25.66,0,0,0,.65-3.56,26,26,0,0,0,.25-3.62C273,331.61,272.65,329.8,272.74,329.78Z"/><path class="cls-12" d="M275.34,335.42a5.93,5.93,0,0,1,0,2.4,8.24,8.24,0,0,1-1.93,4.4,5.74,5.74,0,0,1-1.8,1.6c-.06-.07.8-.89,1.44-1.86a12.53,12.53,0,0,0,1.08-2,12.32,12.32,0,0,0,.77-2.17C275.23,336.61,275.25,335.42,275.34,335.42Z"/><path class="cls-12" d="M244,373.75a5.12,5.12,0,0,1,2.32-1.45,8.48,8.48,0,0,1,2.75-.42,8.57,8.57,0,0,1,2.7.68,5.23,5.23,0,0,1,2.18,1.66,17,17,0,0,0-2.34-1.25,8.74,8.74,0,0,0-1.75-.4c-.49-.06-.82-.07-.82-.07s-.32,0-.81,0a8.34,8.34,0,0,0-1.78.24A15.12,15.12,0,0,0,244,373.75Z"/><path class="cls-12" d="M247.77,376.88a5,5,0,0,1,1.18-1.45,5.78,5.78,0,0,1,1.06-.8,3.58,3.58,0,0,1,.55-.28,3.68,3.68,0,0,1,.61-.13,3.23,3.23,0,0,1,1.36.09,2.44,2.44,0,0,1,1.16.68c.25.28.32.52.28.53s-.18-.16-.45-.35a2.41,2.41,0,0,0-1.08-.43,3.18,3.18,0,0,0-1.17,0,4,4,0,0,0-.5.16,4.11,4.11,0,0,0-.5.2,5.84,5.84,0,0,0-1,.63A13.08,13.08,0,0,1,247.77,376.88Z"/><path class="cls-12" d="M272.27,326.39a15.87,15.87,0,0,1-1-1.52,13.4,13.4,0,0,0-1.1-1.39,12,12,0,0,0-1.19-1.3c-.64-.62-1.39-1.12-1.35-1.2a4.36,4.36,0,0,1,1.63.86,6.84,6.84,0,0,1,2.39,2.8A4.48,4.48,0,0,1,272.27,326.39Z"/></g><path class="cls-13" d="M265.06,404.91c3.75,2,6.31,3.2,6.31,3.2s8-4.66,8-13.33c0,0-28-14.67-25.34-22s18.67-30.67,18.67-30.67,5.31-11.9-2.61-19.36c.75,3.56,1.31,12.38-.95,17.33-3.8,8.31-18.27,30.85-22.54,28.24-2.82-1.72-2.13-11.1-1.33-17.27-4.73,7.75-8.74,15.67-9.9,21.73-1,5.23,1.87,10.52,6.39,15.36.14-4.43,1.15-9,4.6-9.61,6.88-1.19,24.44,14.47,27.29,18C275.62,399,270.23,403,265.06,404.91Z"/><path class="cls-32" d="M247.45,353.45m13.1-21.29c-2.33,3-4.53,6-4.53,6s-2.08,3.14-4,6.37-3.75,6.52-3.6,6.61,2.22-3.05,4.35-6.13,4.31-6.13,4.31-6.13,2.07-3.13,4.21-6.21,4.34-6.13,4.2-6.24A48.71,48.71,0,0,0,260.55,332.16Zm9-6.05a4,4,0,0,0-.35-1.05,3.73,3.73,0,0,0-.87-.7c-.48-.28-1-.37-1.09-.21s.27.5.51.88a5.19,5.19,0,0,1,.42.74,5.61,5.61,0,0,1,.55.66c.26.35.47.79.64.78S269.62,326.66,269.53,326.11Zm-11.59,72.42-4.5-3.41-4.64-3.21c-1.16-.81-2.34-1.57-3.11-2.25s-1.15-1.28-1.23-1.24.16.74.88,1.58a24.64,24.64,0,0,0,2.93,2.62c2.18,1.8,4.44,3.51,4.44,3.51s2.33,1.61,4.72,3.13,4.82,3,4.92,2.82A37.74,37.74,0,0,0,257.94,398.53Z"/><path class="cls-8" d="M299.22,314.35a3.67,3.67,0,0,1,.29-1.51c.06-.14.14-.24.2-.37l.21-.81a6.47,6.47,0,0,1,2.77-3.23,12.86,12.86,0,0,1,.21-9.18c-6.13-.51-10.94.35-11.09,2.06-.16,1.86,7.4,1.22,7.4,1.22s-5.93,7.51-3.2,10.85a3,3,0,0,0,3.21,1Z"/><path class="cls-7" d="M320.74,307.34c-.5-.8-8.62-8.23-15.47-9s-12.45.06-12.62,1.92,7.4,1.21,7.4,1.21-5.93,7.52-3.19,10.86,8.33-2.1,8.33-2.1,4.94,5.48,11.81,3.84C317,314,322.9,310.83,320.74,307.34Z"/><path class="cls-22" d="M302.56,302.5c.05.07-1.09,1-2,2.09a15.48,15.48,0,0,0-1.66,2.34s-.19.3-.46.76a13.64,13.64,0,0,0-.84,1.78c-.54,1.33-.73,2.78-.82,2.77a7.57,7.57,0,0,1,.4-2.92,15.14,15.14,0,0,1,.74-1.9c.26-.5.44-.82.44-.82a15,15,0,0,1,1.87-2.31A8.47,8.47,0,0,1,302.56,302.5Z"/><path class="cls-22" d="M304.36,306.47a14,14,0,0,1-1.58,1.62c-.8.79-1.57,1.61-1.57,1.61s-.82.76-1.61,1.56a14.62,14.62,0,0,1-1.64,1.57,9.26,9.26,0,0,1,1.31-1.87c.72-.88,1.5-1.71,1.5-1.71s.83-.78,1.72-1.49A8.31,8.31,0,0,1,304.36,306.47Z"/><path class="cls-22" d="M303.77,300.05c0,.08-.47.09-.89.2a25.84,25.84,0,0,0-1.6.59c-.38.19-.73.48-.8.43s.18-.47.55-.79a3.54,3.54,0,0,1,.83-.53,3.48,3.48,0,0,1,1-.14C303.32,299.81,303.78,300,303.77,300.05Z"/><path class="cls-8" d="M320.47,307a6.59,6.59,0,0,1-.47,2.57c-2.4,6-13.71-1.21-13.71-1.21s-6.14,6-9.15,2.17a3.31,3.31,0,0,1-.63-2.65c-.5,1.64-.58,3.26.35,4.39,2.73,3.35,8.33-2.1,8.33-2.1s4.94,5.48,11.81,3.84c0,0,5.9-3.21,3.74-6.7A3.5,3.5,0,0,0,320.47,307Z"/><path class="cls-8" d="M300.05,301.44a26.81,26.81,0,0,0-2.17,3.32,23.76,23.76,0,0,1,4.07-4.43,42.63,42.63,0,0,1-6.73-.12c-1.38-.13-2-.43-2.12-.75a1.22,1.22,0,0,0-.45.77C292.49,302.08,300.05,301.44,300.05,301.44Z"/><path class="cls-12" d="M321.07,305a33.52,33.52,0,0,0-7.57,11.77s16,13.37,20.39,18.71c5.88,7.16,16.61,27.33,26.07,26.28S368.58,342.87,321.07,305Z"/><g class="cls-14"><path class="cls-12" d="M353.33,360a7.18,7.18,0,0,1-1.27-.88c-.73-.56-1.67-1.36-2.58-2.2a34.76,34.76,0,0,1-6.32-7.57c-.66-1.05-1.28-2.12-1.7-2.94a6.6,6.6,0,0,1-.64-1.41,9.93,9.93,0,0,1,.85,1.29c.48.78,1.15,1.81,1.85,2.81,1.41,2,3,3.86,3,3.86s1.53,1.9,3.26,3.65c.86.86,1.75,1.71,2.43,2.33A9.86,9.86,0,0,1,353.33,360Z"/></g><g class="cls-14"><path class="cls-12" d="M350.1,359.08a15,15,0,0,1-2.64-2.3,20.77,20.77,0,0,1-4-5.73,14,14,0,0,1-1.27-3.26c.08,0,.78,1.56,1.66,3a33.77,33.77,0,0,0,1.89,2.89s1,1.43,2.07,2.75S350.16,359,350.1,359.08Z"/></g><path class="cls-33" d="M361.85,353.66c-2.11,5.29-9.07-3-15.42-9.83s-21.33-21-25.71-26.77c-3.16-4.14-1.85-8.58-.87-10.75a34.26,34.26,0,0,0-6.35,10.49s16,13.37,20.39,18.71c5.88,7.16,16.61,27.33,26.07,26.28,4.82-.53,7-5.43,1.64-15.1C362.29,349.28,362.58,351.84,361.85,353.66Z"/><path class="cls-34" d="M350.21,335.54a15.85,15.85,0,0,1-2.25-2.09l-4.76-4.73c-3.47-3.43-7-6.78-7-6.78s-3.45-3.44-7-6.81l-4.88-4.61a16,16,0,0,1-2.15-2.19,16.19,16.19,0,0,1,2.47,1.82c1.43,1.15,3.3,2.72,5.15,4.32,3.7,3.21,7.26,6.58,7.26,6.58s3.47,3.45,6.79,7.05c1.66,1.8,3.29,3.63,4.48,5A15.75,15.75,0,0,1,350.21,335.54Zm6.31,5.56a16,16,0,0,0-1.11-1.74,16.34,16.34,0,0,0-1.55-1.36c-.83-.62-1.73-1.09-1.83-1s.59.86,1.22,1.61,1.21,1.53,1.21,1.53.68.68,1.33,1.42,1.25,1.53,1.4,1.45S357,342,356.52,341.1Z"/><path class="cls-8" d="M322.87,257.71c-3-9.58-11.15-26-31.61-25.86-28.69.21-34.32,23.12-33.84,37.23-4.19.74-7.39,6.9-6,13,2.08,8.74,9.75,8.83,9.75,8.83,1.64,5.8,5.66,10.8,11.41,14.38a46.07,46.07,0,0,1-2.84-6.51c-4-11.32-6.64-28.68.93-39a15.74,15.74,0,0,1,2-2.29,47.3,47.3,0,0,1,4.67-3.55c2.69-1.94,3.7-5.21,6.68-6.95,5.32-3.09,12.55-.84,15.94,4.23C305.94,259.94,321.6,257.89,322.87,257.71Z"/><path class="cls-31" d="M271.83,256.08a16.25,16.25,0,0,0-2.05,2.28c-7.56,10.36-4.87,27.71-.92,39,1.72,5,4.46,10.41,8.44,13.87,0,0-23.62-3.92-30.29-12.89s-6.32-48,2.7-59,15.69-8,15.69-8,7.21-12.52,28.31-11.21,30.3,18.87,33.91,26,8.74,33.06,6.13,50.82c-.81,5.51-12.27,11-12.27,11S333,286.8,322,256.34c0,0-16.78,2.62-22.91-6.54-3.39-5.06-10.61-7.31-15.93-4.22-3,1.73-4,5-6.69,6.94A47.37,47.37,0,0,0,271.83,256.08Z"/><path class="cls-6" d="M280.77,232.48l1-.85A12.07,12.07,0,0,0,280.77,232.48Z"/><path class="cls-6" d="M258.13,234.92c.53,2.2-3.71,7.69-3.71,7.69s7.16-5.22,9.81-4.67-2.12,8.23-2.12,8.23,7.15-6.31,10.33-2.74c2.23,2.5.69,8.88-.43,12.5a51.3,51.3,0,0,1,4.49-3.41c2.7-1.94,3.71-5.21,6.69-6.94l.32-.17c-1.79-.34-2.9-1.14-1.79-2.8a17,17,0,0,1,6.88-6s-11.92,4.39-11.12,1.09a11.89,11.89,0,0,1,3.29-5.18c-1.87,1.65-5.93,4.94-6.74,3.26-1.06-2.19,1.86-6.86,1.86-6.86s-7.69,4.12-8.22,1.1a4.83,4.83,0,0,1,.08-1.57,16.51,16.51,0,0,0-2.35,2.9S260.19,229,252.76,236C254.77,234.9,257.78,233.47,258.13,234.92Z"/><g class="cls-35"><path class="cls-5" d="M265.07,257.76a17.4,17.4,0,0,1,1.95-3c1.07-1.46,2.27-2.81,2.27-2.81s1.23-1.31,2.58-2.49c.33-.3.67-.59,1-.86a4,4,0,0,1,1-.66,1,1,0,0,1,.84-.06c.19.11.23.25.21.25s-.09-.08-.25-.13a1,1,0,0,0-.7.16,4.53,4.53,0,0,0-.84.71l-.92.92c-1.26,1.25-2.43,2.59-2.43,2.59s-1.23,1.29-2.37,2.66S265.14,257.81,265.07,257.76Z"/><path class="cls-5" d="M259.69,273.42a2.64,2.64,0,0,1-.08-.64,16.57,16.57,0,0,1-.09-1.68,33.53,33.53,0,0,1,.32-5.12,37,37,0,0,1,1.11-5c.18-.68.4-1.22.52-1.61l.21-.6.25-.59c.17-.37.37-.92.69-1.54a37.08,37.08,0,0,1,2.51-4.43,32.41,32.41,0,0,1,3.17-3.94,15.23,15.23,0,0,1,1.18-1.16c.29-.27.46-.42.48-.4s-.6.69-1.49,1.72a38.11,38.11,0,0,0-3,4,37.32,37.32,0,0,0-2.37,4.43c-.3.61-.48,1.16-.64,1.52s-.24.59-.24.59l-.21.59c-.13.38-.36.9-.55,1.57a36.44,36.44,0,0,0-1.22,4.9,39.4,39.4,0,0,0-.51,5C259.71,272.49,259.74,273.42,259.69,273.42Z"/><path class="cls-5" d="M280.21,227.44a25.83,25.83,0,0,0-2.78,1.37,12.83,12.83,0,0,0-2.36,2,13,13,0,0,0-1.91,2.45,29.57,29.57,0,0,0-1.32,2.88,8,8,0,0,1,1-3.1,12.39,12.39,0,0,1,1.85-2.67,12.08,12.08,0,0,1,2.58-1.93A7.31,7.31,0,0,1,280.21,227.44Z"/><path class="cls-5" d="M277.06,235c.05.07-.31.46-.65.86s-.63.82-.63.82-.36.36-.7.76-.66.82-.73.78.12-.55.38-1a8.09,8.09,0,0,1,.59-.93,10.54,10.54,0,0,1,.8-.73C276.55,235.16,277,234.89,277.06,235Z"/><path class="cls-5" d="M294.4,237.41c0,.05-.52-.16-1.3-.35a11.47,11.47,0,0,0-2.9-.29,14.15,14.15,0,0,0-4.15.78s-.51.15-1.26.44a25.69,25.69,0,0,0-2.68,1.23c-1.9,1-3.73,2.22-3.78,2.14a6.42,6.42,0,0,1,1.07-.87c.66-.48,1.57-1.1,2.51-1.66a23,23,0,0,1,2.68-1.38c.76-.33,1.28-.5,1.28-.5s.52-.17,1.33-.34a13.93,13.93,0,0,1,3-.29,10.28,10.28,0,0,1,3,.51A3.85,3.85,0,0,1,294.4,237.41Z"/><path class="cls-5" d="M313.71,252.85a3.24,3.24,0,0,1-1.35.27,7.76,7.76,0,0,1-3-.52,11.44,11.44,0,0,1-2.69-1.49c-.67-.49-1.09-.86-1.09-.86s-.42-.38-1-1-1.35-1.41-2.1-2.22l-2.06-2.24a6.56,6.56,0,0,1-.89-1.08,6.47,6.47,0,0,1,1.05.91l2.2,2.1,2.18,2.11c.6.56,1,.91,1,.91s.4.37,1,.88a11.58,11.58,0,0,0,2.52,1.53,8,8,0,0,0,2.83.69C313.17,252.92,313.7,252.8,313.71,252.85Z"/><path class="cls-5" d="M317.7,251.37c-.06.06-1.54-1.45-3.1-2.87s-3.17-2.76-3.17-2.76-1.56-1.4-3.2-2.72-3.34-2.56-3.29-2.63a5.38,5.38,0,0,1,1.15.64c.67.43,1.54,1,2.39,1.64,1.72,1.23,3.34,2.59,3.34,2.59s1.59,1.4,3.07,2.92c.75.76,1.47,1.54,2,2.14A5.77,5.77,0,0,1,317.7,251.37Z"/><path class="cls-5" d="M321,254.6c-.08,0-.87-1.72-1.83-3.35s-2.06-3.17-2.06-3.17-1.05-1.58-2.26-3-2.55-2.77-2.5-2.84a16.46,16.46,0,0,1,2.82,2.55,32.91,32.91,0,0,1,2.43,3,35.16,35.16,0,0,1,2,3.32A17.49,17.49,0,0,1,321,254.6Z"/><path class="cls-5" d="M323.82,251.32a13.87,13.87,0,0,1-.85-1.68c-.49-1-1.16-2.36-1.89-3.67s-1.52-2.58-2.16-3.49-1.1-1.5-1.1-1.5a26.26,26.26,0,0,0-4-4.3,21,21,0,0,0-3.33-2.27c-1-.52-1.66-.79-1.64-.84a1.42,1.42,0,0,1,.49.12c.31.11.75.27,1.25.5a18.59,18.59,0,0,1,3.49,2.14,24.3,24.3,0,0,1,3,2.82c.76.84,1.22,1.45,1.22,1.45s.46.6,1.08,1.55a35.47,35.47,0,0,1,2.08,3.6c.69,1.35,1.3,2.74,1.73,3.79A10.53,10.53,0,0,1,323.82,251.32Z"/><path class="cls-5" d="M329.29,252.71a3.34,3.34,0,0,1-1.11,2A6.26,6.26,0,0,1,326.3,256a9.93,9.93,0,0,1-2.17.51,7.76,7.76,0,0,1-2.2.06,14.46,14.46,0,0,1,2.12-.5,11.43,11.43,0,0,0,2-.65,6.4,6.4,0,0,0,1.82-1A7.56,7.56,0,0,0,329.29,252.71Z"/><path class="cls-5" d="M323.89,244.72a11,11,0,0,1,1.69,2.31,26.27,26.27,0,0,1,1.34,2.57,26,26,0,0,1,.88,2.77,11.13,11.13,0,0,1,.47,2.86c-.09,0-.41-1.38-.87-2.73s-1-2.65-1-2.65-.51-1.33-1.15-2.6S323.82,244.77,323.89,244.72Z"/><path class="cls-5" d="M258.51,288.22a4.34,4.34,0,0,1-.33-.73c-.18-.47-.49-1.13-.76-2a51.78,51.78,0,0,1-1.7-6.18,53.79,53.79,0,0,1-.85-6.38c-.09-.87-.08-1.61-.11-2.12s0-.8,0-.8,0-.3,0-.81,0-1.24.08-2.12a54.68,54.68,0,0,1,.78-6.38,50.23,50.23,0,0,1,1.63-6.2c.25-.84.55-1.5.73-2a4.43,4.43,0,0,1,.32-.73,4.31,4.31,0,0,1-.21.78c-.14.48-.4,1.16-.62,2a50.74,50.74,0,0,0-2.07,12.54c-.06.87,0,1.59,0,2.1V270s0,.29,0,.8,0,1.23.06,2.1a50.63,50.63,0,0,0,2.23,12.51c.23.84.5,1.51.64,2A3.8,3.8,0,0,1,258.51,288.22Z"/><path class="cls-5" d="M252,247.2a12.21,12.21,0,0,1,1.11-3.39,20.52,20.52,0,0,1,1.79-3.1,20.91,20.91,0,0,1,2.4-2.61,11.84,11.84,0,0,1,2.87-2c.05.08-1.37,1.09-2.58,2.34a29.21,29.21,0,0,0-4.1,5.58C252.66,245.55,252.09,247.23,252,247.2Z"/><path class="cls-5" d="M247.35,286.77a4,4,0,0,1-.21-.77c-.11-.5-.3-1.21-.44-2.07a63,63,0,0,1-.83-6.37c-.17-2.33-.23-4.67-.18-6.42,0-.88.07-1.61.08-2.12s0-.81,0-.81,0-.29.08-.8.1-1.24.22-2.11c.21-1.74.61-4,1.11-6.32s1.17-4.52,1.74-6.17c.27-.83.55-1.5.73-2a4,4,0,0,1,.32-.73,4.36,4.36,0,0,1-.21.77c-.13.49-.38,1.17-.61,2-.51,1.66-1.08,3.91-1.56,6.18s-.79,4.57-1,6.3c-.11.87-.14,1.59-.19,2.1l-.07.79,0,.8c0,.5-.1,1.22-.11,2.09-.08,1.74-.07,4.06,0,6.38s.39,4.63.64,6.36c.11.86.26,1.58.33,2.08A4.91,4.91,0,0,1,247.35,286.77Z"/><path class="cls-5" d="M260.33,303.26a2.46,2.46,0,0,1-.42-.43,14.87,14.87,0,0,1-1-1.21,29.24,29.24,0,0,1-2.63-4.06,39.21,39.21,0,0,1-2-4.44c-.45-1.24-.73-2.09-.73-2.09s-.25-.85-.58-2.14-.69-3-1-4.77-.52-3.51-.65-4.83c-.08-.66-.11-1.21-.14-1.6a2.58,2.58,0,0,1,0-.61,17.42,17.42,0,0,1,.39,2.18c.21,1.3.5,3,.84,4.77s.76,3.44,1.12,4.71.62,2.1.62,2.1.25.84.68,2.08a42.89,42.89,0,0,0,1.84,4.43,34.55,34.55,0,0,0,2.44,4.12C259.82,302.54,260.37,303.22,260.33,303.26Z"/><path class="cls-5" d="M331.73,271.13c-.09,0-.32-1.69-.64-3.37s-.71-3.33-.71-3.33-.33-1.67-.74-3.32-.89-3.29-.81-3.32a18.4,18.4,0,0,1,1.22,3.19c.52,1.64.92,3.31.92,3.31s.33,1.69.54,3.4A18.89,18.89,0,0,1,331.73,271.13Z"/><path class="cls-5" d="M328.52,298.2s.4-.63.83-1.65a17.73,17.73,0,0,0,1.06-3.91c.46-2.94.65-5.92.65-5.92s.29-3,.32-6c0-1.49,0-3,0-4.11a13.7,13.7,0,0,1,0-1.87,11,11,0,0,1,.26,1.86c.1,1.12.2,2.61.23,4.12.08,3-.15,6-.15,6s-.26,3-.83,6a15.92,15.92,0,0,1-1.27,3.93,7.74,7.74,0,0,1-.7,1.16C328.67,298.07,328.54,298.21,328.52,298.2Z"/><path class="cls-5" d="M259.26,241.86a6.18,6.18,0,0,1,1.57-2.09,10.58,10.58,0,0,1,2.14-1.5,10,10,0,0,1,2.48-.74,5.84,5.84,0,0,1,2.56.09c0,.09-1.27,0-2.48.35a10.94,10.94,0,0,0-2.31.86,11.26,11.26,0,0,0-2.12,1.28C260.11,240.88,259.33,241.91,259.26,241.86Z"/><path class="cls-5" d="M263.8,243.78a6.63,6.63,0,0,1,1-1.73,13.15,13.15,0,0,1,1.31-1.54,7.39,7.39,0,0,1,1.69-1.11,3.38,3.38,0,0,1,2-.4,18.29,18.29,0,0,0-1.75.79,8.64,8.64,0,0,0-1.49,1.19,17.94,17.94,0,0,0-1.39,1.36A11.38,11.38,0,0,1,263.8,243.78Z"/></g><path class="cls-6" d="M251.14,277.08a5.32,5.32,0,0,0,.29,1.53C251.36,277.52,251.22,276.86,251.14,277.08Z"/><path class="cls-6" d="M268.86,297.4c-2.87-8.22-5.07-19.62-3.16-29.22-4.59,12.57,3.3,32.43-2.07,31.77-5-.62-10.83-16.29-12.2-21.34.24,3.4-.06,11-4.12,9.74-3.63-1.14-4.38-13.75-4.7-21.66-.75,13.24.79,26.85,4.4,31.69,6.67,9,30.29,12.89,30.29,12.89C273.32,307.81,270.58,302.35,268.86,297.4Z"/><path class="cls-6" d="M333.75,296.89c.2-1.4.36-2.85.47-4.33-1.44,2.49-3.37,4.92-5.7,5.64-5.26,1.63-.09-5-.33-11.29S324,260.34,328,260.1c1.69-.1,3.38,2.48,4.76,5.47-1.41-8.78-3.42-16.19-5.1-19.5-.79-1.55-1.84-3.59-3.21-5.84,1,3.93,2,9.23.29,10.7-2.8,2.41-11-7.73-11.66-8.21s7.69,8.69,4.66,10.62-17.12-8.69-17.12-8.69,5.47,6,4.77,7.24c-.44.76-4.18-1.33-6.9-3,.24.29.46.6.67.91,6.13,9.16,22.91,6.54,22.91,6.54,11,30.46-.55,51.57-.55,51.57S332.94,302.4,333.75,296.89Z"/><g class="cls-9"><path class="cls-5" d="M248.76,244c-3.61,4.65-5,11.45-4.93,17.34,0,.2.31.26.36.05.69-2.9,1.3-5.84,2.18-8.67s2.1-5.54,2.84-8.45c.07-.25-.27-.5-.45-.27Z"/></g><g class="cls-9"><path class="cls-5" d="M243.83,264.87a9.83,9.83,0,0,0-.22,3.2c0,.3.48.3.45,0a10.39,10.39,0,0,1,.12-3.1c0-.23-.29-.34-.35-.1Z"/></g><g class="cls-9"><path class="cls-5" d="M252.57,250.39c-4.43,4.83-6.08,14.92-4.93,21.3.16.93,1.4.76,1.66,0,1.18-3.57,1.56-7.43,2.26-11.12.62-3.29,1.79-6.54,1.63-9.92a.36.36,0,0,0-.62-.26Z"/></g><g class="cls-9"><path class="cls-5" d="M252.34,268.07c-.36,3.86-.6,8.65.55,12.39.09.29.56.26.53-.08-.16-2.07-.78-4-.9-6.12a49.19,49.19,0,0,1,.09-6.19c0-.18-.25-.17-.27,0Z"/></g><g class="cls-9"><path class="cls-5" d="M263.29,248.17c-3.51,4.4-6.91,10.51-5.53,16.43a.54.54,0,0,0,1.05,0c2-5.28,2.35-11.05,4.62-16.31,0-.09-.07-.21-.14-.12Z"/></g><g class="cls-9"><path class="cls-5" d="M264.09,260.43A29.5,29.5,0,0,0,262,281.66c.07.24.47.2.45-.07a62,62,0,0,1,2.29-20.87c.11-.4-.48-.68-.66-.29Z"/></g><g class="cls-9"><path class="cls-5" d="M278.11,225.73c4-1.67,8-2,12.23-2.79.64-.12.43-1.06-.14-1.11-4.21-.34-8.6,1.47-12.26,3.48-.22.12-.07.52.17.42Z"/></g><g class="cls-9"><path class="cls-5" d="M282.47,229c3.35.09,6.51-.68,9.93-.91,4.08-.28,8.15,0,12.23.1a.62.62,0,0,0,.42-1c-4.93-5.16-12.39-4.57-18.55-2.36-1.16.41-4.72,1.35-4.52,3.27,0,.28,0,.92.49.94Z"/></g><g class="cls-9"><path class="cls-5" d="M307.22,229.61a4.88,4.88,0,0,0,.68.54c.29.16.6.28.89.44a5.81,5.81,0,0,0,1.71.8.75.75,0,0,0,.82-1.1,3,3,0,0,0-1.57-1.4,3.7,3.7,0,0,0-2.05-.48c-.5.06-1,.79-.48,1.2Z"/></g><g class="cls-9"><path class="cls-5" d="M288.73,240.67c1.72.81,3.61.93,5.34,1.81a29.45,29.45,0,0,1,5.19,3.65.32.32,0,0,0,.49-.4c-1.87-3.3-7.18-6.67-11-5.32-.1,0-.15.21,0,.26Z"/></g><g class="cls-9"><path class="cls-5" d="M295.36,239.8c1.95,1.39,3.89,2.68,5.93,3.9,1.87,1.12,4.08,1.78,5.85,3.05.72.51,1.77-.53,1.24-1.29-1.41-2-2.65-3.77-4.82-5a37.16,37.16,0,0,0-7.32-2.82c-1.29-.4-1.89,1.42-.88,2.14Z"/></g><g class="cls-9"><path class="cls-5" d="M286,231.88c4.46,1.14,9.06,1.42,13.46,2.84s8.41,3.92,12.87,5.22c.84.25,1.28-.79.79-1.41-5.66-7.09-19-9.91-27.12-6.74,0,0-.05.08,0,.09Z"/></g><g class="cls-9"><path class="cls-5" d="M315,240.69c.54.49,1.08,1,1.63,1.46a.23.23,0,0,0,.32-.33l-1.57-1.52c-.25-.25-.64.16-.38.39Z"/></g><path class="cls-25" d="M264.25,269.53c.06.67.1,1.33.14,2l3.14,1.67c.07,0,1.39.73,1.38.74l.85-1.81Z"/><path class="cls-36" d="M264.32,270.55c0,.33.05.65.07,1l1.19.63,1.6.85.07,0,.28.15c.07,0,1.39.73,1.38.74l.12-.25,0-.06c.09-.19.2-.45.32-.69Z"/><path class="cls-25" d="M296,272.28l-.86-1.52c.21-.08,5-1.95,9.26-.61l-.71,1.57C300.3,270.63,296.08,272.26,296,272.28Z"/><path class="cls-36" d="M296,272.28s4.26-1.65,7.69-.56l.32-.69a15.74,15.74,0,0,0-8.37.6Z"/><path class="cls-37" d="M269.2,272.44s13.52-8,26.27-.84c0,0,1.69,16.07-12,16.49S269.2,272.44,269.2,272.44Z"/><g class="cls-18"><path class="cls-38" d="M288.33,269l-7.71,18.87a14.6,14.6,0,0,0,2.87.18c.39,0,.77,0,1.14-.07l7.68-17.88A23.46,23.46,0,0,0,288.33,269Z"/><path class="cls-38" d="M278.82,269.1,273,283.37a12.27,12.27,0,0,0,3,2.77l7.51-17.5A29.41,29.41,0,0,0,278.82,269.1Z"/></g><path class="cls-25" d="M283,288.94c-13.89,0-14.67-16.3-14.68-16.47l0-.47.44-.26c.14-.08,14.16-8.17,27.25-.85l.39.22,0,.41c0,.36.86,8.79-4,13.82a12.36,12.36,0,0,1-8.87,3.59Zm-12.81-16c.22,2.64,1.87,14.74,13.31,14.36a10.52,10.52,0,0,0,7.55-3c3.77-3.9,3.67-10.45,3.57-12.15C283.87,266.39,272.53,271.66,270.15,272.9Z"/><path class="cls-36" d="M291.6,284.8c4.47-4.64,3.71-12.41,3.68-12.74l0-.38-.36-.2c-12.06-6.75-25,.7-25.11.78l-.4.24,0,.43c0,.16.73,15.18,13.52,15.18h.52A11.42,11.42,0,0,0,291.6,284.8Zm-21.45-11.9c2.38-1.24,13.72-6.51,24.43-.81.1,1.7.2,8.25-3.57,12.15a10.52,10.52,0,0,1-7.55,3C272,287.64,270.37,275.54,270.15,272.9Z"/><path class="cls-37" d="M304.19,270.9s12.68-8.88,26.1-2.66c0,0,3.28,15.9-10.31,17.26S304.19,270.9,304.19,270.9Z"/><g class="cls-18"><path class="cls-38" d="M322.92,266.18l-5.81,19.34a14.54,14.54,0,0,0,2.87,0c.4,0,.77-.09,1.14-.15L327,267A23.49,23.49,0,0,0,322.92,266.18Z"/><path class="cls-38" d="M313.45,266.9l-4.39,14.62a12.54,12.54,0,0,0,3.22,2.56l5.75-18A28.56,28.56,0,0,0,313.45,266.9Z"/></g><path class="cls-25" d="M319.54,286.38c-13.83,1-16.24-15.23-16.26-15.39l-.06-.47.4-.29c.14-.09,13.3-9.12,27.07-2.74l.41.19.09.41c.07.36,1.73,8.71-2.61,14.06a11.92,11.92,0,0,1-8.48,4.18Zm-14.36-15.09c.49,2.62,3.33,14.56,14.69,13.38a10.18,10.18,0,0,0,7.23-3.53c3.37-4.15,2.62-10.66,2.35-12.35C318.21,263.85,307.43,269.89,305.18,271.29Z"/><path class="cls-36" d="M327.74,281.66c4-4.93,2.47-12.63,2.4-13l-.07-.38-.38-.17c-12.69-5.89-24.82,2.43-24.94,2.52l-.38.26.06.43c0,.16,2.23,15.08,15,14.19l.52,0A11.07,11.07,0,0,0,327.74,281.66Zm-22.56-10.37c2.25-1.4,13-7.44,24.27-2.5.27,1.69,1,8.2-2.35,12.35a10.18,10.18,0,0,1-7.23,3.53C308.51,285.85,305.67,273.91,305.18,271.29Z"/></g></g></g></svg>