<?xml version="1.0" standalone="no"?><svg xmlns="http://www.w3.org/2000/svg" viewBox="0 0 1440 320"><path fill="#000" fill-opacity="1" d="M0,256L34.3,218.7C68.6,181,137,107,206,96C274.3,85,343,139,411,144C480,149,549,107,617,122.7C685.7,139,754,213,823,250.7C891.4,288,960,288,1029,272C1097.1,256,1166,224,1234,218.7C1302.9,213,1371,235,1406,245.3L1440,256L1440,0L1405.7,0C1371.4,0,1303,0,1234,0C1165.7,0,1097,0,1029,0C960,0,891,0,823,0C754.3,0,686,0,617,0C548.6,0,480,0,411,0C342.9,0,274,0,206,0C137.1,0,69,0,34,0L0,0Z"></path></svg>